<svg xmlns="http://www.w3.org/2000/svg" width="46.43" height="99" viewBox="0 0 46.43 99">
  <path id="c3" d="M31.852,11.034C27.679,6.1,24.085,1.1,23.351.058a.187.187,0,0,0-.271,0c-.734,1.04-4.328,6.047-8.5,10.976-35.822,45.485,5.642,76.181,5.642,76.181l.348.231C20.878,92.183,21.651,99,21.651,99h3.091s.773-6.778,1.082-11.554l.348-.269C26.21,87.176,67.674,56.519,31.852,11.034ZM23.2,86.521a17.082,17.082,0,0,1-2.357-2.388v-.077L23.08,34.528a.116.116,0,0,1,.232,0l2.241,49.529v.077A17.084,17.084,0,0,1,23.2,86.521Z" fill="#00684a"/>
</svg>
