<svg xmlns="http://www.w3.org/2000/svg" xmlns:xlink="http://www.w3.org/1999/xlink" width="92.511" height="119.556" viewBox="0 0 92.511 119.556">
  <defs>
    <linearGradient id="linear-gradient" x1="0.491" y1="1.195" x2="0.502" y2="0.309" gradientUnits="objectBoundingBox">
      <stop offset="0.056" stop-color="#92a3b0"/>
      <stop offset="1" stop-color="#fff"/>
    </linearGradient>
  </defs>
  <g id="Grupo_132682" data-name="Grupo 132682" transform="translate(-151.721 -113.16)">
    <g id="Grupo_132681" data-name="Grupo 132681" transform="translate(151.721 113.16)">
      <path id="Trazado_193728" data-name="Trazado 193728" d="M151.721,188.646,197.665,215.4l46.567-26.79-45.993-26.784Z" transform="translate(-151.721 -95.845)" opacity="0.486" fill="url(#linear-gradient)" style="mix-blend-mode: multiply;isolation: isolate"/>
      <path id="Trazado_193729" data-name="Trazado 193729" d="M185.589,209.406l46.593-26.788v-49.7l-46.593,26.79Z" transform="translate(-139.671 -106.132)" fill="#72b5e8"/>
      <path id="Trazado_193730" data-name="Trazado 193730" d="M189.59,160.384l35.746-20.554v37.192L189.59,197.572Z" transform="translate(-138.248 -103.672)" fill="#084a93"/>
      <path id="Trazado_193731" data-name="Trazado 193731" d="M223.661,140.731v35.344l-34.071,19.65v1.847l35.746-20.551V139.829Z" transform="translate(-138.248 -103.672)" fill="#00b2ca"/>
      <path id="Trazado_193732" data-name="Trazado 193732" d="M151.721,182.609,197.665,209.4V159.7l-45.943-26.755Z" transform="translate(-151.721 -106.122)" fill="#dae4ef"/>
      <path id="Trazado_193733" data-name="Trazado 193733" d="M155.722,177.019V139.9l35.1,20.44v37.143Z" transform="translate(-150.298 -103.647)" fill="#084a93"/>
      <path id="Trazado_193734" data-name="Trazado 193734" d="M157.247,176.341V140.787l-1.525-.888v37.12l35.1,20.463v-1.567Z" transform="translate(-150.298 -103.647)" fill="#00b2ca"/>
      <path id="Trazado_193735" data-name="Trazado 193735" d="M151.721,139.979l45.944,26.755,46.567-26.79L198.239,113.16Z" transform="translate(-151.721 -113.16)" fill="#b9ddfc"/>
      <path id="Trazado_193736" data-name="Trazado 193736" d="M159.7,138.358l35.688-20.574,35.18,20.487-35.725,20.553Z" transform="translate(-148.882 -111.515)" fill="#084a93"/>
      <path id="Trazado_193737" data-name="Trazado 193737" d="M195.388,119.817l33.424,19.464,1.757-1.011-35.18-20.487L159.7,138.358l1.755,1.022Z" transform="translate(-148.882 -111.515)" fill="#00b2ca"/>
      <path id="Trazado_193738" data-name="Trazado 193738" d="M151.721,132.95l45.944,26.755,46.567-26.79-46.415,25.019Z" transform="translate(-151.721 -106.132)" fill="#fff"/>
    </g>
    <path id="Trazado_193739" data-name="Trazado 193739" d="M183.279,161.79a36.75,36.75,0,0,1-11.172-10.427l-.045-.024c-3.273.735-7.179-.129-11.173-2.476l-.152-.089.214,2.876c.759,10.11,4.7,18.41,11.055,28.236l.155.089c6.351-2.493,10.3-6.237,11.055-15.471l.216-2.626Zm-5.492,3.022c-.389,4.73-2.411,6.647-5.663,7.925l-.079-.046c-3.253-5.033-5.274-9.283-5.662-14.461l-.111-1.474.079.046a8.054,8.054,0,0,0,5.723,1.268l.023.012a18.808,18.808,0,0,0,5.721,5.34l.079.045Z" transform="translate(3.208 12.671)" fill="#ffb30b"/>
    <path id="Trazado_193740" data-name="Trazado 193740" d="M212.065,157.3l-.165.095v-4.726c0-3.029-2.139-4.249-4.778-2.725l-3.3,1.9a10.527,10.527,0,0,0-4.779,8.242v4.728l-.164.095a4.9,4.9,0,0,0-2.225,3.837v11.722c0,1.41,1,1.978,2.225,1.269l13.182-7.611a4.9,4.9,0,0,0,2.223-3.837V158.566C214.289,157.156,213.294,156.588,212.065,157.3ZM206.3,170.434V173.2l-1.649.952v-2.766c-.656.023-1.112-.479-1.112-1.367a4.264,4.264,0,0,1,1.936-3.339c1.07-.617,1.936-.123,1.936,1.1A4.263,4.263,0,0,1,206.3,170.434Zm2.831-11.443-7.31,4.222v-3.783a5.993,5.993,0,0,1,2.718-4.69l1.874-1.081c1.5-.868,2.718-.174,2.718,1.55Z" transform="translate(15.988 12.852)" fill="#ffb30b"/>
    <path id="Trazado_193741" data-name="Trazado 193741" d="M202.472,136.558a4.271,4.271,0,0,0-.009-1.749l3.7-1.307-.121-.262a8.2,8.2,0,0,0-1.731-2.405l-.239-.236-4.231.579a10.612,10.612,0,0,0-2.15-1.242l1-2.442-.407-.138a24.775,24.775,0,0,0-4.168-1l-.454-.069-2.264,2.137a21.924,21.924,0,0,0-3.029,0l-2.287-2.146-.454.068a24.489,24.489,0,0,0-4.154.986l-.405.136,1.028,2.447a12.384,12.384,0,0,0-1.142.573,10.506,10.506,0,0,0-1,.659l-4.237-.594-.236.235a8.07,8.07,0,0,0-1.707,2.4l-.117.262,3.715,1.321a4.271,4.271,0,0,0,.009,1.749l-3.7,1.307.121.262a8.216,8.216,0,0,0,1.733,2.407l.237.235,4.231-.579a10.46,10.46,0,0,0,2.149,1.242l-1,2.442.408.138a24.664,24.664,0,0,0,4.166,1l.456.069,2.263-2.137a22.142,22.142,0,0,0,3.029.005l2.287,2.145.453-.068a24.325,24.325,0,0,0,4.157-.986l.405-.136-1.029-2.446a12.076,12.076,0,0,0,1.143-.575,9.915,9.915,0,0,0,.994-.659l4.238.594.236-.235a8.057,8.057,0,0,0,1.706-2.4l.117-.262ZM193.8,137.9a8.545,8.545,0,0,1-7.717-.014c-2.134-1.232-2.145-3.231-.024-4.456a8.541,8.541,0,0,1,7.717.015C195.907,134.673,195.918,136.672,193.8,137.9Z" transform="translate(7.808 4.665)" fill="#ffb30b"/>
  </g>
</svg>
