<svg xmlns="http://www.w3.org/2000/svg" width="386.299" height="390.704" viewBox="0 0 386.299 390.704">
  <g id="Grupo_132679" data-name="Grupo 132679" transform="translate(-159.75 -98.594)">
    <g id="Grupo_132635" data-name="Grupo 132635" transform="translate(229.895 98.594)">
      <g id="Grupo_132634" data-name="Grupo 132634">
        <path id="Trazado_193520" data-name="Trazado 193520" d="M375.573,377.894l-163.5-94.4c-6.456-3.728-5.648-10.238,1.807-14.543l92.789-53.57c7.455-4.305,18.733-4.772,25.19-1.044l163.5,94.4c6.456,3.728,5.648,10.238-1.808,14.542L400.763,376.85C393.308,381.156,382.03,381.622,375.573,377.894Z" transform="translate(-207.716 -46.238)" fill="#92b4d1" opacity="0.2"/>
        <path id="Trazado_193521" data-name="Trazado 193521" d="M375.573,373.6l-163.5-94.4c-2.878-1.661-4.313-3.874-4.358-6.2,0-.075,0-8.026,0-8.1.051-2.825,2.139,2.081,6.165-.243l92.789-53.572c7.455-4.305,18.733-4.772,25.19-1.044l163.5,94.4c2.156,1.245,3.719-4.038,4.277-2.359.187.56.069,7.97.08,8.551.061,2.894-2.028,5.962-6.165,8.35L400.763,372.56C393.308,376.866,382.03,377.332,375.573,373.6Z" transform="translate(-207.716 -48.222)" fill="#2672ab"/>
        <path id="Trazado_193522" data-name="Trazado 193522" d="M375.573,368.168l-163.5-94.394c-6.456-3.729-5.648-10.24,1.807-14.543l92.789-53.572c7.455-4.3,18.733-4.772,25.19-1.044l163.5,94.4c6.456,3.728,5.648,10.238-1.808,14.543l-92.789,53.57C393.308,371.429,382.03,371.9,375.573,368.168Z" transform="translate(-207.716 -50.735)" fill="#d1ebff"/>
        <path id="Trazado_193523" data-name="Trazado 193523" d="M322.5,323.939c6.456,3.729,17.734,3.261,25.19-1.044v-7.95c-7.455,4.305-18.733,4.773-25.19,1.046Z" transform="translate(-154.642 1.444)" fill="#3f92d1" opacity="0.5"/>
        <path id="Trazado_193524" data-name="Trazado 193524" d="M375.573,347.656l-163.5-94.4c-3.122-1.8-4.529-4.257-4.324-6.8a3.256,3.256,0,0,0-.034.446c0,.075,0,8.026,0,8.1.047,2.325,1.48,4.538,4.358,6.2l163.5,94.4Z" transform="translate(-207.716 -30.221)" fill="#3f92d1"/>
        <path id="Trazado_193525" data-name="Trazado 193525" d="M493.551,291.776l-92.789,53.572c-7.455,4.305-18.733,4.772-25.19,1.044L212.075,252c-2.679-1.546-4.089-3.573-4.31-5.721-.335,2.637,1.073,5.2,4.31,7.072l163.5,94.394c6.456,3.729,17.734,3.261,25.19-1.044l92.789-53.57c4.362-2.52,6.43-5.791,6.117-8.821C499.335,286.932,497.27,289.629,493.551,291.776Z" transform="translate(-207.716 -30.308)" fill="#fff"/>
        <path id="Trazado_193526" data-name="Trazado 193526" d="M315.7,308.753l-58.188-33.594c-1.166-.674-1.019-1.849.326-2.625l21.847-12.613a5.052,5.052,0,0,1,4.545-.189l58.188,33.6c1.166.673,1.019,1.847-.326,2.624l-21.847,12.613A5.047,5.047,0,0,1,315.7,308.753Z" transform="translate(-185.057 -24.296)" fill="#fff" opacity="0.3"/>
        <path id="Trazado_193527" data-name="Trazado 193527" d="M257.83,273.913,279.677,261.3a5.052,5.052,0,0,1,4.545-.189l58.188,33.6a1.761,1.761,0,0,1,.538.472,1.217,1.217,0,0,0-.538-1.851l-58.188-33.6a5.052,5.052,0,0,0-4.545.189L257.83,272.534c-1.07.617-1.367,1.484-.863,2.153A2.54,2.54,0,0,1,257.83,273.913Z" transform="translate(-185.053 -24.296)" fill="#a8cff0"/>
        <path id="Trazado_193528" data-name="Trazado 193528" d="M303.061,213.127l10.028,5.79a5.087,5.087,0,0,0,4.6.009c1.268-.733,1.262-1.922-.013-2.659l-10.029-5.79a5.091,5.091,0,0,0-4.6-.009C301.778,211.2,301.786,212.39,303.061,213.127Zm17.17,9.914,4.75,2.742a5.091,5.091,0,0,0,4.6.009c1.268-.733,1.261-1.922-.015-2.659l-4.75-2.742a5.087,5.087,0,0,0-4.6-.009C318.948,221.113,318.956,222.3,320.231,223.041Zm11.892,6.864,4.75,2.743a5.087,5.087,0,0,0,4.6.007c1.268-.731,1.261-1.922-.015-2.657l-4.75-2.742a5.087,5.087,0,0,0-4.6-.009C330.84,227.979,330.848,229.17,332.123,229.905Zm11.891,6.866,4.751,2.743a5.087,5.087,0,0,0,4.6.007c1.266-.731,1.261-1.922-.015-2.657l-4.75-2.743a5.091,5.091,0,0,0-4.6-.007C342.733,234.845,342.738,236.035,344.014,236.771Zm11.892,6.866,4.75,2.743a5.09,5.09,0,0,0,4.605.007c1.266-.731,1.261-1.922-.015-2.657l-4.751-2.743a5.087,5.087,0,0,0-4.6-.007C354.625,241.711,354.63,242.9,355.906,243.637ZM367.8,250.5l4.75,2.743a5.087,5.087,0,0,0,4.6.007c1.268-.731,1.261-1.922-.015-2.657l-4.75-2.743a5.087,5.087,0,0,0-4.6-.007C366.517,248.577,366.523,249.767,367.8,250.5Zm11.892,6.866,4.75,2.742a5.087,5.087,0,0,0,4.6.009c1.268-.731,1.261-1.922-.015-2.657l-4.75-2.743a5.091,5.091,0,0,0-4.6-.009C378.407,255.443,378.415,256.633,379.69,257.369Zm11.892,6.866,4.75,2.742a5.087,5.087,0,0,0,4.6.009c1.266-.731,1.261-1.922-.015-2.659l-4.75-2.742a5.091,5.091,0,0,0-4.6-.009C390.3,262.309,390.306,263.5,391.582,264.235Zm11.891,6.866,4.751,2.742a5.087,5.087,0,0,0,4.6.009c1.266-.731,1.261-1.922-.015-2.659l-4.75-2.742a5.094,5.094,0,0,0-4.605-.009C402.192,269.175,402.2,270.364,403.473,271.1Zm11.892,6.866,4.75,2.742a5.087,5.087,0,0,0,4.6.009c1.268-.733,1.262-1.922-.013-2.659l-4.751-2.742a5.087,5.087,0,0,0-4.6-.009C414.084,276.041,414.09,277.23,415.365,277.967Zm11.892,6.866,4.75,2.742a5.091,5.091,0,0,0,4.6.009c1.268-.733,1.261-1.922-.015-2.659l-4.75-2.742a5.087,5.087,0,0,0-4.6-.009C425.975,282.905,425.982,284.1,427.257,284.832Zm11.892,6.866,4.75,2.742a5.087,5.087,0,0,0,4.6.007c1.268-.731,1.261-1.922-.015-2.657l-4.75-2.742a5.087,5.087,0,0,0-4.6-.009C437.867,289.771,437.874,290.961,439.149,291.7Zm12.139,7.008,4.75,2.742a5.087,5.087,0,0,0,4.6.009c1.268-.731,1.261-1.922-.015-2.657l-4.75-2.743a5.087,5.087,0,0,0-4.6-.007C450.006,296.78,450.013,297.971,451.289,298.706ZM292.365,219.67l4.112,2.375a5.789,5.789,0,0,0,5.24.009l4.087-2.359c1.442-.832,1.435-2.188-.018-3.026l-4.112-2.373a5.79,5.79,0,0,0-5.238-.01l-4.087,2.36C290.907,217.478,290.914,218.832,292.365,219.67Zm21.244,9.25,4.086-2.359c1.443-.834,1.436-2.188-.016-3.026l-4.112-2.373a5.793,5.793,0,0,0-5.24-.01l-4.086,2.36c-1.443.832-1.436,2.186.016,3.024l4.112,2.375A5.789,5.789,0,0,0,313.609,228.919Zm2.54,4.482,4.112,2.375a5.789,5.789,0,0,0,5.24.009l4.086-2.359c1.443-.834,1.435-2.188-.016-3.026l-4.112-2.373a5.793,5.793,0,0,0-5.24-.01l-4.086,2.36C314.69,231.21,314.7,232.564,316.149,233.4Zm11.892,6.866,4.112,2.375a5.79,5.79,0,0,0,5.238.009l4.087-2.359c1.442-.834,1.435-2.188-.016-3.026l-4.112-2.375a5.793,5.793,0,0,0-5.24-.009l-4.087,2.359C326.582,238.076,326.589,239.43,328.041,240.268Zm25.314,3.865-4.114-2.375a5.79,5.79,0,0,0-5.238-.009l-4.087,2.359c-1.442.834-1.435,2.188.016,3.026l4.112,2.375a5.793,5.793,0,0,0,5.24.009l4.087-2.359C354.813,246.325,354.806,244.971,353.355,244.133ZM365.246,251l-4.112-2.375a5.788,5.788,0,0,0-5.24-.009l-4.086,2.359c-1.442.834-1.435,2.188.016,3.026l4.112,2.373a5.793,5.793,0,0,0,5.24.01l4.087-2.36C366.705,253.191,366.7,251.837,365.246,251Zm11.892,6.866-4.112-2.375a5.789,5.789,0,0,0-5.24-.009L363.7,257.84c-1.443.834-1.436,2.188.016,3.026l4.112,2.373a5.793,5.793,0,0,0,5.24.01l4.086-2.36C378.6,260.057,378.59,258.7,377.138,257.865Zm11.892,6.866-4.112-2.375a5.789,5.789,0,0,0-5.24-.009l-4.087,2.359c-1.442.832-1.435,2.188.018,3.026l4.112,2.373a5.793,5.793,0,0,0,5.24.01l4.086-2.36C390.488,266.923,390.481,265.568,389.03,264.73Zm11.892,6.864-4.112-2.373a5.789,5.789,0,0,0-5.24-.009l-4.087,2.359c-1.442.832-1.435,2.188.016,3.024l4.114,2.375a5.79,5.79,0,0,0,5.238.01l4.087-2.36C402.38,273.789,402.373,272.433,400.922,271.595Zm11.892,6.866-4.114-2.373a5.79,5.79,0,0,0-5.238-.01l-4.087,2.36c-1.442.832-1.435,2.186.016,3.024l4.112,2.375a5.789,5.789,0,0,0,5.24.009l4.087-2.359C414.273,280.654,414.265,279.3,412.815,278.461Zm-1.531,9.867L415.4,290.7a5.788,5.788,0,0,0,5.24.009l4.087-2.359c1.442-.832,1.435-2.188-.018-3.026l-4.112-2.373a5.793,5.793,0,0,0-5.24-.01l-4.086,2.36C409.825,286.135,409.833,287.49,411.283,288.328Zm25.314,3.865-4.112-2.373a5.793,5.793,0,0,0-5.24-.01l-4.086,2.36c-1.443.832-1.436,2.186.016,3.024l4.112,2.375a5.788,5.788,0,0,0,5.24.009l4.086-2.359C438.057,294.385,438.05,293.031,436.6,292.193Zm17.417,10.057-9.39-5.423a5.789,5.789,0,0,0-5.24-.009l-4.086,2.359c-1.443.834-1.436,2.188.016,3.026l9.39,5.421a5.788,5.788,0,0,0,5.24.009l4.086-2.359C455.474,304.442,455.467,303.086,454.014,302.25ZM281.35,226.03l9.391,5.421a5.79,5.79,0,0,0,5.238.01l4.087-2.36c1.442-.832,1.435-2.186-.016-3.024l-9.39-5.423a5.789,5.789,0,0,0-5.24-.009L281.334,223C279.892,223.838,279.9,225.192,281.35,226.03Zm17.17,9.914,4.112,2.373a5.789,5.789,0,0,0,5.24.009l4.087-2.359c1.442-.832,1.435-2.186-.016-3.024l-4.114-2.375a5.79,5.79,0,0,0-5.238-.01l-4.087,2.36C297.062,233.75,297.069,235.1,298.52,235.943Zm16,9.239a5.789,5.789,0,0,0,5.24.009l4.087-2.359c1.442-.832,1.435-2.188-.018-3.024l-4.112-2.375a5.793,5.793,0,0,0-5.24-.01l-4.086,2.36c-1.442.832-1.435,2.186.016,3.024Zm11.892,6.866a5.789,5.789,0,0,0,5.24.009l4.086-2.359c1.443-.834,1.436-2.188-.016-3.026l-4.112-2.373a5.793,5.793,0,0,0-5.24-.01l-4.086,2.36c-1.443.832-1.436,2.186.016,3.024Zm11.85-.894-4.087,2.36c-1.442.832-1.435,2.186.018,3.024l4.112,2.375a5.788,5.788,0,0,0,5.24.009l4.086-2.359c1.442-.834,1.435-2.188-.016-3.026l-4.112-2.373A5.793,5.793,0,0,0,338.266,251.155Zm12.144,6.721-4.59,2.65c-1.3.752-1.3,1.976.015,2.733l4.618,2.667a5.235,5.235,0,0,0,4.735.007l4.59-2.65c1.3-.752,1.3-1.976-.015-2.733l-4.618-2.666A5.231,5.231,0,0,0,350.41,257.876Zm11.891,6.866-4.589,2.65c-1.3.752-1.3,1.976.015,2.733l4.618,2.666a5.231,5.231,0,0,0,4.735.009l4.59-2.65c1.3-.752,1.3-1.976-.016-2.733l-4.618-2.666A5.231,5.231,0,0,0,362.3,264.742Zm11.892,6.866-4.589,2.648c-1.3.753-1.3,1.977.015,2.735l4.618,2.666a5.231,5.231,0,0,0,4.735.009l4.589-2.65c1.3-.752,1.3-1.976-.015-2.733l-4.618-2.666A5.231,5.231,0,0,0,374.193,271.608Zm11.892,6.866-4.589,2.648c-1.3.753-1.3,1.977.015,2.735l4.618,2.666a5.231,5.231,0,0,0,4.735.009l4.589-2.65c1.3-.752,1.3-1.976-.015-2.733l-4.618-2.667A5.235,5.235,0,0,0,386.085,278.474Zm11.892,6.864-4.59,2.65c-1.3.753-1.3,1.977.016,2.735l4.618,2.666a5.231,5.231,0,0,0,4.735.009l4.589-2.65c1.3-.753,1.3-1.977-.015-2.733l-4.618-2.667A5.235,5.235,0,0,0,397.977,285.339Zm16.67,14.925,4.59-2.65c1.3-.753,1.3-1.977-.015-2.735l-4.618-2.666a5.239,5.239,0,0,0-4.737-.009l-4.589,2.65c-1.3.753-1.3,1.977.015,2.735l4.618,2.666A5.235,5.235,0,0,0,414.647,300.264Zm11.892,6.866,4.589-2.65c1.3-.753,1.3-1.977-.015-2.735l-4.618-2.666a5.235,5.235,0,0,0-4.735-.009l-4.589,2.65c-1.3.753-1.3,1.977.015,2.735l4.618,2.666A5.235,5.235,0,0,0,426.539,307.13Zm16.714,1.625-4.618-2.666a5.231,5.231,0,0,0-4.735-.009l-4.589,2.65c-1.3.752-1.3,1.976.015,2.733l4.618,2.666a5.231,5.231,0,0,0,4.735.009l4.589-2.65C444.572,310.736,444.565,309.512,443.253,308.754ZM270.084,232.243l14.909,8.608a5.231,5.231,0,0,0,4.735.009l4.59-2.65c1.3-.753,1.3-1.977-.016-2.733l-14.909-8.609a5.236,5.236,0,0,0-4.735-.009l-4.59,2.65C268.765,230.262,268.772,231.486,270.084,232.243Zm22.183,12.808,4.618,2.666a5.231,5.231,0,0,0,4.735.009l4.589-2.65c1.3-.753,1.3-1.977-.015-2.735l-4.618-2.666a5.235,5.235,0,0,0-4.735-.009l-4.589,2.65C290.949,243.07,290.955,244.294,292.267,245.051Zm11.892,6.866,4.618,2.666a5.235,5.235,0,0,0,4.735.009l4.589-2.65c1.3-.753,1.3-1.977-.015-2.735l-4.618-2.666a5.235,5.235,0,0,0-4.735-.009l-4.589,2.65C302.84,249.935,302.847,251.16,304.159,251.917Zm11.892,6.866,4.618,2.666a5.235,5.235,0,0,0,4.735.009l4.589-2.65c1.3-.753,1.3-1.977-.015-2.735l-4.618-2.666a5.235,5.235,0,0,0-4.735-.009l-4.589,2.65C314.732,256.8,314.739,258.025,316.051,258.783Zm21.246,9.541,4.589-2.65c1.3-.753,1.3-1.977-.015-2.735l-4.618-2.666a5.231,5.231,0,0,0-4.735-.009l-4.59,2.65c-1.3.753-1.3,1.977.015,2.733l4.618,2.667A5.239,5.239,0,0,0,337.3,268.324Zm11.891,6.864,4.59-2.65c1.3-.752,1.3-1.976-.016-2.733l-4.618-2.666a5.231,5.231,0,0,0-4.735-.009l-4.589,2.65c-1.3.752-1.3,1.976.015,2.733l4.618,2.667A5.236,5.236,0,0,0,349.188,275.188Zm11.892,6.866,4.589-2.65c1.3-.752,1.3-1.976-.015-2.733L361.036,274A5.231,5.231,0,0,0,356.3,274l-4.589,2.65c-1.3.752-1.3,1.976.015,2.733l4.618,2.666A5.231,5.231,0,0,0,361.08,282.054Zm11.892,6.866,4.589-2.65c1.3-.752,1.3-1.976-.015-2.733l-4.618-2.666a5.231,5.231,0,0,0-4.735-.009l-4.589,2.65c-1.3.752-1.3,1.976.015,2.733l4.618,2.666A5.231,5.231,0,0,0,372.972,288.92Zm11.892,6.866,4.589-2.65c1.3-.753,1.3-1.976-.015-2.733l-4.618-2.667a5.231,5.231,0,0,0-4.735-.007l-4.59,2.648c-1.3.753-1.3,1.977.016,2.735l4.618,2.666A5.231,5.231,0,0,0,384.864,295.786Zm11.891,6.866,4.59-2.65c1.3-.753,1.3-1.977-.015-2.735l-4.618-2.666a5.235,5.235,0,0,0-4.735-.009l-4.59,2.65c-1.3.753-1.3,1.977.015,2.735l4.618,2.666A5.231,5.231,0,0,0,396.755,302.652Zm2.539,4.191,4.618,2.666a5.236,5.236,0,0,0,4.735.009l4.589-2.65c1.3-.753,1.3-1.977-.015-2.735l-4.618-2.666a5.236,5.236,0,0,0-4.735-.009l-4.589,2.65C397.976,304.861,397.982,306.085,399.293,306.843Zm32.945,8.27-11.743-6.78a5.235,5.235,0,0,0-4.735-.009l-4.589,2.65c-1.3.753-1.3,1.977.015,2.735l11.743,6.78a5.235,5.235,0,0,0,4.735.009l4.59-2.65C433.557,317.094,433.55,315.87,432.238,315.113ZM259.115,238.931l21.155,12.214a5.914,5.914,0,0,0,5.349.01l3.978-2.3c1.473-.851,1.465-2.233-.016-3.089l-21.156-12.214a5.914,5.914,0,0,0-5.349-.01l-3.978,2.3C257.626,236.694,257.633,238.076,259.115,238.931ZM288.159,255.7l4,2.311a5.914,5.914,0,0,0,5.349.01l3.978-2.3c1.473-.851,1.465-2.233-.018-3.089l-4-2.311a5.914,5.914,0,0,0-5.349-.01l-3.978,2.3C286.67,253.463,286.678,254.845,288.159,255.7Zm11.892,6.866,4,2.311a5.914,5.914,0,0,0,5.349.01l3.978-2.3c1.473-.851,1.464-2.233-.018-3.089l-4-2.311a5.9,5.9,0,0,0-5.348-.01l-3.978,2.3C298.562,260.327,298.57,261.711,300.051,262.566Zm11.892,6.866,4,2.311a5.914,5.914,0,0,0,5.349.01l3.976-2.3c1.473-.85,1.465-2.233-.016-3.087l-4-2.312a5.909,5.909,0,0,0-5.349-.009l-3.978,2.3C310.455,267.193,310.462,268.577,311.943,269.432Zm11.892,6.866,4,2.311a5.911,5.911,0,0,0,5.348.01l3.978-2.3c1.473-.85,1.465-2.233-.016-3.089l-4-2.311a5.909,5.909,0,0,0-5.349-.009l-3.978,2.3C322.345,274.059,322.353,275.442,323.836,276.3Zm11.891,6.866,4,2.311a5.91,5.91,0,0,0,5.349.009l3.978-2.3c1.473-.85,1.465-2.233-.016-3.089l-4-2.311a5.909,5.909,0,0,0-5.349-.009l-3.978,2.3C334.237,280.925,334.245,282.308,335.726,283.164Zm11.892,6.866,4,2.311a5.909,5.909,0,0,0,5.349.009l3.978-2.3c1.473-.85,1.465-2.233-.018-3.089l-4-2.311a5.911,5.911,0,0,0-5.348-.01l-3.978,2.3C346.13,287.791,346.137,289.174,347.618,290.03ZM359.51,296.9l4,2.311a5.909,5.909,0,0,0,5.349.009l3.978-2.3c1.473-.85,1.464-2.233-.018-3.089l-4-2.311a5.914,5.914,0,0,0-5.349-.01l-3.976,2.3C358.022,294.657,358.029,296.039,359.51,296.9ZM371.4,303.76l4,2.312a5.918,5.918,0,0,0,5.349.009l3.976-2.3c1.473-.851,1.465-2.233-.016-3.089l-4-2.311a5.914,5.914,0,0,0-5.349-.01l-3.978,2.3C369.912,301.523,369.921,302.9,371.4,303.76Zm11.892,6.866,4,2.311a5.911,5.911,0,0,0,5.348.01l3.978-2.3c1.473-.851,1.465-2.233-.016-3.089l-4-2.311a5.914,5.914,0,0,0-5.349-.01l-3.978,2.3C381.8,308.389,381.812,309.771,383.295,310.626Zm11.891,6.866,4,2.311a5.914,5.914,0,0,0,5.349.01l3.978-2.3c1.473-.851,1.465-2.233-.018-3.089l-4-2.311a5.914,5.914,0,0,0-5.349-.01l-3.978,2.3C393.7,315.255,393.7,316.637,395.185,317.492Zm25.469,3.954-4-2.311a5.914,5.914,0,0,0-5.349-.01l-3.978,2.3c-1.473.851-1.465,2.233.018,3.089l4,2.311a5.911,5.911,0,0,0,5.348.01l3.978-2.3C422.143,323.684,422.136,322.3,420.654,321.446ZM266.69,245.273l-9.28-5.358a5.914,5.914,0,0,0-5.349-.01l-3.976,2.3c-1.473.85-1.465,2.233.016,3.089l9.28,5.358a5.914,5.914,0,0,0,5.349.009l3.978-2.3C268.18,247.512,268.173,246.129,266.69,245.273Zm11.892,6.866-4-2.311a5.914,5.914,0,0,0-5.349-.01l-3.976,2.3c-1.473.851-1.465,2.233.016,3.089l4,2.311a5.914,5.914,0,0,0,5.349.01l3.978-2.3C280.071,254.377,280.063,252.995,278.582,252.139Zm11.892,6.866-4-2.311a5.914,5.914,0,0,0-5.349-.01l-3.978,2.3c-1.473.851-1.464,2.233.018,3.089l4,2.311a5.914,5.914,0,0,0,5.349.01l3.976-2.3C291.963,261.243,291.955,259.861,290.474,259.005Zm83.242,48.06-75.353-43.5a5.909,5.909,0,0,0-5.349-.01l-3.978,2.3c-1.473.851-1.465,2.233.018,3.089l75.353,43.5a5.909,5.909,0,0,0,5.349.01l3.978-2.3C375.206,309.3,375.2,307.921,373.716,307.065Zm11.892,6.866-4-2.311a5.914,5.914,0,0,0-5.349-.01l-3.976,2.3c-1.473.851-1.465,2.233.016,3.089l4,2.311a5.914,5.914,0,0,0,5.349.01l3.978-2.3C387.1,316.169,387.09,314.787,385.608,313.931ZM397.5,320.8l-4-2.311a5.914,5.914,0,0,0-5.349-.01l-3.978,2.3c-1.473.851-1.464,2.233.018,3.089l4,2.311a5.914,5.914,0,0,0,5.349.01l3.976-2.3C398.989,323.034,398.982,321.653,397.5,320.8ZM409.64,327.8l-4-2.311a5.909,5.909,0,0,0-5.349-.009l-3.978,2.3c-1.473.85-1.464,2.233.018,3.089l4,2.311a5.914,5.914,0,0,0,5.349.01l3.976-2.3C411.128,330.044,411.121,328.66,409.64,327.8Z" transform="translate(-189.559 -47.117)" fill="#72b5e8"/>
        <path id="Trazado_193529" data-name="Trazado 193529" d="M303.061,212.37l10.028,5.79a5.087,5.087,0,0,0,4.6.007c1.268-.731,1.262-1.922-.013-2.657l-10.029-5.79a5.087,5.087,0,0,0-4.6-.009C301.778,210.443,301.786,211.633,303.061,212.37Zm17.17,9.912,4.75,2.743a5.087,5.087,0,0,0,4.6.007c1.268-.731,1.261-1.922-.015-2.657l-4.75-2.743a5.087,5.087,0,0,0-4.6-.007C318.948,220.356,318.956,221.547,320.231,222.282Zm11.892,6.866,4.75,2.742a5.087,5.087,0,0,0,4.6.009c1.268-.731,1.261-1.922-.015-2.657l-4.75-2.743a5.091,5.091,0,0,0-4.6-.009C330.84,227.222,330.848,228.413,332.123,229.148Zm11.891,6.866,4.751,2.742a5.087,5.087,0,0,0,4.6.009c1.266-.731,1.261-1.922-.015-2.659l-4.75-2.742a5.091,5.091,0,0,0-4.6-.009C342.733,234.088,342.738,235.279,344.014,236.014Zm11.892,6.866,4.75,2.742a5.09,5.09,0,0,0,4.605.009c1.266-.731,1.261-1.922-.015-2.659l-4.751-2.742a5.092,5.092,0,0,0-4.6-.009C354.625,240.954,354.63,242.143,355.906,242.88Zm11.892,6.866,4.75,2.742a5.087,5.087,0,0,0,4.6.009c1.268-.733,1.261-1.922-.015-2.659l-4.75-2.742a5.087,5.087,0,0,0-4.6-.009C366.517,247.819,366.523,249.009,367.8,249.746Zm11.892,6.866,4.75,2.742a5.092,5.092,0,0,0,4.6.009c1.268-.733,1.261-1.922-.015-2.659l-4.75-2.742a5.087,5.087,0,0,0-4.6-.009C378.407,254.685,378.415,255.875,379.69,256.612Zm11.892,6.866,4.75,2.742a5.087,5.087,0,0,0,4.6.007c1.266-.731,1.261-1.922-.015-2.657l-4.75-2.742a5.087,5.087,0,0,0-4.6-.009C390.3,261.55,390.306,262.741,391.582,263.478Zm11.891,6.864,4.751,2.743a5.087,5.087,0,0,0,4.6.007c1.266-.731,1.261-1.922-.015-2.657l-4.75-2.742a5.09,5.09,0,0,0-4.605-.009C402.192,268.416,402.2,269.607,403.473,270.342Zm11.892,6.866,4.75,2.743a5.087,5.087,0,0,0,4.6.007c1.268-.731,1.262-1.922-.013-2.657l-4.751-2.743a5.087,5.087,0,0,0-4.6-.007C414.084,275.282,414.09,276.473,415.365,277.208Zm11.892,6.866,4.75,2.742a5.082,5.082,0,0,0,4.6.009c1.268-.731,1.261-1.922-.015-2.657l-4.75-2.743a5.087,5.087,0,0,0-4.6-.007C425.975,282.148,425.982,283.339,427.257,284.074Zm11.892,6.866,4.75,2.742a5.087,5.087,0,0,0,4.6.009c1.268-.731,1.261-1.922-.015-2.659l-4.75-2.742a5.091,5.091,0,0,0-4.6-.009C437.867,289.014,437.874,290.2,439.149,290.94Zm12.139,7.009,4.75,2.742a5.091,5.091,0,0,0,4.6.009c1.268-.733,1.261-1.922-.015-2.659l-4.75-2.742a5.087,5.087,0,0,0-4.6-.009C450.006,296.022,450.013,297.212,451.289,297.949ZM292.365,218.913l4.112,2.373a5.789,5.789,0,0,0,5.24.01l4.087-2.359c1.442-.834,1.435-2.188-.018-3.026l-4.112-2.375a5.785,5.785,0,0,0-5.238-.009l-4.087,2.359C290.907,216.721,290.914,218.075,292.365,218.913Zm21.244,9.25,4.086-2.36c1.443-.832,1.436-2.186-.016-3.024l-4.112-2.375a5.789,5.789,0,0,0-5.24-.009l-4.086,2.359c-1.443.834-1.436,2.188.016,3.026l4.112,2.373A5.793,5.793,0,0,0,313.609,228.163Zm2.54,4.482,4.112,2.373a5.793,5.793,0,0,0,5.24.01l4.086-2.36c1.443-.832,1.435-2.186-.016-3.024l-4.112-2.375a5.788,5.788,0,0,0-5.24-.009l-4.086,2.359C314.69,230.453,314.7,231.807,316.149,232.645Zm11.892,6.866,4.112,2.373a5.79,5.79,0,0,0,5.238.01l4.087-2.36c1.442-.832,1.435-2.186-.016-3.024l-4.112-2.375a5.789,5.789,0,0,0-5.24-.009l-4.087,2.359C326.582,237.317,326.589,238.673,328.041,239.511Zm25.314,3.865L349.242,241a5.785,5.785,0,0,0-5.238-.009l-4.087,2.359c-1.442.832-1.435,2.188.016,3.026l4.112,2.373a5.793,5.793,0,0,0,5.24.01l4.087-2.36C354.813,245.568,354.806,244.214,353.355,243.376Zm11.891,6.864-4.112-2.373a5.793,5.793,0,0,0-5.24-.01l-4.086,2.36c-1.442.832-1.435,2.186.016,3.024l4.112,2.375a5.789,5.789,0,0,0,5.24.009l4.087-2.359C366.705,252.434,366.7,251.078,365.246,250.24Zm11.892,6.866-4.112-2.373a5.793,5.793,0,0,0-5.24-.01l-4.086,2.36c-1.443.832-1.436,2.186.016,3.024l4.112,2.375a5.788,5.788,0,0,0,5.24.009l4.086-2.359C378.6,259.3,378.59,257.944,377.138,257.106Zm11.892,6.866-4.112-2.373a5.793,5.793,0,0,0-5.24-.01l-4.087,2.36c-1.442.832-1.435,2.186.018,3.024l4.112,2.375a5.788,5.788,0,0,0,5.24.009L389.046,267C390.488,266.164,390.481,264.81,389.03,263.972Zm11.892,6.866-4.112-2.373a5.789,5.789,0,0,0-5.24-.01l-4.087,2.36c-1.442.832-1.435,2.186.016,3.024l4.114,2.375a5.785,5.785,0,0,0,5.238.009l4.087-2.359C402.38,273.03,402.373,271.676,400.922,270.838Zm11.892,6.866-4.114-2.375a5.79,5.79,0,0,0-5.238-.009l-4.087,2.359c-1.442.834-1.435,2.188.016,3.026l4.112,2.375a5.8,5.8,0,0,0,5.24.009l4.087-2.359C414.273,279.9,414.265,278.542,412.815,277.7Zm-1.531,9.867,4.112,2.373a5.793,5.793,0,0,0,5.24.01l4.087-2.36c1.442-.832,1.435-2.186-.018-3.024l-4.112-2.375a5.789,5.789,0,0,0-5.24-.009l-4.086,2.359C409.825,285.379,409.833,286.733,411.283,287.571Zm25.314,3.865-4.112-2.375a5.789,5.789,0,0,0-5.24-.009l-4.086,2.359c-1.443.834-1.436,2.188.016,3.026l4.112,2.373a5.793,5.793,0,0,0,5.24.01l4.086-2.36C438.057,293.628,438.05,292.274,436.6,291.436Zm17.417,10.055-9.39-5.421a5.793,5.793,0,0,0-5.24-.01l-4.086,2.36c-1.443.832-1.436,2.186.016,3.024l9.39,5.423a5.793,5.793,0,0,0,5.24.009l4.086-2.359C455.474,303.683,455.467,302.329,454.014,301.491ZM281.35,225.273l9.391,5.421a5.785,5.785,0,0,0,5.238.009l4.087-2.359c1.442-.834,1.435-2.188-.016-3.026l-9.39-5.421a5.789,5.789,0,0,0-5.24-.009l-4.087,2.359C279.892,223.079,279.9,224.434,281.35,225.273Zm17.17,9.912,4.112,2.375a5.789,5.789,0,0,0,5.24.009l4.087-2.359c1.442-.834,1.435-2.188-.016-3.026l-4.114-2.373a5.79,5.79,0,0,0-5.238-.01l-4.087,2.36C297.062,232.993,297.069,234.347,298.52,235.185Zm16,9.239a5.788,5.788,0,0,0,5.24.01l4.087-2.359c1.442-.834,1.435-2.188-.018-3.026l-4.112-2.373a5.784,5.784,0,0,0-5.24-.01l-4.086,2.359c-1.442.834-1.435,2.188.016,3.026Zm11.892,6.866a5.793,5.793,0,0,0,5.24.01l4.086-2.36c1.443-.832,1.436-2.186-.016-3.024l-4.112-2.375a5.788,5.788,0,0,0-5.24-.009l-4.086,2.359c-1.443.834-1.436,2.188.016,3.026Zm11.85-.892-4.087,2.359c-1.442.834-1.435,2.188.018,3.026l4.112,2.373a5.793,5.793,0,0,0,5.24.01l4.086-2.36c1.442-.832,1.435-2.186-.016-3.024l-4.112-2.375A5.789,5.789,0,0,0,338.266,250.4Zm12.144,6.72-4.59,2.65c-1.3.753-1.3,1.977.015,2.735l4.618,2.666a5.235,5.235,0,0,0,4.735.009l4.59-2.65c1.3-.753,1.3-1.977-.015-2.735l-4.618-2.666A5.236,5.236,0,0,0,350.41,257.118Zm11.891,6.866-4.589,2.65c-1.3.753-1.3,1.977.015,2.735l4.618,2.666a5.236,5.236,0,0,0,4.735.009l4.59-2.65c1.3-.753,1.3-1.977-.016-2.735l-4.618-2.666A5.236,5.236,0,0,0,362.3,263.984Zm11.892,6.866L369.6,273.5c-1.3.753-1.3,1.977.015,2.735l4.618,2.666a5.236,5.236,0,0,0,4.735.009l4.589-2.65c1.3-.753,1.3-1.977-.015-2.735l-4.618-2.666A5.235,5.235,0,0,0,374.193,270.85Zm11.892,6.866-4.589,2.65c-1.3.753-1.3,1.977.015,2.733l4.618,2.667a5.235,5.235,0,0,0,4.735.009l4.589-2.65c1.3-.753,1.3-1.977-.015-2.735l-4.618-2.666A5.231,5.231,0,0,0,386.085,277.716Zm11.892,6.866-4.59,2.65c-1.3.753-1.3,1.976.016,2.733l4.618,2.667a5.235,5.235,0,0,0,4.735.007l4.589-2.648c1.3-.753,1.3-1.977-.015-2.735l-4.618-2.666A5.231,5.231,0,0,0,397.977,284.582Zm16.67,14.924,4.59-2.65c1.3-.752,1.3-1.976-.015-2.733l-4.618-2.666a5.234,5.234,0,0,0-4.737-.009l-4.589,2.65c-1.3.752-1.3,1.976.015,2.733l4.618,2.666A5.231,5.231,0,0,0,414.647,299.505Zm11.892,6.866,4.589-2.65c1.3-.752,1.3-1.976-.015-2.733l-4.618-2.666a5.231,5.231,0,0,0-4.735-.009l-4.589,2.65c-1.3.752-1.3,1.976.015,2.733l4.618,2.666A5.231,5.231,0,0,0,426.539,306.371ZM443.253,308l-4.618-2.666a5.235,5.235,0,0,0-4.735-.009l-4.589,2.65c-1.3.753-1.3,1.977.015,2.735l4.618,2.666a5.235,5.235,0,0,0,4.735.009l4.589-2.65C444.572,309.977,444.565,308.753,443.253,308ZM270.084,231.485l14.909,8.609a5.231,5.231,0,0,0,4.735.007l4.59-2.648c1.3-.753,1.3-1.977-.016-2.735l-14.909-8.608a5.231,5.231,0,0,0-4.735-.009l-4.59,2.65C268.765,229.5,268.772,230.728,270.084,231.485Zm22.183,12.808,4.618,2.667a5.236,5.236,0,0,0,4.735.007l4.589-2.65c1.3-.752,1.3-1.976-.015-2.733l-4.618-2.666a5.231,5.231,0,0,0-4.735-.009l-4.589,2.65C290.949,242.311,290.955,243.535,292.267,244.293Zm11.892,6.866,4.618,2.666a5.231,5.231,0,0,0,4.735.009l4.589-2.65c1.3-.752,1.3-1.976-.015-2.733l-4.618-2.666a5.231,5.231,0,0,0-4.735-.009l-4.589,2.65C302.84,249.177,302.847,250.4,304.159,251.159Zm11.892,6.866,4.618,2.666a5.231,5.231,0,0,0,4.735.009l4.589-2.65c1.3-.752,1.3-1.976-.015-2.733l-4.618-2.667a5.235,5.235,0,0,0-4.735-.007l-4.589,2.65C314.732,256.043,314.739,257.267,316.051,258.025Zm21.246,9.541,4.589-2.65c1.3-.753,1.3-1.977-.015-2.733l-4.618-2.667a5.236,5.236,0,0,0-4.735-.007l-4.59,2.648c-1.3.753-1.3,1.977.015,2.735l4.618,2.666A5.234,5.234,0,0,0,337.3,267.565Zm11.891,6.866,4.59-2.65c1.3-.753,1.3-1.977-.016-2.733l-4.618-2.667a5.236,5.236,0,0,0-4.735-.009l-4.589,2.65c-1.3.753-1.3,1.977.015,2.735l4.618,2.666A5.231,5.231,0,0,0,349.188,274.431ZM361.08,281.3l4.589-2.65c1.3-.753,1.3-1.977-.015-2.735l-4.618-2.666a5.235,5.235,0,0,0-4.735-.009l-4.589,2.65c-1.3.753-1.3,1.977.015,2.735l4.618,2.666A5.236,5.236,0,0,0,361.08,281.3Zm11.892,6.866,4.589-2.65c1.3-.753,1.3-1.977-.015-2.735l-4.618-2.666a5.235,5.235,0,0,0-4.735-.009l-4.589,2.65c-1.3.753-1.3,1.977.015,2.735l4.618,2.666A5.235,5.235,0,0,0,372.972,288.163Zm11.892,6.866,4.589-2.65c1.3-.753,1.3-1.977-.015-2.735l-4.618-2.666a5.231,5.231,0,0,0-4.735-.009l-4.59,2.65c-1.3.753-1.3,1.977.016,2.733l4.618,2.667A5.236,5.236,0,0,0,384.864,295.029Zm11.891,6.866,4.59-2.65c1.3-.753,1.3-1.977-.015-2.735l-4.618-2.666a5.231,5.231,0,0,0-4.735-.009l-4.59,2.65c-1.3.752-1.3,1.977.015,2.733l4.618,2.667A5.24,5.24,0,0,0,396.755,301.895Zm2.539,4.19,4.618,2.667a5.235,5.235,0,0,0,4.735.007l4.589-2.648c1.3-.753,1.3-1.977-.015-2.735L408.6,300.71a5.231,5.231,0,0,0-4.735-.009l-4.589,2.65C397.976,304.1,397.982,305.327,399.293,306.085Zm32.945,8.271-11.743-6.78a5.231,5.231,0,0,0-4.735-.009l-4.589,2.65c-1.3.752-1.3,1.976.015,2.733l11.743,6.78a5.231,5.231,0,0,0,4.735.009l4.59-2.65C433.557,316.337,433.55,315.113,432.238,314.356ZM259.115,238.174l21.155,12.214a5.914,5.914,0,0,0,5.349.01l3.978-2.3c1.473-.85,1.465-2.232-.016-3.087L268.424,232.8a5.909,5.909,0,0,0-5.349-.009l-3.978,2.3C257.626,235.935,257.633,237.319,259.115,238.174Zm29.045,16.769,4,2.311a5.914,5.914,0,0,0,5.349.01l3.978-2.3c1.473-.85,1.465-2.233-.018-3.089l-4-2.311a5.909,5.909,0,0,0-5.349-.009l-3.978,2.3C286.67,252.7,286.678,254.088,288.159,254.943Zm11.892,6.866,4,2.311a5.909,5.909,0,0,0,5.349.009l3.978-2.3c1.473-.85,1.464-2.233-.018-3.089l-4-2.311a5.911,5.911,0,0,0-5.348-.01l-3.978,2.3C298.562,259.57,298.57,260.954,300.051,261.809Zm11.892,6.866,4,2.311a5.91,5.91,0,0,0,5.349.009l3.976-2.3c1.473-.85,1.465-2.233-.016-3.089l-4-2.311a5.914,5.914,0,0,0-5.349-.01l-3.978,2.3C310.455,266.436,310.462,267.818,311.943,268.675Zm11.892,6.864,4,2.311a5.906,5.906,0,0,0,5.348.01l3.978-2.3c1.473-.851,1.465-2.233-.016-3.089l-4-2.311a5.914,5.914,0,0,0-5.349-.01l-3.978,2.3C322.345,273.3,322.353,274.684,323.836,275.54Zm11.891,6.866,4,2.311a5.914,5.914,0,0,0,5.349.01l3.978-2.3c1.473-.851,1.465-2.233-.016-3.089l-4-2.311a5.914,5.914,0,0,0-5.349-.01l-3.978,2.3C334.237,280.168,334.245,281.55,335.726,282.406Zm11.892,6.866,4,2.311a5.914,5.914,0,0,0,5.349.01l3.978-2.3c1.473-.851,1.465-2.233-.018-3.089l-4-2.311a5.911,5.911,0,0,0-5.348-.01l-3.978,2.3C346.13,287.034,346.137,288.416,347.618,289.272Zm11.892,6.866,4,2.311a5.914,5.914,0,0,0,5.349.01l3.978-2.3c1.473-.851,1.464-2.233-.018-3.089l-4-2.312a5.918,5.918,0,0,0-5.349-.009l-3.976,2.3C358.022,293.9,358.029,295.282,359.51,296.137ZM371.4,303l4,2.311a5.914,5.914,0,0,0,5.349.01l3.976-2.3c1.473-.85,1.465-2.232-.016-3.087l-4-2.312a5.909,5.909,0,0,0-5.349-.009l-3.978,2.3C369.912,300.764,369.921,302.148,371.4,303Zm11.892,6.866,4,2.311a5.911,5.911,0,0,0,5.348.01l3.978-2.3c1.473-.85,1.465-2.233-.016-3.087l-4-2.312a5.909,5.909,0,0,0-5.349-.009l-3.978,2.3C381.8,307.63,381.812,309.014,383.295,309.869Zm11.891,6.866,4,2.311a5.91,5.91,0,0,0,5.349.009l3.978-2.3c1.473-.85,1.465-2.233-.018-3.089l-4-2.311a5.91,5.91,0,0,0-5.349-.009l-3.978,2.3C393.7,314.5,393.7,315.88,395.185,316.735Zm25.469,3.953-4-2.311a5.909,5.909,0,0,0-5.349-.009l-3.978,2.3c-1.473.85-1.465,2.233.018,3.089l4,2.311a5.911,5.911,0,0,0,5.348.01l3.978-2.3C422.143,322.927,422.136,321.544,420.654,320.688ZM266.69,244.517l-9.28-5.358a5.914,5.914,0,0,0-5.349-.01l-3.976,2.3c-1.473.851-1.465,2.233.016,3.089l9.28,5.358a5.914,5.914,0,0,0,5.349.01l3.978-2.3C268.18,246.754,268.173,245.372,266.69,244.517Zm11.892,6.864-4-2.311a5.909,5.909,0,0,0-5.349-.009l-3.976,2.3c-1.473.85-1.465,2.233.016,3.089l4,2.311a5.914,5.914,0,0,0,5.349.01l3.978-2.3C280.071,253.62,280.063,252.238,278.582,251.381Zm11.892,6.866-4-2.311a5.909,5.909,0,0,0-5.349-.009l-3.978,2.3c-1.473.85-1.464,2.233.018,3.089l4,2.311a5.909,5.909,0,0,0,5.349.009l3.976-2.3C291.963,260.486,291.955,259.1,290.474,258.247Zm83.242,48.061L298.364,262.8a5.914,5.914,0,0,0-5.349-.01l-3.978,2.3c-1.473.85-1.465,2.233.018,3.089l75.353,43.5a5.914,5.914,0,0,0,5.349.01l3.978-2.3C375.206,308.546,375.2,307.164,373.716,306.308Zm11.892,6.866-4-2.312a5.909,5.909,0,0,0-5.349-.009l-3.976,2.3c-1.473.85-1.465,2.233.016,3.089l4,2.311a5.914,5.914,0,0,0,5.349.01l3.978-2.3C387.1,315.412,387.09,314.028,385.608,313.174Zm11.892,6.865-4-2.311a5.909,5.909,0,0,0-5.349-.009l-3.978,2.3c-1.473.85-1.464,2.233.018,3.089l4,2.311a5.914,5.914,0,0,0,5.349.01l3.976-2.3C398.989,322.278,398.982,320.894,397.5,320.039Zm12.139,7.009-4-2.311a5.914,5.914,0,0,0-5.349-.01l-3.978,2.3c-1.473.851-1.464,2.233.018,3.089l4,2.311a5.914,5.914,0,0,0,5.349.01l3.976-2.3C411.128,329.285,411.121,327.9,409.64,327.048Z" transform="translate(-189.559 -47.467)" fill="#a8cff0"/>
        <g id="Grupo_132633" data-name="Grupo 132633" transform="translate(116.478)">
          <path id="Trazado_193530" data-name="Trazado 193530" d="M455.94,345.089l-157.532-91c-6.1-3.52-11.044-12.967-11.044-21.1V109.4c0-8.131,4.944-11.869,11.044-8.347l157.532,91c6.1,3.52,11.042,12.967,11.042,21.1V336.742C466.983,344.872,462.039,348.61,455.94,345.089Z" transform="translate(-287.365 -98.068)" fill="#a8cff0"/>
          <path id="Trazado_193531" data-name="Trazado 193531" d="M455.4,336.488,299.549,246.465c-4.908-3.119-7.942-9.352-7.942-15.729V106.555a1.957,1.957,0,0,1,2.947-1.686l.347.2,155.975,90.111c5.844,3.368,7.944,9.352,7.944,15.729V334.8a2.113,2.113,0,0,1-3.16,1.834Z" transform="translate(-285.404 -95.818)" fill="#03336e"/>
          <path id="Trazado_193532" data-name="Trazado 193532" d="M450.876,195.18,294.9,105.071l-.347-.2a1.957,1.957,0,0,0-2.947,1.686v124.18c0,6.377,3.034,12.61,7.942,15.729L455.4,336.488l.259.148a2.113,2.113,0,0,0,3.16-1.834V210.911C458.82,204.534,456.72,198.549,450.876,195.18Zm6.7,139.622a.878.878,0,0,1-.877.874.846.846,0,0,1-.428-.118l-156.1-90.167c-4.433-2.818-7.324-8.581-7.324-14.656V106.555a.72.72,0,0,1,.721-.717.709.709,0,0,1,.36.1l156.326,90.316c6.054,3.489,7.325,9.9,7.325,14.656Z" transform="translate(-285.404 -95.818)" fill="#022652"/>
          <path id="Trazado_193533" data-name="Trazado 193533" d="M457.75,190.925l-157.531-91c-2.413-1.394-4.646-1.651-6.462-.949-.231.089-3.309,1.726-3.527,1.846l-.01.006c1.882-.913,4.269-.743,6.87.76l157.532,91c6.1,3.52,11.042,12.967,11.042,21.1V337.268c0,5.074-1.926,8.437-4.857,9.393a1.838,1.838,0,0,0,.968-.329c.139-.08,3.482-1.967,3.615-2.059,2.1-1.47,3.4-4.488,3.4-8.668V212.024C468.793,203.892,463.849,194.446,457.75,190.925Z" transform="translate(-286.045 -98.594)" fill="#3f92d1"/>
          <path id="Trazado_193534" data-name="Trazado 193534" d="M457.75,190.925l-157.531-91c-2.413-1.394-4.646-1.651-6.462-.949-.231.089-3.309,1.726-3.527,1.846l-.01.006c1.882-.913,4.269-.743,6.87.76l157.532,91Z" transform="translate(-286.045 -98.594)" fill="#4f9fdb"/>
          <path id="Trazado_193535" data-name="Trazado 193535" d="M454.913,191.876l-157.531-91c-2.5-1.445-4.8-1.651-6.651-.851a8.156,8.156,0,0,1,5.326,1.247l157.532,91c6.1,3.521,11.042,12.969,11.042,21.1V336.953c0,4.8-1.727,8.048-4.392,9.2,3.407-.54,5.716-4.041,5.716-9.595V212.976C465.956,204.844,461.013,195.4,454.913,191.876Z" transform="translate(-285.809 -98.148)" fill="#fff" style="mix-blend-mode: screen;isolation: isolate"/>
        </g>
      </g>
    </g>
    <path id="Trazado_193536" data-name="Trazado 193536" d="M492.558,190.68l-131.69-74.83c-.336,17.53-.032,72.46-.13,90.409-.158,29.062-4.507,51.953-38.059,78.214-10.674,8.356-57.776,34.015-96,54.1C211.178,346.72,210,350.158,202.159,356.8c-7.6,6.436-19.252,12.419-22.661,14.406l130.818,75.644c2.445-1.449,15.172-7.834,23.528-14.912,7.841-6.642,9.019-13.725,24.524-21.873,38.22-20.084,103.7-60.3,115.325-67.274,14.913-8.947,18.729-14.582,18.729-38.11C492.423,286.631,492.212,207.887,492.558,190.68Z" transform="translate(9.131 7.979)" fill="#001a46" opacity="0.1"/>
    <path id="Trazado_193537" data-name="Trazado 193537" d="M491.955,191.042l-131.69-74.83c-.336,8.385-.032,77.92-.13,95.87-.158,29.062-4.507,37.347-38.059,63.608-10.674,8.356-57.776,34.015-96,54.1-15.506,8.148-18.008,18.546-25.849,25.187-7.6,6.436-16.023,8.2-19.432,10.183L311.618,440.8c2.445-1.451,11.942-3.612,20.3-10.692,7.841-6.641,10.344-17.038,25.849-25.185,38.22-20.084,85.32-45.744,96-54.1,33.552-26.262,37.9-34.546,38.059-63.608C491.919,269.169,491.61,199.1,491.955,191.042Z" transform="translate(9.733 8.146)" fill="#fff"/>
    <g id="Grupo_132640" data-name="Grupo 132640" transform="translate(404.846 433.015)">
      <g id="Grupo_132638" data-name="Grupo 132638">
        <g id="Grupo_132637" data-name="Grupo 132637">
          <g id="Grupo_132636" data-name="Grupo 132636">
            <path id="Trazado_193538" data-name="Trazado 193538" d="M389.568,347.381c-3.586,22.165-28.727,19.023-44.435,19a28.467,28.467,0,0,1-6.174-2.294c-9.895-5.019-16.877-15.5-6.4-25.971a32.676,32.676,0,0,1,4.122-3.478,37.986,37.986,0,0,1,21.893-6.949c11.7-2.144,24.267,4.141,29.761,14.745A14.347,14.347,0,0,1,389.568,347.381Z" transform="translate(-327.35 -327.275)" fill="#ffe5aa"/>
          </g>
        </g>
      </g>
      <path id="Trazado_193539" data-name="Trazado 193539" d="M388.848,338.68c-.819,4.8-2.561,9.677-5.1,12.369-1.552,1.644-3.369.8-5.368,1.832-3.754,1.946-7.065,4.883-11.654,5.368-3.54.376-6.528-1.284-10.345-1.571-3.969-.3-8.755.769-11.911.766a28.546,28.546,0,0,1-6.174-2.295c-5.051-2.562-9.327-6.553-10.925-11.236.142,6.246,5.253,11.692,11.581,14.9a28.515,28.515,0,0,0,6.174,2.294c15.708.019,40.849,3.162,44.435-19A13.807,13.807,0,0,0,388.848,338.68Z" transform="translate(-327.341 -322.002)" fill="#996b07"/>
      <g id="Grupo_132639" data-name="Grupo 132639" transform="translate(2.124 3.069)" style="mix-blend-mode: multiply;isolation: isolate">
        <path id="Trazado_193540" data-name="Trazado 193540" d="M358.487,332.489a1.076,1.076,0,0,0,.48-1.043,2.184,2.184,0,0,0-1.114-1.929,1.479,1.479,0,0,0-1.976.671,2.156,2.156,0,0,1-.232.575c-.313.39-.939.2-1.367-.056s-.961-.56-1.389-.3c-.472.405-.208,1.25.338,1.549a2.74,2.74,0,0,0,1.822.094,3.384,3.384,0,0,1,1.837-.029C357.424,332.226,357.963,332.733,358.487,332.489Z" transform="translate(-317.778 -329.374)" fill="#603913"/>
        <path id="Trazado_193541" data-name="Trazado 193541" d="M366.974,335.566a11.349,11.349,0,0,1-1.133-.281c-.4-.175-.711-.521-1.12-.68a2.737,2.737,0,0,0-1.53.018l-1.866.382a1.036,1.036,0,0,0-.487.19.781.781,0,0,0-.219.6c.013,1.01,1.041,1.73,2.034,1.923s2.027.044,3.02.238a11.162,11.162,0,0,0,.673,1.233,1.436,1.436,0,0,0,.836.736c.594.116,1.081-.5,1.255-1.075A2.66,2.66,0,0,0,366.974,335.566Z" transform="translate(-314.091 -327.004)" fill="#603913"/>
        <path id="Trazado_193542" data-name="Trazado 193542" d="M353.25,339.282c1.243.474,2.275,1.443,3.567,1.764a.528.528,0,0,0,.779-.453,5.09,5.09,0,0,0-.056-2.36l1.187-.175a4.8,4.8,0,0,0-2.372-.917,20.462,20.462,0,0,0-6.357-.078,1.118,1.118,0,0,0,.512,1.192A10.514,10.514,0,0,0,353.25,339.282Z" transform="translate(-319.022 -325.917)" fill="#603913"/>
        <path id="Trazado_193543" data-name="Trazado 193543" d="M344.515,329.772l-1.905-.02a1.738,1.738,0,0,0-.583.061,1.11,1.11,0,0,0-.475,1.538,2.123,2.123,0,0,0,1.484.962,4.089,4.089,0,0,0,2.1-.113,3.7,3.7,0,0,1,1.962-.43c.513.127,1.078.562,1.5.238a.742.742,0,0,0,.247-.436c.2-.926-.695-1.772-1.619-1.987a16.505,16.505,0,0,0-2.837-.075Z" transform="translate(-322.968 -329.325)" fill="#603913"/>
        <path id="Trazado_193544" data-name="Trazado 193544" d="M336.126,336.136a4.493,4.493,0,0,0-2.139,1.16.648.648,0,0,0-.209.316c-.051.265.206.48.445.605a4.375,4.375,0,0,0,3.681.171c.942-.392,1.775-1.125,2.793-1.19a.63.63,0,0,0-.079-.758,1.707,1.707,0,0,0-.695-.428,14.383,14.383,0,0,0-2.818-.8,2.565,2.565,0,0,0-1.2,0,.99.99,0,0,0-.739.854Z" transform="translate(-326.505 -326.711)" fill="#603913"/>
        <path id="Trazado_193545" data-name="Trazado 193545" d="M332.762,345.277a1.155,1.155,0,0,0,.006-.586,2.586,2.586,0,0,0-1.281-1.736c-.49-.266-1.054-.364-1.569-.581a1.69,1.69,0,0,1-1.106-1.161,6.375,6.375,0,0,0,.437,2.923,2.941,2.941,0,0,0,2.232,1.774A1.17,1.17,0,0,0,332.762,345.277Z" transform="translate(-328.802 -323.9)" fill="#603913"/>
        <path id="Trazado_193546" data-name="Trazado 193546" d="M346.572,345.121l.521-.361a.818.818,0,0,0,.249-.231.644.644,0,0,0,.029-.49,1.952,1.952,0,0,0-1.221-1.261,3.636,3.636,0,0,0-1.8-.132,6.476,6.476,0,0,0-2.164.717,8.9,8.9,0,0,0,2.862,1.916,1.582,1.582,0,0,0,.882.165A1.752,1.752,0,0,0,346.572,345.121Z" transform="translate(-322.613 -323.262)" fill="#603913"/>
        <path id="Trazado_193547" data-name="Trazado 193547" d="M358.96,343.266c-.822.149-1.6.535-2.426.638-.845.1-1.818-.265-2.572.137,1.069,2.186,4.959,2.391,7.015,2,.99-.187,3.763-.287,2.972-1.854C363.327,342.957,360.056,343.068,358.96,343.266Z" transform="translate(-317.168 -323.007)" fill="#603913"/>
        <path id="Trazado_193548" data-name="Trazado 193548" d="M365.6,343.314l2.97.249a1.426,1.426,0,0,0,.889-.115,1.046,1.046,0,0,0,.395-.989,2.69,2.69,0,0,0-2.335-2.122,2.24,2.24,0,0,0-1.351.1,1.12,1.12,0,0,0-.679,1.092c.045.336.262.739.01.965-.151.137-.386.107-.57.193-.407.187-.335.847.025,1.113a1.965,1.965,0,0,0,1.294.225Z" transform="translate(-312.226 -324.332)" fill="#603913"/>
        <path id="Trazado_193549" data-name="Trazado 193549" d="M342.6,338.655a1.244,1.244,0,0,0,.573.2l1.173.2a1.824,1.824,0,0,0,1.011-.016c.56-.233.733-.923,1.059-1.433a4.56,4.56,0,0,1,1.457-1.266l.388-.25a3.189,3.189,0,0,1,1.534-.642,1.083,1.083,0,0,0-1.233-1.315c-.565.146-.886.718-1.293,1.136-.958.986-2.451,1.148-3.742,1.62a2.014,2.014,0,0,0-1,.658A.835.835,0,0,0,342.6,338.655Z" transform="translate(-322.537 -327.183)" fill="#603913"/>
        <path id="Trazado_193550" data-name="Trazado 193550" d="M340.581,349.255c.56.4.263,1.312.562,1.935a1.235,1.235,0,0,0,.6.573,1.414,1.414,0,0,0,1.663-.373,1.248,1.248,0,0,0-.143-1.66c-.263-.222-.616-.316-.876-.54a2.269,2.269,0,0,1-.439-.589c-.534-.907-1.2-1.889-2.23-2.1a5.885,5.885,0,0,0-1.762.105,1.906,1.906,0,0,1-1.648-.442,2.928,2.928,0,0,0,3.008,2.985C339.749,349.122,340.23,349,340.581,349.255Z" transform="translate(-325.333 -321.609)" fill="#603913"/>
        <path id="Trazado_193551" data-name="Trazado 193551" d="M354.947,347.961c.051.2-.183.339-.376.4a7.372,7.372,0,0,1-2.54.354c-.624-.022-1.44-.009-1.635.585a.91.91,0,0,0,.531,1.022,2.557,2.557,0,0,0,1.231.162,46.867,46.867,0,0,0,5.629-.556,2.116,2.116,0,0,0,.971-.328,1.306,1.306,0,0,0-.155-2.012,1.842,1.842,0,0,0-2.175.241,2.2,2.2,0,0,1-.822.607c-.335.082-.763-.26-.591-.557Z" transform="translate(-318.832 -321.069)" fill="#603913"/>
      </g>
    </g>
    <g id="Grupo_132642" data-name="Grupo 132642" transform="translate(342.213 450.121)">
      <path id="Trazado_193552" data-name="Trazado 193552" d="M318.975,364.347a32.7,32.7,0,0,1,4.122-3.478,38.148,38.148,0,0,1,17.208-6.658,8.89,8.89,0,0,1,2.246-.291c.137-.025.276-.034.414-.057-.317-.6.209-3.735-.212-4.253-3.656-4.51-16.045-12.324-27.012-10.314a37.985,37.985,0,0,0-21.892,6.949,32.7,32.7,0,0,0-4.122,3.478c-10.477,10.477-3.492,20.952,6.4,25.971a28.451,28.451,0,0,0,6.176,2.294c3.583,0,7.66.17,11.857.161C313.061,373.892,314.2,369.12,318.975,364.347Z" transform="translate(-284.52 -338.972)" fill="#ffe5aa"/>
      <path id="Trazado_193553" data-name="Trazado 193553" d="M342.54,346.223c-1.116.04-2.23.11-3.337.249a38.148,38.148,0,0,0-17.208,6.658,32.694,32.694,0,0,0-4.122,3.478c-4.773,4.773-5.914,9.545-4.814,13.8-4.2.009-8.274-.156-11.857-.161a28.45,28.45,0,0,1-6.176-2.294c-4.633-2.35-8.628-5.9-10.491-10.082.36,6.066,5.406,11.333,11.588,14.469a28.45,28.45,0,0,0,6.176,2.294c3.583,0,7.66.17,11.857.161-1.1-4.257.041-9.029,4.814-13.8a32.7,32.7,0,0,1,4.122-3.478,38.148,38.148,0,0,1,17.208-6.658,8.893,8.893,0,0,1,2.246-.291c.137-.025.276-.034.414-.057C342.151,348.982,343.619,347.557,342.54,346.223Z" transform="translate(-284.514 -335.62)" fill="#996b07"/>
      <g id="Grupo_132641" data-name="Grupo 132641" transform="translate(2.124 2.976)" style="mix-blend-mode: multiply;isolation: isolate">
        <path id="Trazado_193554" data-name="Trazado 193554" d="M315.658,344.122a1.081,1.081,0,0,0,.48-1.043,2.186,2.186,0,0,0-1.116-1.929,1.481,1.481,0,0,0-1.976.671,2.062,2.062,0,0,1-.233.575c-.311.39-.939.2-1.367-.056s-.961-.56-1.389-.3c-.471.405-.206,1.25.338,1.549a2.732,2.732,0,0,0,1.822.094,3.384,3.384,0,0,1,1.837-.029C314.593,343.858,315.133,344.366,315.658,344.122Z" transform="translate(-274.949 -341.007)" fill="#603913"/>
        <path id="Trazado_193555" data-name="Trazado 193555" d="M323.31,346.116a11.2,11.2,0,0,1-1.132-.281c-.4-.175-.712-.522-1.12-.68a2.742,2.742,0,0,0-1.531.018l-1.866.382a1.026,1.026,0,0,0-.486.19.769.769,0,0,0-.219.6c.012,1.012,1.041,1.73,2.033,1.923s2.028.044,3.02.24a11.389,11.389,0,0,0,.673,1.231,1.43,1.43,0,0,0,.836.736c.594.116,1.082-.494,1.255-1.073A2.66,2.66,0,0,0,323.31,346.116Z" transform="translate(-271.646 -339.138)" fill="#603913"/>
        <path id="Trazado_193556" data-name="Trazado 193556" d="M310.5,348.665c1.243.474,2.275,1.443,3.567,1.764a.528.528,0,0,0,.779-.453,5.09,5.09,0,0,0-.056-2.36l1.186-.175a4.786,4.786,0,0,0-2.371-.917,20.46,20.46,0,0,0-6.357-.078,1.117,1.117,0,0,0,.512,1.192A10.513,10.513,0,0,0,310.5,348.665Z" transform="translate(-276.153 -338.591)" fill="#603913"/>
        <path id="Trazado_193557" data-name="Trazado 193557" d="M301.685,341.4q-.952-.009-1.9-.02a1.732,1.732,0,0,0-.583.061,1.109,1.109,0,0,0-.477,1.538,2.123,2.123,0,0,0,1.486.962,4.09,4.09,0,0,0,2.1-.113,3.7,3.7,0,0,1,1.962-.43c.513.127,1.076.562,1.495.238a.734.734,0,0,0,.247-.436c.2-.926-.693-1.772-1.617-1.987a16.659,16.659,0,0,0-2.837-.075Z" transform="translate(-280.139 -340.958)" fill="#603913"/>
        <path id="Trazado_193558" data-name="Trazado 193558" d="M293.3,347.769a4.5,4.5,0,0,0-2.139,1.161.635.635,0,0,0-.208.314c-.051.265.206.48.443.605a4.384,4.384,0,0,0,3.682.173c.942-.393,1.775-1.126,2.793-1.192a.63.63,0,0,0-.08-.758,1.67,1.67,0,0,0-.695-.427,14.4,14.4,0,0,0-2.817-.8,2.564,2.564,0,0,0-1.2,0,.994.994,0,0,0-.74.854Z" transform="translate(-283.675 -338.344)" fill="#603913"/>
        <path id="Trazado_193559" data-name="Trazado 193559" d="M289.933,356.909a1.182,1.182,0,0,0,.006-.585,2.591,2.591,0,0,0-1.281-1.736c-.491-.266-1.054-.364-1.569-.581a1.692,1.692,0,0,1-1.107-1.161,6.413,6.413,0,0,0,.437,2.923,2.945,2.945,0,0,0,2.233,1.774A1.169,1.169,0,0,0,289.933,356.909Z" transform="translate(-285.972 -335.533)" fill="#603913"/>
        <path id="Trazado_193560" data-name="Trazado 193560" d="M302.13,353.233c-.82.148-1.6.534-2.426.636-.845.105-1.816-.265-2.572.139,1.071,2.185,4.959,2.39,7.017,2,.989-.186,3.763-.285,2.972-1.854C306.5,352.923,303.227,353.035,302.13,353.233Z" transform="translate(-280.812 -335.411)" fill="#603913"/>
        <path id="Trazado_193561" data-name="Trazado 193561" d="M299.769,350.288a1.244,1.244,0,0,0,.573.2l1.173.2a1.818,1.818,0,0,0,1.009-.016c.56-.233.733-.923,1.06-1.433a4.571,4.571,0,0,1,1.455-1.266l.388-.25a3.2,3.2,0,0,1,1.534-.642,1.083,1.083,0,0,0-1.233-1.315c-.564.146-.886.718-1.293,1.136-.958.986-2.451,1.149-3.741,1.62a2.007,2.007,0,0,0-1,.658A.834.834,0,0,0,299.769,350.288Z" transform="translate(-279.707 -338.816)" fill="#603913"/>
        <path id="Trazado_193562" data-name="Trazado 193562" d="M297.751,360.888c.56.4.265,1.312.563,1.935a1.228,1.228,0,0,0,.6.573,1.414,1.414,0,0,0,1.663-.373,1.25,1.25,0,0,0-.145-1.66c-.262-.221-.614-.316-.876-.54a2.281,2.281,0,0,1-.437-.588c-.535-.908-1.2-1.891-2.23-2.1a5.879,5.879,0,0,0-1.762.105,1.909,1.909,0,0,1-1.65-.442,2.929,2.929,0,0,0,3.01,2.985C296.921,360.755,297.4,360.635,297.751,360.888Z" transform="translate(-282.504 -333.242)" fill="#603913"/>
      </g>
      <path id="Trazado_193563" data-name="Trazado 193563" d="M317.647,358.282c-5.376,1.837-.244,6.825,5,5.728S332.27,353.285,317.647,358.282Z" transform="translate(-270.258 -330.705)" fill="#ffe5aa"/>
      <path id="Trazado_193564" data-name="Trazado 193564" d="M326.572,357.157c-.3,1.856-2.515,4.139-4.911,4.64a7.329,7.329,0,0,1-6.272-1.576c-.225,2.072,3.472,4.438,7.246,3.649C326.136,363.137,329.248,358.6,326.572,357.157Z" transform="translate(-270.251 -330.564)" fill="#996b07"/>
      <path id="Trazado_193565" data-name="Trazado 193565" d="M309.056,360.222c-2.33.8-.105,2.958,2.166,2.483S315.394,358.057,309.056,360.222Z" transform="translate(-273.632 -329.433)" fill="#fff4db"/>
      <path id="Trazado_193566" data-name="Trazado 193566" d="M312.925,359.735a2.915,2.915,0,0,1-2.129,2.011,3.176,3.176,0,0,1-2.717-.683c-.1.9,1.5,1.923,3.14,1.581C312.736,362.326,314.084,360.359,312.925,359.735Z" transform="translate(-273.629 -329.372)" fill="#ffe5aa"/>
      <path id="Trazado_193567" data-name="Trazado 193567" d="M313.806,362.972c-2.33.8-.105,2.958,2.166,2.483S320.144,360.807,313.806,362.972Z" transform="translate(-271.436 -328.162)" fill="#ffe5aa"/>
      <path id="Trazado_193568" data-name="Trazado 193568" d="M317.675,362.485a2.915,2.915,0,0,1-2.129,2.011,3.177,3.177,0,0,1-2.717-.683c-.1.9,1.5,1.923,3.14,1.581C317.486,365.076,318.834,363.109,317.675,362.485Z" transform="translate(-271.433 -328.101)" fill="#996b07"/>
    </g>
    <g id="Grupo_132645" data-name="Grupo 132645" transform="translate(220.732 182.38)">
      <path id="Trazado_193582" data-name="Trazado 193582" d="M247.3,265.02q-2.069,1.112-4.067,2.182l92.66,53.652q2.086-1.106,4.134-2.2Z" transform="translate(-182.132 -105.427)" fill="#a8cff0"/>
      <path id="Trazado_193583" data-name="Trazado 193583" d="M253.173,261.847q-2.044,1.108-4.054,2.192l92.749,53.654,4.122-2.205Z" transform="translate(-179.408 -106.894)" fill="#a8cff0"/>
      <path id="Trazado_193584" data-name="Trazado 193584" d="M264.85,255.453q-2,1.108-4.019,2.216l92.944,53.661q2.075-1.127,4.095-2.227Z" transform="translate(-173.993 -109.85)" fill="#a8cff0"/>
      <path id="Trazado_193585" data-name="Trazado 193585" d="M259.025,258.659q-2.025,1.106-4.038,2.2l92.843,53.655q2.08-1.117,4.111-2.214Z" transform="translate(-176.695 -108.368)" fill="#a8cff0"/>
      <path id="Trazado_193586" data-name="Trazado 193586" d="M270.638,252.226q-1.979,1.11-3.994,2.233L359.7,308.126q2.075-1.136,4.076-2.24Z" transform="translate(-171.305 -111.342)" fill="#a8cff0"/>
      <path id="Trazado_193587" data-name="Trazado 193587" d="M225.285,264.157c-1.433.759-4.6,2.23-5.88,2.906l72.131,41.485c1.205-.794,4.277-2.319,5.651-3.087Z" transform="translate(-193.148 -105.826)" fill="#00defc"/>
      <path id="Trazado_193588" data-name="Trazado 193588" d="M217.539,267.8l-1.825.959c-.777.408-1.5.825-2.2,1.245L325.371,334.5q1.481-1.364,3.2-2.723Z" transform="translate(-195.87 -104.142)" fill="#a8cff0"/>
      <path id="Trazado_193589" data-name="Trazado 193589" d="M266.323,241.642c-1.3.743-4.554,2.467-5.9,3.227l75.37,43.2c1.379-.765,4.671-2.492,5.99-3.23Z" transform="translate(-174.18 -116.236)" fill="#00defc"/>
      <path id="Trazado_193590" data-name="Trazado 193590" d="M203.974,279.915c-.8,1.029-1.632,2.055-2.524,3.068L313.968,348c.6-.439,1.2-.9,1.784-1.4a17.512,17.512,0,0,0,1.4-1.337Z" transform="translate(-201.45 -98.539)" fill="#a8cff0"/>
      <path id="Trazado_193591" data-name="Trazado 193591" d="M310.438,163.735l68.187,38.155c0-1.939,0-5.313-.007-7.176l-68.188-38.826c0,.224,0,1.913,0,2.135C310.432,159.946,310.435,161.855,310.438,163.735Z" transform="translate(-151.059 -155.888)" fill="#00defc"/>
      <path id="Trazado_193592" data-name="Trazado 193592" d="M310.443,169.186l111.2,62.6q0-1.369,0-2.749c0-.62,0-1.211,0-1.824L310.439,164.7Q310.441,166.991,310.443,169.186Z" transform="translate(-151.055 -151.814)" fill="#a8cff0"/>
      <path id="Trazado_193593" data-name="Trazado 193593" d="M211.754,271.192a34.969,34.969,0,0,0-3.07,2.752l113.07,65.245c.816-1,1.7-2.017,2.644-3.043Z" transform="translate(-198.105 -102.573)" fill="#a8cff0"/>
      <path id="Trazado_193594" data-name="Trazado 193594" d="M207.408,275.36c-.834,1.03-1.625,2.074-2.414,3.131L318.35,343.949c.44-.579.888-1.177,1.35-1.8.339-.455.687-.921,1.04-1.391Z" transform="translate(-199.811 -100.645)" fill="#a8cff0"/>
      <path id="Trazado_193595" data-name="Trazado 193595" d="M305.925,207.429c-.643,1.116-1.345,2.223-2.094,3.328l113.932,64.692a37.005,37.005,0,0,0,2.138-3.377Z" transform="translate(-154.11 -132.056)" fill="#a8cff0"/>
      <path id="Trazado_193596" data-name="Trazado 193596" d="M308.167,202.267c-.456,1.24-.965,2.454-1.521,3.653l113.835,64.563a33.347,33.347,0,0,0,1.247-3.881Z" transform="translate(-152.808 -134.443)" fill="#a8cff0"/>
      <path id="Trazado_193597" data-name="Trazado 193597" d="M309.542,194.936c-.271,1.364-.575,5.156-.926,6.449L400.668,253.3c.2-1.379.349-5.275.461-6.791Z" transform="translate(-151.898 -137.833)" fill="#00defc"/>
      <path id="Trazado_193598" data-name="Trazado 193598" d="M310.445,171.21c0,1.563,0,3.064,0,4.491l111.2,62.687q0-2.248-.006-4.576Z" transform="translate(-151.052 -148.803)" fill="#a8cff0"/>
      <path id="Trazado_193599" data-name="Trazado 193599" d="M310.447,177.724c0,1.673-.006,3.184-.01,4.49l111.225,62.779q0-2.2,0-4.579Z" transform="translate(-151.056 -145.791)" fill="#a8cff0"/>
      <path id="Trazado_193600" data-name="Trazado 193600" d="M310.446,184.218c-.031,1.521-.08,2.989-.148,4.418L421.72,251.6c0-1.386.006-2.917.006-4.577Z" transform="translate(-151.12 -142.788)" fill="#a8cff0"/>
      <path id="Trazado_193601" data-name="Trazado 193601" d="M285.734,228.431q-1.615,1.29-3.318,2.629l112.012,63.934c1.443-.915,2.684-1.731,3.736-2.455Z" transform="translate(-164.012 -122.345)" fill="#a8cff0"/>
      <path id="Trazado_193602" data-name="Trazado 193602" d="M280.944,232.183c-1.081.747-2.311,1.563-3.659,2.433l111.362,63.623q2.082-1.237,3.912-2.35Z" transform="translate(-166.385 -120.61)" fill="#a8cff0"/>
      <path id="Trazado_193603" data-name="Trazado 193603" d="M275.62,235.658q-1.825,1.125-3.833,2.333l111.06,63.51q2.071-1.189,3.984-2.3Z" transform="translate(-168.927 -119.003)" fill="#a8cff0"/>
      <path id="Trazado_193604" data-name="Trazado 193604" d="M302.85,212.141c-.8,1.019-1.641,2.04-2.546,3.072l113.6,64.572q1.5-1.549,2.758-3.023Z" transform="translate(-155.741 -129.877)" fill="#a8cff0"/>
      <path id="Trazado_193605" data-name="Trazado 193605" d="M296.387,219.535c-.994.905-3.48,3.407-4.557,4.345l80.424,45.752c1.144-.937,3.69-3.428,4.734-4.31Z" transform="translate(-159.659 -126.458)" fill="#00defc"/>
      <path id="Trazado_193606" data-name="Trazado 193606" d="M290.427,224.577q-1.564,1.312-3.236,2.676l112.6,64.2c1.16-.914,2.286-1.8,3.365-2.669Z" transform="translate(-161.804 -124.127)" fill="#a8cff0"/>
      <g id="Grupo_132644" data-name="Grupo 132644" transform="translate(55.967 137.183)">
        <path id="Trazado_193607" data-name="Trazado 193607" d="M268.616,253.194a5.544,5.544,0,0,1-5.015-.009c-1.389-.8-1.4-2.1-.016-2.9a5.544,5.544,0,0,1,5.015.009C269.989,251.1,270,252.4,268.616,253.194Z" transform="translate(-229.163 -249.695)" fill="#00defc"/>
        <path id="Trazado_193608" data-name="Trazado 193608" d="M262.908,256.34a5.547,5.547,0,0,1-5.016-.009c-1.389-.8-1.4-2.1-.015-2.9a5.544,5.544,0,0,1,5.015.009C264.281,254.248,264.288,255.543,262.908,256.34Z" transform="translate(-231.802 -248.24)" fill="#00defc"/>
        <path id="Trazado_193609" data-name="Trazado 193609" d="M257.2,259.487a5.544,5.544,0,0,1-5.015-.009c-1.389-.8-1.4-2.1-.016-2.9a5.542,5.542,0,0,1,5.016.009C258.573,257.392,258.579,258.69,257.2,259.487Z" transform="translate(-234.442 -246.786)" fill="#00defc"/>
        <path id="Trazado_193610" data-name="Trazado 193610" d="M251.49,262.633a5.539,5.539,0,0,1-5.015-.01c-1.389-.8-1.4-2.1-.016-2.894a5.539,5.539,0,0,1,5.015.009C252.864,260.538,252.871,261.836,251.49,262.633Z" transform="translate(-237.081 -245.331)" fill="#00defc"/>
        <path id="Trazado_193611" data-name="Trazado 193611" d="M245.783,265.779a5.542,5.542,0,0,1-5.016-.01c-1.389-.8-1.4-2.1-.015-2.9a5.539,5.539,0,0,1,5.015.01C247.156,263.685,247.163,264.982,245.783,265.779Z" transform="translate(-239.721 -243.877)" fill="#00defc"/>
      </g>
    </g>
    <g id="Grupo_132661" data-name="Grupo 132661" transform="translate(467.974 239.824)">
      <path id="Trazado_193658" data-name="Trazado 193658" d="M433.221,258.816,376.384,225.95c-3.241-1.87-5.867-6.889-5.867-11.209V201.272c0-4.32,2.626-6.306,5.867-4.435L433.221,229.7c3.239,1.872,5.866,6.889,5.866,11.209V254.38C439.087,258.7,436.461,260.686,433.221,258.816Z" transform="translate(-370.517 -194.724)" fill="#00defc"/>
      <path id="Trazado_193659" data-name="Trazado 193659" d="M432.934,251.4,376.99,219.05a9.973,9.973,0,0,1-4.219-8.356v-9.653a1.039,1.039,0,0,1,1.565-.895l.184.107,56.011,32.39c3.1,1.788,4.219,4.968,4.219,8.356v9.5a1.122,1.122,0,0,1-1.679.974Z" transform="translate(-369.475 -192.935)" fill="#063b76"/>
      <path id="Trazado_193660" data-name="Trazado 193660" d="M434.009,250.7l-.136-.078L377.929,218.28a9.974,9.974,0,0,1-4.22-8.356v-9.653a1.052,1.052,0,0,1,.037-.265,1.036,1.036,0,0,0-.974,1.032v9.653a9.973,9.973,0,0,0,4.219,8.356l55.944,32.345.137.078a1.121,1.121,0,0,0,1.623-.635A1.1,1.1,0,0,1,434.009,250.7Z" transform="translate(-369.475 -192.933)" fill="#001a46"/>
      <path id="Trazado_193661" data-name="Trazado 193661" d="M435.282,228.74l-56.837-32.866a3.964,3.964,0,0,0-3.432-.5c-.123.047-2.859,1.443-2.975,1.506l0,0a3.838,3.838,0,0,1,3.649.4l56.837,32.867c3.239,1.87,5.866,6.888,5.866,11.208v13.469c0,2.7-1.024,4.482-2.58,4.99a.97.97,0,0,0,.513-.174c.075-.042,2.95-1.571,3.021-1.62,1.114-.781,1.808-2.384,1.808-4.605V239.947C441.148,235.627,438.522,230.61,435.282,228.74Z" transform="translate(-369.816 -195.169)" fill="#0ba19f"/>
      <path id="Trazado_193662" data-name="Trazado 193662" d="M435.282,228.74l-56.837-32.866a3.964,3.964,0,0,0-3.432-.5c-.123.047-2.859,1.443-2.975,1.506l0,0a3.838,3.838,0,0,1,3.649.4l56.837,32.867Z" transform="translate(-369.816 -195.169)" fill="#00b2ca"/>
      <path id="Trazado_193663" data-name="Trazado 193663" d="M432.675,229.6l-56.837-32.866a3.9,3.9,0,0,0-3.533-.452,4.328,4.328,0,0,1,2.83.664l56.837,32.866c3.239,1.87,5.866,6.888,5.866,11.208v13.469c0,2.549-.918,4.276-2.333,4.887,1.81-.288,3.036-2.147,3.036-5.1V240.813C438.541,236.494,435.916,231.475,432.675,229.6Z" transform="translate(-369.69 -194.766)" fill="#fff" opacity="0.7"/>
      <g id="Grupo_132659" data-name="Grupo 132659" transform="translate(13.078 17.158)">
        <path id="Trazado_193664" data-name="Trazado 193664" d="M404.413,223.9a7.8,7.8,0,0,0,3.536,6.1c1.954,1.128,3.538.225,3.538-2.017a7.793,7.793,0,0,0-3.538-6.1C406,220.755,404.413,221.657,404.413,223.9Z" transform="translate(-367.922 -200.2)" fill="#001a46"/>
        <path id="Trazado_193665" data-name="Trazado 193665" d="M398.175,220.275a7.8,7.8,0,0,0,3.536,6.1c1.954,1.127,3.538.225,3.538-2.017a7.8,7.8,0,0,0-3.538-6.1C399.759,217.131,398.175,218.035,398.175,220.275Z" transform="translate(-370.806 -201.875)" fill="#001a46"/>
        <path id="Trazado_193666" data-name="Trazado 193666" d="M391.937,216.652a7.789,7.789,0,0,0,3.536,6.1c1.954,1.129,3.537.225,3.537-2.017a7.793,7.793,0,0,0-3.537-6.1C393.519,213.508,391.937,214.41,391.937,216.652Z" transform="translate(-373.691 -203.551)" fill="#001a46"/>
        <path id="Trazado_193667" data-name="Trazado 193667" d="M385.7,213.028a7.8,7.8,0,0,0,3.538,6.1c1.954,1.128,3.538.225,3.538-2.017a7.793,7.793,0,0,0-3.538-6.1C387.282,209.884,385.7,210.786,385.7,213.028Z" transform="translate(-376.576 -205.226)" fill="#001a46"/>
        <path id="Trazado_193668" data-name="Trazado 193668" d="M379.46,209.4a7.793,7.793,0,0,0,3.537,6.1c1.954,1.128,3.536.225,3.536-2.017a7.794,7.794,0,0,0-3.536-6.1C381.044,206.26,379.46,207.164,379.46,209.4Z" transform="translate(-379.46 -206.902)" fill="#001a46"/>
      </g>
      <g id="Grupo_132660" data-name="Grupo 132660" transform="translate(11.984 17.231)">
        <path id="Trazado_193669" data-name="Trazado 193669" d="M403.664,223.949a7.8,7.8,0,0,0,3.537,6.1c1.954,1.128,3.536.225,3.536-2.017a7.791,7.791,0,0,0-3.536-6.1C405.248,220.805,403.664,221.707,403.664,223.949Z" transform="translate(-367.174 -200.25)" fill="#a8cff0"/>
        <path id="Trazado_193670" data-name="Trazado 193670" d="M397.426,220.325a7.793,7.793,0,0,0,3.538,6.1c1.952,1.128,3.536.225,3.536-2.017a7.8,7.8,0,0,0-3.536-6.1C399.01,217.181,397.426,218.085,397.426,220.325Z" transform="translate(-370.059 -201.925)" fill="#a8cff0"/>
        <path id="Trazado_193671" data-name="Trazado 193671" d="M391.188,216.7a7.793,7.793,0,0,0,3.538,6.1c1.952,1.128,3.536.225,3.536-2.017a7.8,7.8,0,0,0-3.536-6.1C392.772,213.558,391.188,214.46,391.188,216.7Z" transform="translate(-372.943 -203.601)" fill="#a8cff0"/>
        <path id="Trazado_193672" data-name="Trazado 193672" d="M384.95,213.078a7.8,7.8,0,0,0,3.537,6.1c1.952,1.128,3.536.224,3.536-2.017a7.8,7.8,0,0,0-3.536-6.1C386.534,209.934,384.95,210.836,384.95,213.078Z" transform="translate(-375.828 -205.276)" fill="#a8cff0"/>
        <path id="Trazado_193673" data-name="Trazado 193673" d="M378.712,209.454a7.8,7.8,0,0,0,3.536,6.1c1.954,1.128,3.538.225,3.538-2.017a7.8,7.8,0,0,0-3.538-6.1C380.3,206.31,378.712,207.214,378.712,209.454Z" transform="translate(-378.712 -206.952)" fill="#a8cff0"/>
      </g>
    </g>
    <g id="Grupo_132668" data-name="Grupo 132668" transform="translate(215.361 265.584)">
      <path id="Trazado_193674" data-name="Trazado 193674" d="M271.578,296.158c0,1.129,1.572,2.044,3.511,2.044s3.511-.915,3.511-2.044-1.572-2.044-3.511-2.044S271.578,295.029,271.578,296.158Z" transform="translate(-163.653 -175.178)" fill="#ffb30b"/>
      <path id="Trazado_193675" data-name="Trazado 193675" d="M323.156,334.387l-4.844,3.93,8.774,2.925Z" transform="translate(-142.044 -156.556)" fill="#ffb30b"/>
      <g id="Grupo_132663" data-name="Grupo 132663" transform="translate(318.379)">
        <g id="Grupo_132662" data-name="Grupo 132662">
          <path id="Trazado_193676" data-name="Trazado 193676" d="M427.067,234.078a.731.731,0,0,1-.731-.731V230.42a.731.731,0,0,1,1.462,0v2.926A.731.731,0,0,1,427.067,234.078Zm0-7.313a.731.731,0,0,1-.731-.717,10.278,10.278,0,0,0-.409-2.692.732.732,0,0,1,1.405-.409,11.863,11.863,0,0,1,.467,3.074.731.731,0,0,1-.717.744Zm-2.46-6.742a.729.729,0,0,1-.569-.271,10.246,10.246,0,0,0-1.982-1.866.732.732,0,0,1,.854-1.189,11.776,11.776,0,0,1,2.264,2.134.73.73,0,0,1-.567,1.192Zm-5.871-4.279a.723.723,0,0,1-.374-.1l-2.514-1.5a.731.731,0,1,1,.749-1.256l2.514,1.5a.731.731,0,0,1-.374,1.36Z" transform="translate(-415.489 -212.784)" fill="#00defc"/>
        </g>
      </g>
      <g id="Grupo_132665" data-name="Grupo 132665" transform="translate(114.604 122.564)">
        <g id="Grupo_132664" data-name="Grupo 132664">
          <path id="Trazado_193677" data-name="Trazado 193677" d="M344.512,357.163a.721.721,0,0,1-.386-.113l-1.158-.722a.73.73,0,1,1,.774-1.239l1.158.722a.732.732,0,0,1-.388,1.351Zm-4.881-3.043a.721.721,0,0,1-.386-.113l-2.48-1.547a.731.731,0,1,1,.774-1.24l2.48,1.549a.732.732,0,0,1-.388,1.351Zm-6.2-3.871a.715.715,0,0,1-.386-.111l-2.483-1.549a.731.731,0,1,1,.775-1.239l2.482,1.547a.731.731,0,0,1-.388,1.351Zm-6.2-3.868a.733.733,0,0,1-.388-.111l-2.482-1.549a.731.731,0,0,1,.774-1.24l2.483,1.549a.732.732,0,0,1-.388,1.351Zm-5.263-4.751a.733.733,0,0,1-.711-.563,5.071,5.071,0,0,1-.136-1.157v-1.927a.731.731,0,0,1,1.462,0v1.927a3.6,3.6,0,0,0,.1.819.732.732,0,0,1-.543.88A.675.675,0,0,1,321.96,341.629Zm-.116-7.3a.731.731,0,0,1-.731-.731V330.67a.731.731,0,0,1,1.462,0V333.6A.731.731,0,0,1,321.845,334.326Zm-.031-7.31a.732.732,0,0,1-.725-.649,4.742,4.742,0,0,0-.929-2.325.731.731,0,1,1,1.165-.882,6.184,6.184,0,0,1,1.217,3.042.733.733,0,0,1-.643.81A.844.844,0,0,1,321.814,327.016Zm-4.6-5.235a.732.732,0,0,1-.371-.1l-2.52-1.483a.731.731,0,1,1,.743-1.259l2.52,1.483a.73.73,0,0,1-.371,1.36Zm-6.3-3.707a.728.728,0,0,1-.371-.1l-2.521-1.483a.731.731,0,0,1,.743-1.259l2.521,1.483a.731.731,0,0,1-.371,1.36Zm-6.3-3.706a.728.728,0,0,1-.371-.1l-2.521-1.484a.731.731,0,1,1,.743-1.259l2.521,1.483a.731.731,0,0,1-.371,1.361Zm-6.3-3.707a.743.743,0,0,1-.371-.1l-2.521-1.483a.731.731,0,1,1,.743-1.259l2.521,1.481a.732.732,0,0,1-.371,1.362Zm-6.3-3.707a.73.73,0,0,1-.371-.1l-2.52-1.481a.731.731,0,0,1,.741-1.261l2.521,1.483a.731.731,0,0,1-.371,1.362Zm-6.3-3.706a.721.721,0,0,1-.37-.1l-2.523-1.483a.73.73,0,1,1,.74-1.259l2.521,1.483a.731.731,0,0,1-.369,1.362Zm-6.3-3.709a.729.729,0,0,1-.371-.1l-2.521-1.483a.731.731,0,0,1,.743-1.259l2.521,1.483a.73.73,0,0,1-.371,1.36Z" transform="translate(-276.145 -296.595)" fill="#ffb30b"/>
        </g>
      </g>
      <g id="Grupo_132666" data-name="Grupo 132666" transform="translate(32.954 27.677)">
        <path id="Trazado_193678" data-name="Trazado 193678" d="M273.019,262.131a.722.722,0,0,1-.369-.1l-2.041-1.192a.731.731,0,1,1,.737-1.262l2.041,1.192a.731.731,0,0,1-.368,1.363Zm-5.831-3.4a.718.718,0,0,1-.369-.1l-2.526-1.474a.73.73,0,1,1,.736-1.262l2.527,1.474a.732.732,0,0,1-.369,1.363Zm-6.315-3.687a.716.716,0,0,1-.368-.1l-2.526-1.476a.731.731,0,1,1,.737-1.262l2.526,1.474a.732.732,0,0,1-.369,1.363Zm-6.315-3.687a.718.718,0,0,1-.369-.1l-2.526-1.474a.731.731,0,1,1,.737-1.262l2.526,1.474a.731.731,0,0,1-.369,1.363Zm-6.315-3.687a.716.716,0,0,1-.369-.1l-2.526-1.476a.731.731,0,0,1,.737-1.262l2.526,1.476a.73.73,0,0,1-.368,1.361Zm-6.313-3.687a.718.718,0,0,1-.369-.1l-2.527-1.474a.731.731,0,1,1,.737-1.262l2.527,1.474a.732.732,0,0,1-.369,1.363Zm-6.316-3.687a.716.716,0,0,1-.368-.1l-2.526-1.476a.731.731,0,1,1,.737-1.262l2.526,1.474a.731.731,0,0,1-.369,1.363Zm-6.315-3.687a.718.718,0,0,1-.369-.1l-2.526-1.474a.731.731,0,0,1,.737-1.262l2.526,1.474a.732.732,0,0,1-.369,1.363Zm-8.258-1.556a.731.731,0,0,1-.731-.731,2.621,2.621,0,0,1,2.571-2.609h.012a.731.731,0,0,1,.012,1.462,1.155,1.155,0,0,0-1.132,1.147A.73.73,0,0,1,221.043,235.05Z" transform="translate(-220.312 -231.71)" fill="#00defc"/>
      </g>
      <g id="Grupo_132667" data-name="Grupo 132667" transform="translate(1.147 17.15)">
        <path id="Trazado_193679" data-name="Trazado 193679" d="M227.049,242.245a.738.738,0,0,1-.37-.1l-2.524-1.478a.732.732,0,0,1,.74-1.263l2.524,1.48a.732.732,0,0,1-.37,1.363Zm-6.309-3.7a.74.74,0,0,1-.37-.1l-2.523-1.48a.731.731,0,1,1,.74-1.262l2.523,1.48a.731.731,0,0,1-.37,1.361Zm-6.307-3.7a.74.74,0,0,1-.37-.1l-2.524-1.478a.731.731,0,0,1,.74-1.262l2.524,1.477a.731.731,0,0,1-.37,1.363Zm-6.309-3.7a.742.742,0,0,1-.37-.1l-2.523-1.478a.732.732,0,1,1,.74-1.263l2.523,1.48a.731.731,0,0,1-.37,1.363Zm-6.307-3.7a.736.736,0,0,1-.37-.1l-2.524-1.48a.731.731,0,1,1,.74-1.261l2.524,1.478a.731.731,0,0,1-.37,1.361Z" transform="translate(-198.562 -224.511)" fill="#00defc"/>
      </g>
      <path id="Trazado_193680" data-name="Trazado 193680" d="M205.384,226.064l-4.509,3.29-3.1-5.3Z" transform="translate(-197.777 -207.573)" fill="#00defc"/>
    </g>
    <g id="Grupo_132673" data-name="Grupo 132673" transform="translate(168.021 252.169)">
      <path id="Trazado_193692" data-name="Trazado 193692" d="M191.214,221.742a4.342,4.342,0,0,1-3.925.007.675.675,0,0,0-.613,0l-15.3,8.836-2.049-1.183c-.168-.1-.167-.256,0-.354l17.348-10.016a.675.675,0,0,1,.613,0,4.342,4.342,0,0,0,3.925-.007,1.4,1.4,0,0,0,.815-1.114l.009,0v2.678l-.016-.006A1.353,1.353,0,0,1,191.214,221.742Z" transform="translate(-163.652 -197.001)" fill="#063b76"/>
      <path id="Trazado_193693" data-name="Trazado 193693" d="M187.629,216.042a2.92,2.92,0,0,0,1.731,2.477,4.339,4.339,0,0,0,3.924-.007,1.2,1.2,0,0,0,.013-2.267c-.17-.1-.168-.256,0-.354l17.348-10.016a.675.675,0,0,1,.613,0l9.9,5.718c.168.1.167.256,0,.354l-2.046,1.182-7.856-4.535a.675.675,0,0,0-.613,0l-16.515,9.535v1.936l-.037-.02a1.354,1.354,0,0,1-.812,1.185,4.334,4.334,0,0,1-3.924.007,3.059,3.059,0,0,1-1.7-2.182l-.06-.06v-2.966Z" transform="translate(-155.141 -202.598)" fill="#063b76"/>
      <path id="Trazado_193694" data-name="Trazado 193694" d="M181.4,227.989a5.417,5.417,0,0,0,4.906-.009l22.146-12.786c1.359-.785,1.366-2.053.015-2.833a5.418,5.418,0,0,0-4.9.009l-22.148,12.786C180.06,225.942,180.053,227.21,181.4,227.989Z" transform="translate(-158.475 -199.834)" fill="#3f92d1"/>
      <path id="Trazado_193695" data-name="Trazado 193695" d="M188.6,223c.17.1.168.256,0,.354l-.829.478v-2.135l.053.01A1.271,1.271,0,0,0,188.6,223Z" transform="translate(-155.063 -195.249)" fill="#063b76"/>
      <path id="Trazado_193696" data-name="Trazado 193696" d="M167.134,229.508l9.9,5.718a9.366,9.366,0,0,0,8.464-.015L202.848,225.2a2.887,2.887,0,0,0,1.739-2.6l.028,0v3.048l-.031-.009a3.069,3.069,0,0,1-1.736,2.277L185.5,237.93a9.371,9.371,0,0,1-8.464.015l-9.9-5.718a3.058,3.058,0,0,1-1.7-2.189l-.015-.018v-2.79A3.012,3.012,0,0,0,167.134,229.508Z" transform="translate(-165.398 -194.834)" fill="#063b76"/>
      <path id="Trazado_193697" data-name="Trazado 193697" d="M181.4,227.262a5.417,5.417,0,0,0,4.906-.009l22.146-12.786a1.935,1.935,0,0,0,.972-1.116v2.091c.17.614-.149,1.266-.972,1.742l-22.146,12.787a5.426,5.426,0,0,1-4.906.009,1.906,1.906,0,0,1-.956-1.092h-.012v-.072a1.141,1.141,0,0,1,0-.483V226.1A1.836,1.836,0,0,0,181.4,227.262Z" transform="translate(-158.47 -199.107)" fill="#063b76"/>
      <path id="Trazado_193698" data-name="Trazado 193698" d="M189.353,219.531a4.337,4.337,0,0,0,3.925-.006,1.2,1.2,0,0,0,.013-2.267c-.17-.1-.168-.256,0-.354l17.348-10.016a.68.68,0,0,1,.613,0l9.9,5.718c.168.1.167.256,0,.354l-17.348,10.016a.675.675,0,0,1-.613,0,4.337,4.337,0,0,0-3.925.007,1.2,1.2,0,0,0-.012,2.265,9.363,9.363,0,0,0,8.463-.015l17.348-10.016c2.34-1.351,2.352-3.543.026-4.886l-9.9-5.718a9.363,9.363,0,0,0-8.463.015l-17.348,10.016C187.039,216,187.028,218.188,189.353,219.531Z" transform="translate(-155.136 -203.611)" fill="#3f92d1"/>
      <path id="Trazado_193699" data-name="Trazado 193699" d="M195.839,222.4a9.363,9.363,0,0,0,8.463-.015l17.348-10.016a2.914,2.914,0,0,0,1.745-2.562l.032-.02v3.089l-.057.013a3.112,3.112,0,0,1-1.72,2.2L204.3,225.1a9.368,9.368,0,0,1-8.463.015,1.449,1.449,0,0,1-.779-.964l-.05,0v-2.882l.025.01A1.373,1.373,0,0,0,195.839,222.4Z" transform="translate(-151.717 -200.757)" fill="#063b76"/>
      <path id="Trazado_193700" data-name="Trazado 193700" d="M167.142,232.355l9.9,5.718a9.371,9.371,0,0,0,8.464-.015l17.347-10.016c2.341-1.351,2.353-3.543.028-4.887a4.342,4.342,0,0,0-3.925.007,1.2,1.2,0,0,0-.013,2.267c.17.1.168.256,0,.354L181.6,235.8a.68.68,0,0,1-.613,0l-9.9-5.718c-.168-.1-.167-.256,0-.354l17.348-10.016a.675.675,0,0,1,.613,0,4.342,4.342,0,0,0,3.925-.007,1.2,1.2,0,0,0,.012-2.265,9.363,9.363,0,0,0-8.463.015l-17.348,10.016C164.828,228.82,164.817,231.012,167.142,232.355Z" transform="translate(-165.406 -197.681)" fill="#3f92d1"/>
      <path id="Trazado_193701" data-name="Trazado 193701" d="M181.392,227.111a5.417,5.417,0,0,0,4.906-.009l22.146-12.786a1.923,1.923,0,0,0,.972-1.119,1.174,1.174,0,0,1,.018.227,1.835,1.835,0,0,1-.99,1.221L186.3,227.431a5.417,5.417,0,0,1-4.906.009,1.793,1.793,0,0,1-.973-1.2,1.249,1.249,0,0,1,.015-.221A1.9,1.9,0,0,0,181.392,227.111Z" transform="translate(-158.463 -199.178)" fill="#72b5e8"/>
      <path id="Trazado_193702" data-name="Trazado 193702" d="M219.146,211.637l-9.675-5.586a.68.68,0,0,0-.613,0l-17.144,9.9a2.057,2.057,0,0,0-.206-.146.408.408,0,0,1-.037-.032.214.214,0,0,1,.038-.034l17.348-10.016a.68.68,0,0,1,.613,0l9.9,5.718a.261.261,0,0,1,.037.032.3.3,0,0,1-.039.034Z" transform="translate(-153.353 -202.668)" fill="#72b5e8"/>
      <path id="Trazado_193703" data-name="Trazado 193703" d="M195.823,222.105a9.363,9.363,0,0,0,8.463-.015l17.348-10.016a3.144,3.144,0,0,0,1.712-2.147c.009.061.007.124.012.186a3.031,3.031,0,0,1-1.724,2.29L204.286,222.42a9.363,9.363,0,0,1-8.463.015,1.441,1.441,0,0,1-.778-.964.994.994,0,0,1,.023-.184A1.572,1.572,0,0,0,195.823,222.105Z" transform="translate(-151.701 -200.69)" fill="#72b5e8"/>
      <path id="Trazado_193704" data-name="Trazado 193704" d="M189.341,215.015a4.337,4.337,0,0,0,3.925-.006,1.617,1.617,0,0,0,.768-.829.961.961,0,0,1,.022.183,1.471,1.471,0,0,1-.79.975,4.337,4.337,0,0,1-3.925.006,2.986,2.986,0,0,1-1.7-2.262c0-.063,0-.124.013-.187A3.093,3.093,0,0,0,189.341,215.015Z" transform="translate(-155.123 -199.318)" fill="#72b5e8"/>
      <path id="Trazado_193705" data-name="Trazado 193705" d="M186.648,218.789a.675.675,0,0,1,.613,0,4.342,4.342,0,0,0,3.925-.007,1.6,1.6,0,0,0,.766-.829.963.963,0,0,1,.023.183,1.469,1.469,0,0,1-.79.975,4.337,4.337,0,0,1-3.925.007.675.675,0,0,0-.613,0L169.526,229l-.23-.133a.253.253,0,0,1-.037-.031.3.3,0,0,1,.039-.034Z" transform="translate(-163.624 -196.98)" fill="#72b5e8"/>
      <path id="Trazado_193706" data-name="Trazado 193706" d="M167.13,229.212l9.9,5.718a9.366,9.366,0,0,0,8.464-.015L202.844,224.9a3.143,3.143,0,0,0,1.712-2.148,1.6,1.6,0,0,1,.012.187,3.024,3.024,0,0,1-1.724,2.29L185.5,235.244a9.366,9.366,0,0,1-8.464.015l-9.9-5.718a2.982,2.982,0,0,1-1.7-2.262c0-.063,0-.126.013-.187A3.089,3.089,0,0,0,167.13,229.212Z" transform="translate(-165.394 -194.761)" fill="#72b5e8"/>
    </g>
    <g id="Grupo_132678" data-name="Grupo 132678" transform="translate(159.75 310.186)">
      <path id="Trazado_193707" data-name="Trazado 193707" d="M161.581,283.714c-2.43-1.4-2.444-3.681-.028-5.076l19.976-11.532a13.568,13.568,0,0,1,12.262.022c3.391,1.958,3.409,5.134.038,7.079l-17.844,10.3a1.5,1.5,0,0,1-1.359,0,.414.414,0,0,1,0-.785l17.844-10.3c2.624-1.514,2.61-3.986-.029-5.51a10.562,10.562,0,0,0-9.546-.018l-19.975,11.532c-1.67.964-1.661,2.537.019,3.507a6.725,6.725,0,0,0,6.075.012L188.141,271.9a.837.837,0,0,0-.009-1.585,3.044,3.044,0,0,0-2.746-.006l-15.939,9.2c-.086.05-.085.13,0,.18a.344.344,0,0,0,.311,0l11.724-6.769a1.507,1.507,0,0,1,1.359,0,.414.414,0,0,1,0,.784l-11.724,6.769a3.349,3.349,0,0,1-3.029-.006.924.924,0,0,1-.01-1.749l15.94-9.2a6.045,6.045,0,0,1,5.462.009c1.511.873,1.518,2.287.018,3.154L170.373,283.73A9.73,9.73,0,0,1,161.581,283.714Z" transform="translate(-159.75 -232.94)" fill="#92b4d1" opacity="0.2"/>
      <path id="Trazado_193708" data-name="Trazado 193708" d="M161.581,283.363c-2.43-1.4-2.444-3.681-.028-5.076l19.976-11.532a13.568,13.568,0,0,1,12.262.022c3.391,1.958,3.409,5.133.038,7.079l-17.844,10.3a1.5,1.5,0,0,1-1.359,0,.413.413,0,0,1,0-.784l17.844-10.3c2.624-1.515,2.61-3.986-.029-5.512a10.567,10.567,0,0,0-9.546-.016l-19.975,11.532c-1.67.964-1.661,2.537.019,3.507a6.721,6.721,0,0,0,6.075.01l19.131-11.044a.838.838,0,0,0-.009-1.587,3.043,3.043,0,0,0-2.746,0l-15.939,9.2c-.086.05-.085.13,0,.18a.349.349,0,0,0,.311,0l11.724-6.769a1.5,1.5,0,0,1,1.359,0,.414.414,0,0,1,0,.784l-11.724,6.769a3.358,3.358,0,0,1-3.029-.006.924.924,0,0,1-.01-1.749l15.94-9.2a6.045,6.045,0,0,1,5.462.01c1.511.872,1.518,2.287.018,3.154l-19.131,11.045A9.735,9.735,0,0,1,161.581,283.363Z" transform="translate(-159.75 -233.102)" fill="#2672ab"/>
      <g id="Grupo_132674" data-name="Grupo 132674" transform="translate(0.027 32.794)">
        <path id="Trazado_193709" data-name="Trazado 193709" d="M185.086,268.24a3.044,3.044,0,0,0-2.746,0l-15.939,9.2c-.086.05-.085.13,0,.18a.344.344,0,0,0,.311,0l11.724-6.768a1.323,1.323,0,0,1,.448-.107l3.454-1.995a3.043,3.043,0,0,1,2.746,0,1.082,1.082,0,0,1,.486.543C185.722,268.928,185.583,268.528,185.086,268.24Z" transform="translate(-156.73 -264.69)" fill="#063b76"/>
        <path id="Trazado_193710" data-name="Trazado 193710" d="M165.645,277.778a3.349,3.349,0,0,0,3.029,0l11.724-6.768c.3-.175.345-.437.152-.648a.6.6,0,0,1-.152.135l-11.724,6.768a3.349,3.349,0,0,1-3.029-.006,1.169,1.169,0,0,1-.545-.622A.921.921,0,0,0,165.645,277.778Z" transform="translate(-157.327 -263.554)" fill="#063b76"/>
        <path id="Trazado_193711" data-name="Trazado 193711" d="M191.824,266.856a10.571,10.571,0,0,0-9.546-.018L162.3,278.372a1.965,1.965,0,0,0-1.2,2,2.238,2.238,0,0,1,1.2-1.486l19.975-11.534a10.567,10.567,0,0,1,9.546.019,3.5,3.5,0,0,1,1.946,2.509C193.892,268.8,193.262,267.685,191.824,266.856Z" transform="translate(-159.163 -265.708)" fill="#063b76"/>
        <path id="Trazado_193712" data-name="Trazado 193712" d="M189.213,271.834l-17.844,10.3a1.5,1.5,0,0,1-1.359,0,.642.642,0,0,1-.158-.137c-.194.211-.151.474.158.651a1.5,1.5,0,0,0,1.359,0l17.844-10.3c1.794-1.037,2.6-2.42,2.474-3.783A4.376,4.376,0,0,1,189.213,271.834Z" transform="translate(-155.159 -264.388)" fill="#063b76"/>
        <path id="Trazado_193713" data-name="Trazado 193713" d="M190.573,268.862a2.039,2.039,0,0,1-1.078,1.31l-19.131,11.045a9.735,9.735,0,0,1-8.792-.015,3.23,3.23,0,0,1-1.788-2.293,2.94,2.94,0,0,0,1.788,2.806,9.73,9.73,0,0,0,8.792.016L189.5,270.686A1.758,1.758,0,0,0,190.573,268.862Z" transform="translate(-159.768 -264.25)" fill="#063b76"/>
      </g>
      <g id="Grupo_132676" data-name="Grupo 132676" transform="translate(3.494)">
        <path id="Trazado_193714" data-name="Trazado 193714" d="M196.9,261.774c2.43-1.4,2.444-3.681.028-5.076l-19.976-11.532a13.573,13.573,0,0,0-12.262.022c-3.391,1.958-3.409,5.134-.038,7.079l17.844,10.3a1.507,1.507,0,0,0,1.359,0,.414.414,0,0,0,0-.785l-17.844-10.3c-2.624-1.514-2.61-3.986.029-5.51a10.564,10.564,0,0,1,9.545-.018l19.976,11.532c1.669.964,1.661,2.537-.019,3.508a6.725,6.725,0,0,1-6.075.01l-19.131-11.045a.837.837,0,0,1,.009-1.585,3.039,3.039,0,0,1,2.746,0l15.939,9.2a.1.1,0,0,1,0,.18.344.344,0,0,1-.311,0L177,250.983a1.5,1.5,0,0,0-1.359,0,.415.415,0,0,0,0,.785l11.724,6.768a3.349,3.349,0,0,0,3.029-.006.924.924,0,0,0,.01-1.749l-15.94-9.2a6.045,6.045,0,0,0-5.462.009c-1.511.873-1.518,2.287-.018,3.154l19.131,11.045A9.73,9.73,0,0,0,196.9,261.774Z" transform="translate(-162.139 -243.085)" fill="#92b4d1" opacity="0.2"/>
        <path id="Trazado_193715" data-name="Trazado 193715" d="M196.9,261.345c2.43-1.4,2.444-3.681.028-5.076l-19.976-11.532a13.568,13.568,0,0,0-12.262.022c-3.391,1.958-3.409,5.134-.038,7.079l17.844,10.3a1.5,1.5,0,0,0,1.359,0,.414.414,0,0,0,0-.785l-17.844-10.3c-2.624-1.515-2.61-3.986.029-5.51a10.559,10.559,0,0,1,9.545-.018l19.976,11.532c1.669.964,1.661,2.537-.019,3.507a6.721,6.721,0,0,1-6.075.012l-19.131-11.045a.837.837,0,0,1,.009-1.585,3.034,3.034,0,0,1,2.746,0l15.939,9.2a.1.1,0,0,1,0,.18.344.344,0,0,1-.311,0L177,250.552a1.507,1.507,0,0,0-1.359,0,.414.414,0,0,0,0,.784l11.724,6.769a3.353,3.353,0,0,0,3.029-.006.924.924,0,0,0,.01-1.749l-15.94-9.2a6.046,6.046,0,0,0-5.462.009c-1.511.872-1.518,2.287-.018,3.154l19.131,11.045A9.73,9.73,0,0,0,196.9,261.345Z" transform="translate(-162.139 -243.283)" fill="#72b5e8"/>
        <g id="Grupo_132675" data-name="Grupo 132675" transform="translate(0.028 0.652)">
          <path id="Trazado_193716" data-name="Trazado 193716" d="M194.954,256.393l-19.975-11.534a10.571,10.571,0,0,0-9.546.018c-1.424.823-2.058,1.92-1.951,2.995a3.475,3.475,0,0,1,1.951-2.537,10.567,10.567,0,0,1,9.546-.018l19.975,11.532a2.226,2.226,0,0,1,1.208,1.515A1.98,1.98,0,0,0,194.954,256.393Z" transform="translate(-161.551 -243.729)" fill="#3f92d1"/>
          <path id="Trazado_193717" data-name="Trazado 193717" d="M167.927,246.717a3.043,3.043,0,0,1,2.746,0l3.622,2.093a1.346,1.346,0,0,1,.279.066L186.3,255.64a.344.344,0,0,0,.311,0c.086-.05.088-.13,0-.18l-15.939-9.2a3.043,3.043,0,0,0-2.746,0,.839.839,0,0,0-.5,1.027A1.058,1.058,0,0,1,167.927,246.717Z" transform="translate(-159.741 -242.711)" fill="#3f92d1"/>
          <path id="Trazado_193718" data-name="Trazado 193718" d="M186.209,255.293a3.344,3.344,0,0,1-3.029.007l-11.724-6.769a.622.622,0,0,1-.186-.162c-.161.2-.1.452.186.619l11.724,6.769a3.349,3.349,0,0,0,3.029-.006.929.929,0,0,0,.554-1.107A1.141,1.141,0,0,1,186.209,255.293Z" transform="translate(-157.985 -241.584)" fill="#3f92d1"/>
          <path id="Trazado_193719" data-name="Trazado 193719" d="M184.041,260a.637.637,0,0,1-.192.165,1.5,1.5,0,0,1-1.359,0l-17.844-10.3a4.362,4.362,0,0,1-2.479-3.3c-.111,1.354.7,2.726,2.479,3.755l17.844,10.3a1.5,1.5,0,0,0,1.359,0C184.142,260.452,184.2,260.2,184.041,260Z" transform="translate(-162.158 -242.418)" fill="#3f92d1"/>
          <path id="Trazado_193720" data-name="Trazado 193720" d="M195.09,259.233a9.739,9.739,0,0,1-8.792.016L167.167,248.2a2.024,2.024,0,0,1-1.084-1.34,1.774,1.774,0,0,0,1.084,1.8L186.3,259.705a9.73,9.73,0,0,0,8.792-.016,2.957,2.957,0,0,0,1.793-2.777A3.215,3.215,0,0,1,195.09,259.233Z" transform="translate(-160.353 -242.28)" fill="#3f92d1"/>
        </g>
      </g>
      <path id="Trazado_193721" data-name="Trazado 193721" d="M199.151,266.349c-3.163.488-6.771-.478-8.04-2.157l-10.494-13.878c-1.771-2.341.379-4.8,4.791-5.483s9.444.667,11.215,3.01l9.375,12.4c.2.259-.041.532-.531.607a1.437,1.437,0,0,1-1.243-.333l-9.375-12.4c-1.378-1.822-5.294-2.874-8.729-2.343s-5.108,2.447-3.731,4.269l10.5,13.877c.877,1.161,3.369,1.829,5.554,1.492s3.252-1.557,2.375-2.717L190.761,249.4a2.909,2.909,0,0,0-2.511-.674c-.987.154-1.468.7-1.072,1.228l8.374,11.073a.333.333,0,0,0,.285.076c.113-.018.168-.08.123-.139l-6.16-8.145c-.2-.259.041-.531.531-.607a1.433,1.433,0,0,1,1.242.333l6.16,8.144c.437.579-.094,1.186-1.183,1.356a3.207,3.207,0,0,1-2.77-.744L185.4,250.229c-.788-1.043.168-2.138,2.135-2.442s4.207.3,5,1.34l10.051,13.292C203.855,264.1,202.314,265.86,199.151,266.349Z" transform="translate(-150.388 -242.65)" fill="#92b4d1" opacity="0.2"/>
      <path id="Trazado_193722" data-name="Trazado 193722" d="M199.151,265.92c-3.163.488-6.771-.48-8.04-2.157l-10.494-13.878c-1.771-2.341.379-4.8,4.791-5.483s9.444.667,11.215,3.008l9.375,12.4c.2.259-.041.531-.531.607a1.437,1.437,0,0,1-1.243-.333l-9.375-12.4c-1.378-1.824-5.294-2.874-8.729-2.343s-5.108,2.445-3.731,4.269l10.5,13.877c.877,1.16,3.369,1.828,5.554,1.49s3.252-1.556,2.375-2.716l-10.052-13.29a2.9,2.9,0,0,0-2.511-.674c-.987.152-1.468.7-1.072,1.228l8.374,11.073a.333.333,0,0,0,.285.076c.113-.018.168-.08.123-.139l-6.16-8.146c-.2-.26.041-.532.531-.607a1.433,1.433,0,0,1,1.242.333l6.16,8.144c.437.578-.094,1.186-1.183,1.354a3.212,3.212,0,0,1-2.77-.743L185.4,249.8c-.788-1.043.168-2.139,2.135-2.442s4.207.3,5,1.34l10.051,13.29C203.855,263.666,202.314,265.43,199.151,265.92Z" transform="translate(-150.388 -242.848)" fill="#2672ab"/>
      <g id="Grupo_132677" data-name="Grupo 132677" transform="translate(29.637 1.786)">
        <path id="Trazado_193723" data-name="Trazado 193723" d="M186.821,249.51c-.164.12-.222.278-.1.437l5.793,7.66a.349.349,0,0,0,.244.054c.113-.018.168-.08.123-.14Z" transform="translate(-176.945 -242.19)" fill="#063b76"/>
        <path id="Trazado_193724" data-name="Trazado 193724" d="M198.579,260.6l-10.051-13.29a2.909,2.909,0,0,0-2.512-.674c-.939.145-1.394.649-1.1,1.149a1.507,1.507,0,0,1,1.1-.579,2.914,2.914,0,0,1,2.512.674l10.051,13.29a1.5,1.5,0,0,1,.253.525A1.248,1.248,0,0,0,198.579,260.6Z" transform="translate(-177.791 -243.539)" fill="#063b76"/>
        <path id="Trazado_193725" data-name="Trazado 193725" d="M205.282,259.544a.935.935,0,0,1-.43.171,1.437,1.437,0,0,1-1.242-.333l-9.377-12.4c-1.378-1.824-5.294-2.874-8.729-2.343-2.793.431-4.389,1.78-4.159,3.248.216-1.234,1.734-2.3,4.159-2.678,3.435-.531,7.351.519,8.729,2.343l9.377,12.4a1.433,1.433,0,0,0,1.242.333c.49-.076.727-.348.531-.608Z" transform="translate(-179.411 -244.505)" fill="#063b76"/>
        <path id="Trazado_193726" data-name="Trazado 193726" d="M183.777,248.356l8.375,11.073a3.2,3.2,0,0,0,2.77.743c1.015-.156,1.511-.7,1.225-1.236a1.623,1.623,0,0,1-1.225.665,3.212,3.212,0,0,1-2.77-.743l-8.375-11.073a1.4,1.4,0,0,1-.222-.439A1.122,1.122,0,0,0,183.777,248.356Z" transform="translate(-178.398 -243.191)" fill="#063b76"/>
        <path id="Trazado_193727" data-name="Trazado 193727" d="M199.141,264.184c-3.163.49-6.771-.478-8.04-2.157L180.607,248.15a2.785,2.785,0,0,1-.566-1.408,2.585,2.585,0,0,0,.566,1.979L191.1,262.6c1.269,1.677,4.877,2.646,8.04,2.157,2.59-.4,4.061-1.657,3.826-3.018C202.756,262.866,201.363,263.842,199.141,264.184Z" transform="translate(-180.016 -243.47)" fill="#063b76"/>
      </g>
    </g>
    <g id="Grupo_133079" data-name="Grupo 133079" transform="translate(-83.551 23.287)">
      <path id="Trazado_194376" data-name="Trazado 194376" d="M470.265,139.233v1.381c0,1.7-.82,2.159-2.488,1.211l-.79-.448v3.989l-1.669-.948V133.8l2.459,1.4A4.468,4.468,0,0,1,470.265,139.233Zm-3.277-2.968v3.6l.79.448c.53.3.818.223.818-.536v-1.593a1.494,1.494,0,0,0-.818-1.466Z" transform="translate(0)" fill="#084c94"/>
      <path id="Trazado_194377" data-name="Trazado 194377" d="M469.643,138.6c0-1.7.894-2.162,2.535-1.231a4.656,4.656,0,0,1,2.534,4.11V147c0,1.7-.9,2.163-2.534,1.232a4.652,4.652,0,0,1-2.535-4.11Zm1.669,6.577a1.634,1.634,0,0,0,.865,1.538c.53.3.864.2.864-.555v-5.736a1.635,1.635,0,0,0-.864-1.537c-.532-.3-.865-.2-.865.555Z" transform="translate(1.338 0.96)" fill="#084c94"/>
      <path id="Trazado_194378" data-name="Trazado 194378" d="M474.339,138.922l1.668.948v9.1l2.747,1.561v1.517l-4.415-2.509Z" transform="translate(2.79 1.585)" fill="#084c94"/>
      <path id="Trazado_194379" data-name="Trazado 194379" d="M480.9,140.8l-1.549.805-1.122-.638,1.032-1.1Zm-2.626.754,1.669.948v10.621l-1.669-.948Z" transform="translate(3.995 1.877)" fill="#084c94"/>
      <path id="Trazado_194380" data-name="Trazado 194380" d="M480.1,142.2l5.159,2.93v1.519l-1.744-.991v9.1l-1.669-.949v-9.1l-1.745-.992Z" transform="translate(4.572 2.597)" fill="#084c94"/>
      <path id="Trazado_194381" data-name="Trazado 194381" d="M484.6,144.75l1.669.948v10.621l-1.669-.948Z" transform="translate(5.964 3.388)" fill="#084c94"/>
      <path id="Trazado_194382" data-name="Trazado 194382" d="M491.675,155.235v1.41c0,1.7-.85,2.189-2.488,1.258a4.57,4.57,0,0,1-2.489-4.084V148.3c0-1.7.85-2.189,2.489-1.257a4.57,4.57,0,0,1,2.488,4.084v1.03l-1.578-.9v-1.138a1.638,1.638,0,0,0-.864-1.538c-.532-.3-.865-.2-.865.556v5.735a1.61,1.61,0,0,0,.865,1.523c.53.3.864.219.864-.541v-1.517Z" transform="translate(6.613 3.952)" fill="#084c94"/>
      <path id="Trazado_194383" data-name="Trazado 194383" d="M496.783,162.064l-1.684-.957-.288-2.09-2.049-1.164-.287,1.764-1.533-.871,1.7-9.656,2.442,1.388Zm-3.807-5.532,1.608.914-.8-5.828Z" transform="translate(7.926 4.73)" fill="#084c94"/>
      <path id="Trazado_194384" data-name="Trazado 194384" d="M497.794,152.245l2.64,1.5a4.469,4.469,0,0,1,2.489,4.039v5.371c0,1.7-.82,2.159-2.489,1.211l-2.64-1.5Zm1.669,2.465V162.3l.941.535c.529.3.848.208.848-.55v-5.523a1.588,1.588,0,0,0-.848-1.514Z" transform="translate(10.045 5.706)" fill="#084c94"/>
      <path id="Trazado_194385" data-name="Trazado 194385" d="M504.193,160.355l2.291,1.3v1.516l-2.291-1.3v3.111l2.883,1.638v1.517l-4.552-2.586V154.932l4.552,2.586v1.517l-2.883-1.638Z" transform="translate(11.508 6.537)" fill="#084c94"/>
      <path id="Trazado_194386" data-name="Trazado 194386" d="M513.535,163.812v1.38c0,1.7-.818,2.159-2.488,1.211l-.789-.448v3.989L508.588,169V158.376l2.459,1.4A4.467,4.467,0,0,1,513.535,163.812Zm-3.277-2.97v3.6l.789.448c.532.3.82.223.82-.536v-1.593a1.494,1.494,0,0,0-.82-1.466Z" transform="translate(13.384 7.602)" fill="#084c94"/>
      <path id="Trazado_194387" data-name="Trazado 194387" d="M516.507,173.5a4.043,4.043,0,0,1-.152-1.391v-1.669a1.987,1.987,0,0,0-1.092-1.971l-.577-.327v4.323l-1.668-.948V160.892l2.518,1.431a4.179,4.179,0,0,1,2.473,3.848v.834c0,1.093-.35,1.608-1.092,1.535a3.79,3.79,0,0,1,1.108,2.89v1.638a3.913,3.913,0,0,0,.182,1.393Zm-1.821-10.137v3.261l.652.371c.623.354,1,.3,1-.554v-1.047a1.614,1.614,0,0,0-.85-1.575Z" transform="translate(14.754 8.38)" fill="#084c94"/>
      <path id="Trazado_194388" data-name="Trazado 194388" d="M517.678,163.539l1.669.948v10.621l-1.669-.948Z" transform="translate(16.195 9.199)" fill="#084c94"/>
      <path id="Trazado_194389" data-name="Trazado 194389" d="M522.5,174.945l1.275-7.94,1.532.869-1.638,9.691-2.49-1.414L519.545,164.6l1.684.957Z" transform="translate(16.773 9.527)" fill="#084c94"/>
      <path id="Trazado_194390" data-name="Trazado 194390" d="M529.757,180.794l-1.684-.957-.288-2.09-2.048-1.164-.288,1.764-1.533-.871,1.7-9.656,2.443,1.388Zm-3.807-5.532,1.608.914-.8-5.828Z" transform="translate(18.125 10.523)" fill="#084c94"/>
      <path id="Trazado_194391" data-name="Trazado 194391" d="M533.843,179.188v1.41c0,1.7-.85,2.188-2.488,1.258a4.571,4.571,0,0,1-2.488-4.085v-5.523c0-1.7.848-2.188,2.488-1.257a4.571,4.571,0,0,1,2.488,4.084v1.032l-1.578-.9v-1.138a1.633,1.633,0,0,0-.864-1.538c-.532-.3-.865-.2-.865.555v5.735a1.612,1.612,0,0,0,.865,1.524c.532.3.864.219.864-.541v-1.517Z" transform="translate(19.656 11.36)" fill="#084c94"/>
      <path id="Trazado_194392" data-name="Trazado 194392" d="M533.446,172.5l1.669.948v10.621l-1.669-.948Z" transform="translate(21.072 11.97)" fill="#084c94"/>
      <path id="Trazado_194393" data-name="Trazado 194393" d="M535.649,173.747l2.641,1.5a4.468,4.468,0,0,1,2.488,4.038v5.371c0,1.7-.82,2.16-2.488,1.212l-2.641-1.5Zm1.669,2.467V183.8l.941.534c.53.3.848.21.848-.55v-5.523a1.587,1.587,0,0,0-.848-1.514Z" transform="translate(21.754 12.356)" fill="#084c94"/>
      <path id="Trazado_194394" data-name="Trazado 194394" d="M545.873,189.948l-1.684-.957-.288-2.09-2.048-1.164-.288,1.764-1.533-.871,1.7-9.656,2.443,1.388Zm-3.807-5.532,1.609.914-.805-5.828Z" transform="translate(23.11 13.355)" fill="#084c94"/>
      <path id="Trazado_194395" data-name="Trazado 194395" d="M545.087,179.108l2.64,1.5a4.469,4.469,0,0,1,2.489,4.039v5.371c0,1.7-.82,2.159-2.489,1.211l-2.64-1.5Zm1.669,2.465v7.586l.941.536c.529.3.848.208.848-.55v-5.523a1.588,1.588,0,0,0-.848-1.514Z" transform="translate(24.673 14.015)" fill="#084c94"/>
    </g>
  </g>
</svg>
