<svg id="Grupo_133077" data-name="Grupo 133077" xmlns="http://www.w3.org/2000/svg" width="75.191" height="117.534" viewBox="0 0 75.191 117.534">
  <path id="Trazado_193681" data-name="Trazado 193681" d="M422.507,335.818l-44.894-25.84c-4.671-2.7-4.086-7.408,1.309-10.522h0c5.393-3.115,23.239-3.132,27.91-.436l39.8,22.968c7.172,4.232.072,10.039-5.9,13.074h0C435.338,338.177,427.178,338.515,422.507,335.818Z" transform="translate(-374.46 -220.105)" fill="#92b4d1" opacity="0.2"/>
  <path id="Trazado_193682" data-name="Trazado 193682" d="M439.813,294.105,374.9,269.9v48.056l0,.086c-.211,1.563.617,3.087,2.534,4.193l43.894,25.421c3.8,2.2,10.444,1.92,14.834-.614h0c2.322-1.341,3.549-3.046,3.627-4.68l.022.009Z" transform="translate(-374.27 -232.663)" fill="#ffb30b"/>
  <path id="Trazado_193683" data-name="Trazado 193683" d="M421.33,301.4l-43.894-25.421c-3.8-2.2-3.325-6.029,1.065-8.565h0c4.39-2.534,11.032-2.809,14.835-.614l43.894,25.421c3.8,2.2,3.326,6.029-1.065,8.565h0C431.773,303.323,425.132,303.6,421.33,301.4Z" transform="translate(-374.27 -234.779)" fill="#cc8f08"/>
  <path id="Trazado_193684" data-name="Trazado 193684" d="M436.165,298.073c-4.39,2.534-11.032,2.811-14.834.616l-43.894-25.421a4.538,4.538,0,0,1-2.542-3.393c-.183,1.541.649,3.04,2.542,4.133l43.894,25.421c3.8,2.2,10.444,1.92,14.834-.614,2.558-1.477,3.777-3.394,3.6-5.172C439.585,295.2,438.37,296.8,436.165,298.073Z" transform="translate(-374.27 -232.673)" fill="#fff"/>
  <g id="Grupo_132671" data-name="Grupo 132671" transform="translate(9.845)">
    <path id="Trazado_193685" data-name="Trazado 193685" d="M408.76,246.918h0a18.388,18.388,0,0,0-27.568,15.934v19.943h0a.268.268,0,0,1,0,.028c0,1.955,2.7,3.529,6.037,3.529s6.035-1.573,6.035-3.514c0-.023-.006-.045-.006-.069h.064V265.424A7.792,7.792,0,0,1,405,258.668h0a19.435,19.435,0,0,1,9.751,16.85v26.591h.064c.066,1.908,2.738,3.444,6.029,3.444,3.314,0,6-1.555,6.032-3.48h0V278.266A36.178,36.178,0,0,0,408.76,246.918Z" transform="translate(-381.192 -244.436)" fill="#2672ab"/>
    <g id="Grupo_132669" data-name="Grupo 132669" transform="translate(26.086 11.126)">
      <path id="Trazado_193686" data-name="Trazado 193686" d="M400.156,252.607a11.387,11.387,0,0,0-1.126-.563,21.185,21.185,0,0,1,9.348,17.536v31.2a7.327,7.327,0,0,0,2.357.863V270.912A21.182,21.182,0,0,0,400.156,252.607Z" transform="translate(-399.03 -252.044)" fill="#3f92d1"/>
    </g>
    <g id="Grupo_132670" data-name="Grupo 132670" transform="translate(5.01 8.491)">
      <path id="Trazado_193687" data-name="Trazado 193687" d="M394.559,250.242a9.889,9.889,0,0,0-9.878,9.878v20.829l-.063,2.161c-.045.181,3.38-.1,3.46-.415l.063-2.161V259.705a9.9,9.9,0,0,1,6.981-9.446C394.935,250.249,394.748,250.242,394.559,250.242Z" transform="translate(-384.618 -250.242)" fill="#063b76"/>
    </g>
    <path id="Trazado_193688" data-name="Trazado 193688" d="M401.417,248a19.086,19.086,0,0,1,8.976,2.252,33.762,33.762,0,0,0-3.327-2.192,16.073,16.073,0,0,0-8.115-2.205A16.376,16.376,0,0,0,382.612,262.2v.044A19.73,19.73,0,0,1,401.417,248Z" transform="translate(-380.535 -243.779)" fill="#3f92d1"/>
    <path id="Trazado_193689" data-name="Trazado 193689" d="M409.248,272.923l0,23.337a7.486,7.486,0,0,0,3.02-1.05,1.978,1.978,0,0,0,.208-.817l0-23.8C412.475,260.295,409.248,262.433,409.248,272.923Z" transform="translate(-368.221 -235.449)" fill="#063b76"/>
  </g>
  <path id="Trazado_193690" data-name="Trazado 193690" d="M401.149,299.324a13.115,13.115,0,0,0-5.952-10.266c-3.287-1.9-5.952-.377-5.952,3.394a12.949,12.949,0,0,0,3.01,7.669v11.948l5.885,3.4V303.518C399.935,303.381,401.149,301.867,401.149,299.324Z" transform="translate(-367.623 -224.18)" fill="#063b76"/>
  <path id="Trazado_193691" data-name="Trazado 193691" d="M393.281,311.606V299.658a12.949,12.949,0,0,1-3.01-7.669,4.249,4.249,0,0,1,1.562-3.7c-1.563.329-2.589,1.8-2.589,4.139a12.949,12.949,0,0,0,3.01,7.669v11.948l5.885,3.4v-1.034Z" transform="translate(-367.623 -224.157)" fill="#001a46"/>
</svg>
