<svg xmlns="http://www.w3.org/2000/svg" xmlns:xlink="http://www.w3.org/1999/xlink" width="145.671" height="169.37" viewBox="0 0 145.671 169.37">
  <defs>
    <linearGradient id="linear-gradient" x1="-0.05" y1="0.969" x2="1.244" y2="0.349" gradientUnits="objectBoundingBox">
      <stop offset="0"/>
      <stop offset="0.812" stop-color="#92a3b0"/>
      <stop offset="1" stop-color="#fff"/>
    </linearGradient>
    <radialGradient id="radial-gradient" cx="0.5" cy="0.5" r="0.31" gradientTransform="matrix(-1.221, -0.709, -1.221, 0.701, 344.847, 108.202)" gradientUnits="objectBoundingBox">
      <stop offset="0.056" stop-color="#92a3b0"/>
      <stop offset="1" stop-color="#fff"/>
    </radialGradient>
  </defs>
  <g id="Grupo_133076" data-name="Grupo 133076" transform="translate(0 -19.697)">
    <path id="Trazado_194375" data-name="Trazado 194375" d="M279.415,244.141s37.635-1.091,51.756-8.151,21.182-27.7,21.182-38.018,1.629-35.3,1.629-35.3a112.1,112.1,0,0,1-35.846-20.638c-10.452-8.869-29.871-38.018-29.871-38.018v92.873C288.265,216.437,279.415,244.141,279.415,244.141Z" transform="translate(-208.311 -55.074)" opacity="0.2" fill="url(#linear-gradient)" style="mix-blend-mode: multiply;isolation: isolate"/>
    <path id="Trazado_193634" data-name="Trazado 193634" d="M348.012,183.1c-18.469-10.449-36.526-28.274-51.66-50.985l-.2-.117c-15.134,5.234-33.192,2.208-51.662-8.669l-.7-.415,1,34.509c3.505,53.493,21.75,76.775,51.116,126.51l.714.412c29.365-15.826,47.611-18.042,51.115-67.488l1-33.359Z" transform="translate(-225.257 -95.274)" fill="#a8cff0"/>
    <path id="Trazado_193635" data-name="Trazado 193635" d="M358.367,177.667c-18.47-10.449-36.526-28.272-51.662-50.983l-.2-.118c-15.133,5.235-33.19,2.208-51.66-8.669l-.7-.415-10.221,8.055.509.3c18.469,10.877,36.526,13.9,51.66,8.669l.2.117c15.134,22.711,33.19,40.536,51.662,50.985l.7.4-1,33.359c-2.289,32.273-10.858,44.423-24.7,53.373,17.291-10.212,32.544-25.035,35.115-61.311l1-33.357Z" transform="translate(-225.195 -97.784)" fill="#d1ebff"/>
    <path id="Trazado_193636" data-name="Trazado 193636" d="M342.578,175.2l-.706-.4c-18.47-10.449-36.526-28.272-51.662-50.983l-.2-.118-10.417,7.938.2.117c15.134,22.711,33.19,40.536,51.662,50.985l.7.4Z" transform="translate(-208.7 -94.912)" fill="#d1ebff"/>
    <path id="Trazado_193637" data-name="Trazado 193637" d="M323.662,166.847l-1,33.359c-2.289,32.273-10.858,44.423-24.7,53.373,17.291-10.212,32.544-25.035,35.115-61.311l1-33.357Z" transform="translate(-200.201 -78.627)" fill="#72b5e8"/>
    <path id="Trazado_193638" data-name="Trazado 193638" d="M289.068,255.515c-22.8-37.812-34.261-56.834-37.026-98.335l-.63-21.785c14.637,6.617,28.667,8.728,41.31,6.211,12.637,17.111,26.668,31.2,41.305,41.487l-.63,21.058c-2.765,38.312-14.232,44.094-37.031,55.587q-1.79.9-3.644,1.844Q290.857,258.488,289.068,255.515Z" transform="translate(-221.728 -89.501)" fill="#063b76"/>
    <ellipse id="Elipse_4830" data-name="Elipse 4830" cx="31.589" cy="54.716" rx="31.589" ry="54.716" transform="translate(14.421 76.102) rotate(-30.311)" fill="url(#radial-gradient)" style="mix-blend-mode: multiply;isolation: isolate"/>
    <path id="Trazado_193639" data-name="Trazado 193639" d="M298.233,258.088c-1.193.6-2.407,1.215-3.646,1.844q-1.862-3.091-3.652-6.065c-22.8-37.813-34.262-56.836-37.026-98.337l-.559-19.295c-.645-.276-1.291-.55-1.939-.842l.63,21.785c2.765,41.5,14.231,60.524,37.026,98.335l3.652,6.066q1.858-.943,3.646-1.844c9.3-4.688,16.717-8.429,22.424-13.814C313.359,250.455,306.554,253.894,298.233,258.088Z" transform="translate(-221.728 -89.501)" fill="#001a46"/>
    <path id="Trazado_193640" data-name="Trazado 193640" d="M348.453,182.514c-18.47-10.45-36.526-28.274-51.662-50.985l-.2-.118c-15.136,5.235-33.192,2.208-51.662-8.669l-.673.714c18.435,10.83,36.457,13.84,51.565,8.613l.2.118c15.134,22.711,33.192,40.536,51.66,50.985l.706.4-1,33.359c-1.9,26.782-8.122,39.705-18.094,48.443,10.421-8.748,16.917-21.639,18.863-49.1l1-33.359Z" transform="translate(-225.039 -95.351)" fill="#fff"/>
    <g id="Grupo_132648" data-name="Grupo 132648" transform="translate(0 51.579)">
      <g id="Grupo_132647" data-name="Grupo 132647">
        <path id="Trazado_193641" data-name="Trazado 193641" d="M231.845,175.416a.731.731,0,0,1-.731-.731q0-1.507.069-2.957a.731.731,0,1,1,1.459.067q-.064,1.417-.066,2.89A.731.731,0,0,1,231.845,175.416Zm.436-7.294a.649.649,0,0,1-.092-.006.73.73,0,0,1-.635-.815q.186-1.5.452-2.934a.731.731,0,1,1,1.438.268q-.257,1.386-.439,2.846A.73.73,0,0,1,232.281,168.122Zm1.451-7.154a.7.7,0,0,1-.2-.029.731.731,0,0,1-.5-.907c.281-.962.6-1.914.936-2.825a.732.732,0,0,1,1.372.512c-.329.877-.633,1.794-.9,2.723A.735.735,0,0,1,233.732,160.968Zm2.717-6.772a.731.731,0,0,1-.646-1.075c.471-.883.986-1.749,1.531-2.571a.732.732,0,0,1,1.22.809c-.519.784-1.011,1.607-1.459,2.45A.73.73,0,0,1,236.449,154.2Zm4.209-5.946a.722.722,0,0,1-.5-.2.733.733,0,0,1-.035-1.034,25.292,25.292,0,0,1,2.183-2.071.731.731,0,1,1,.94,1.12,23.667,23.667,0,0,0-2.055,1.951A.732.732,0,0,1,240.658,148.249Zm5.718-4.506a.731.731,0,0,1-.358-1.369,24.5,24.5,0,0,1,2.711-1.31.732.732,0,0,1,.554,1.354,22.624,22.624,0,0,0-2.549,1.231A.721.721,0,0,1,246.375,143.744Zm6.813-2.552a.731.731,0,0,1-.151-1.446,27.822,27.822,0,0,1,2.967-.461.758.758,0,0,1,.8.654.73.73,0,0,1-.655.8,26.4,26.4,0,0,0-2.809.436A.769.769,0,0,1,253.189,141.192Z" transform="translate(-231.114 -139.282)" fill="#00defc"/>
      </g>
    </g>
    <g id="Grupo_132650" data-name="Grupo 132650" transform="translate(7.968 121.674)">
      <g id="Grupo_132649" data-name="Grupo 132649">
        <path id="Trazado_193642" data-name="Trazado 193642" d="M258.547,221.738a.735.735,0,0,1-.54-.237q-.992-1.081-1.961-2.194a.732.732,0,1,1,1.1-.962q.956,1.1,1.936,2.166a.731.731,0,0,1-.045,1.034A.723.723,0,0,1,258.547,221.738Zm-4.76-5.545a.728.728,0,0,1-.57-.273q-.919-1.145-1.813-2.318a.732.732,0,0,1,1.163-.889q.884,1.16,1.79,2.292a.731.731,0,0,1-.569,1.189Zm-4.39-5.845a.73.73,0,0,1-.6-.31q-.845-1.2-1.664-2.428a.732.732,0,0,1,1.217-.813q.807,1.211,1.644,2.4a.731.731,0,0,1-.178,1.018A.722.722,0,0,1,249.4,210.347Zm-4.02-6.107a.733.733,0,0,1-.623-.347q-.772-1.253-1.512-2.524a.732.732,0,0,1,1.265-.736q.728,1.255,1.492,2.492a.73.73,0,0,1-.622,1.114Zm-3.644-6.338a.734.734,0,0,1-.646-.388q-.691-1.3-1.356-2.61a.731.731,0,1,1,1.306-.658q.654,1.3,1.341,2.58a.734.734,0,0,1-.645,1.076Zm-3.252-6.551a.729.729,0,0,1-.664-.426q-.614-1.34-1.195-2.691a.732.732,0,0,1,1.345-.576q.57,1.334,1.177,2.657a.731.731,0,0,1-.36.97A.722.722,0,0,1,238.48,191.351Z" transform="translate(-236.563 -187.215)" fill="#00defc"/>
      </g>
    </g>
    <g id="Grupo_132651" data-name="Grupo 132651" transform="translate(12.386 67.272)">
      <path id="Trazado_193643" data-name="Trazado 193643" d="M276.714,240.82c-20.473-11.822-37.13-40.554-37.13-64.048,0-11.491,3.924-20.086,11.051-24.2,7.189-4.15,16.709-3.225,26.81,2.606a59.972,59.972,0,0,1,9.934,7.274l-.974,1.089a58.52,58.52,0,0,0-9.691-7.1c-9.627-5.559-18.628-6.484-25.348-2.606-6.654,3.843-10.32,11.989-10.32,22.935,0,23.03,16.329,51.192,36.4,62.782Z" transform="translate(-239.584 -150.014)" fill="#ffb30b"/>
    </g>
    <path id="Trazado_193644" data-name="Trazado 193644" d="M268.022,213.632c-.057,1.2-.883,1.729-1.844,1.173a3.773,3.773,0,0,1-1.638-3.184c.057-1.2.882-1.727,1.844-1.171A3.775,3.775,0,0,1,268.022,213.632Z" transform="translate(-215.66 -54.899)" fill="#ffb30b"/>
    <g id="Grupo_132653" data-name="Grupo 132653" transform="translate(55.432 75.854)">
      <g id="Grupo_132652" data-name="Grupo 132652">
        <path id="Trazado_193645" data-name="Trazado 193645" d="M275.228,161.816l-5.655-1.414a.731.731,0,1,1,.354-1.419l2.969.743-1.059-2.858a.732.732,0,1,1,1.372-.509Z" transform="translate(-269.019 -155.882)" fill="#ffb30b"/>
      </g>
    </g>
    <g id="Grupo_132657" data-name="Grupo 132657" transform="translate(21.465 77.29)">
      <g id="Grupo_132654" data-name="Grupo 132654" transform="translate(0.272)">
        <path id="Trazado_193646" data-name="Trazado 193646" d="M253.132,180.672c.4-14.653,11.051-20.478,24.118-12.933,6.727,3.883,12.813,10.575,17.2,18.214l4.82-1.212c-5.491-9.96-13.327-18.745-22.018-23.764-16.443-9.492-29.837-1.989-30.039,16.711l3.856,3.5Z" transform="translate(-245.408 -156.864)" fill="#cc8f09"/>
        <path id="Trazado_193647" data-name="Trazado 193647" d="M289.93,218.5c-3.565.326-7.7-.668-12.11-3.219-12.376-7.145-22.6-23.786-23.982-38.37l-5.9-2.973c.01.107-1.971.509-1.961.616,1.707,18.153,16.433,38.592,31.842,47.488,5.6,3.232,9.383,4.93,13.874,4.453.189-.02,1.829-.487,2.015-.513Z" transform="translate(-245.978 -148.969)" fill="#cc8f09"/>
        <path id="Trazado_193648" data-name="Trazado 193648" d="M282.476,180.165a46.149,46.149,0,0,1,4.675,19.021c0,8.757-3.568,14.507-9.112,16.389l3.734,7.394c6.864-2.362,11.271-9.519,11.271-20.381,0-7.582-2.148-15.836-5.776-23.628Z" transform="translate(-231.153 -146.647)" fill="#cc8f09"/>
      </g>
      <path id="Trazado_193649" data-name="Trazado 193649" d="M280.013,196.733a20.539,20.539,0,0,1-4.235-5.072c-.7-1.173-.676-2.445.006-2.841a5.416,5.416,0,0,0,2.161-2.411c.743.2,1.663-.069,1.663-1.087a4.026,4.026,0,0,0-1.072-2.741c-.181-4.446-1.7-9.013-6.812-11.964-1.787-1.032-3.135-1.359-4.14-1.167-.234.044-2.261.578-2.458.677-1.386.689-.11,2.177-.214,4.588-.613-.136-1.072.464-1.072,1.5a4.913,4.913,0,0,0,1.663,3.007,24.194,24.194,0,0,0,2.161,4.908c.681,1.185.706,2.485.006,2.849a5.579,5.579,0,0,1-4.235.18,3.184,3.184,0,0,0-1.77-.072c-.149.042-1.97.515-2.106.582-.951.472.135,1.166.135,2.779v4.583a3.09,3.09,0,0,0,1.4,2.417l19.64,13c.341.2,2.27-.488,2.512-.581a.917.917,0,0,0,.506-.945v-4.583A10.91,10.91,0,0,0,280.013,196.733Z" transform="translate(-239.606 -151.068)" fill="#f5b500"/>
      <g id="Grupo_132655" data-name="Grupo 132655" transform="translate(0.755 0.377)">
        <path id="Trazado_193650" data-name="Trazado 193650" d="M252.229,180.93c.4-14.653,11.051-20.478,24.118-12.935,6.727,3.884,12.813,10.576,17.2,18.216l4.82-1.212c-5.491-9.96-13.327-18.745-22.018-23.764-16.443-9.492-29.837-1.989-30.039,16.711Z" transform="translate(-246.308 -157.122)" fill="#fff"/>
        <path id="Trazado_193651" data-name="Trazado 193651" d="M288.407,218.757c-3.565.326-7.7-.668-12.11-3.219-12.376-7.145-22.6-23.786-23.982-38.37l-5.9-2.973C248,192.424,260.8,213.35,276.3,222.3c5.831,3.366,11.276,4.587,15.889,3.94Z" transform="translate(-246.258 -149.227)" fill="#fff"/>
        <path id="Trazado_193652" data-name="Trazado 193652" d="M281.573,180.423a46.15,46.15,0,0,1,4.675,19.021c0,8.758-3.568,14.507-9.112,16.389l3.734,7.394c6.864-2.362,11.271-9.519,11.271-20.381,0-7.582-2.148-15.835-5.776-23.628Z" transform="translate(-232.053 -146.905)" fill="#fff"/>
      </g>
      <path id="Trazado_193653" data-name="Trazado 193653" d="M278.944,196.991a20.541,20.541,0,0,1-4.235-5.072c-.7-1.173-.676-2.445.006-2.841a5.416,5.416,0,0,0,2.161-2.411c.743.2,1.663-.069,1.663-1.087a4.023,4.023,0,0,0-1.072-2.741c-.181-4.446-1.7-9.013-6.812-11.964s-6.63-.137-6.812,4.1c-.613-.136-1.072.464-1.072,1.5a4.913,4.913,0,0,0,1.663,3.007,24.161,24.161,0,0,0,2.161,4.908c.681,1.185.706,2.485.006,2.849a5.579,5.579,0,0,1-4.235.18c-2.147-.649-3.741.646-3.741,3.289v4.583a3.09,3.09,0,0,0,1.4,2.417l21.257,12.272c.774.447,1.4.089,1.4-.8V204.6A10.91,10.91,0,0,0,278.944,196.991Z" transform="translate(-239.858 -150.949)" fill="#fff"/>
      <g id="Grupo_132656" data-name="Grupo 132656" transform="translate(0 0.566)">
        <path id="Trazado_193654" data-name="Trazado 193654" d="M251.713,181.059c.4-14.653,11.051-20.478,24.118-12.935,6.727,3.884,12.813,10.576,17.2,18.216l4.82-1.212c-5.491-9.96-13.327-18.745-22.018-23.764-16.443-9.492-29.837-1.989-30.039,16.711Z" transform="translate(-245.792 -157.251)" fill="#ffb30b"/>
        <path id="Trazado_193655" data-name="Trazado 193655" d="M287.891,218.886c-3.565.326-7.7-.668-12.11-3.219-12.376-7.145-22.6-23.786-23.982-38.37l-5.9-2.973c1.585,18.229,14.381,39.155,29.881,48.1,5.831,3.366,11.276,4.588,15.889,3.94Z" transform="translate(-245.742 -149.356)" fill="#ffb30b"/>
        <path id="Trazado_193656" data-name="Trazado 193656" d="M281.057,180.552a46.15,46.15,0,0,1,4.675,19.021c0,8.758-3.568,14.507-9.112,16.389l3.733,7.394c6.864-2.362,11.271-9.519,11.271-20.381,0-7.582-2.148-15.835-5.776-23.628Z" transform="translate(-231.537 -147.034)" fill="#ffb30b"/>
      </g>
      <path id="Trazado_193657" data-name="Trazado 193657" d="M278.428,197.12a20.542,20.542,0,0,1-4.235-5.072c-.7-1.173-.676-2.445.006-2.841a5.416,5.416,0,0,0,2.161-2.411c.743.2,1.663-.069,1.663-1.087a4.023,4.023,0,0,0-1.072-2.741c-.181-4.446-1.7-9.013-6.812-11.964s-6.63-.137-6.812,4.1c-.613-.136-1.072.464-1.072,1.5a4.912,4.912,0,0,0,1.663,3.007,24.16,24.16,0,0,0,2.161,4.908c.682,1.185.706,2.485.006,2.849a5.578,5.578,0,0,1-4.235.18c-2.147-.649-3.741.646-3.741,3.289v4.583a3.088,3.088,0,0,0,1.4,2.417l21.257,12.272c.774.448,1.4.089,1.4-.8v-4.583A10.911,10.911,0,0,0,278.428,197.12Z" transform="translate(-240.096 -150.889)" fill="#ffb30b"/>
    </g>
  </g>
</svg>
