<svg xmlns="http://www.w3.org/2000/svg" width="84.034" height="84.034" viewBox="0 0 84.034 84.034">
  <g id="c4" transform="translate(0)">
    <g id="Group_134716" data-name="Group 134716" transform="translate(1.313 1.313)">
      <path id="Path_194746" data-name="Path 194746" d="M91.963,43.165l-3.393-.51a15.833,15.833,0,0,0-2.5-6.022l2.039-2.761A1.214,1.214,0,0,0,88,32.292L86.24,30.536a1.214,1.214,0,0,0-1.58-.118L81.9,32.457a15.833,15.833,0,0,0-6.022-2.5l-.51-3.393a1.214,1.214,0,0,0-1.2-1.034H71.682a1.214,1.214,0,0,0-1.2,1.034l-.51,3.393a15.829,15.829,0,0,0-6.022,2.5l-2.761-2.039a1.214,1.214,0,0,0-1.58.118l-1.756,1.756a1.214,1.214,0,0,0-.118,1.58l2.039,2.761a15.833,15.833,0,0,0-2.5,6.022l-3.393.51a1.214,1.214,0,0,0-1.034,1.2V46.85a1.214,1.214,0,0,0,1.034,1.2l3.393.51a15.829,15.829,0,0,0,2.5,6.022l-2.039,2.761a1.214,1.214,0,0,0,.118,1.58l1.756,1.756a1.214,1.214,0,0,0,1.58.118l2.761-2.039a15.833,15.833,0,0,0,6.022,2.5l.51,3.393a1.214,1.214,0,0,0,1.2,1.034h2.484a1.214,1.214,0,0,0,1.2-1.034l.51-3.393a15.833,15.833,0,0,0,6.022-2.5L84.66,60.8a1.214,1.214,0,0,0,1.58-.118L88,58.923a1.214,1.214,0,0,0,.118-1.58l-2.039-2.761a15.833,15.833,0,0,0,2.5-6.022l3.393-.51A1.214,1.214,0,0,0,93,46.85V44.366a1.214,1.214,0,0,0-1.034-1.2ZM72.924,53.642a8.034,8.034,0,1,1,8.034-8.034A8.034,8.034,0,0,1,72.924,53.642Z" transform="translate(-45.49 -22.657)" fill="#ffb30b"/>
      <circle id="Ellipse_12981" data-name="Ellipse 12981" cx="4.39" cy="4.39" r="4.39" transform="translate(65.265)" fill="#00defc"/>
      <path id="Path_194747" data-name="Path 194747" d="M410.04,28.662a4.392,4.392,0,0,1-4.135-2.913,4.39,4.39,0,1,0,8.27,0A4.392,4.392,0,0,1,410.04,28.662Z" transform="translate(-340.384 -22.836)" fill="#00defc" style="mix-blend-mode: multiply;isolation: isolate"/>
      <circle id="Ellipse_12982" data-name="Ellipse 12982" cx="4.39" cy="4.39" r="4.39" transform="translate(65.265 37.12)" fill="#00defc"/>
      <path id="Path_194748" data-name="Path 194748" d="M410.04,254.828a4.392,4.392,0,0,1-4.135-2.913,4.39,4.39,0,1,0,8.27,0A4.392,4.392,0,0,1,410.04,254.828Z" transform="translate(-340.384 -211.882)" fill="#00defc" style="mix-blend-mode: multiply;isolation: isolate"/>
      <g id="Group_134715" data-name="Group 134715" transform="translate(0 48.517)">
        <path id="Path_194749" data-name="Path 194749" d="M316.126,325.032a3.353,3.353,0,0,1,3.35,3.356l7.894-4.16a2.993,2.993,0,1,0-2.814-5.283l-11.23,6.088h2.8Z" transform="translate(-263.213 -316.124)" fill="#f4b184"/>
        <path id="Path_194750" data-name="Path 194750" d="M230.206,312.511l16.3-8.551a3.125,3.125,0,0,1,2.932,5.518l-5.594,3.033Z" transform="translate(-193.736 -303.603)" fill="#f4b184"/>
        <path id="Path_194751" data-name="Path 194751" d="M283.747,322.175l5.594-3.033a3.13,3.13,0,0,0,1.385-3.978l-12.786,7.01Z" transform="translate(-233.634 -313.267)" fill="#eaa678"/>
        <path id="Path_194752" data-name="Path 194752" d="M346.151,338.878l7.894-4.16a3,3,0,0,0,1.447-3.585l-10.253,5.448A3.343,3.343,0,0,1,346.151,338.878Z" transform="translate(-289.889 -326.615)" fill="#eaa678"/>
        <path id="Path_194753" data-name="Path 194753" d="M229.742,338.392a3.354,3.354,0,0,1-2.93,3.329l-20.841,2.639,8.851,1.067a39.469,39.469,0,0,0,23.9-4.69l8.108-4.507a3.028,3.028,0,0,0-2.876-5.33Z" transform="translate(-173.479 -326.128)" fill="#f4b184"/>
        <path id="Path_194754" data-name="Path 194754" d="M246.833,345.245a3.031,3.031,0,0,0,1.28-3.908l-19.364,10.378-7.171-.316-15.605,1.976,8.851,1.067a39.468,39.468,0,0,0,23.9-4.69Z" transform="translate(-173.479 -335.144)" fill="#eaa678"/>
        <path id="Path_194755" data-name="Path 194755" d="M16.918,353.679s6.1-5.159,13.656-6.566a25.739,25.739,0,0,1,13.9,1.44H60.913a3.356,3.356,0,0,1,.42,6.685l-20.841,2.64,8.851,1.067a39.468,39.468,0,0,0,23.9-4.69L84.319,348.1a3.476,3.476,0,0,1,3.276,6.131L71.4,363.053c-8.116,4.423-17.357,10.221-26.56,9.4L16.918,369.96H8V353.679Z" transform="translate(-8 -339.645)" fill="#ffc89f"/>
        <g id="Group_134714" data-name="Group 134714" transform="translate(0 9.17)">
          <path id="Path_194756" data-name="Path 194756" d="M88.705,359.738c-.07-.092-.144-.18-.221-.263a3.455,3.455,0,0,1-1.674,2.086l-16.193,8.824c-8.116,4.423-17.357,10.221-26.56,9.4l-27.924-2.493H8v3.328h8.918l27.924,2.493c9.2.822,18.443-4.977,26.56-9.4l16.193-8.824A3.481,3.481,0,0,0,88.705,359.738Z" transform="translate(-8 -359.475)" fill="#f7bc94"/>
        </g>
      </g>
      <path id="Path_194757" data-name="Path 194757" d="M142.266,158.31a8.067,8.067,0,0,0-.138-1.477,8.033,8.033,0,0,1-15.793,0,8.034,8.034,0,1,0,15.931,1.477Z" transform="translate(-106.798 -132.405)" fill="#ffb30b" style="mix-blend-mode: multiply;isolation: isolate"/>
      <circle id="Ellipse_12983" data-name="Ellipse 12983" cx="4.39" cy="4.39" r="4.39" transform="translate(65.265 18.56)" fill="#00defc"/>
      <path id="Path_194758" data-name="Path 194758" d="M410.04,141.746a4.392,4.392,0,0,1-4.135-2.913,4.39,4.39,0,1,0,8.27,0A4.392,4.392,0,0,1,410.04,141.746Z" transform="translate(-340.384 -117.36)" fill="#00defc" style="mix-blend-mode: multiply;isolation: isolate"/>
    </g>
    <g id="Group_134717" data-name="Group 134717" transform="translate(0 0)">
      <path id="Path_194759" data-name="Path 194759" d="M64.169,372.244c-.835.455-1.681.924-2.538,1.4-7.253,4.021-15.473,8.579-23.374,7.873l-27.979-2.5q-.055,0-.11,0h-7.7V365.168h7.7a1.233,1.233,0,0,0,.8-.292,33.4,33.4,0,0,1,5.581-3.613,1.233,1.233,0,1,0-1.137-2.189A37.1,37.1,0,0,0,9.732,362.7h-8.5A1.233,1.233,0,0,0,0,363.935v16.313a1.233,1.233,0,0,0,1.233,1.233h8.88l27.925,2.493q.946.084,1.889.083c8.008,0,15.888-4.369,22.9-8.256.852-.472,1.693-.939,2.522-1.391a1.233,1.233,0,0,0-1.18-2.166Z" transform="translate(0 -300.024)"/>
      <path id="Path_194760" data-name="Path 194760" d="M181.274,306.12a4.688,4.688,0,0,0-5.568-1.513,4.261,4.261,0,0,0-6.239-3.506l-2.933,1.546a4.225,4.225,0,0,0-6.233-3.495l-2.192,1.189a4.361,4.361,0,0,0-6.378-3.664l-15.828,8.3a27.094,27.094,0,0,0-14.084-1.3,26.265,26.265,0,0,0-3.5.916,1.233,1.233,0,1,0,.782,2.339,23.8,23.8,0,0,1,3.172-.83,24.78,24.78,0,0,1,13.192,1.356,1.234,1.234,0,0,0,.506.108h16.475a2.129,2.129,0,0,1,.266,4.241l-20.881,2.645a1.233,1.233,0,0,0,.007,2.448l8.868,1.069a40.535,40.535,0,0,0,24.7-4.846l11.082-6.161a2.232,2.232,0,0,1,2.824.64,2.268,2.268,0,0,1-.718,3.335l-11.891,6.48a1.234,1.234,0,0,0,1.18,2.166l11.891-6.48a4.72,4.72,0,0,0,1.507-6.986Zm-28.4-7.259a1.88,1.88,0,0,1,2.4.556,1.91,1.91,0,0,1-.623,2.8l-5.331,2.89h-8.349ZM154,305.375l7.479-4.055a1.757,1.757,0,0,1,2.344.638,1.777,1.777,0,0,1-.687,2.48l-6.487,3.419A4.616,4.616,0,0,0,154,305.375Zm10.2,5.6a38.06,38.06,0,0,1-22.1,4.67l10.917-1.383a4.6,4.6,0,0,0,3.946-3.779l13.652-7.2a1.8,1.8,0,0,1,1.706,3.171Z" transform="translate(-98.192 -247.562)"/>
      <path id="Path_194761" data-name="Path 194761" d="M127.712,109.625a9.2,9.2,0,0,0,3.983-.9,1.233,1.233,0,1,0-1.059-2.228,6.754,6.754,0,0,1-2.923.657,6.813,6.813,0,1,1,5.973-3.529,1.233,1.233,0,0,0,2.16,1.192,9.284,9.284,0,1,0-8.133,4.8Z" transform="translate(-98.991 -76.113)"/>
      <path id="Path_194762" data-name="Path 194762" d="M47.025,27.9l2.556.384a16.961,16.961,0,0,0,2.028,4.894l-1.537,2.08a2.435,2.435,0,0,0,.238,3.188l1.76,1.76a2.435,2.435,0,0,0,3.188.238l2.08-1.537a16.96,16.96,0,0,0,4.894,2.028l.384,2.556a2.435,2.435,0,0,0,2.423,2.086h2.489a2.435,2.435,0,0,0,2.423-2.086l.384-2.556A16.96,16.96,0,0,0,75.23,38.9l2.08,1.537A2.435,2.435,0,0,0,80.5,40.2l1.76-1.76a2.435,2.435,0,0,0,.238-3.188l-1.537-2.08a16.955,16.955,0,0,0,2.028-4.894l2.556-.384a2.435,2.435,0,0,0,2.086-2.423v-.011h7.319V41.183a2.88,2.88,0,0,0,2.876,2.876h5.269a5.632,5.632,0,1,0,0-2.467H97.825a.41.41,0,0,1-.41-.41V25.462h5.679a5.632,5.632,0,1,0,0-2.467H97.416V7.275a.41.41,0,0,1,.41-.409h5.269a5.632,5.632,0,1,0,0-2.467H97.825a2.88,2.88,0,0,0-2.876,2.876V23H87.629v-.011a2.435,2.435,0,0,0-2.086-2.423l-2.556-.384a16.96,16.96,0,0,0-2.028-4.894L82.5,13.2a2.435,2.435,0,0,0-.238-3.188L80.5,8.256a2.435,2.435,0,0,0-3.188-.238L75.23,9.554a16.959,16.959,0,0,0-4.894-2.028l-.384-2.556a2.435,2.435,0,0,0-2.423-2.086H65.04a2.435,2.435,0,0,0-2.423,2.086l-.384,2.556a16.963,16.963,0,0,0-4.894,2.028l-2.08-1.537a2.435,2.435,0,0,0-3.188.238l-1.76,1.76a2.435,2.435,0,0,0-.238,3.188l1.537,2.08a16.957,16.957,0,0,0-2.028,4.894l-2.556.384a2.435,2.435,0,0,0-2.086,2.423v2.489A2.435,2.435,0,0,0,47.025,27.9ZM108.589,39.66a3.166,3.166,0,1,1-3.166,3.166A3.169,3.169,0,0,1,108.589,39.66Zm0-18.6a3.166,3.166,0,1,1-3.166,3.166A3.169,3.169,0,0,1,108.589,21.063Zm0-18.6a3.166,3.166,0,1,1-3.166,3.166,3.169,3.169,0,0,1,3.166-3.166ZM47.406,23l3.385-.509A1.233,1.233,0,0,0,51.82,21.5a14.554,14.554,0,0,1,2.306-5.565A1.233,1.233,0,0,0,54.1,14.5l-2.035-2.755L53.8,10.01l2.755,2.035a1.233,1.233,0,0,0,1.429.026,14.556,14.556,0,0,1,5.565-2.306,1.233,1.233,0,0,0,.992-1.029l.509-3.385h2.46l.509,3.385a1.233,1.233,0,0,0,.992,1.029,14.552,14.552,0,0,1,5.565,2.306,1.233,1.233,0,0,0,1.429-.026l2.755-2.035L80.5,11.749,78.468,14.5a1.234,1.234,0,0,0-.026,1.429A14.554,14.554,0,0,1,80.748,21.5a1.234,1.234,0,0,0,1.029.992L85.163,23v2.46l-3.385.509a1.233,1.233,0,0,0-1.029.992,14.553,14.553,0,0,1-2.306,5.565,1.233,1.233,0,0,0,.026,1.429L80.5,36.709l-1.739,1.739-2.755-2.035a1.233,1.233,0,0,0-1.429-.026,14.554,14.554,0,0,1-5.565,2.306,1.234,1.234,0,0,0-.992,1.029l-.509,3.385h-2.46l-.509-3.385a1.234,1.234,0,0,0-.992-1.029,14.554,14.554,0,0,1-5.565-2.306,1.233,1.233,0,0,0-1.429.026L53.8,38.448l-1.739-1.739L54.1,33.954a1.233,1.233,0,0,0,.026-1.429A14.551,14.551,0,0,1,51.82,26.96a1.233,1.233,0,0,0-1.029-.992l-3.385-.509Z" transform="translate(-37.563 0)"/>
    </g>
  </g>
</svg>
