<svg xmlns="http://www.w3.org/2000/svg" width="219.212" height="224.576" viewBox="0 0 219.212 224.576">
  <g id="Grupo_134745" data-name="Grupo 134745" transform="translate(-180.334 -310.455)">
    <g id="Grupo_134744" data-name="Grupo 134744">
      <g id="Grupo_133075" data-name="Grupo 133075" transform="translate(-39 -258.328)">
        <path id="blob" d="M138.651-19.486c18.436,34.528,14.217,79.679-6.406,112.957-20.467,33.434-57.494,55.151-98.271,57.494-40.933,2.187-85.773-14.842-97.8-43.277C-75.859,79.1-55.08,39.414-32.738,2.543c22.5-36.715,46.558-70.462,79.211-75.3C79.125-77.762,120.215-53.858,138.651-19.486Z" transform="translate(286.694 642.206)" fill="#e7f3fe"/>
        <text id="_" data-name="+" transform="translate(305.732 684.133) rotate(90)" fill="#ff6b00" font-size="28" font-family="SegoeUI-Bold, Segoe UI" font-weight="700"><tspan x="-9.898" y="0">+</tspan></text>
        <text id="_2" data-name="+" transform="translate(281.541 593.414) rotate(90)" fill="#00defc" font-size="28" font-family="SegoeUI-Bold, Segoe UI" font-weight="700"><tspan x="-9.898" y="0">+</tspan></text>
        <text id="_3" data-name="+" transform="translate(408.546 714.372) rotate(90)" fill="#00defc" font-size="28" font-family="SegoeUI-Bold, Segoe UI" font-weight="700"><tspan x="-9.898" y="0">+</tspan></text>
        <circle id="Elipse_1" data-name="Elipse 1" cx="6.048" cy="6.048" r="6.048" transform="translate(402.283 579.366) rotate(90)" fill="#00defc"/>
        <circle id="Elipse_2" data-name="Elipse 2" cx="6.048" cy="6.048" r="6.048" transform="translate(261.67 620.189) rotate(90)" fill="#00defc"/>
        <circle id="Elipse_5" data-name="Elipse 5" cx="6.048" cy="6.048" r="6.048" transform="translate(267.718 735.099) rotate(90)" fill="#00defc"/>
        <circle id="Elipse_6" data-name="Elipse 6" cx="15.12" cy="15.12" r="15.12" transform="translate(420.427 639.845) rotate(90)" fill="#00defc" opacity="0.1"/>
        <circle id="Elipse_7" data-name="Elipse 7" cx="15.12" cy="15.12" r="15.12" transform="translate(320.636 735.099) rotate(90)" fill="#00defc" opacity="0.1"/>
        <circle id="Elipse_11" data-name="Elipse 11" cx="10.584" cy="10.584" r="10.584" transform="translate(432.522 759.291) rotate(90)" fill="#00defc" opacity="0.1"/>
        <circle id="Elipse_12" data-name="Elipse 12" cx="10.584" cy="10.584" r="10.584" transform="translate(257.134 577.854) rotate(90)" fill="#00defc" opacity="0.1"/>
        <circle id="Elipse_8" data-name="Elipse 8" cx="15.12" cy="15.12" r="15.12" transform="translate(276.789 635.309) rotate(90)" fill="#00defc" opacity="0.1"/>
        <g id="Elipse_3" data-name="Elipse 3" transform="translate(326.684 729.051) rotate(90)" fill="none" stroke="#00defc" stroke-width="2">
          <circle cx="6.048" cy="6.048" r="6.048" stroke="none"/>
          <circle cx="6.048" cy="6.048" r="5.048" fill="none"/>
        </g>
        <g id="Elipse_4" data-name="Elipse 4" transform="translate(356.924 588.438) rotate(90)" fill="none" stroke="#00defc" stroke-width="2">
          <circle cx="6.048" cy="6.048" r="6.048" stroke="none"/>
          <circle cx="6.048" cy="6.048" r="5.048" fill="none"/>
        </g>
        <g id="Grupo_20" data-name="Grupo 20" transform="translate(257.133 605.07)">
          <g id="Grupo_17" data-name="Grupo 17" transform="translate(36.503 84.845) rotate(-45)">
            <path id="Icon_awesome-hand-point-right" data-name="Icon awesome-hand-point-right" d="M92.883,23.922a7.952,7.952,0,0,1-7.9,7.729H67.374a8.674,8.674,0,0,1-1.111,12.511,8.078,8.078,0,0,1-2.9,10.989c1.583,8.666-3.87,12.567-12.8,12.567-.484,0-2.341-.036-2.822-.034-10.928.03-13.56-5.478-21.82-6.757a4.227,4.227,0,0,1-3.574-4.18V26.5h0a8.465,8.465,0,0,1,5.02-7.732c5.094-2.291,16.826-8.648,18.963-13.636C47.7,1.922,50.1,0,53.381,0a8.47,8.47,0,0,1,7.78,11.8,23.969,23.969,0,0,1-2.5,4.394H84.982a8.08,8.08,0,0,1,7.9,7.729Zm-75.953.061V57.842A4.232,4.232,0,0,1,12.7,62.075H4.232A4.232,4.232,0,0,1,0,57.842V23.983a4.232,4.232,0,0,1,4.232-4.232H12.7A4.232,4.232,0,0,1,16.929,23.983ZM11.992,53.61a3.527,3.527,0,1,0-3.527,3.527A3.527,3.527,0,0,0,11.992,53.61Z" transform="translate(0 93.531) rotate(-90)" fill="#fff"/>
            <path id="Icon_awesome-hand-point-right-2" data-name="Icon awesome-hand-point-right" d="M92.883,23.922a7.952,7.952,0,0,1-7.9,7.729H67.374a8.674,8.674,0,0,1-1.111,12.511,8.078,8.078,0,0,1-2.9,10.989c1.583,8.666-3.87,12.567-12.8,12.567-.484,0-2.341-.036-2.822-.034-10.928.03-13.56-5.478-21.82-6.757a4.227,4.227,0,0,1-3.574-4.18V26.5h0a8.465,8.465,0,0,1,5.02-7.732c5.094-2.291,16.826-8.648,18.963-13.636C47.7,1.922,50.1,0,53.381,0a8.47,8.47,0,0,1,7.78,11.8,23.969,23.969,0,0,1-2.5,4.394H84.982a8.08,8.08,0,0,1,7.9,7.729Zm-75.953.061V57.842A4.232,4.232,0,0,1,12.7,62.075H4.232A4.232,4.232,0,0,1,0,57.842V23.983a4.232,4.232,0,0,1,4.232-4.232H12.7A4.232,4.232,0,0,1,16.929,23.983ZM11.992,53.61a3.527,3.527,0,1,0-3.527,3.527A3.527,3.527,0,0,0,11.992,53.61Z" transform="translate(0.648 92.883) rotate(-90)" fill="none" stroke="#404040" stroke-width="3"/>
          </g>
          <path id="Trazado_43" data-name="Trazado 43" d="M1263.066,192.124s-5.6-67.465,72.84-74.885" transform="translate(-1242.164 -98.381)" fill="none" stroke="#404040" stroke-linecap="round" stroke-width="3" stroke-dasharray="5"/>
          <g id="Grupo_18" data-name="Grupo 18" transform="translate(0 83.159)">
            <g id="Elipse_10" data-name="Elipse 10" transform="translate(0 0)" fill="#fff" stroke="#404040" stroke-width="3">
              <circle cx="21.168" cy="21.168" r="21.168" stroke="none"/>
              <circle cx="21.168" cy="21.168" r="19.668" fill="none"/>
            </g>
            <circle id="Elipse_14" data-name="Elipse 14" cx="7.56" cy="7.56" r="7.56" transform="translate(13.608 13.608)" fill="#404040"/>
          </g>
          <g id="Grupo_19" data-name="Grupo 19" transform="translate(81.646 0)">
            <circle id="Elipse_13" data-name="Elipse 13" cx="19.656" cy="19.656" r="19.656" transform="translate(0)" fill="#fff"/>
            <g id="Icon_feather-check-circle" data-name="Icon feather-check-circle" transform="translate(1.324 1.324)">
              <path id="Trazado_18" data-name="Trazado 18" d="M39.186,19.43V21.1A18.093,18.093,0,1,1,28.457,4.558" transform="translate(-3 -2.991)" fill="none" stroke="#ffb30b" stroke-linecap="round" stroke-linejoin="round" stroke-width="3"/>
              <path id="Trazado_19" data-name="Trazado 19" d="M37.021,6,18.928,24.111,13.5,18.683" transform="translate(-0.835 -2.37)" fill="none" stroke="#ffb30b" stroke-linecap="round" stroke-linejoin="round" stroke-width="3"/>
            </g>
          </g>
        </g>
      </g>
    </g>
  </g>
</svg>
