<svg xmlns="http://www.w3.org/2000/svg" width="61.901" height="84.29" viewBox="0 0 61.901 84.29">
  <g id="Grupo_133112" data-name="Grupo 133112" transform="translate(-3169 10118.145)">
    <path id="Trazado_194453" data-name="Trazado 194453" d="M149.868,56.021a8.663,8.663,0,0,1,2.172,1.8c2.576,2.583,5.148,5.171,7.743,7.735a3.583,3.583,0,0,1,1.115,2.71q-.02,33.739-.011,67.479a4.284,4.284,0,0,1-3.32,4.482,4.55,4.55,0,0,1-1.06.085q-26.539.006-53.078,0a4.22,4.22,0,0,1-4.419-4.446q-.009-7.529,0-15.059Q99.008,90.85,99,60.9c0-2.313.849-3.964,3.112-4.743.019-.006.012-.087.018-.133Zm-1.658,2.811h-44.2c-1.752,0-2.128.371-2.129,2.106q0,37.244,0,74.488c0,1.682.393,2.072,2.081,2.072H155.9c1.732,0,2.111-.381,2.111-2.125q0-32.882,0-65.764a1.8,1.8,0,0,0-.057-.848c-.055-.032-.079-.058-.1-.058-1.755-.005-3.511,0-5.267-.012a4.2,4.2,0,0,1-4.369-4.325C148.2,62.558,148.211,60.749,148.211,58.832Zm7.534,6.995-4.721-4.718c0,1.039-.024,2.152.008,3.263a1.339,1.339,0,0,0,1.364,1.442C153.528,65.867,154.664,65.827,155.745,65.827Z" transform="translate(3070.003 -10174.166)" fill="#0e0e0f"/>
    <path id="Trazado_194454" data-name="Trazado 194454" d="M136.223,224.167a22.046,22.046,0,0,0-5.857,4.316,1.667,1.667,0,0,1-1.491.688,1.387,1.387,0,0,1-1.146-.932,1.414,1.414,0,0,1,.4-1.568,24.569,24.569,0,0,1,6.3-4.83,32.35,32.35,0,0,1,18.6-3.8,30.559,30.559,0,0,1,15.677,5.618,21.589,21.589,0,0,1,3.343,2.912c.757.822.8,1.614.134,2.24-.629.59-1.409.528-2.175-.224a26.39,26.39,0,0,0-13.947-7.294c-.914-.17-1.849-.226-2.761-.4-.572-.109-.692.23-.851.626q-1.987,4.93-3.991,9.854a7.149,7.149,0,0,1-6.936,4.81,7.017,7.017,0,0,1-6.286-9.71C135.526,225.751,135.846,225.043,136.223,224.167Zm13.241-3.31c-.436,0-.872-.012-1.308,0-1.712.049-1.709.053-2.31,1.609q-1.118,2.9-2.246,5.791a1.422,1.422,0,0,1-2.764-.281,1.954,1.954,0,0,1,.224-1.025c.673-1.745,1.34-3.491,2.039-5.316a14.413,14.413,0,0,0-2.281.561,1.359,1.359,0,0,0-1.037.909c-.593,1.466-1.248,2.905-1.857,4.365a4.165,4.165,0,1,0,7.637,3.326c1.383-3.261,2.679-6.558,4.011-9.84l-.007-.145Z" transform="translate(3049.815 -10288.313)" fill="#0e0e0f"/>
    <path id="Trazado_194455" data-name="Trazado 194455" d="M229.931,150.823c-1.482,1.485-2.935,2.934-4.38,4.392a1.6,1.6,0,0,1-1.452.6,1.387,1.387,0,0,1-1.125-.967,1.43,1.43,0,0,1,.453-1.561q1.948-1.949,3.9-3.9c.174-.174.371-.325.534-.466-.077-.435-.394-.594-.614-.816-1.252-1.269-2.523-2.519-3.776-3.787a1.408,1.408,0,0,1-.161-2.106,1.447,1.447,0,0,1,2.174.112c1.474,1.464,2.93,2.947,4.443,4.472,1.5-1.5,2.954-2.95,4.395-4.413a1.507,1.507,0,0,1,1.916-.424,1.422,1.422,0,0,1,.2,2.362c-1.265,1.294-2.552,2.567-3.836,3.842-.193.192-.417.352-.727.611,1.581,1.556,3.088,3.013,4.562,4.5a1.42,1.42,0,0,1-.423,2.459,1.443,1.443,0,0,1-1.618-.485q-1.913-1.926-3.837-3.842C230.363,151.218,230.161,151.039,229.931,150.823Z" transform="translate(2982.648 -10234.626)" fill="#0e0e0f"/>
    <path id="Trazado_194456" data-name="Trazado 194456" d="M144.109,146.912c1.662-1.672,3.135-3.184,4.643-4.661a1.417,1.417,0,0,1,2.432.543,1.452,1.452,0,0,1-.508,1.543q-1.924,1.917-3.84,3.841c-.19.191-.371.391-.6.633,1.469,1.459,2.9,2.888,4.345,4.313a1.618,1.618,0,0,1,.639,1.516,1.427,1.427,0,0,1-.992,1.111,1.4,1.4,0,0,1-1.494-.424q-1.923-1.917-3.838-3.842a9.622,9.622,0,0,1-.612-.763l-3.933,3.937c-.213.214-.421.432-.641.639a1.435,1.435,0,0,1-2.112.122,1.4,1.4,0,0,1,.09-2.108c1.267-1.293,2.553-2.567,3.834-3.847.211-.211.439-.407.725-.671l-4.075-4.027c-.175-.173-.358-.341-.523-.524a1.427,1.427,0,1,1,2.022-2.012c1.32,1.279,2.613,2.585,3.9,3.894A5.357,5.357,0,0,1,144.109,146.912Z" transform="translate(3043.095 -10234.621)" fill="#0e0e0f"/>
    <path id="Trazado_194457" data-name="Trazado 194457" d="M201.657,227.775l.1-.045c0,.048.005.1.008.145A.825.825,0,0,1,201.657,227.775Z" transform="translate(2997.621 -10295.231)" fill="#fff"/>
  </g>
</svg>
