<svg xmlns="http://www.w3.org/2000/svg" xmlns:xlink="http://www.w3.org/1999/xlink" width="799.392" height="630" viewBox="0 0 799.392 630">
  <defs>
    <linearGradient id="linear-gradient" x1="9.562" y1="-0.734" x2="10.282" y2="-1.428" gradientUnits="objectBoundingBox">
      <stop offset="0" stop-color="#fff"/>
      <stop offset="0.225" stop-color="#f6f6f6"/>
      <stop offset="0.588" stop-color="#dedfe0"/>
      <stop offset="1" stop-color="#bcbec0"/>
    </linearGradient>
    <filter id="Ellipse_12985" x="57.354" y="170.354" width="151.613" height="151.613" filterUnits="userSpaceOnUse">
      <feOffset dy="3" input="SourceAlpha"/>
      <feGaussianBlur stdDeviation="3" result="blur"/>
      <feFlood flood-opacity="0.502"/>
      <feComposite operator="in" in2="blur"/>
      <feComposite in="SourceGraphic"/>
    </filter>
    <filter id="Ellipse_12988" x="190" y="304" width="151.613" height="151.613" filterUnits="userSpaceOnUse">
      <feOffset dy="3" input="SourceAlpha"/>
      <feGaussianBlur stdDeviation="3" result="blur-2"/>
      <feFlood flood-opacity="0.502"/>
      <feComposite operator="in" in2="blur-2"/>
      <feComposite in="SourceGraphic"/>
    </filter>
    <filter id="Ellipse_12989" x="453.476" y="304" width="151.613" height="151.613" filterUnits="userSpaceOnUse">
      <feOffset dy="3" input="SourceAlpha"/>
      <feGaussianBlur stdDeviation="3" result="blur-3"/>
      <feFlood flood-opacity="0.502"/>
      <feComposite operator="in" in2="blur-3"/>
      <feComposite in="SourceGraphic"/>
    </filter>
    <filter id="Ellipse_12986" x="324" y="170" width="151.613" height="151.613" filterUnits="userSpaceOnUse">
      <feOffset dy="3" input="SourceAlpha"/>
      <feGaussianBlur stdDeviation="3" result="blur-4"/>
      <feFlood flood-opacity="0.502"/>
      <feComposite operator="in" in2="blur-4"/>
      <feComposite in="SourceGraphic"/>
    </filter>
    <filter id="Ellipse_12987" x="590" y="170" width="151.613" height="151.613" filterUnits="userSpaceOnUse">
      <feOffset dy="3" input="SourceAlpha"/>
      <feGaussianBlur stdDeviation="3" result="blur-5"/>
      <feFlood flood-opacity="0.502"/>
      <feComposite operator="in" in2="blur-5"/>
      <feComposite in="SourceGraphic"/>
    </filter>
  </defs>
  <g id="img-4" transform="translate(-400.034 -2083.973)">
    <g id="Group_134741" data-name="Group 134741" transform="translate(0 -129)">
      <rect id="Rectangle_296809" data-name="Rectangle 296809" width="124.798" height="6.308" transform="translate(535.747 2280.28) rotate(90)" fill="#00defc"/>
      <rect id="Rectangle_296810" data-name="Rectangle 296810" width="124.798" height="6.308" transform="translate(802.244 2280.28) rotate(90)" fill="#084a93"/>
      <rect id="Rectangle_296813" data-name="Rectangle 296813" width="124.798" height="6.308" transform="translate(1068.216 2280.28) rotate(90)" fill="#00defc"/>
      <rect id="Rectangle_296811" data-name="Rectangle 296811" width="156.066" height="6.308" transform="translate(669.127 2615.553) rotate(90)" fill="#ffb30b"/>
      <rect id="Rectangle_296812" data-name="Rectangle 296812" width="156.066" height="6.308" transform="translate(935.624 2615.553) rotate(90)" fill="#ffb30b"/>
      <g id="Group_134720" data-name="Group 134720" transform="translate(799.426 2456.973) rotate(90)">
        <g id="Group_133035" data-name="Group 133035" transform="translate(0)">
          <g id="Group_133034" data-name="Group 133034">
            <rect id="Rectangle_294033" data-name="Rectangle 294033" width="188.368" height="188.368" transform="translate(133.196 0) rotate(45)" fill="#ffb30b"/>
          </g>
        </g>
      </g>
      <g id="Group_134721" data-name="Group 134721" transform="translate(666.426 2322.973) rotate(90)">
        <g id="Group_133037" data-name="Group 133037">
          <rect id="Rectangle_294034" data-name="Rectangle 294034" width="188.368" height="188.368" transform="translate(133.196 0) rotate(45)" fill="#00defc"/>
        </g>
      </g>
      <path id="Path_194772" data-name="Path 194772" d="M120.1,0l-3.186,3.188,1.06,1.06,3.188-3.186Zm2.258,1.2L121.3,2.258l3.188,3.186,1.061-1.06ZM113.73,6.374l-3.186,3.188,1.061,1.061,3.186-3.188Zm15.005,1.2-1.061,1.06,3.188,3.188,1.06-1.061Zm-21.379,5.175-3.186,3.186,1.061,1.061,3.186-3.186Zm27.753,1.2-1.061,1.061,3.188,3.188,1.06-1.061Zm-34.127,5.177L97.8,22.309l1.061,1.06,3.186-3.186Zm40.5,1.2-1.061,1.061,3.188,3.186,1.06-1.06ZM94.609,25.495l-3.186,3.188,1.061,1.06,3.186-3.186Zm53.248,1.2L146.8,27.753l3.188,3.186,1.06-1.06Zm-59.62,5.177-3.188,3.186,1.061,1.061L89.3,32.93Zm65.994,1.2-1.061,1.061,3.188,3.186,1.06-1.061ZM81.863,38.242,78.676,41.43l1.061,1.06L82.923,39.3Zm78.741,1.2L159.543,40.5l3.186,3.186,1.061-1.06ZM75.49,44.616,72.3,47.8l1.061,1.061,3.186-3.186Zm91.488,1.2-1.061,1.061L169.1,50.06,170.164,49ZM69.116,50.99l-3.188,3.186,1.061,1.061,3.186-3.186Zm104.236,1.2-1.061,1.061,3.186,3.186,1.061-1.061ZM62.742,57.363l-3.188,3.186,1.061,1.061L63.8,58.423Zm116.983,1.2-1.061,1.06,3.186,3.188,1.061-1.061ZM56.369,63.737l-3.187,3.186,1.061,1.061L57.428,64.8Zm129.729,1.2-1.06,1.06,3.186,3.188,1.061-1.061Zm-136.1,5.177L46.807,73.3l1.061,1.061,3.188-3.188Zm142.476,1.2-1.06,1.061,3.186,3.186,1.061-1.061ZM43.621,76.484,40.434,79.67l1.061,1.061,3.188-3.188Zm155.224,1.2-1.06,1.06,3.186,3.188,1.061-1.061Zm-161.6,5.175L34.06,86.044l1.061,1.061,3.188-3.188Zm167.971,1.2-1.06,1.06,3.186,3.188,1.061-1.061ZM30.874,89.232l-3.186,3.186,1.06,1.061,3.188-3.188Zm180.718,1.2-1.06,1.061,3.186,3.188,1.061-1.061ZM24.5,95.605l-3.188,3.186,1.061,1.061,3.188-3.188Zm193.466,1.2-1.06,1.06,3.186,3.188,1.061-1.061ZM18.126,101.978l-3.186,3.188,1.06,1.06,3.188-3.186Zm206.213,1.2-1.061,1.06,3.187,3.188,1.061-1.061ZM11.753,108.351l-3.186,3.188,1.06,1.061,3.188-3.188Zm218.96,1.2-1.061,1.061,3.187,3.186,1.061-1.06ZM5.379,114.725l-3.186,3.188,1.06,1.061,3.188-3.187Zm231.708,1.2-1.061,1.061,3.188,3.188,1.061-1.061ZM1.061,121.1,0,122.16l3.188,3.186,1.06-1.06Zm237.95,1.2-3.188,3.188,1.061,1.061,3.186-3.188ZM7.435,127.472l-1.061,1.061,3.188,3.186,1.061-1.06Zm225.2,1.2-3.186,3.188,1.06,1.06,3.188-3.186ZM13.808,133.846l-1.061,1.061,3.188,3.186,1.06-1.061Zm212.455,1.2-3.188,3.188,1.061,1.061,3.188-3.188ZM20.182,140.22l-1.061,1.061,3.188,3.186,1.06-1.06Zm199.708,1.2L216.7,144.6l1.061,1.06,3.188-3.186ZM26.556,146.593l-1.061,1.06,3.188,3.188,1.06-1.061Zm186.96,1.2-3.186,3.188,1.06,1.06,3.188-3.186ZM32.93,152.967l-1.061,1.061,3.186,3.186,1.061-1.061Zm174.213,1.2-3.186,3.188,1.06,1.061,3.188-3.188ZM39.3,159.341l-1.061,1.06,3.188,3.188,1.06-1.061Zm161.466,1.2-3.186,3.186,1.061,1.061,3.186-3.186ZM45.677,165.714l-1.061,1.06,3.186,3.188,1.061-1.061Zm148.718,1.2-3.186,3.188,1.061,1.06,3.186-3.186ZM52.049,172.088l-1.06,1.061,3.186,3.186,1.061-1.061Zm135.972,1.2-3.186,3.186,1.06,1.061,3.188-3.186Zm-129.6,5.177-1.061,1.06,3.186,3.188,1.061-1.061Zm123.224,1.2-3.186,3.186,1.061,1.061,3.186-3.186ZM64.8,184.835l-1.061,1.06,3.186,3.188,1.061-1.061Zm110.478,1.2-3.187,3.186,1.061,1.061,3.186-3.188ZM71.17,191.208l-1.06,1.061,3.186,3.186,1.061-1.06Zm97.73,1.2-3.186,3.186,1.061,1.061,3.186-3.186Zm-91.357,5.177-1.06,1.06,3.186,3.188,1.061-1.061Zm84.983,1.2-3.186,3.186,1.061,1.061,3.186-3.188Zm-78.609,5.175-1.06,1.061,3.186,3.188,1.061-1.061Zm72.237,1.2-3.187,3.186,1.061,1.061,3.186-3.188Zm-65.863,5.175-1.06,1.061,3.186,3.186,1.061-1.06Zm59.49,1.2-3.188,3.186,1.061,1.061,3.186-3.186ZM96.665,216.7l-1.06,1.061,3.186,3.186,1.061-1.06Zm46.742,1.2-3.188,3.186,1.061,1.06,3.186-3.186Zm-40.369,5.175-1.06,1.061,3.186,3.186,1.061-1.061Zm33.995,1.2-3.188,3.186,1.061,1.061,3.188-3.188Zm-27.621,5.175-1.061,1.061,3.188,3.186,1.061-1.06Zm21.247,1.2-3.188,3.188,1.061,1.061,3.186-3.188Zm-14.874,5.177-1.061,1.061,3.188,3.188,1.061-1.061Zm8.5,1.2-3.187,3.188,1.061,1.06,3.188-3.186Z" transform="translate(654.169 2335.822) rotate(90)" fill="#084a93"/>
      <g id="Group_134722" data-name="Group 134722" transform="translate(1065.426 2456.973) rotate(90)">
        <g id="Group_133040" data-name="Group 133040" transform="translate(0)">
          <g id="Group_133039" data-name="Group 133039">
            <rect id="Rectangle_294035" data-name="Rectangle 294035" width="188.368" height="188.368" transform="translate(133.196 0) rotate(45)" fill="#ffb30b"/>
          </g>
        </g>
      </g>
      <g id="Group_134723" data-name="Group 134723" transform="translate(932.425 2323.313) rotate(90)">
        <g id="Group_133042" data-name="Group 133042" transform="translate(0)">
          <rect id="Rectangle_294036" data-name="Rectangle 294036" width="188.368" height="188.368" transform="translate(133.196 0) rotate(45)" fill="#084a93"/>
        </g>
      </g>
      <g id="Group_134724" data-name="Group 134724" transform="translate(1199.426 2323.313) rotate(90)">
        <rect id="Rectangle_294037" data-name="Rectangle 294037" width="188.368" height="188.368" transform="translate(133.196 0) rotate(45)" fill="#00defc"/>
      </g>
      <path id="Path_194777" data-name="Path 194777" d="M18.923,9.461a9.461,9.461,0,1,0-9.461,9.461A9.462,9.462,0,0,0,18.923,9.461Z" transform="translate(542.054 2273.973) rotate(90)" fill="#00defc"/>
      <path id="Path_194778" data-name="Path 194778" d="M18.923,9.463a9.461,9.461,0,1,0-9.461,9.461A9.462,9.462,0,0,0,18.923,9.463Z" transform="translate(809.078 2273.973) rotate(90)" fill="#084a93"/>
      <path id="Path_194780" data-name="Path 194780" d="M18.923,9.463a9.461,9.461,0,1,0-9.461,9.461A9.462,9.462,0,0,0,18.923,9.463Z" transform="translate(675.304 2762.945) rotate(90)" fill="#ffb30b"/>
      <path id="Path_194781" data-name="Path 194781" d="M18.923,9.463a9.461,9.461,0,1,0-9.461,9.461A9.462,9.462,0,0,0,18.923,9.463Z" transform="translate(941.625 2762.945) rotate(90)" fill="#ffb30b"/>
      <path id="Path_194779" data-name="Path 194779" d="M18.923,9.461a9.461,9.461,0,1,0-9.461,9.461A9.462,9.462,0,0,0,18.923,9.461Z" transform="translate(1073.735 2273.973) rotate(90)" fill="#00defc"/>
      <g transform="matrix(1, 0, 0, 1, 400.03, 2212.97)" filter="url(#Ellipse_12985)">
        <ellipse id="Ellipse_12985-2" data-name="Ellipse 12985" cx="66.807" cy="66.807" rx="66.807" ry="66.807" transform="translate(66.35 176.35)" fill="url(#linear-gradient)"/>
      </g>
      <g transform="matrix(1, 0, 0, 1, 400.03, 2212.97)" filter="url(#Ellipse_12988)">
        <ellipse id="Ellipse_12988-2" data-name="Ellipse 12988" cx="66.807" cy="66.807" rx="66.807" ry="66.807" transform="translate(199 310)" fill="url(#linear-gradient)"/>
      </g>
      <g transform="matrix(1, 0, 0, 1, 400.03, 2212.97)" filter="url(#Ellipse_12989)">
        <ellipse id="Ellipse_12989-2" data-name="Ellipse 12989" cx="66.807" cy="66.807" rx="66.807" ry="66.807" transform="translate(462.48 310)" fill="url(#linear-gradient)"/>
      </g>
      <g id="Group_134725" data-name="Group 134725" transform="translate(485.972 2412.328)">
        <path id="Path_194313" data-name="Path 194313" d="M94.028,39.233a4.349,4.349,0,0,1-2.373,2.125c-.351.094-.289.432-.3.695a10.039,10.039,0,0,1-2.641,6.114,6.55,6.55,0,0,0-1.241,7.124A9.884,9.884,0,0,1,81.362,68.54a6.692,6.692,0,0,0-4.776,5.843,9.7,9.7,0,0,1-11.564,8.166A6.987,6.987,0,0,0,57.689,85.2a9.551,9.551,0,0,1-3.984,3,1.369,1.369,0,0,1-1.983-.69,1.352,1.352,0,0,1,.892-1.829,8.393,8.393,0,0,0,3.143-2.456,9.463,9.463,0,0,1,9.6-3.4,6.971,6.971,0,0,0,8.5-5.894A9.689,9.689,0,0,1,80.6,65.865a6.972,6.972,0,0,0,4.343-9.405,9.611,9.611,0,0,1,1.825-10.278,7.133,7.133,0,0,0,1.761-3.692c-1.879.683-3.663,1.341-5.454,1.977-.549.194-.374.643-.382,1a32.943,32.943,0,0,1-3.005,13.344C73.7,71.565,63.7,78.888,49.662,80.06c-11.747.981-21.6-3.329-29.533-12.051l-.346-.382a.814.814,0,0,0-.22,0c-1.834.67-3.666,1.344-5.584,2.048a5.534,5.534,0,0,0,3.211,1.606,10.3,10.3,0,0,1,6.287,3.092,10.609,10.609,0,0,1,2.207,3.772,6.889,6.889,0,0,0,9.292,4.346,9.633,9.633,0,0,1,10.342,1.824,9.436,9.436,0,0,0,1.659,1.139,1.381,1.381,0,0,1,.743,1.906,1.423,1.423,0,0,1-2.044.517,10.628,10.628,0,0,1-2.26-1.556,6.82,6.82,0,0,0-7.266-1.307c-5.708,2.126-11.04-.348-13.135-6.1a6.822,6.822,0,0,0-5.649-4.758,9.749,9.749,0,0,1-5.911-3.039.732.732,0,0,0-.873-.224c-2.082.574-3.465-.118-4.2-2.126Q3.308,60.372.269,51.967a3.08,3.08,0,0,1,1.856-4.256.793.793,0,0,0,.557-.814,9.756,9.756,0,0,1,2.57-6.044,6.84,6.84,0,0,0,1.294-7.29c-2.09-5.688.368-11.072,6.029-13.105a6.993,6.993,0,0,0,4.876-5.98A9.7,9.7,0,0,1,28.9,6.365a7.16,7.16,0,0,0,7.493-2.673A9.629,9.629,0,0,1,50.419,2.474a7.146,7.146,0,0,0,7.754,1.357A9.606,9.606,0,0,1,70.882,9.724a7.125,7.125,0,0,0,5.989,5.117A9.423,9.423,0,0,1,82.6,17.849a.733.733,0,0,0,.887.187,3.08,3.08,0,0,1,4.144,2.09q1.1,2.964,2.169,5.94c.36,1,.089,1.8-.679,2.088-.841.315-1.518-.1-1.916-1.185-.674-1.836-1.376-3.663-1.99-5.518-.272-.824-.633-.909-1.4-.626q-21.956,8.04-43.929,16.036-17.97,6.553-35.94,13.107c-1.471.537-1.334.342-.817,1.766,1.9,5.228,3.819,10.445,5.67,15.69.327.929.716.965,1.53.668q33.093-12.1,66.2-24.169c4.615-1.683,9.221-3.391,13.852-5.028.868-.307.982-.651.643-1.45-.524-1.236-.944-2.516-1.388-3.785a1.4,1.4,0,0,1,.75-1.969c.808-.276,1.471.089,1.836,1.045.614,1.611,1.213,3.229,1.818,4.843Zm-22.54-16.84c-.286-.318-.517-.6-.768-.853A31.6,31.6,0,0,0,64.6,16.583a32.657,32.657,0,0,0-24.9-4.289c-1.112.244-1.874-.1-2.057-.942-.191-.883.307-1.505,1.422-1.747A35.286,35.286,0,0,1,67.748,15.36a34.5,34.5,0,0,1,6.54,6.013l5.769-2.11a6.281,6.281,0,0,0-3.565-1.691,9.738,9.738,0,0,1-8.2-6.939A6.861,6.861,0,0,0,59.238,6.38,9.88,9.88,0,0,1,48.574,4.53a6.86,6.86,0,0,0-10.084.947A9.7,9.7,0,0,1,28.542,9.1a6.928,6.928,0,0,0-8.377,5.947,9.655,9.655,0,0,1-6.6,7.985c-4.254,1.539-6.014,5.3-4.429,9.557a9.983,9.983,0,0,1,.406,5.869,9.79,9.79,0,0,1-2.3,4.328,6.349,6.349,0,0,0-1.712,3.667l5.729-2.1c.1-1.322.122-2.583.287-3.825,1.743-13.114,8.572-22.588,20.379-28.475.979-.488,1.747-.287,2.133.486.4.805.05,1.522-.985,2.03C22.94,19.536,16.8,27.592,14.578,38.648a17.1,17.1,0,0,0-.42,4.653Zm-48.9,44.139a32.758,32.758,0,0,0,37.672,8.151A33.013,33.013,0,0,0,79.925,45.623Z" transform="translate(0 0)" fill="#040404"/>
        <path id="Path_194314" data-name="Path 194314" d="M5.126,8.857c.261.759.465,1.291.626,1.836a1.338,1.338,0,0,1-.806,1.716,1.271,1.271,0,0,1-1.735-.737Q1.6,7.388.089,3.071A1.266,1.266,0,0,1,.954,1.386C2.085.933,3.229.507,4.39.14A2.908,2.908,0,0,1,7.92,1.7c1.091,2.228.939,3.312-.755,5.061.792.4,1.566.794,2.338,1.19,1.045.536,1.383,1.229.993,2.021-.406.821-1.143.979-2.2.461C7.317,9.953,6.337,9.46,5.126,8.857Zm.268-6.084A9.438,9.438,0,0,0,3.2,3.558a5.017,5.017,0,0,0,.568,1.43l2.135-.8Z" transform="translate(37.12 40.099)" fill="#040404"/>
        <path id="Path_194315" data-name="Path 194315" d="M10.182,8.286a2.948,2.948,0,0,1-1.9,2.9c-1.075.429-2.164.821-3.258,1.194a1.341,1.341,0,0,1-1.9-.886Q1.59,7.387.117,3.251a1.365,1.365,0,0,1,.915-1.9C2.139.92,3.252.5,4.383.146A2.769,2.769,0,0,1,7.845,1.614c.838,2.026,1.531,4.112,2.273,6.178A1.757,1.757,0,0,1,10.182,8.286ZM3.145,3.515,5.291,9.4a18.743,18.743,0,0,0,2.167-.934c-.7-1.922-1.391-3.808-2.1-5.747Z" transform="translate(73.751 26.749)" fill="#040404"/>
        <path id="Path_194316" data-name="Path 194316" d="M3.146,3.935,3.677,5.4c.86-.3,1.7-.614,2.549-.9A1.381,1.381,0,1,1,7.2,7.075c-.816.331-1.65.615-2.564.953l.62,1.741c1.088-.4,2.131-.781,3.177-1.154,1.005-.358,1.782-.1,2.085.67.324.827-.087,1.539-1.154,1.94-1.4.524-2.8,1.038-4.2,1.534-1.1.388-1.709.087-2.124-1.04Q1.6,7.811.187,3.895C-.237,2.717.039,2.14,1.219,1.7Q3.313.909,5.418.147C6.408-.207,7.2.093,7.464.894c.275.827-.108,1.469-1.139,1.862S4.275,3.517,3.146,3.935Z" transform="translate(64.898 29.565)" fill="#040404"/>
        <path id="Path_194317" data-name="Path 194317" d="M4.594,0A3.11,3.11,0,0,1,7.5,1.961c.7,1.757,1.371,3.531,1.951,5.33a3.152,3.152,0,0,1-1.863,3.92,14.28,14.28,0,0,1-1.546.561A3.164,3.164,0,0,1,2.014,9.836Q1.053,7.361.2,4.844A3.165,3.165,0,0,1,2.186.7,7.511,7.511,0,0,1,4.594,0ZM4.5,2.781c-.392.142-.818.3-1.249.454a.556.556,0,0,0-.393.841C3.43,5.62,3.98,7.173,4.541,8.721a.544.544,0,0,0,.858.352,6.168,6.168,0,0,1,.862-.3c.525-.159.645-.485.461-.983Q5.9,5.556,5.09,3.317C4.992,3.046,4.872,2.81,4.5,2.781Z" transform="translate(47.251 36.652)" fill="#040404"/>
        <path id="Path_194318" data-name="Path 194318" d="M4.953,8.476c.272.772.533,1.455.752,2.152a1.37,1.37,0,1,1-2.6.843C2.24,9.154,1.4,6.829.558,4.505-.379,1.925-.335,1.834,2.254.9,2.971.638,3.679.352,4.407.131A2.851,2.851,0,0,1,7.866,1.647a16.415,16.415,0,0,1,.918,2.487A2.915,2.915,0,0,1,7.073,7.677C6.406,7.968,5.71,8.193,4.953,8.476ZM4,5.858l2.151-.788a11.406,11.406,0,0,0-.834-2.326,10.272,10.272,0,0,0-2.144.839Z" transform="translate(27.935 43.464)" fill="#040404"/>
        <path id="Path_194319" data-name="Path 194319" d="M4.94,8.475c.275.747.524,1.372.733,2.009a1.391,1.391,0,1,1-2.6.926Q1.582,7.367.134,3.311a1.393,1.393,0,0,1,.9-1.988C2.121.909,3.21.51,4.312.153a2.9,2.9,0,0,1,3.6,1.568,18.8,18.8,0,0,1,.88,2.409A2.945,2.945,0,0,1,7.058,7.678C6.392,7.969,5.7,8.192,4.94,8.475Zm.415-5.761a13.2,13.2,0,0,0-2.2.854L4,5.835a10.8,10.8,0,0,0,2.179-.863Z" transform="translate(18.861 46.781)" fill="#040404"/>
        <path id="Path_194320" data-name="Path 194320" d="M1.412,0A1.548,1.548,0,0,1,2.541.64c1.788,2.366,3.589,4.723,5.366,7.1a1.371,1.371,0,0,1-.1,1.976A1.266,1.266,0,0,1,5.92,9.624a.594.594,0,0,0-.793-.141,12,12,0,0,1-1.376.493.7.7,0,0,0-.566.69A1.3,1.3,0,0,1,1.751,11.91C1,11.9.51,11.324.46,10.42Q.22,6.063,0,1.706A1.458,1.458,0,0,1,1.412,0ZM3.05,7.2c.324-.024.569-.021.74-.3-.214-.286-.348-.651-.74-.847Z" transform="translate(12.18 50.498)" fill="#040404"/>
        <path id="Path_194321" data-name="Path 194321" d="M5.288,5.843c-.066-1.373-.149-2.745-.2-4.118C5.056.662,5.571.02,6.423,0,7.259-.02,7.8.614,7.846,1.674c.131,2.812.254,5.625.4,8.437.041.773-.1,1.43-.9,1.713s-1.321-.133-1.783-.751C3.888,8.821,2.179,6.588.487,4.342c-.666-.886-.644-1.635.036-2.179S2.01,1.8,2.7,2.7Q3.917,4.295,5.126,5.9Z" transform="translate(55.511 32.854)" fill="#040404"/>
        <path id="Path_194322" data-name="Path 194322" d="M2.193,0,2.7,1.418l-2.135.8A5.017,5.017,0,0,1,0,.784,9.437,9.437,0,0,1,2.193,0Z" transform="translate(40.322 42.873)" fill="#fdfdfd"/>
        <path id="Path_194323" data-name="Path 194323" d="M0,.8,2.215,0c.708,1.938,1.4,3.825,2.1,5.747a18.746,18.746,0,0,1-2.167.934Z" transform="translate(76.896 29.465)" fill="#fdfdfd"/>
        <path id="Path_194324" data-name="Path 194324" d="M1.712,0c.376.029.495.265.593.536q.81,2.238,1.631,4.472c.184.5.064.824-.461.983a6.168,6.168,0,0,0-.862.3.544.544,0,0,1-.858-.352C1.2,4.392.645,2.839.07,1.295A.556.556,0,0,1,.463.454C.894.3,1.32.142,1.712,0Z" transform="translate(50.036 39.433)" fill="#fdfdfd"/>
        <path id="Path_194325" data-name="Path 194325" d="M.827,3.114,0,.839A10.272,10.272,0,0,1,2.144,0a11.406,11.406,0,0,1,.834,2.326Z" transform="translate(31.104 46.208)" fill="#fdfdfd"/>
        <path id="Path_194326" data-name="Path 194326" d="M2.2,0l.821,2.259a10.8,10.8,0,0,1-2.179.863L0,.854A13.2,13.2,0,0,1,2.2,0Z" transform="translate(22.016 49.494)" fill="#fdfdfd"/>
        <path id="Path_194327" data-name="Path 194327" d="M0,1.144V0C.392.2.526.561.74.847.569,1.123.324,1.12,0,1.144Z" transform="translate(15.23 56.556)" fill="#fdfdfd"/>
        <path id="Path_194328" data-name="Path 194328" d="M48.771,6.924c0,.559-.558.916-1.269,1.173-3.612,1.309-7.217,2.635-10.827,3.951Q19.534,18.3,2.392,24.544c-.683.25-1.342.5-1.963-.089-.647-.617-.435-1.324-.19-2.043C4.46,10.074,12.977,2.637,25.783.438,33.687-.92,41.068.93,47.816,5.276A1.713,1.713,0,0,1,48.771,6.924ZM3.739,20.957c.319.176.569-.062.833-.158q12.472-4.531,24.94-9.075c4.867-1.774,9.73-3.559,14.669-5.366-.246-.148-.421-.266-.607-.362a26.83,26.83,0,0,0-10.309-3.02c-10.579-.813-19.207,2.973-25.8,11.307a20.98,20.98,0,0,0-3.706,6.69l-.112.095c.028.007.062.025.083.017C3.814,21.052,3.814,21,3.739,20.957Z" transform="translate(17.175 14.4)" fill="#040404"/>
        <path id="Path_194329" data-name="Path 194329" d="M18.432,24.779A32.059,32.059,0,0,1,.952,19.538C.38,19.165-.075,18.758.01,18s.628-1.049,1.265-1.281q17.66-6.428,35.315-12.87,4.9-1.786,9.791-3.583c.681-.251,1.349-.49,1.966.1s.446,1.257.21,1.956c-4.2,12.388-12.755,19.715-25.562,22.1a16.241,16.241,0,0,1-1.821.211C20.2,24.7,19.219,24.739,18.432,24.779ZM4.606,18.447C20.493,27.172,39.67,18.758,45,3.724Z" transform="translate(28.079 49.727)" fill="#040404"/>
        <path id="Path_194330" data-name="Path 194330" d="M.088,0C.163.047.163.095.083.128.062.137.028.118,0,.112L.112.017Z" transform="translate(20.826 35.356)" fill="#fdfdfd"/>
        <path id="Path_194331" data-name="Path 194331" d="M2.444,3.777c.357-.9.693-1.785,1.054-2.656C3.9.158,4.553-.194,5.345.1c.831.313,1.09,1.039.7,2.054C5.555,3.44,5.055,4.72,4.534,5.991c-.446,1.087-1.11,1.333-2.194.845q-.668-.3-1.321-.632C.105,5.743-.209,5.047.137,4.282a1.4,1.4,0,0,1,1.935-.636Z" transform="translate(36.042 19.777)" fill="#040404"/>
        <path id="Path_194332" data-name="Path 194332" d="M5.4,1.423a1.371,1.371,0,0,1-.841,1.188c-.933.367-1.867.741-2.824,1.031A1.244,1.244,0,0,1,.121,2.82,1.219,1.219,0,0,1,.758,1.127,22.076,22.076,0,0,1,3.66.056,1.36,1.36,0,0,1,5.4,1.423Z" transform="translate(27.799 26.129)" fill="#040404"/>
        <path id="Path_194333" data-name="Path 194333" d="M5.4,1.46a1.314,1.314,0,0,1-.818,1.151c-.932.366-1.862.75-2.82,1.038a1.282,1.282,0,0,1-1.644-.8A1.3,1.3,0,0,1,.826,1.1,25.72,25.72,0,0,1,3.644.058,1.379,1.379,0,0,1,5.4,1.46Z" transform="translate(46.376 19.342)" fill="#040404"/>
        <path id="Path_194334" data-name="Path 194334" d="M2.439,3.785c.373-.944.709-1.826,1.069-2.7A1.411,1.411,0,0,1,5.383.1,1.421,1.421,0,0,1,6.069,2.1c-.5,1.311-1.008,2.619-1.543,3.916A1.4,1.4,0,0,1,2.4,6.869c-.473-.211-.936-.445-1.4-.683-.877-.451-1.19-1.1-.892-1.835.32-.789,1.017-1.034,1.981-.7C2.174,3.682,2.255,3.715,2.439,3.785Z" transform="translate(51.239 61.605)" fill="#040404"/>
        <path id="Path_194335" data-name="Path 194335" d="M5.392,1.346a1.4,1.4,0,0,1-.916,1.313c-.85.327-1.7.659-2.566.941A1.35,1.35,0,0,1,.077,2.731,1.334,1.334,0,0,1,1,1C1.847.664,2.7.343,3.571.071A1.361,1.361,0,0,1,5.392,1.346Z" transform="translate(60.83 59.127)" fill="#040404"/>
        <path id="Path_194336" data-name="Path 194336" d="M5.381,1.128a1.459,1.459,0,0,1-.954,1.564c-.85.326-1.7.653-2.568.933A1.351,1.351,0,0,1,.087,2.778a1.31,1.31,0,0,1,.8-1.71,27.311,27.311,0,0,1,2.735-1A1.319,1.319,0,0,1,5.381,1.128Z" transform="translate(42.247 65.892)" fill="#040404"/>
      </g>
      <path id="Path_194782" data-name="Path 194782" d="M120.1,0l-3.186,3.188,1.06,1.06,3.188-3.186Zm2.258,1.2L121.3,2.258l3.188,3.186,1.061-1.06ZM113.73,6.374l-3.186,3.188,1.061,1.061,3.186-3.188Zm15.005,1.2-1.061,1.06,3.188,3.188,1.06-1.061Zm-21.379,5.175-3.186,3.186,1.061,1.061,3.186-3.186Zm27.753,1.2-1.061,1.061,3.188,3.188,1.06-1.061Zm-34.127,5.177L97.8,22.309l1.061,1.06,3.186-3.186Zm40.5,1.2-1.061,1.061,3.188,3.186,1.06-1.06ZM94.609,25.495l-3.186,3.188,1.061,1.06,3.186-3.186Zm53.248,1.2L146.8,27.753l3.188,3.186,1.06-1.06Zm-59.62,5.177-3.188,3.186,1.061,1.061L89.3,32.93Zm65.994,1.2-1.061,1.061,3.188,3.186,1.06-1.061ZM81.863,38.242,78.676,41.43l1.061,1.06L82.923,39.3Zm78.741,1.2L159.543,40.5l3.186,3.186,1.061-1.06ZM75.49,44.616,72.3,47.8l1.061,1.061,3.186-3.186Zm91.488,1.2-1.061,1.061L169.1,50.06,170.164,49ZM69.116,50.99l-3.188,3.186,1.061,1.061,3.186-3.186Zm104.236,1.2-1.061,1.061,3.186,3.186,1.061-1.061ZM62.742,57.363l-3.188,3.186,1.061,1.061L63.8,58.423Zm116.983,1.2-1.061,1.06,3.186,3.188,1.061-1.061ZM56.369,63.737l-3.187,3.186,1.061,1.061L57.428,64.8Zm129.729,1.2-1.06,1.06,3.186,3.188,1.061-1.061Zm-136.1,5.177L46.807,73.3l1.061,1.061,3.188-3.188Zm142.476,1.2-1.06,1.061,3.186,3.186,1.061-1.061ZM43.621,76.484,40.434,79.67l1.061,1.061,3.188-3.188Zm155.224,1.2-1.06,1.06,3.186,3.188,1.061-1.061Zm-161.6,5.175L34.06,86.044l1.061,1.061,3.188-3.188Zm167.971,1.2-1.06,1.06,3.186,3.188,1.061-1.061ZM30.874,89.232l-3.186,3.186,1.06,1.061,3.188-3.188Zm180.718,1.2-1.06,1.061,3.186,3.188,1.061-1.061ZM24.5,95.605l-3.188,3.186,1.061,1.061,3.188-3.188Zm193.466,1.2-1.06,1.06,3.186,3.188,1.061-1.061ZM18.126,101.978l-3.186,3.188,1.06,1.06,3.188-3.186Zm206.213,1.2-1.061,1.06,3.187,3.188,1.061-1.061ZM11.753,108.351l-3.186,3.188,1.06,1.061,3.188-3.188Zm218.96,1.2-1.061,1.061,3.187,3.186,1.061-1.06ZM5.379,114.725l-3.186,3.188,1.06,1.061,3.188-3.187Zm231.708,1.2-1.061,1.061,3.188,3.188,1.061-1.061ZM1.061,121.1,0,122.16l3.188,3.186,1.06-1.06Zm237.95,1.2-3.188,3.188,1.061,1.061,3.186-3.188ZM7.435,127.472l-1.061,1.061,3.188,3.186,1.061-1.06Zm225.2,1.2-3.186,3.188,1.06,1.06,3.188-3.186ZM13.808,133.846l-1.061,1.061,3.188,3.186,1.06-1.061Zm212.455,1.2-3.188,3.188,1.061,1.061,3.188-3.188ZM20.182,140.22l-1.061,1.061,3.188,3.186,1.06-1.06Zm199.708,1.2L216.7,144.6l1.061,1.06,3.188-3.186ZM26.556,146.593l-1.061,1.06,3.188,3.188,1.06-1.061Zm186.96,1.2-3.186,3.188,1.06,1.06,3.188-3.186ZM32.93,152.967l-1.061,1.061,3.186,3.186,1.061-1.061Zm174.213,1.2-3.186,3.188,1.06,1.061,3.188-3.188ZM39.3,159.341l-1.061,1.06,3.188,3.188,1.06-1.061Zm161.466,1.2-3.186,3.186,1.061,1.061,3.186-3.186ZM45.677,165.714l-1.061,1.06,3.186,3.188,1.061-1.061Zm148.718,1.2-3.186,3.188,1.061,1.06,3.186-3.186ZM52.049,172.088l-1.06,1.061,3.186,3.186,1.061-1.061Zm135.972,1.2-3.186,3.186,1.06,1.061,3.188-3.186Zm-129.6,5.177-1.061,1.06,3.186,3.188,1.061-1.061Zm123.224,1.2-3.186,3.186,1.061,1.061,3.186-3.186ZM64.8,184.835l-1.061,1.06,3.186,3.188,1.061-1.061Zm110.478,1.2-3.187,3.186,1.061,1.061,3.186-3.188ZM71.17,191.208l-1.06,1.061,3.186,3.186,1.061-1.06Zm97.73,1.2-3.186,3.186,1.061,1.061,3.186-3.186Zm-91.357,5.177-1.06,1.06,3.186,3.188,1.061-1.061Zm84.983,1.2-3.186,3.186,1.061,1.061,3.186-3.188Zm-78.609,5.175-1.06,1.061,3.186,3.188,1.061-1.061Zm72.237,1.2-3.187,3.186,1.061,1.061,3.186-3.188Zm-65.863,5.175-1.06,1.061,3.186,3.186,1.061-1.06Zm59.49,1.2-3.188,3.186,1.061,1.061,3.186-3.186ZM96.665,216.7l-1.06,1.061,3.186,3.186,1.061-1.06Zm46.742,1.2-3.188,3.186,1.061,1.06,3.186-3.186Zm-40.369,5.175-1.06,1.061,3.186,3.186,1.061-1.061Zm33.995,1.2-3.188,3.186,1.061,1.061,3.188-3.188Zm-27.621,5.175-1.061,1.061,3.188,3.186,1.061-1.06Zm21.247,1.2-3.188,3.188,1.061,1.061,3.186-3.188Zm-14.874,5.177-1.061,1.061,3.188,3.188,1.061-1.061Zm8.5,1.2-3.187,3.188,1.061,1.06,3.188-3.186Z" transform="translate(920.302 2335.822) rotate(90)" fill="#fff"/>
      <g transform="matrix(1, 0, 0, 1, 400.03, 2212.97)" filter="url(#Ellipse_12986)">
        <ellipse id="Ellipse_12986-2" data-name="Ellipse 12986" cx="66.807" cy="66.807" rx="66.807" ry="66.807" transform="translate(333 176)" fill="url(#linear-gradient)"/>
      </g>
      <g transform="matrix(1, 0, 0, 1, 400.03, 2212.97)" filter="url(#Ellipse_12987)">
        <circle id="Ellipse_12987-2" data-name="Ellipse 12987" cx="66.807" cy="66.807" r="66.807" transform="translate(599 176)" fill="url(#linear-gradient)"/>
      </g>
      <g id="Group_134729" data-name="Group 134729" transform="translate(758.068 2413.983)">
        <path id="Path_194367" data-name="Path 194367" d="M68.969,83.521a3.138,3.138,0,0,0-1.351-.4A12.588,12.588,0,0,1,58.342,72.4c-1.254,0-2.522,0-3.789,0a4.247,4.247,0,0,1-4.615-4.607q0-11.825,0-23.649v-.935h-4.06a1.782,1.782,0,0,0-.078.888c-.006,5.6,0,11.2-.008,16.8a5.628,5.628,0,0,1-3.91,5.664,5.456,5.456,0,0,1-7.162-5.221,2.526,2.526,0,0,0-1.979-2.794c-3.758-1.447-7.451-3.064-11.17-4.611-.242-.1-.489-.192-.8-.315,0,2.642.023,5.192-.007,7.742a5.551,5.551,0,1,1-11.1-.246c.015-2.473,0-4.947,0-7.421v-.864a12.248,12.248,0,0,1-4.479-1.65,11.122,11.122,0,0,1,5.694-20.535c2.522-.038,5.046-.013,7.57-.005a2.938,2.938,0,0,0,1.178-.236q7.182-3.009,14.379-5.985a.876.876,0,0,0,.655-1.019,7.942,7.942,0,0,1,.154-2.433,5.584,5.584,0,0,1,5.627-4.26,5.521,5.521,0,0,1,5.273,4.859,10.905,10.905,0,0,1,.075,1.3q.007,8.277.008,16.554a1.787,1.787,0,0,0,.085.905h3.968a1.546,1.546,0,0,0,.08-.868q.009-11.824,0-23.648c0-2.992,1.7-4.687,4.694-4.691,1.219,0,2.436,0,3.681,0,.16-.709.261-1.4.475-2.065A12.354,12.354,0,0,1,68.807.161c.125-.024.277.016.325-.161h3.256c.026.131.124.142.236.161,5.183.891,8.523,3.906,10.189,8.862a6.91,6.91,0,0,0,.486,1.742v3.589c-.294.226-.216.587-.292.881-1.265,4.962-4.334,8.231-9.293,9.434-4.9,1.188-9.1-.281-12.451-4.053a12.353,12.353,0,0,1-2.919-6.708H54.729c-1.6,0-2.011.417-2.012,2.037q0,11.778,0,23.555a1.392,1.392,0,0,0,.1.826h5.511c.066-.308.134-.594.189-.882a12.49,12.49,0,0,1,24.34-1,7.044,7.044,0,0,0,.441,1.682v3.589c-.306.181-.241.52-.3.785a12.49,12.49,0,0,1-24.127,1c-.236-.767-.385-1.559-.56-2.281h-5.6v.868q0,11.739,0,23.477a4.8,4.8,0,0,0,.03.813,1.254,1.254,0,0,0,1.166,1.178c1.477.058,2.957.018,4.421.018.069-.336.129-.6.179-.866a12.489,12.489,0,0,1,24.219-1.45c.214.681.378,1.377.566,2.066v3.589c-.307.15-.217.473-.275.709a12.418,12.418,0,0,1-9.048,9.486,6.23,6.23,0,0,0-1.588.408ZM34.613,56.343V27.287a.473.473,0,0,0-.408.058c-4.29,1.792-8.578,3.588-12.879,5.353a.8.8,0,0,0-.564.906q.021,8.151,0,16.3a.858.858,0,0,0,.631.947c2.456.995,4.9,2.024,7.342,3.042Zm2.822-14.576q0,9.414,0,18.826a6.768,6.768,0,0,0,.071,1.135,2.712,2.712,0,0,0,3.064,2.263C42.1,63.8,43,62.649,43,60.863q.006-19.112,0-38.223a5.383,5.383,0,0,0-.069-.891,2.7,2.7,0,0,0-2.214-2.2c-1.87-.315-3.278.986-3.281,3.066Q37.427,32.192,37.436,41.767ZM17.962,33.436c-2.492,0-4.929-.048-7.362.011a8.316,8.316,0,0,0-1.874,16.3c3.033.772,6.135.155,9.236.389Zm46.852,15.9a6.982,6.982,0,0,1,11.988.033A9.719,9.719,0,1,0,61.4,39.247C60.382,42.951,61.891,47.424,64.814,49.338Zm11.97-29.227A9.669,9.669,0,0,0,80.015,9.419a9.726,9.726,0,0,0-18.647.683c-.961,3.7.633,8.31,3.452,9.984A6.971,6.971,0,0,1,76.784,20.111ZM76.83,78.6A9.722,9.722,0,1,0,61.368,68.563c-.962,3.7.578,8.178,3.44,10A7,7,0,0,1,76.83,78.6ZM17.989,52.933h-5.54c0,2.818-.018,5.588.007,8.356a2.761,2.761,0,0,0,5.52.1C18.024,58.591,17.989,55.792,17.989,52.933ZM67.2,50.8a9.559,9.559,0,0,0,7.172,0,4.05,4.05,0,0,0-3.6-2.049A4.1,4.1,0,0,0,67.2,50.8Zm.024,29.24a9.451,9.451,0,0,0,7.154-.018,4.1,4.1,0,0,0-3.812-2.04A3.965,3.965,0,0,0,67.225,80.038Zm7.169-58.471a4.127,4.127,0,0,0-3.914-2.04,4.046,4.046,0,0,0-3.271,2.044A9.8,9.8,0,0,0,74.395,21.568Z" transform="translate(0 0)" fill="#040404"/>
        <path id="Path_194368" data-name="Path 194368" d="M0,4.187A4.171,4.171,0,0,1,4.173,0,4.223,4.223,0,0,1,8.33,4.225,4.2,4.2,0,0,1,4.177,8.364,4.161,4.161,0,0,1,0,4.187ZM4.169,5.559A1.389,1.389,0,0,0,5.544,4.152,1.414,1.414,0,0,0,4.1,2.8,1.361,1.361,0,0,0,2.788,4.179,1.339,1.339,0,0,0,4.169,5.559Z" transform="translate(66.641 34.789)" fill="#040404"/>
        <path id="Path_194369" data-name="Path 194369" d="M4.144,8.343A4.124,4.124,0,0,1,0,4.15,4.166,4.166,0,0,1,4.125,0,4.215,4.215,0,0,1,8.332,4.172,4.172,4.172,0,0,1,4.144,8.343Zm-.017-2.79A1.392,1.392,0,0,0,5.546,4.187a1.432,1.432,0,0,0-1.406-1.4A1.382,1.382,0,0,0,2.788,4.134,1.332,1.332,0,0,0,4.128,5.553Z" transform="translate(66.64 5.56)" fill="#040404"/>
        <path id="Path_194370" data-name="Path 194370" d="M0,4.188A4.136,4.136,0,0,1,4.155,0,4.179,4.179,0,0,1,8.33,4.107,4.23,4.23,0,0,1,4.195,8.355,4.176,4.176,0,0,1,0,4.188Zm5.544-.034A1.381,1.381,0,0,0,4.12,2.8,1.323,1.323,0,0,0,2.788,4.141,1.382,1.382,0,0,0,4.149,5.558,1.434,1.434,0,0,0,5.544,4.154Z" transform="translate(66.64 64.042)" fill="#040404"/>
      </g>
      <path id="Path_194783" data-name="Path 194783" d="M120.1,0l-3.186,3.188,1.06,1.06,3.188-3.186Zm2.258,1.2L121.3,2.258l3.188,3.186,1.061-1.06ZM113.73,6.374l-3.186,3.188,1.061,1.061,3.186-3.188Zm15.005,1.2-1.061,1.06,3.188,3.188,1.06-1.061Zm-21.379,5.175-3.186,3.186,1.061,1.061,3.186-3.186Zm27.753,1.2-1.061,1.061,3.188,3.188,1.06-1.061Zm-34.127,5.177L97.8,22.309l1.061,1.06,3.186-3.186Zm40.5,1.2-1.061,1.061,3.188,3.186,1.06-1.06ZM94.609,25.495l-3.186,3.188,1.061,1.06,3.186-3.186Zm53.248,1.2L146.8,27.753l3.188,3.186,1.06-1.06Zm-59.62,5.177-3.188,3.186,1.061,1.061L89.3,32.93Zm65.994,1.2-1.061,1.061,3.188,3.186,1.06-1.061ZM81.863,38.242,78.676,41.43l1.061,1.06L82.923,39.3Zm78.741,1.2L159.543,40.5l3.186,3.186,1.061-1.06ZM75.49,44.616,72.3,47.8l1.061,1.061,3.186-3.186Zm91.488,1.2-1.061,1.061L169.1,50.06,170.164,49ZM69.116,50.99l-3.188,3.186,1.061,1.061,3.186-3.186Zm104.236,1.2-1.061,1.061,3.186,3.186,1.061-1.061ZM62.742,57.363l-3.188,3.186,1.061,1.061L63.8,58.423Zm116.983,1.2-1.061,1.06,3.186,3.188,1.061-1.061ZM56.369,63.737l-3.187,3.186,1.061,1.061L57.428,64.8Zm129.729,1.2-1.06,1.06,3.186,3.188,1.061-1.061Zm-136.1,5.177L46.807,73.3l1.061,1.061,3.188-3.188Zm142.476,1.2-1.06,1.061,3.186,3.186,1.061-1.061ZM43.621,76.484,40.434,79.67l1.061,1.061,3.188-3.188Zm155.224,1.2-1.06,1.06,3.186,3.188,1.061-1.061Zm-161.6,5.175L34.06,86.044l1.061,1.061,3.188-3.188Zm167.971,1.2-1.06,1.06,3.186,3.188,1.061-1.061ZM30.874,89.232l-3.186,3.186,1.06,1.061,3.188-3.188Zm180.718,1.2-1.06,1.061,3.186,3.188,1.061-1.061ZM24.5,95.605l-3.188,3.186,1.061,1.061,3.188-3.188Zm193.466,1.2-1.06,1.06,3.186,3.188,1.061-1.061ZM18.126,101.978l-3.186,3.188,1.06,1.06,3.188-3.186Zm206.213,1.2-1.061,1.06,3.187,3.188,1.061-1.061ZM11.753,108.351l-3.186,3.188,1.06,1.061,3.188-3.188Zm218.96,1.2-1.061,1.061,3.187,3.186,1.061-1.06ZM5.379,114.725l-3.186,3.188,1.06,1.061,3.188-3.187Zm231.708,1.2-1.061,1.061,3.188,3.188,1.061-1.061ZM1.061,121.1,0,122.16l3.188,3.186,1.06-1.06Zm237.95,1.2-3.188,3.188,1.061,1.061,3.186-3.188ZM7.435,127.472l-1.061,1.061,3.188,3.186,1.061-1.06Zm225.2,1.2-3.186,3.188,1.06,1.06,3.188-3.186ZM13.808,133.846l-1.061,1.061,3.188,3.186,1.06-1.061Zm212.455,1.2-3.188,3.188,1.061,1.061,3.188-3.188ZM20.182,140.22l-1.061,1.061,3.188,3.186,1.06-1.06Zm199.708,1.2L216.7,144.6l1.061,1.06,3.188-3.186ZM26.556,146.593l-1.061,1.06,3.188,3.188,1.06-1.061Zm186.96,1.2-3.186,3.188,1.06,1.06,3.188-3.186ZM32.93,152.967l-1.061,1.061,3.186,3.186,1.061-1.061Zm174.213,1.2-3.186,3.188,1.06,1.061,3.188-3.188ZM39.3,159.341l-1.061,1.06,3.188,3.188,1.06-1.061Zm161.466,1.2-3.186,3.186,1.061,1.061,3.186-3.186ZM45.677,165.714l-1.061,1.06,3.186,3.188,1.061-1.061Zm148.718,1.2-3.186,3.188,1.061,1.06,3.186-3.186ZM52.049,172.088l-1.06,1.061,3.186,3.186,1.061-1.061Zm135.972,1.2-3.186,3.186,1.06,1.061,3.188-3.186Zm-129.6,5.177-1.061,1.06,3.186,3.188,1.061-1.061Zm123.224,1.2-3.186,3.186,1.061,1.061,3.186-3.186ZM64.8,184.835l-1.061,1.06,3.186,3.188,1.061-1.061Zm110.478,1.2-3.187,3.186,1.061,1.061,3.186-3.188ZM71.17,191.208l-1.06,1.061,3.186,3.186,1.061-1.06Zm97.73,1.2-3.186,3.186,1.061,1.061,3.186-3.186Zm-91.357,5.177-1.06,1.06,3.186,3.188,1.061-1.061Zm84.983,1.2-3.186,3.186,1.061,1.061,3.186-3.188Zm-78.609,5.175-1.06,1.061,3.186,3.188,1.061-1.061Zm72.237,1.2-3.187,3.186,1.061,1.061,3.186-3.188Zm-65.863,5.175-1.06,1.061,3.186,3.186,1.061-1.06Zm59.49,1.2-3.188,3.186,1.061,1.061,3.186-3.186ZM96.665,216.7l-1.06,1.061,3.186,3.186,1.061-1.06Zm46.742,1.2-3.188,3.186,1.061,1.06,3.186-3.186Zm-40.369,5.175-1.06,1.061,3.186,3.186,1.061-1.061Zm33.995,1.2-3.188,3.186,1.061,1.061,3.188-3.188Zm-27.621,5.175-1.061,1.061,3.188,3.186,1.061-1.06Zm21.247,1.2-3.188,3.188,1.061,1.061,3.186-3.188Zm-14.874,5.177-1.061,1.061,3.188,3.188,1.061-1.061Zm8.5,1.2-3.187,3.188,1.061,1.06,3.188-3.186Z" transform="translate(1187.301 2335.822) rotate(90)" fill="#084a93"/>
      <path id="Path_194784" data-name="Path 194784" d="M120.1,0l-3.186,3.188,1.06,1.06,3.188-3.186Zm2.258,1.2L121.3,2.258l3.188,3.186,1.061-1.06ZM113.73,6.374l-3.186,3.188,1.061,1.061,3.186-3.188Zm15.005,1.2-1.061,1.06,3.188,3.188,1.06-1.061Zm-21.379,5.175-3.186,3.186,1.061,1.061,3.186-3.186Zm27.753,1.2-1.061,1.061,3.188,3.188,1.06-1.061Zm-34.127,5.177L97.8,22.309l1.061,1.06,3.186-3.186Zm40.5,1.2-1.061,1.061,3.188,3.186,1.06-1.06ZM94.609,25.495l-3.186,3.188,1.061,1.06,3.186-3.186Zm53.248,1.2L146.8,27.753l3.188,3.186,1.06-1.06Zm-59.62,5.177-3.188,3.186,1.061,1.061L89.3,32.93Zm65.994,1.2-1.061,1.061,3.188,3.186,1.06-1.061ZM81.863,38.242,78.676,41.43l1.061,1.06L82.923,39.3Zm78.741,1.2L159.543,40.5l3.186,3.186,1.061-1.06ZM75.49,44.616,72.3,47.8l1.061,1.061,3.186-3.186Zm91.488,1.2-1.061,1.061L169.1,50.06,170.164,49ZM69.116,50.99l-3.188,3.186,1.061,1.061,3.186-3.186Zm104.236,1.2-1.061,1.061,3.186,3.186,1.061-1.061ZM62.742,57.363l-3.188,3.186,1.061,1.061L63.8,58.423Zm116.983,1.2-1.061,1.06,3.186,3.188,1.061-1.061ZM56.369,63.737l-3.187,3.186,1.061,1.061L57.428,64.8Zm129.729,1.2-1.06,1.06,3.186,3.188,1.061-1.061Zm-136.1,5.177L46.807,73.3l1.061,1.061,3.188-3.188Zm142.476,1.2-1.06,1.061,3.186,3.186,1.061-1.061ZM43.621,76.484,40.434,79.67l1.061,1.061,3.188-3.188Zm155.224,1.2-1.06,1.06,3.186,3.188,1.061-1.061Zm-161.6,5.175L34.06,86.044l1.061,1.061,3.188-3.188Zm167.971,1.2-1.06,1.06,3.186,3.188,1.061-1.061ZM30.874,89.232l-3.186,3.186,1.06,1.061,3.188-3.188Zm180.718,1.2-1.06,1.061,3.186,3.188,1.061-1.061ZM24.5,95.605l-3.188,3.186,1.061,1.061,3.188-3.188Zm193.466,1.2-1.06,1.06,3.186,3.188,1.061-1.061ZM18.126,101.978l-3.186,3.188,1.06,1.06,3.188-3.186Zm206.213,1.2-1.061,1.06,3.187,3.188,1.061-1.061ZM11.753,108.351l-3.186,3.188,1.06,1.061,3.188-3.188Zm218.96,1.2-1.061,1.061,3.187,3.186,1.061-1.06ZM5.379,114.725l-3.186,3.188,1.06,1.061,3.188-3.187Zm231.708,1.2-1.061,1.061,3.188,3.188,1.061-1.061ZM1.061,121.1,0,122.16l3.188,3.186,1.06-1.06Zm237.95,1.2-3.188,3.188,1.061,1.061,3.186-3.188ZM7.435,127.472l-1.061,1.061,3.188,3.186,1.061-1.06Zm225.2,1.2-3.186,3.188,1.06,1.06,3.188-3.186ZM13.808,133.846l-1.061,1.061,3.188,3.186,1.06-1.061Zm212.455,1.2-3.188,3.188,1.061,1.061,3.188-3.188ZM20.182,140.22l-1.061,1.061,3.188,3.186,1.06-1.06Zm199.708,1.2L216.7,144.6l1.061,1.06,3.188-3.186ZM26.556,146.593l-1.061,1.06,3.188,3.188,1.06-1.061Zm186.96,1.2-3.186,3.188,1.06,1.06,3.188-3.186ZM32.93,152.967l-1.061,1.061,3.186,3.186,1.061-1.061Zm174.213,1.2-3.186,3.188,1.06,1.061,3.188-3.188ZM39.3,159.341l-1.061,1.06,3.188,3.188,1.06-1.061Zm161.466,1.2-3.186,3.186,1.061,1.061,3.186-3.186ZM45.677,165.714l-1.061,1.06,3.186,3.188,1.061-1.061Zm148.718,1.2-3.186,3.188,1.061,1.06,3.186-3.186ZM52.049,172.088l-1.06,1.061,3.186,3.186,1.061-1.061Zm135.972,1.2-3.186,3.186,1.06,1.061,3.188-3.186Zm-129.6,5.177-1.061,1.06,3.186,3.188,1.061-1.061Zm123.224,1.2-3.186,3.186,1.061,1.061,3.186-3.186ZM64.8,184.835l-1.061,1.06,3.186,3.188,1.061-1.061Zm110.478,1.2-3.187,3.186,1.061,1.061,3.186-3.188ZM71.17,191.208l-1.06,1.061,3.186,3.186,1.061-1.06Zm97.73,1.2-3.186,3.186,1.061,1.061,3.186-3.186Zm-91.357,5.177-1.06,1.06,3.186,3.188,1.061-1.061Zm84.983,1.2-3.186,3.186,1.061,1.061,3.186-3.188Zm-78.609,5.175-1.06,1.061,3.186,3.188,1.061-1.061Zm72.237,1.2-3.187,3.186,1.061,1.061,3.186-3.188Zm-65.863,5.175-1.06,1.061,3.186,3.186,1.061-1.06Zm59.49,1.2-3.188,3.186,1.061,1.061,3.186-3.186ZM96.665,216.7l-1.06,1.061,3.186,3.186,1.061-1.06Zm46.742,1.2-3.188,3.186,1.061,1.06,3.186-3.186Zm-40.369,5.175-1.06,1.061,3.186,3.186,1.061-1.061Zm33.995,1.2-3.188,3.186,1.061,1.061,3.188-3.188Zm-27.621,5.175-1.061,1.061,3.188,3.186,1.061-1.06Zm21.247,1.2-3.188,3.188,1.061,1.061,3.186-3.188Zm-14.874,5.177-1.061,1.061,3.188,3.188,1.061-1.061Zm8.5,1.2-3.187,3.188,1.061,1.06,3.188-3.186Z" transform="translate(1053.302 2469.973) rotate(90)" fill="#084a93"/>
      <path id="Path_194785" data-name="Path 194785" d="M120.1,0l-3.186,3.188,1.06,1.06,3.188-3.186Zm2.258,1.2L121.3,2.258l3.188,3.186,1.061-1.06ZM113.73,6.374l-3.186,3.188,1.061,1.061,3.186-3.188Zm15.005,1.2-1.061,1.06,3.188,3.188,1.06-1.061Zm-21.379,5.175-3.186,3.186,1.061,1.061,3.186-3.186Zm27.753,1.2-1.061,1.061,3.188,3.188,1.06-1.061Zm-34.127,5.177L97.8,22.309l1.061,1.06,3.186-3.186Zm40.5,1.2-1.061,1.061,3.188,3.186,1.06-1.06ZM94.609,25.495l-3.186,3.188,1.061,1.06,3.186-3.186Zm53.248,1.2L146.8,27.753l3.188,3.186,1.06-1.06Zm-59.62,5.177-3.188,3.186,1.061,1.061L89.3,32.93Zm65.994,1.2-1.061,1.061,3.188,3.186,1.06-1.061ZM81.863,38.242,78.676,41.43l1.061,1.06L82.923,39.3Zm78.741,1.2L159.543,40.5l3.186,3.186,1.061-1.06ZM75.49,44.616,72.3,47.8l1.061,1.061,3.186-3.186Zm91.488,1.2-1.061,1.061L169.1,50.06,170.164,49ZM69.116,50.99l-3.188,3.186,1.061,1.061,3.186-3.186Zm104.236,1.2-1.061,1.061,3.186,3.186,1.061-1.061ZM62.742,57.363l-3.188,3.186,1.061,1.061L63.8,58.423Zm116.983,1.2-1.061,1.06,3.186,3.188,1.061-1.061ZM56.369,63.737l-3.187,3.186,1.061,1.061L57.428,64.8Zm129.729,1.2-1.06,1.06,3.186,3.188,1.061-1.061Zm-136.1,5.177L46.807,73.3l1.061,1.061,3.188-3.188Zm142.476,1.2-1.06,1.061,3.186,3.186,1.061-1.061ZM43.621,76.484,40.434,79.67l1.061,1.061,3.188-3.188Zm155.224,1.2-1.06,1.06,3.186,3.188,1.061-1.061Zm-161.6,5.175L34.06,86.044l1.061,1.061,3.188-3.188Zm167.971,1.2-1.06,1.06,3.186,3.188,1.061-1.061ZM30.874,89.232l-3.186,3.186,1.06,1.061,3.188-3.188Zm180.718,1.2-1.06,1.061,3.186,3.188,1.061-1.061ZM24.5,95.605l-3.188,3.186,1.061,1.061,3.188-3.188Zm193.466,1.2-1.06,1.06,3.186,3.188,1.061-1.061ZM18.126,101.978l-3.186,3.188,1.06,1.06,3.188-3.186Zm206.213,1.2-1.061,1.06,3.187,3.188,1.061-1.061ZM11.753,108.351l-3.186,3.188,1.06,1.061,3.188-3.188Zm218.96,1.2-1.061,1.061,3.187,3.186,1.061-1.06ZM5.379,114.725l-3.186,3.188,1.06,1.061,3.188-3.187Zm231.708,1.2-1.061,1.061,3.188,3.188,1.061-1.061ZM1.061,121.1,0,122.16l3.188,3.186,1.06-1.06Zm237.95,1.2-3.188,3.188,1.061,1.061,3.186-3.188ZM7.435,127.472l-1.061,1.061,3.188,3.186,1.061-1.06Zm225.2,1.2-3.186,3.188,1.06,1.06,3.188-3.186ZM13.808,133.846l-1.061,1.061,3.188,3.186,1.06-1.061Zm212.455,1.2-3.188,3.188,1.061,1.061,3.188-3.188ZM20.182,140.22l-1.061,1.061,3.188,3.186,1.06-1.06Zm199.708,1.2L216.7,144.6l1.061,1.06,3.188-3.186ZM26.556,146.593l-1.061,1.06,3.188,3.188,1.06-1.061Zm186.96,1.2-3.186,3.188,1.06,1.06,3.188-3.186ZM32.93,152.967l-1.061,1.061,3.186,3.186,1.061-1.061Zm174.213,1.2-3.186,3.188,1.06,1.061,3.188-3.188ZM39.3,159.341l-1.061,1.06,3.188,3.188,1.06-1.061Zm161.466,1.2-3.186,3.186,1.061,1.061,3.186-3.186ZM45.677,165.714l-1.061,1.06,3.186,3.188,1.061-1.061Zm148.718,1.2-3.186,3.188,1.061,1.06,3.186-3.186ZM52.049,172.088l-1.06,1.061,3.186,3.186,1.061-1.061Zm135.972,1.2-3.186,3.186,1.06,1.061,3.188-3.186Zm-129.6,5.177-1.061,1.06,3.186,3.188,1.061-1.061Zm123.224,1.2-3.186,3.186,1.061,1.061,3.186-3.186ZM64.8,184.835l-1.061,1.06,3.186,3.188,1.061-1.061Zm110.478,1.2-3.187,3.186,1.061,1.061,3.186-3.188ZM71.17,191.208l-1.06,1.061,3.186,3.186,1.061-1.06Zm97.73,1.2-3.186,3.186,1.061,1.061,3.186-3.186Zm-91.357,5.177-1.06,1.06,3.186,3.188,1.061-1.061Zm84.983,1.2-3.186,3.186,1.061,1.061,3.186-3.188Zm-78.609,5.175-1.06,1.061,3.186,3.188,1.061-1.061Zm72.237,1.2-3.187,3.186,1.061,1.061,3.186-3.188Zm-65.863,5.175-1.06,1.061,3.186,3.186,1.061-1.06Zm59.49,1.2-3.188,3.186,1.061,1.061,3.186-3.186ZM96.665,216.7l-1.06,1.061,3.186,3.186,1.061-1.06Zm46.742,1.2-3.188,3.186,1.061,1.06,3.186-3.186Zm-40.369,5.175-1.06,1.061,3.186,3.186,1.061-1.061Zm33.995,1.2-3.188,3.186,1.061,1.061,3.188-3.188Zm-27.621,5.175-1.061,1.061,3.188,3.186,1.061-1.06Zm21.247,1.2-3.188,3.188,1.061,1.061,3.186-3.188Zm-14.874,5.177-1.061,1.061,3.188,3.188,1.061-1.061Zm8.5,1.2-3.187,3.188,1.061,1.06,3.188-3.186Z" transform="translate(787.302 2469.973) rotate(90)" fill="#084a93"/>
      <g id="Group_134727" data-name="Group 134727" transform="translate(1024.034 2413.973)">
        <path id="Path_194352" data-name="Path 194352" d="M31.95,0h2.3c.027.043.051.119.083.125A7.191,7.191,0,0,1,40,4.367a.69.69,0,0,0,.771.414c1.891-.01,3.784,0,5.676,0,1.855,0,2.041.177,2.153,2.042,0,.042.064.082.12.149,4.009,0,8.039,0,12.069,0,3.533,0,5.559,2.033,5.559,5.569q0,14.506-.005,29.012a2.217,2.217,0,0,0,.366,1.3,18.133,18.133,0,0,1,2.229,15.964,19.355,19.355,0,0,1-1.667,3.7L70.571,66a.523.523,0,0,0,.624.215,3.007,3.007,0,0,1,3.2.927q4.1,4.05,8.267,8.033a6.394,6.394,0,0,1,1.635,2.175v1.484a21.213,21.213,0,0,1-3.05,3.478,5.654,5.654,0,0,1-3.04,2.13h-.659A12.657,12.657,0,0,1,75.8,83.3c-2.606-2.587-5.251-5.135-7.885-7.7-.5-.48-1-.954-1.573-1.506v2.77c0,.878.013,1.756-.005,2.634a5.047,5.047,0,0,1-3.389,4.687c-.236.08-.569-.075-.716.253H3.8c-.046-.059-.082-.151-.144-.172C1.015,83.347,0,81.427,0,78.693Q.043,45.605.017,12.519c0-3.531,2.025-5.549,5.57-5.551q5.635,0,11.268,0a1.6,1.6,0,0,0,.9-.1c.007-.1.019-.206.021-.311.033-1.429.389-1.779,1.821-1.78,1.974,0,3.948-.017,5.921.013a.855.855,0,0,0,.913-.582A7.4,7.4,0,0,1,30.828.364C31.2.232,31.624.268,31.95,0ZM58.592,14.772H48.614c-.1,1.971-.335,2.185-2.281,2.185H19.917c-1.811,0-2.061-.24-2.159-2.063,0-.045-.054-.088-.079-.127H7.787V76.66H58.557V70.085a2.956,2.956,0,0,0-.292.071,18.081,18.081,0,0,1-15.111-.764,2.361,2.361,0,0,0-1.1-.25c-2.605.007-5.211.014-7.817,0a1.316,1.316,0,0,1-1.442-1.262,1.369,1.369,0,0,1,1.441-1.366c.52-.022,1.042-.005,1.563-.005h3.233a15.558,15.558,0,0,1-2.84-3.457A1.917,1.917,0,0,0,34.11,61.8,1.224,1.224,0,0,1,32.8,60.587a1.291,1.291,0,0,1,1.057-1.375c.12-.033.277.025.356-.152a17.952,17.952,0,0,1-.968-6.628,2,2,0,0,0-.3-1.393.943.943,0,0,1,.117-1.29A3.341,3.341,0,0,0,34,47.811a24.6,24.6,0,0,1,1.34-3.335c-.513,0-.9.033-1.274-.007a1.343,1.343,0,0,1-1.27-1.363,1.3,1.3,0,0,1,1.366-1.249,19.082,19.082,0,0,1,2.056,0,1.536,1.536,0,0,0,1.389-.635,18.008,18.008,0,0,1,16.387-6.307,20.22,20.22,0,0,1,4.6,1.208Zm3.892,53.1c-1.1.343-1.293,1.138-1.259,2.214.079,2.471.026,4.946.024,7.419,0,1.419-.4,1.825-1.79,1.825H6.877c-1.355,0-1.763-.407-1.763-1.764q0-31.867,0-63.734c0-1.334.432-1.765,1.78-1.767,3.32,0,6.638,0,9.958-.005A1.721,1.721,0,0,0,17.716,12V9.611c-4.258,0-8.452-.027-12.646.015-1.572.016-2.418,1.038-2.418,2.711q0,33.351,0,66.7c0,1.873.9,2.764,2.774,2.766q27.772,0,55.545,0a2.417,2.417,0,0,0,2.741-2.719c.005-2.886-.047-5.774.025-8.658A2.458,2.458,0,0,0,62.484,67.876ZM45.9,14.279V7.416H39.787c-1.3,0-1.524-.163-1.945-1.406a4.911,4.911,0,0,0-9.335.028c-.395,1.192-.644,1.376-1.884,1.377-2.048,0-4.1,0-6.159,0v6.863ZM51.5,37.4A15.7,15.7,0,1,0,67.205,53.076,15.655,15.655,0,0,0,51.5,37.4ZM48.617,12.069h.914c3.345,0,6.69.005,10.034,0a1.461,1.461,0,0,1,1.619.976,3.01,3.01,0,0,1,.063.9q0,11.455.01,22.91c0,.278-.135.6.19.825.73.512,1.448,1.04,2.266,1.63v-.878q0-12.939,0-25.876c0-2.089-.853-2.94-2.95-2.942q-5.674,0-11.35,0c-.263,0-.548-.09-.795.1Zm29.211,69.5L81.76,78l-9.431-9.163L68.4,72.4C71.642,75.551,74.818,78.638,77.827,81.565ZM64.6,65.954l3.144,3.332a10.968,10.968,0,0,0,1.025-1.075l-3.158-3.367Z" transform="translate(0 0)" fill="#020202"/>
        <path id="Path_194353" data-name="Path 194353" d="M12.733,2.256c.612-.558,1.194-1.1,1.785-1.625.782-.7,1.533-.744,2.093-.141s.448,1.389-.3,2.079c-.948.873-1.895,1.748-2.869,2.592a1.366,1.366,0,0,0-.548,1.193c.044.986.026,1.976.009,2.965a3.39,3.39,0,0,1-3.612,3.6q-2.837.019-5.673,0A3.4,3.4,0,0,1,.01,9.306q-.021-2.842,0-5.684A3.359,3.359,0,0,1,3.6.017C5.41,0,7.22.054,9.027,0A3.568,3.568,0,0,1,12.733,2.256ZM10.151,8.189c-.191.164-.358.3-.519.449-1.062.955-1.547.939-2.57-.083-.795-.8-1.593-1.589-2.382-2.389-.723-.731-.8-1.506-.229-2.089s1.365-.524,2.08.213c.621.639,1.2,1.318,1.786,1.973l1.64-1.478c.55-.5.342-1.121.221-1.683-.111-.518-.619-.446-1.025-.448q-2.673,0-5.344,0c-1.014,0-1.164.16-1.166,1.217q0,2.6,0,5.189c0,1.008.2,1.216,1.187,1.219,1.535,0,3.069,0,4.6,0,1.85,0,1.935-.091,1.826-1.964C10.26,8.3,10.23,8.281,10.151,8.189Z" transform="translate(13.704 23.02)" fill="#020202"/>
        <path id="Path_194354" data-name="Path 194354" d="M12.742,2.249c.667-.6,1.286-1.181,1.926-1.734A1.3,1.3,0,0,1,16.633.5a1.34,1.34,0,0,1-.209,1.963c-1,.936-2.014,1.862-3.047,2.762a1.23,1.23,0,0,0-.469,1.062c.03,1.014.024,2.031.005,3.047a3.367,3.367,0,0,1-3.629,3.569c-1.918,0-3.836.008-5.755,0A3.355,3.355,0,0,1,.023,9.459q-.046-3.007,0-6.012A3.331,3.331,0,0,1,3.54.023C5.321.015,7.1.076,8.883.005A3.636,3.636,0,0,1,12.742,2.249ZM10.28,8.1c-.325.278-.494.415-.655.559-1.029.916-1.542.9-2.513-.065C6.3,7.777,5.477,6.965,4.668,6.144c-.708-.719-.775-1.525-.188-2.09s1.318-.5,2.022.2c.637.64,1.235,1.317,1.854,1.983.623-.563,1.135-1.02,1.639-1.483s.305-1.08.2-1.619c-.1-.523-.585-.479-1-.478-1.864,0-3.728.014-5.592-.006-.67-.006-.953.3-.953.94,0,1.9,0,3.792,0,5.686,0,.678.291,1,1,.993q2.837-.029,5.675,0c.664.005.959-.3.961-.939C10.281,8.986,10.28,8.638,10.28,8.1Z" transform="translate(13.694 40.364)" fill="#020202"/>
        <path id="Path_194355" data-name="Path 194355" d="M12.736,2.258c.663-.6,1.284-1.172,1.922-1.727A1.3,1.3,0,0,1,16.624.512a1.324,1.324,0,0,1-.2,1.961Q14.89,3.906,13.318,5.3a1.092,1.092,0,0,0-.414.92q.035,1.564,0,3.13a3.35,3.35,0,0,1-3.627,3.561c-1.918.006-3.836.012-5.753,0A3.346,3.346,0,0,1,.016,9.39q-.032-2.923,0-5.847A3.368,3.368,0,0,1,3.61.019C5.363.011,7.118.064,8.87,0A3.66,3.66,0,0,1,12.736,2.258ZM8.4,6.214c.582-.531,1.122-.988,1.621-1.487.479-.479.3-1.09.158-1.625-.127-.494-.618-.447-1.034-.446-1.809,0-3.618.021-5.428-.008-.784-.013-1.082.327-1.075,1.086.018,1.84.015,3.68,0,5.519-.005.728.305,1.036,1.044,1.025,1.837-.026,3.673-.032,5.509,0,.778.014,1.135-.295,1.079-1.064-.023-.316.1-.648-.11-.992-.183.149-.353.277-.512.417-1.083.949-1.564.937-2.573-.07-.816-.814-1.635-1.624-2.441-2.447a1.365,1.365,0,0,1-.19-2.03c.575-.591,1.314-.548,2.021.147C7.111,4.874,7.731,5.531,8.4,6.214Z" transform="translate(13.7 57.7)" fill="#020202"/>
        <path id="Path_194356" data-name="Path 194356" d="M9.935,2.642c-2.793,0-5.586.006-8.379,0C.617,2.635.023,2.17,0,1.415A1.221,1.221,0,0,1,.979.079,4.081,4.081,0,0,1,1.958,0Q9.885,0,17.812,0c.137,0,.273,0,.411,0,1.016.031,1.633.553,1.608,1.362-.024.786-.609,1.271-1.6,1.275C15.466,2.648,12.7,2.642,9.935,2.642Z" transform="translate(32.805 24.479)" fill="#020202"/>
        <path id="Path_194357" data-name="Path 194357" d="M6.8,2.641c-1.726,0-3.453,0-5.178,0C.612,2.636-.01,2.114,0,1.3S.619,0,1.656,0Q6.835,0,12.014,0c1.067,0,1.632.452,1.646,1.29.015.878-.56,1.345-1.677,1.348Q9.394,2.645,6.8,2.641Z" transform="translate(32.795 31.823)" fill="#020202"/>
        <path id="Path_194358" data-name="Path 194358" d="M3.26,1.666a1.635,1.635,0,0,1-1.6,1.627A1.646,1.646,0,0,1,1.613,0,1.633,1.633,0,0,1,3.26,1.666Z" transform="translate(31.545 4.785)" fill="#020202"/>
        <path id="Path_194359" data-name="Path 194359" d="M13.538,0A13.537,13.537,0,1,1,0,13.462,13.5,13.5,0,0,1,13.538,0Zm10.85,13.572a10.877,10.877,0,1,0-10.9,10.864A10.862,10.862,0,0,0,24.388,13.572Z" transform="translate(38.027 39.561)" fill="#020202"/>
      </g>
      <g id="Group_134728" data-name="Group 134728" transform="translate(627.363 2546.682)">
        <g id="Group_133048" data-name="Group 133048" transform="translate(16.869 36.792)">
          <path id="Path_194360" data-name="Path 194360" d="M4.415.017A5.368,5.368,0,0,1,8.854,1.749a1.116,1.116,0,0,1,.091,1.657,1.155,1.155,0,0,1-1.668-.059c-1.82-1.637-3.664-1.475-5.2.458A1.152,1.152,0,0,1,.45,4.151,1.15,1.15,0,0,1,.261,2.5,5.5,5.5,0,0,1,4.415.017Z" transform="translate(2.395 4.389)" fill="#040404"/>
          <path id="Path_194361" data-name="Path 194361" d="M0,1.381C-.012.544.435,0,1.121,0s1.118.551,1.14,1.466c.022.852-.4,1.384-1.1,1.4C.415,2.887.013,2.373,0,1.381Z" transform="translate(11.643 0.001)" fill="#040404"/>
          <path id="Path_194362" data-name="Path 194362" d="M2.258,1.48c.008.886-.379,1.376-1.094,1.386S.017,2.356,0,1.44C-.015.556.44-.014,1.151,0S2.249.542,2.258,1.48Z" transform="translate(0 0)" fill="#040404"/>
        </g>
        <path id="Path_194363" data-name="Path 194363" d="M1.842,79.329A2.323,2.323,0,0,1,1,77.433C.7,72.121.388,66.811.031,61.5A9.623,9.623,0,0,1,5.946,51.471c3.069-1.408,6.131-2.834,9.215-4.21A1.963,1.963,0,0,0,16.4,45.388a4.542,4.542,0,0,0-1.9-4.548A11.4,11.4,0,0,1,10.6,34.249c-.06-.243-.124-.484-.191-.751a3.514,3.514,0,0,1-3.681-2.624c-.518-1.862-.517-3.74,1.123-5.176.46-.4.226-.828.147-1.23A14.492,14.492,0,0,1,8.5,17.021a15.155,15.155,0,0,1,5.964-7.875,1.472,1.472,0,0,0,.722-1.19A8.657,8.657,0,0,1,26.735.544a8.39,8.39,0,0,1,5.721,7.4,1.424,1.424,0,0,0,.669,1.149,15.238,15.238,0,0,1,6.648,10.353,13.425,13.425,0,0,1-.147,5.254,1.02,1.02,0,0,0,.352,1.147,4.956,4.956,0,0,1-.056,6.69,2.363,2.363,0,0,1-1.527.809c-1.16-.051-1.25.692-1.5,1.52a13.164,13.164,0,0,1-4.963,7.078,1.309,1.309,0,0,0-.673,1.292,18.478,18.478,0,0,1,.01,2.183,1.76,1.76,0,0,0,1.185,1.82c3.08,1.384,6.146,2.8,9.216,4.21,4.267,1.96,6.251,5.391,5.936,10.088-.339,5.055-.61,10.117-.912,15.175-.019.336-.077.67-.069,1a1.682,1.682,0,0,1-.924,1.613h-.84a1.839,1.839,0,0,1-.78-1.644q.542-8.414,1.043-16.832a6.642,6.642,0,0,0-1.287-4.57c-1.006,1.208-1.919,2.377-2.908,3.477a8.622,8.622,0,0,0-2.23,6.132c.044,3.888,0,7.777.023,11.667a1.771,1.771,0,0,1-.919,1.769h-.841a2.17,2.17,0,0,1-.787-1.906q.031-5.879.005-11.759a10.777,10.777,0,0,1,2.644-7.316c1.074-1.253,2.115-2.535,3.251-3.9l-6.917-3.2c-2.187,5.016-5.947,7.833-11.333,7.831-5.412,0-9.168-2.866-11.333-7.831L5.588,54.448c1.158,1.39,2.212,2.659,3.272,3.924a10.2,10.2,0,0,1,2.585,6.655c.013,4.284,0,8.568.022,12.852a1.627,1.627,0,0,1-.885,1.451H9.74a2.139,2.139,0,0,1-.821-1.888c.025-3.946.013-7.893.01-11.84a8.623,8.623,0,0,0-.279-2.489c-.841-2.833-3.21-4.55-4.823-6.872a7.61,7.61,0,0,0-1.27,5.137c.348,5.389.652,10.782,1,16.17a1.666,1.666,0,0,1-.876,1.781ZM12.7,25.655a9.017,9.017,0,0,0,1.428-1.591,1.235,1.235,0,0,1,1.778-.279,1.263,1.263,0,0,1,.241,1.734,9.027,9.027,0,0,1-2.535,2.655,1.7,1.7,0,0,1-2.166-.147c-.49-.457-.971-.916-1.688-.6-.785.35-.756,1.095-.749,1.8,0,.14,0,.281.016.419a1.241,1.241,0,0,0,1.323,1.31,2.58,2.58,0,0,1,2.584,2.193A11.592,11.592,0,0,0,16.4,39.243a11.133,11.133,0,0,0,13.365,1.143,11.428,11.428,0,0,0,4.991-7.264,2.509,2.509,0,0,1,2.354-2.138c.634-.042,1.223-.134,1.41-.8a2.619,2.619,0,0,0-.19-2.409c-.523-.682-1.27-.461-1.935-.246a1.366,1.366,0,0,1-1.563-.2A3.762,3.762,0,0,0,31.3,26.128a5.216,5.216,0,0,1-.839-.02,25.31,25.31,0,0,1-12.616-3.493,15.048,15.048,0,0,1-3.6-3.126,1.194,1.194,0,0,1-.062-1.614,1.156,1.156,0,0,1,1.5-.357,2.659,2.659,0,0,1,.753.654,14,14,0,0,0,4.214,3.139,24.34,24.34,0,0,0,11.068,2.286c1.5-.008,2.866.035,4.022,1.186a.861.861,0,0,0,1.408-.58,11.487,11.487,0,0,0-.1-5.487A13.647,13.647,0,0,0,20.484,9.139c-6.817,1.707-11.13,7.935-10.075,14.536.108.674.212,1.263,1.084,1.382A4.26,4.26,0,0,1,12.7,25.655Zm6.23,18.174c-.037,1.44.12,2.841-.657,4.072-.787,1.247-2.175,1.655-3.375,2.277a9.428,9.428,0,0,0,17.906-.1c-3.249-.806-4.469-3.03-4-6.28C24.325,44.918,23.67,44.963,18.926,43.829ZM17.757,7.317a19.219,19.219,0,0,1,6-1.1A18.219,18.219,0,0,1,29.74,7.275,6.022,6.022,0,0,0,24.6,2.6,6.4,6.4,0,0,0,17.757,7.317Z" transform="translate(0 6.717)" fill="#040404"/>
        <path id="Path_194364" data-name="Path 194364" d="M43.137,22.795A22.857,22.857,0,0,1,24.93,45.148a22.332,22.332,0,0,1-16.391-2.8c-.85-.507-1.1-1.193-.7-1.872s1.1-.814,1.972-.3a19.969,19.969,0,0,0,11.707,2.862,19.505,19.505,0,0,0,14.746-7.752,19.7,19.7,0,0,0,1.015-23.494C32.855,5.065,26.392,1.954,18.345,2.675,11.334,3.3,6.115,6.92,2.576,12.985c-.239.41-.464.844-.98.971a1.19,1.19,0,0,1-1.291-.378,1.281,1.281,0,0,1-.082-1.557A22.061,22.061,0,0,1,2.851,8.138,22.822,22.822,0,0,1,43.137,22.795Z" transform="translate(34.5 0)" fill="#040404"/>
        <path id="Path_194365" data-name="Path 194365" d="M9.376,0a9.426,9.426,0,0,1,8.751,6.182,9.473,9.473,0,0,1-2.962,10.446,8.763,8.763,0,0,1-2.929,1.591,2.068,2.068,0,0,0-1.67,1.941,1.186,1.186,0,0,1-1.429,1.176c-.692-.09-1.065-.609-1.052-1.46a4.176,4.176,0,0,1,2.933-3.891,7.644,7.644,0,0,0,3.989-2.891A6.8,6.8,0,1,0,3.63,5.646a6.706,6.706,0,0,0-1.1,3.382,2.466,2.466,0,0,1-.032.333c-.148.853-.672,1.3-1.419,1.21C.384,10.49,0,9.971,0,9.127A9.343,9.343,0,0,1,9.376,0Z" transform="translate(45.501 10.773)" fill="#040404"/>
        <path id="Path_194366" data-name="Path 194366" d="M2.5,1.264A1.25,1.25,0,0,1,1.179,2.473,1.216,1.216,0,0,1,0,1.226,1.229,1.229,0,0,1,1.3,0,1.3,1.3,0,0,1,2.5,1.264Z" transform="translate(53.592 35.038)" fill="#040404"/>
      </g>
      <g id="Group_134726" data-name="Group 134726" transform="translate(979.034 2631.277) rotate(180)">
        <path id="Path_194337" data-name="Path 194337" d="M92.918,5.807c-.03,0-.077,0-.087-.015a1.377,1.377,0,0,0-1.753-.7c-.788.286-.892.955-.89,1.7q.02,6.927.006,13.854a6.572,6.572,0,0,1-6.872,6.995c-1.36.022-2.721,0-4.159,0a4.462,4.462,0,0,0-1.752-3.685,4.05,4.05,0,0,0-2.733-.759c-2.11.155-3.472,1.721-3.786,4.444H67.659a13.594,13.594,0,0,0,1.913-4.485,40.828,40.828,0,0,0,.245-7.583,1.285,1.285,0,0,0-1.394-1.257,1.309,1.309,0,0,0-1.289,1.354c-.027,1.69.015,3.381-.019,5.071a9.071,9.071,0,0,1-7.244,8.874,3.406,3.406,0,0,1-1.45,0c.84-.715,1.659-1.456,2.524-2.138a2.167,2.167,0,0,0,.911-1.947c-.047-.934-.011-1.872-.011-2.807,0-2.187-.091-2.3-2.263-2.606.294-1.038.547-2.079.888-3.089a1.9,1.9,0,0,0-.359-1.927c-1.305-1.7-2.561-3.436-3.858-5.141a1.887,1.887,0,0,1-.412-1.239c.021-2.264.009-4.528.009-6.792A2.694,2.694,0,0,0,55.73.86,1.268,1.268,0,0,0,54.292.017a1.221,1.221,0,0,0-1.133,1.111,7.185,7.185,0,0,0-.03.994q0,13.311,0,26.622v1a3.9,3.9,0,0,1-1.506.035,5.245,5.245,0,0,0-1.853-4.756,4.8,4.8,0,0,0-3.195-1.077c-2.809.076-4.207,1.746-4.9,5.847-.1.011-.219.032-.335.034-.3.005-.6,0-.882,0-.267-.325-.148-.67-.149-.985q-.011-13.131-.005-26.26c0-.241,0-.483,0-.724C40.294.612,39.863.012,38.961,0c-.93-.012-1.385.614-1.386,1.914,0,1.841-.079,3.687.025,5.522a4.73,4.73,0,0,1-1.167,3.535c-1.125,1.339-2.1,2.8-3.172,4.182a1.884,1.884,0,0,0-.32,1.86c.322,1.022.595,2.059.906,3.154-.408.028-.7.036-1,.07a1.271,1.271,0,0,0-1.251,1.3c-.042,1.508-.016,3.018-.014,4.527a1.579,1.579,0,0,0,.682,1.219c.919.775,1.829,1.559,2.867,2.444a6.812,6.812,0,0,1-2.9-.324A9.058,9.058,0,0,1,25.8,20.536C25.78,14.378,25.8,8.221,25.8,2.063,25.8.619,25.415.024,24.481,0c-.971-.023-1.41.623-1.41,2.078,0,5.886.029,11.772-.012,17.658A12.975,12.975,0,0,0,25.074,27.3a1.183,1.183,0,0,1,.078.293H22.435a4.181,4.181,0,0,0-4.276-4.394c-2.231.023-3.577,1.488-4.069,4.443a44.053,44.053,0,0,1-6.028-.131A6.477,6.477,0,0,1,2.731,21.1c-.026-4.769-.013-9.538,0-14.307,0-.744-.1-1.415-.888-1.7a1.375,1.375,0,0,0-1.754.7C.078,5.808.03,5.8,0,5.807V22.651c.362.366.31.879.458,1.319a9.372,9.372,0,0,0,9.234,6.39c1.449.017,2.9,0,4.392,0,.129.4.225.7-.264.975-3.985,2.258-5.062,3.547-6.5,7.713a6.479,6.479,0,0,0-2.742.08,4.962,4.962,0,0,0-2.8,7.379,1.776,1.776,0,0,1,.252,1.5A16.742,16.742,0,0,0,25.073,67.349c.194-.08.382-.177.575-.263.021-.009.051,0,.147.015a22.445,22.445,0,0,0,2.171,5.194c.323.544.665,1.078,1.025,1.6.656.949,1.394,1.185,2.114.7s.779-1.288.139-2.212a18.764,18.764,0,0,1-3.2-7.975,19.321,19.321,0,0,1,.467-7.787,7.71,7.71,0,0,0,2.548.323.673.673,0,0,1-.443.971,2.4,2.4,0,0,0-1.569,2.409c-.01.966-.018,1.931,0,2.9a1.362,1.362,0,1,0,2.715-.015c.018-.9,0-1.795,0-2.758,4.965.171,9.606,1.108,13.724,3.894,1.237.836,1.438.838,2.653.011,4.116-2.8,8.768-3.717,13.743-3.917,0,.954-.012,1.85,0,2.746a1.343,1.343,0,0,0,1.324,1.509c.845.017,1.376-.554,1.393-1.536q.023-1.4,0-2.807a2.4,2.4,0,0,0-1.8-2.514c-.54-.17-.549-.448-.492-.87.43-.022.854-.022,1.272-.071s.83-.149,1.323-.24a17.428,17.428,0,0,1,.524,7.214A18.644,18.644,0,0,1,49.874,80.144a18.215,18.215,0,0,1-13.953-3.093c-.174-.118-.337-.255-.513-.37a1.364,1.364,0,1,0-1.591,2.2,20.337,20.337,0,0,0,6.064,3.17,21.584,21.584,0,0,0,27.54-14.371c.053-.171.109-.342.184-.576a21.269,21.269,0,0,0,4.56,1.427,16.634,16.634,0,0,0,11.573-2.2c.885-.53,1.157-1.319.721-2.025s-1.231-.817-2.144-.289a13.966,13.966,0,0,1-13.276.707,1.124,1.124,0,0,1-.829-1.333,21.953,21.953,0,0,0-.584-7.272,1.816,1.816,0,0,1,.363-1.979,1.481,1.481,0,0,0,.4-.7c.176-.742.671-.919,1.343-.847.511,1.75,1.014,1.97,2.72,1.2A16.068,16.068,0,0,1,77.9,52.6c.919,1.421,1.039,1.441,2.682.87a20.715,20.715,0,0,1,5.8-.892c.67-.034,1.293-.12,1.591-.8a1.319,1.319,0,0,0-.453-1.688c-.369-.292-.187-.72-.273-1.131l1.379-.211a13.854,13.854,0,0,1-1.7,10.711c-.126.206-.268.4-.392.608a1.348,1.348,0,0,0,.306,1.982,1.331,1.331,0,0,0,1.948-.485,16.2,16.2,0,0,0,2.943-10.23,13.9,13.9,0,0,0-.246-2.064,4.712,4.712,0,0,1,.351-3.489,4.331,4.331,0,0,0-.621-4.92,4.932,4.932,0,0,0-5.163-1.8c-.283-.137-.226-.421-.292-.635a11.182,11.182,0,0,0-6.02-6.983c-.611-.3-.611-.3-.563-1.111,1.584,0,3.181.078,4.769-.015a9.117,9.117,0,0,0,8.815-7.658c.016-.07.1-.125.157-.186ZM46.823,61.947a23.864,23.864,0,0,0-6.271-2.892,40.148,40.148,0,0,0-6.762-1.273c.536-4.126.983-8.17,1.6-12.187a11.52,11.52,0,0,1,22.67.122c.415,2.771.732,5.557,1.085,8.337.158,1.244.294,2.49.445,3.78A27.66,27.66,0,0,0,46.823,61.947Zm-21.94-8.726a3,3,0,0,0,.4.7,2.493,2.493,0,0,1,.438,2.659,19.218,19.218,0,0,0-.511,6.821,1.027,1.027,0,0,1-.721,1.222c-5,2.256-9.859,2.01-14.333-1.183C5.649,60.225,3.818,55.687,4.4,50.2A3.11,3.11,0,0,1,4.75,48.74l1.329.231c-.226,1.07-.017,2.163-.805,3.09a1.244,1.244,0,0,0,.56,1.83,1.7,1.7,0,0,0,1.481-.1,16.4,16.4,0,0,1,5.692-1.2c.322,1.638,1.017,1.966,2.512,1.277A15.714,15.714,0,0,1,21.238,52.6C22.064,54.994,23.62,53.188,24.883,53.221Zm-16.2-2.79c.017-.285.017-.492.043-.7.41-3.2.767-6.4,1.248-9.588a8.407,8.407,0,0,1,16.536-.25c.316,1.685.458,3.4.711,5.1a1,1,0,0,1-.473,1.051A5.96,5.96,0,0,0,24.5,49.935c-.1.662-.593.89-1.117.473a2.864,2.864,0,0,0-2.123-.563,21.825,21.825,0,0,0-5.683,1.065,2.533,2.533,0,0,0-2.544-1.068A40.8,40.8,0,0,0,8.685,50.431ZM68.953,49.9a6.184,6.184,0,0,0-2.406-3.949,1.009,1.009,0,0,1-.452-1.131c.191-1.372.358-2.748.525-4.123a8.494,8.494,0,0,1,7.674-7.545,8.391,8.391,0,0,1,8.914,6.369,34.9,34.9,0,0,1,.549,3.751c.285,2.2.551,4.411.827,6.633-1.1.174-2.143.3-3.168.517a1.6,1.6,0,0,1-1.65-.249,1.915,1.915,0,0,0-1.463-.338,21.613,21.613,0,0,0-5.971,1.079C71.521,49.606,70.234,49.806,68.953,49.9Zm-9.891-9.343a14.7,14.7,0,0,0-6.235-5.73c-1.394-.687-1.4-.682-1.065-2.274,1.915,0,3.846,0,5.774,0a12.223,12.223,0,0,0,7.03-2,1.177,1.177,0,0,1,.561-.253c1.926-.019,3.851-.011,5.764-.011.056.845.057.847-.553,1.139a11.192,11.192,0,0,0-5.861,6.458c-.141.385-.247.783-.376,1.192A5.19,5.19,0,0,0,59.061,40.559ZM22.43,30.3c1.759,0,3.479,0,5.2-.006a.956.956,0,0,1,.593.162,13.059,13.059,0,0,0,8.169,2.1c1.771-.044,3.544-.008,5.306-.008.182,1.66.179,1.652-1.137,2.3-.459.224-.9.481-1.342.746a14.732,14.732,0,0,0-4.918,5.03,5.218,5.218,0,0,0-5.124-1.559,11.193,11.193,0,0,0-6.4-7.708C22.291,31.143,22.259,30.859,22.43,30.3Zm22.113,3.28c-.019-.233-.042-.378-.042-.523,0-1.412-.04-2.827.019-4.237a2.187,2.187,0,0,1,2.039-2.15,2.109,2.109,0,0,1,2.25,1.681,45.135,45.135,0,0,1,.085,5.234A22.635,22.635,0,0,0,44.542,33.584ZM31.52,54.061a2.446,2.446,0,0,1-1.212.148,3.4,3.4,0,0,1-2.219-5.718,3.34,3.34,0,0,1,3.562-.906c.466.129.69.313.6.88C31.975,50.307,31.765,52.162,31.52,54.061ZM61.9,54.1c-.21-1.694-.4-3.364-.627-5.029-.183-1.349.011-1.6,1.412-1.642a3.353,3.353,0,0,1,1.245.157,3.431,3.431,0,0,1,2.253,4.018C65.73,53.455,64.1,54.439,61.9,54.1ZM34.307,22.937c.363,0,.633,0,.9,0,1.574-.02,2.079-.681,1.653-2.173-.346-1.214-.708-2.424-1.052-3.639-.08-.28-.2-.559.028-.854.541-.7,1.058-1.411,1.681-2.247V28.168c-1.052-.884-2.009-1.7-2.977-2.5a.721.721,0,0,1-.24-.638C34.313,24.369,34.307,23.709,34.307,22.937Zm21.6,5.226V14.048c.531.7.935,1.291,1.393,1.833a1.265,1.265,0,0,1,.268,1.389c-.412,1.191-.736,2.412-1.073,3.628-.352,1.273.187,1.985,1.5,2.042a2.126,2.126,0,0,1,1.125.133c0,.478.018.987-.006,1.494-.018.372.137.776-.242,1.09C57.907,26.456,56.957,27.275,55.91,28.163Zm-38.99,2.25c0-1.123-.04-2.173.012-3.219a1.33,1.33,0,0,1,2.66.057c.03,1.045.007,2.09.007,3.162Zm56.776,0c0-1.1-.044-2.182.015-3.254a1.324,1.324,0,0,1,2.638-.048c.078,1.1.02,2.2.02,3.3ZM86.869,46.128c-.16-1.227-.285-2.426-.482-3.612-.113-.685.2-.844.784-.863a2.257,2.257,0,1,1-.3,4.474Zm-80.432,0a2.193,2.193,0,0,1-2.315-1,2.123,2.123,0,0,1-.033-2.392,2.159,2.159,0,0,1,2.147-1.074c.361.029.752.041.679.6C6.746,43.547,6.6,44.829,6.438,46.132Zm57.3-4.259-.376,2.835a8.159,8.159,0,0,0-2.567.285,2.257,2.257,0,0,1,2.943-3.12ZM29.935,44.7c-.111-.8-.2-1.577-.334-2.346-.085-.492.145-.646.577-.687a2.216,2.216,0,0,1,2.145.894,2.1,2.1,0,0,1,.17,2.4A8.618,8.618,0,0,0,29.935,44.7Z" transform="translate(0 0.001)" fill="#040404"/>
        <path id="Path_194338" data-name="Path 194338" d="M0,7.518q0,3.029,0,6.057a1.317,1.317,0,0,0,.925,1.394,1.287,1.287,0,0,0,1.407-.348,1.539,1.539,0,0,0,.39-1.167c0-3.948.009-7.9,0-11.844C2.72.612,2.194.02,1.386,0,.541-.019.014.586.007,1.642-.006,3.6,0,5.559,0,7.518Z" transform="translate(6.461 4.991)" fill="#040404"/>
        <path id="Path_194339" data-name="Path 194339" d="M2.731,7.488c0-1.959.009-3.918,0-5.876C2.72.6,2.22.018,1.407,0,.563-.017.013.594.01,1.639q-.019,5.877,0,11.754c0,1.236.831,1.924,1.821,1.568a1.393,1.393,0,0,0,.9-1.507C2.727,11.466,2.731,9.477,2.731,7.488Z" transform="translate(83.725 4.991)" fill="#040404"/>
        <path id="Path_194340" data-name="Path 194340" d="M2.728,6.717c0-1.717.008-3.433,0-5.149C2.717.588,2.194,0,1.369,0S.01.591.008,1.567q-.016,5.149,0,10.3c0,.977.536,1.564,1.363,1.564s1.349-.58,1.355-1.563C2.736,10.149,2.728,8.433,2.728,6.717Z" transform="translate(31.579 0)" fill="#040404"/>
        <path id="Path_194341" data-name="Path 194341" d="M0,6.805c0,1.686-.007,3.373,0,5.058.006.981.526,1.565,1.354,1.565s1.36-.582,1.364-1.562q.016-5.149,0-10.3C2.72.592,2.184,0,1.362,0S.012.588.006,1.566C0,3.312,0,5.059,0,6.805Z" transform="translate(58.609 0)" fill="#040404"/>
        <path id="Path_194342" data-name="Path 194342" d="M0,5.625c0,1.355-.009,2.71,0,4.064A1.381,1.381,0,0,0,1.3,11.228,1.385,1.385,0,0,0,2.721,9.7q.028-4.064,0-8.129C2.717.587,2.184,0,1.36,0S.016.573.006,1.561C-.006,2.915,0,4.271,0,5.625Z" transform="translate(67.12 0.001)" fill="#040404"/>
        <path id="Path_194343" data-name="Path 194343" d="M5.567,0A6.483,6.483,0,0,0,.411,2.555a1.348,1.348,0,0,0,.064,2,1.4,1.4,0,0,0,2-.248c2.016-2.163,4.253-2.162,6.3,0a1.391,1.391,0,0,0,2,.242,1.387,1.387,0,0,0,.052-2.012A6.638,6.638,0,0,0,5.567,0Z" transform="translate(41.085 43.027)" fill="#040404"/>
        <path id="Path_194344" data-name="Path 194344" d="M0,1.8C-.013,2.807.525,3.47,1.355,3.466S2.7,2.8,2.732,1.695C2.758.666,2.254.022,1.406,0,.5-.021.016.6,0,1.8Z" transform="translate(52.373 49.754)" fill="#040404"/>
        <path id="Path_194345" data-name="Path 194345" d="M2.727,1.676C2.736.6,2.27.013,1.406,0S.019.616,0,1.723C-.018,2.792.532,3.48,1.389,3.463S2.716,2.807,2.727,1.676Z" transform="translate(38.311 49.757)" fill="#040404"/>
        <path id="Path_194346" data-name="Path 194346" d="M4.6,0A5.3,5.3,0,0,0,.445,2a1.335,1.335,0,0,0,.02,2.012,1.353,1.353,0,0,0,2-.2C3.915,2.327,5.312,2.323,6.745,3.8A1.363,1.363,0,1,0,8.8,2.019,5.324,5.324,0,0,0,4.6,0Z" transform="translate(13.653 37.665)" fill="#040404"/>
        <path id="Path_194347" data-name="Path 194347" d="M0,1.672c-.016.979.476,1.576,1.315,1.6.892.024,1.419-.608,1.419-1.7A1.4,1.4,0,0,0,1.365,0C.525,0,.016.627,0,1.672Z" transform="translate(22.236 42.763)" fill="#040404"/>
        <path id="Path_194348" data-name="Path 194348" d="M0,1.677c-.006.995.472,1.575,1.312,1.593.891.02,1.426-.625,1.417-1.708A1.408,1.408,0,0,0,1.346,0C.515.005.006.638,0,1.677Z" transform="translate(11.584 42.763)" fill="#040404"/>
        <path id="Path_194349" data-name="Path 194349" d="M4.568,0A5.318,5.318,0,0,0,.418,2.028,1.339,1.339,0,0,0,.483,4.035a1.36,1.36,0,0,0,1.994-.243c1.428-1.468,2.828-1.459,4.284.027A1.362,1.362,0,1,0,8.772,2,5.327,5.327,0,0,0,4.568,0Z" transform="translate(70.426 37.664)" fill="#040404"/>
        <path id="Path_194350" data-name="Path 194350" d="M0,1.7c-.006.98.491,1.565,1.337,1.574.864.009,1.371-.585,1.395-1.634C2.754.646,2.189-.018,1.337,0,.507.018.007.652,0,1.7Z" transform="translate(68.341 42.763)" fill="#040404"/>
        <path id="Path_194351" data-name="Path 194351" d="M2.729,1.573C2.728.617,2.2,0,1.381,0,.546,0,.014.646,0,1.67c-.014,1,.546,1.628,1.419,1.6C2.274,3.245,2.732,2.653,2.729,1.573Z" transform="translate(78.985 42.763)" fill="#040404"/>
      </g>
      <rect id="Rectangle_296814" data-name="Rectangle 296814" width="213" height="51" rx="6" transform="translate(426.034 2212.973)" fill="#00defc"/>
      <rect id="Rectangle_296816" data-name="Rectangle 296816" width="213" height="51" rx="6" transform="translate(960.034 2212.973)" fill="#00defc"/>
      <rect id="Rectangle_296817" data-name="Rectangle 296817" width="301" height="51" rx="6" transform="translate(782.034 2791.973)" fill="#ffb30b"/>
      <rect id="Rectangle_296818" data-name="Rectangle 296818" width="189" height="51" rx="6" transform="translate(572.034 2791.973)" fill="#ffb30b"/>
      <rect id="Rectangle_296815" data-name="Rectangle 296815" width="229" height="51" rx="6" transform="translate(685.034 2212.973)" fill="#084a93"/>
      <path id="Path_194791" data-name="Path 194791" d="M35.578,16.344h-4.7L30.061,19H26.4L31.613,4.781h3.223L40.09,19H36.408ZM31.7,13.7h3.057L33.225,8.766Zm18.613.1a6.372,6.372,0,0,1-1.108,3.931,3.554,3.554,0,0,1-2.993,1.47,3.046,3.046,0,0,1-2.393-1.064v4.932H40.529V8.434h3.076l.1.977a3.046,3.046,0,0,1,2.49-1.172,3.582,3.582,0,0,1,3.037,1.44,6.45,6.45,0,0,1,1.084,3.96Zm-3.291-.205q0-2.812-1.641-2.812a1.549,1.549,0,0,0-1.562.84v4.16a1.6,1.6,0,0,0,1.582.879q1.572,0,1.621-2.715Zm11.133-2.178-1.084-.078a1.947,1.947,0,0,0-1.992.977V19H51.789V8.434h3.086l.107,1.357A2.548,2.548,0,0,1,57.3,8.238a3.209,3.209,0,0,1,.918.117Zm.42,2.207a6.236,6.236,0,0,1,.615-2.817,4.4,4.4,0,0,1,1.768-1.9,5.323,5.323,0,0,1,2.705-.664,4.858,4.858,0,0,1,3.74,1.47,5.64,5.64,0,0,1,1.367,4v.117A5.472,5.472,0,0,1,67.4,17.745a4.871,4.871,0,0,1-3.716,1.45,4.927,4.927,0,0,1-3.623-1.353,5.29,5.29,0,0,1-1.475-3.667Zm3.291.205a3.932,3.932,0,0,0,.459,2.148,1.529,1.529,0,0,0,1.357.684q1.758,0,1.8-2.705v-.332q0-2.842-1.816-2.842-1.65,0-1.787,2.451Zm18.164-.02A6.44,6.44,0,0,1,78.957,17.8a3.6,3.6,0,0,1-3.027,1.4,3.122,3.122,0,0,1-2.6-1.279L73.2,19H70.246V4h3.291V9.283A3.013,3.013,0,0,1,75.91,8.238a3.6,3.6,0,0,1,3.047,1.416,6.473,6.473,0,0,1,1.074,3.984Zm-3.3-.21a4.3,4.3,0,0,0-.405-2.169,1.366,1.366,0,0,0-1.245-.648,1.576,1.576,0,0,0-1.543.848v4.192a1.585,1.585,0,0,0,1.563.838,1.4,1.4,0,0,0,1.475-1.131A8.121,8.121,0,0,0,76.73,13.595ZM87.434,19a3.716,3.716,0,0,1-.312-.947A3.06,3.06,0,0,1,84.582,19.2a3.749,3.749,0,0,1-2.539-.9A2.875,2.875,0,0,1,81,16.021a2.955,2.955,0,0,1,1.27-2.6,6.468,6.468,0,0,1,3.691-.879h1.016v-.559q0-1.462-1.26-1.462a1.03,1.03,0,0,0-1.172,1.158H81.252a2.95,2.95,0,0,1,1.3-2.487,5.479,5.479,0,0,1,3.325-.956,4.8,4.8,0,0,1,3.193.986,3.429,3.429,0,0,1,1.2,2.705v4.678a4.79,4.79,0,0,0,.449,2.227V19Zm-2.061-2.148a1.836,1.836,0,0,0,1.021-.264,1.653,1.653,0,0,0,.581-.6V14.3h-.957q-1.719,0-1.719,1.543a.942.942,0,0,0,.3.728A1.1,1.1,0,0,0,85.373,16.852Zm11.191-.2a1.464,1.464,0,0,0,1.074-.376,1.379,1.379,0,0,0,.371-1.05H101.1a3.653,3.653,0,0,1-1.245,2.852A4.631,4.631,0,0,1,96.643,19.2,4.689,4.689,0,0,1,93.01,17.75a5.7,5.7,0,0,1-1.328-4v-.137a6.436,6.436,0,0,1,.591-2.827,4.3,4.3,0,0,1,1.7-1.885,5.081,5.081,0,0,1,2.637-.659,4.573,4.573,0,0,1,3.271,1.143,4.053,4.053,0,0,1,1.211,3.1H98.01a1.806,1.806,0,0,0-.4-1.26,1.382,1.382,0,0,0-1.074-.439q-1.279,0-1.494,1.631a11.508,11.508,0,0,0-.068,1.426,4.52,4.52,0,0,0,.381,2.207A1.319,1.319,0,0,0,96.564,16.656ZM105.959,19h-3.3V8.434h3.3Zm-3.5-13.291a1.469,1.469,0,0,1,.508-1.152,2.159,2.159,0,0,1,2.637,0,1.469,1.469,0,0,1,.508,1.152,1.469,1.469,0,0,1-.508,1.152,2.159,2.159,0,0,1-2.637,0A1.469,1.469,0,0,1,102.463,5.709Zm5.107,7.91a6.236,6.236,0,0,1,.615-2.817,4.4,4.4,0,0,1,1.768-1.9,5.323,5.323,0,0,1,2.705-.664,4.858,4.858,0,0,1,3.74,1.47,5.64,5.64,0,0,1,1.367,4v.117a5.472,5.472,0,0,1-1.372,3.921,4.871,4.871,0,0,1-3.716,1.45,4.927,4.927,0,0,1-3.623-1.353,5.29,5.29,0,0,1-1.475-3.667Zm3.291.205a3.932,3.932,0,0,0,.459,2.148,1.529,1.529,0,0,0,1.357.684q1.758,0,1.8-2.705v-.332q0-2.842-1.816-2.842-1.65,0-1.787,2.451ZM113.107,4h3.477l-2.715,3.066-2.686,0Zm9.131,4.434.107,1.24a3.583,3.583,0,0,1,3.018-1.436,3.015,3.015,0,0,1,2.466.986,4.7,4.7,0,0,1,.845,2.969V19h-3.3V12.33a1.783,1.783,0,0,0-.322-1.177,1.491,1.491,0,0,0-1.172-.376,1.569,1.569,0,0,0-1.436.762V19h-3.291V8.434Z" transform="translate(454.034 2223.973)" fill="#12263f"/>
      <path id="Path_194789" data-name="Path 194789" d="M45.412,13.971H43.557V19H40.129V4.781h5.6A6.246,6.246,0,0,1,49.68,5.9a3.8,3.8,0,0,1,1.426,3.17,4.616,4.616,0,0,1-.6,2.458,4.263,4.263,0,0,1-1.88,1.58l2.969,5.741V19H47.922Zm-1.855-2.637h2.168a1.946,1.946,0,0,0,1.47-.514,1.987,1.987,0,0,0,.493-1.434,2.01,2.01,0,0,0-.5-1.444,1.928,1.928,0,0,0-1.465-.524H43.557ZM58.137,19.2a5.432,5.432,0,0,1-3.936-1.45,5.008,5.008,0,0,1-1.5-3.774V13.7a6.489,6.489,0,0,1,.6-2.861,4.395,4.395,0,0,1,1.753-1.919,5.292,5.292,0,0,1,2.734-.679A4.574,4.574,0,0,1,61.3,9.62a5.43,5.43,0,0,1,1.289,3.853v1.279H56.047a2.372,2.372,0,0,0,.771,1.4,2.3,2.3,0,0,0,1.543.508A2.958,2.958,0,0,0,60.8,15.563l1.5,1.777a4.2,4.2,0,0,1-1.743,1.353A5.891,5.891,0,0,1,58.137,19.2Zm-.371-8.418q-1.445,0-1.719,1.914h3.32v-.254a1.63,1.63,0,0,0-.4-1.226A1.593,1.593,0,0,0,57.766,10.777ZM68,15.084l1.67-6.65h3.467L69.689,19H66.33L62.883,8.434h3.477ZM77.59,19h-3.3V8.434h3.3Zm-3.5-13.291A1.469,1.469,0,0,1,74.6,4.557a2.159,2.159,0,0,1,2.637,0,1.469,1.469,0,0,1,.508,1.152,1.469,1.469,0,0,1-.508,1.152,2.159,2.159,0,0,1-2.637,0A1.469,1.469,0,0,1,74.094,5.709ZM85.148,16.031a.76.76,0,0,0-.439-.674,6.685,6.685,0,0,0-1.67-.527,7.615,7.615,0,0,1-2.031-.718,3.4,3.4,0,0,1-1.221-1.079,2.577,2.577,0,0,1-.42-1.455,2.92,2.92,0,0,1,1.2-2.4,4.948,4.948,0,0,1,3.145-.942,5.482,5.482,0,0,1,3.359.947,2.962,2.962,0,0,1,1.27,2.49h-3.3q0-1.27-1.338-1.27a1.326,1.326,0,0,0-.869.288.892.892,0,0,0-.352.718.819.819,0,0,0,.43.713,4.06,4.06,0,0,0,1.372.449,11.857,11.857,0,0,1,1.655.42,3.007,3.007,0,0,1,2.383,2.939,2.767,2.767,0,0,1-1.284,2.354,5.631,5.631,0,0,1-3.325.908,5.747,5.747,0,0,1-2.422-.488,4.05,4.05,0,0,1-1.66-1.328,3.007,3.007,0,0,1-.6-1.768h3.076a1.272,1.272,0,0,0,.488,1.069,2.009,2.009,0,0,0,1.2.337,1.58,1.58,0,0,0,1.011-.273A.875.875,0,0,0,85.148,16.031ZM93.332,19h-3.3V8.434h3.3Zm-3.5-13.291a1.469,1.469,0,0,1,.508-1.152,2.159,2.159,0,0,1,2.637,0,1.469,1.469,0,0,1,.508,1.152,1.469,1.469,0,0,1-.508,1.152,2.159,2.159,0,0,1-2.637,0A1.469,1.469,0,0,1,89.836,5.709Zm5.107,7.91a6.236,6.236,0,0,1,.615-2.817,4.4,4.4,0,0,1,1.768-1.9,5.323,5.323,0,0,1,2.705-.664,4.858,4.858,0,0,1,3.74,1.47,5.64,5.64,0,0,1,1.367,4v.117a5.472,5.472,0,0,1-1.372,3.921,4.871,4.871,0,0,1-3.716,1.45,4.927,4.927,0,0,1-3.623-1.353,5.29,5.29,0,0,1-1.475-3.667Zm3.291.205a3.932,3.932,0,0,0,.459,2.148,1.529,1.529,0,0,0,1.357.684q1.758,0,1.8-2.705v-.332q0-2.842-1.816-2.842-1.65,0-1.787,2.451ZM100.48,4h3.477l-2.715,3.066-2.686,0Zm9.131,4.434.107,1.24a3.583,3.583,0,0,1,3.018-1.436,3.015,3.015,0,0,1,2.466.986,4.7,4.7,0,0,1,.845,2.969V19h-3.3V12.33a1.783,1.783,0,0,0-.322-1.177,1.491,1.491,0,0,0-1.172-.376,1.569,1.569,0,0,0-1.436.762V19h-3.291V8.434Z" transform="translate(988.034 2223.973)" fill="#12263f"/>
      <path id="Path_194793" data-name="Path 194793" d="M36.23,13.971H34.375V19H30.947V4.781h5.6A6.246,6.246,0,0,1,40.5,5.9a3.8,3.8,0,0,1,1.426,3.17,4.616,4.616,0,0,1-.6,2.458,4.263,4.263,0,0,1-1.88,1.58l2.969,5.741V19H38.74Zm-1.855-2.637h2.168a1.946,1.946,0,0,0,1.47-.514,1.987,1.987,0,0,0,.493-1.434,2.01,2.01,0,0,0-.5-1.444,1.928,1.928,0,0,0-1.465-.524H34.375Zm9.053,2.285a6.236,6.236,0,0,1,.615-2.817,4.4,4.4,0,0,1,1.768-1.9,5.323,5.323,0,0,1,2.705-.664,4.858,4.858,0,0,1,3.74,1.47,5.64,5.64,0,0,1,1.367,4v.117a5.472,5.472,0,0,1-1.372,3.921,4.871,4.871,0,0,1-3.716,1.45,4.927,4.927,0,0,1-3.623-1.353,5.29,5.29,0,0,1-1.475-3.667Zm3.291.205a3.932,3.932,0,0,0,.459,2.148,1.529,1.529,0,0,0,1.357.684q1.758,0,1.8-2.705v-.332q0-2.842-1.816-2.842-1.65,0-1.787,2.451ZM58.545,19h-3.3V4h3.3Zm7.139.2a5.432,5.432,0,0,1-3.936-1.45,5.008,5.008,0,0,1-1.5-3.774V13.7a6.489,6.489,0,0,1,.6-2.861A4.395,4.395,0,0,1,62.6,8.917a5.292,5.292,0,0,1,2.734-.679A4.574,4.574,0,0,1,68.848,9.62a5.43,5.43,0,0,1,1.289,3.853v1.279H63.594a2.372,2.372,0,0,0,.771,1.4,2.3,2.3,0,0,0,1.543.508,2.958,2.958,0,0,0,2.441-1.094l1.5,1.777a4.2,4.2,0,0,1-1.743,1.353A5.891,5.891,0,0,1,65.684,19.2Zm-.371-8.418q-1.445,0-1.719,1.914h3.32v-.254a1.63,1.63,0,0,0-.4-1.226A1.593,1.593,0,0,0,65.313,10.777Zm11.68,5.254a.76.76,0,0,0-.439-.674,6.685,6.685,0,0,0-1.67-.527,7.615,7.615,0,0,1-2.031-.718,3.4,3.4,0,0,1-1.221-1.079,2.577,2.577,0,0,1-.42-1.455,2.92,2.92,0,0,1,1.2-2.4,4.948,4.948,0,0,1,3.145-.942,5.482,5.482,0,0,1,3.359.947,2.962,2.962,0,0,1,1.27,2.49h-3.3q0-1.27-1.338-1.27a1.326,1.326,0,0,0-.869.288.892.892,0,0,0-.352.718.819.819,0,0,0,.43.713,4.06,4.06,0,0,0,1.372.449,11.857,11.857,0,0,1,1.655.42,3.007,3.007,0,0,1,2.383,2.939,2.767,2.767,0,0,1-1.284,2.354,5.631,5.631,0,0,1-3.325.908,5.747,5.747,0,0,1-2.422-.488,4.05,4.05,0,0,1-1.66-1.328,3.007,3.007,0,0,1-.6-1.768h3.076a1.272,1.272,0,0,0,.488,1.069,2.009,2.009,0,0,0,1.2.337,1.58,1.58,0,0,0,1.011-.273A.875.875,0,0,0,76.992,16.031Zm13.916-1.641,1.758-5.957h3.525L91.885,20.768l-.186.449a3.272,3.272,0,0,1-3.242,2.051,5.158,5.158,0,0,1-1.357-.195V20.729h.43a2.251,2.251,0,0,0,1.06-.2,1.216,1.216,0,0,0,.542-.718l.264-.7L85.723,8.434h3.516Zm17.51-2.979-1.084-.078a1.947,1.947,0,0,0-1.992.977V19h-3.291V8.434h3.086l.107,1.357a2.548,2.548,0,0,1,2.314-1.553,3.209,3.209,0,0,1,.918.117Zm6.113,7.783a5.432,5.432,0,0,1-3.936-1.45,5.008,5.008,0,0,1-1.5-3.774V13.7a6.489,6.489,0,0,1,.6-2.861,4.395,4.395,0,0,1,1.753-1.919,5.292,5.292,0,0,1,2.734-.679A4.574,4.574,0,0,1,117.7,9.62a5.43,5.43,0,0,1,1.289,3.853v1.279h-6.543a2.372,2.372,0,0,0,.771,1.4,2.3,2.3,0,0,0,1.543.508,2.958,2.958,0,0,0,2.441-1.094l1.5,1.777a4.2,4.2,0,0,1-1.743,1.353A5.891,5.891,0,0,1,114.531,19.2Zm-.371-8.418q-1.445,0-1.719,1.914h3.32v-.254a1.63,1.63,0,0,0-.4-1.226A1.593,1.593,0,0,0,114.16,10.777Zm11.68,5.254a.76.76,0,0,0-.439-.674,6.685,6.685,0,0,0-1.67-.527,7.615,7.615,0,0,1-2.031-.718,3.4,3.4,0,0,1-1.221-1.079,2.577,2.577,0,0,1-.42-1.455,2.92,2.92,0,0,1,1.2-2.4,4.948,4.948,0,0,1,3.145-.942,5.482,5.482,0,0,1,3.359.947,2.962,2.962,0,0,1,1.27,2.49h-3.3q0-1.27-1.338-1.27a1.326,1.326,0,0,0-.869.288.892.892,0,0,0-.352.718.819.819,0,0,0,.43.713,4.06,4.06,0,0,0,1.372.449,11.857,11.857,0,0,1,1.655.42,3.007,3.007,0,0,1,2.383,2.939,2.767,2.767,0,0,1-1.284,2.354,5.631,5.631,0,0,1-3.325.908,5.747,5.747,0,0,1-2.422-.488,4.05,4.05,0,0,1-1.66-1.328,3.007,3.007,0,0,1-.6-1.768H122.8a1.272,1.272,0,0,0,.488,1.069,2.009,2.009,0,0,0,1.2.337,1.58,1.58,0,0,0,1.011-.273A.875.875,0,0,0,125.84,16.031Zm14.521-2.236a6.372,6.372,0,0,1-1.108,3.931,3.554,3.554,0,0,1-2.993,1.47,3.046,3.046,0,0,1-2.393-1.064v4.932h-3.291V8.434h3.076l.1.977a3.046,3.046,0,0,1,2.49-1.172,3.582,3.582,0,0,1,3.037,1.44,6.45,6.45,0,0,1,1.084,3.96Zm-3.291-.205q0-2.812-1.641-2.812a1.549,1.549,0,0,0-1.562.84v4.16a1.6,1.6,0,0,0,1.582.879q1.572,0,1.621-2.715Zm4.326.029a6.236,6.236,0,0,1,.615-2.817,4.4,4.4,0,0,1,1.768-1.9,5.323,5.323,0,0,1,2.705-.664,4.858,4.858,0,0,1,3.74,1.47,5.64,5.64,0,0,1,1.367,4v.117a5.472,5.472,0,0,1-1.372,3.921A4.871,4.871,0,0,1,146.5,19.2a4.927,4.927,0,0,1-3.623-1.353,5.29,5.29,0,0,1-1.475-3.667Zm3.291.205a3.932,3.932,0,0,0,.459,2.148,1.529,1.529,0,0,0,1.357.684q1.758,0,1.8-2.705v-.332q0-2.842-1.816-2.842-1.65,0-1.787,2.451Zm11.377-5.391.107,1.24a3.583,3.583,0,0,1,3.018-1.436,3.015,3.015,0,0,1,2.466.986,4.7,4.7,0,0,1,.845,2.969V19h-3.3V12.33a1.783,1.783,0,0,0-.322-1.177,1.491,1.491,0,0,0-1.172-.376,1.569,1.569,0,0,0-1.436.762V19h-3.291V8.434Zm13.789,7.6a.76.76,0,0,0-.439-.674,6.685,6.685,0,0,0-1.67-.527,7.615,7.615,0,0,1-2.031-.718,3.4,3.4,0,0,1-1.221-1.079,2.577,2.577,0,0,1-.42-1.455,2.92,2.92,0,0,1,1.2-2.4,4.948,4.948,0,0,1,3.145-.942,5.482,5.482,0,0,1,3.359.947,2.962,2.962,0,0,1,1.27,2.49h-3.3q0-1.27-1.338-1.27a1.326,1.326,0,0,0-.869.288.892.892,0,0,0-.352.718.819.819,0,0,0,.43.713,4.06,4.06,0,0,0,1.372.449,11.857,11.857,0,0,1,1.655.42,3.007,3.007,0,0,1,2.383,2.939,2.767,2.767,0,0,1-1.284,2.354,5.632,5.632,0,0,1-3.325.908A5.747,5.747,0,0,1,166,18.707a4.05,4.05,0,0,1-1.66-1.328,3.007,3.007,0,0,1-.6-1.768h3.076a1.272,1.272,0,0,0,.488,1.069,2.009,2.009,0,0,0,1.2.337,1.58,1.58,0,0,0,1.011-.273A.875.875,0,0,0,169.854,16.031ZM180.518,19a3.716,3.716,0,0,1-.312-.947,3.06,3.06,0,0,1-2.539,1.143,3.749,3.749,0,0,1-2.539-.9,2.875,2.875,0,0,1-1.045-2.271,2.955,2.955,0,0,1,1.27-2.6,6.468,6.468,0,0,1,3.691-.879h1.016v-.559q0-1.462-1.26-1.462a1.03,1.03,0,0,0-1.172,1.158h-3.291a2.95,2.95,0,0,1,1.3-2.487,5.479,5.479,0,0,1,3.325-.956,4.8,4.8,0,0,1,3.193.986,3.429,3.429,0,0,1,1.2,2.705v4.678a4.79,4.79,0,0,0,.449,2.227V19Zm-2.061-2.148a1.836,1.836,0,0,0,1.021-.264,1.653,1.653,0,0,0,.581-.6V14.3H179.1q-1.719,0-1.719,1.543a.942.942,0,0,0,.3.728A1.1,1.1,0,0,0,178.457,16.852ZM194.99,13.8a6.44,6.44,0,0,1-1.074,3.994,3.6,3.6,0,0,1-3.027,1.4,3.122,3.122,0,0,1-2.6-1.279L188.154,19h-2.949V4H188.5V9.283a3.013,3.013,0,0,1,2.373-1.045,3.6,3.6,0,0,1,3.047,1.416,6.473,6.473,0,0,1,1.074,3.984Zm-3.3-.21a4.3,4.3,0,0,0-.405-2.169,1.366,1.366,0,0,0-1.245-.648,1.576,1.576,0,0,0-1.543.848v4.192a1.585,1.585,0,0,0,1.563.838,1.4,1.4,0,0,0,1.475-1.131A8.121,8.121,0,0,0,191.689,13.595ZM199.912,19h-3.3V8.434h3.3Zm-3.5-13.291a1.469,1.469,0,0,1,.508-1.152,2.159,2.159,0,0,1,2.637,0,1.469,1.469,0,0,1,.508,1.152,1.469,1.469,0,0,1-.508,1.152,2.159,2.159,0,0,1-2.637,0A1.469,1.469,0,0,1,196.416,5.709ZM205.41,19h-3.3V4h3.3Zm5.5,0h-3.3V8.434h3.3Zm-3.5-13.291a1.469,1.469,0,0,1,.508-1.152,2.159,2.159,0,0,1,2.637,0,1.469,1.469,0,0,1,.508,1.152,1.469,1.469,0,0,1-.508,1.152,2.159,2.159,0,0,1-2.637,0A1.469,1.469,0,0,1,207.412,5.709Zm5.107,7.93A6.455,6.455,0,0,1,213.6,9.684a3.568,3.568,0,0,1,3.027-1.445,3.035,3.035,0,0,1,2.383,1.113V4h3.3V19h-2.959l-.166-1.133a3.116,3.116,0,0,1-2.578,1.328,3.562,3.562,0,0,1-2.988-1.445A6.659,6.659,0,0,1,212.52,13.639Zm3.291.205q0,2.813,1.641,2.813a1.62,1.62,0,0,0,1.563-.918V11.715a1.576,1.576,0,0,0-1.543-.937q-1.523,0-1.65,2.461ZM230.137,19a3.716,3.716,0,0,1-.312-.947,3.06,3.06,0,0,1-2.539,1.143,3.749,3.749,0,0,1-2.539-.9,2.875,2.875,0,0,1-1.045-2.271,2.955,2.955,0,0,1,1.27-2.6,6.468,6.468,0,0,1,3.691-.879h1.016v-.559q0-1.462-1.26-1.462a1.03,1.03,0,0,0-1.172,1.158h-3.291a2.95,2.95,0,0,1,1.3-2.487,5.479,5.479,0,0,1,3.325-.956,4.8,4.8,0,0,1,3.193.986,3.429,3.429,0,0,1,1.2,2.705v4.678a4.79,4.79,0,0,0,.449,2.227V19Zm-2.061-2.148a1.836,1.836,0,0,0,1.021-.264,1.653,1.653,0,0,0,.581-.6V14.3h-.957Q227,14.3,227,15.846a.942.942,0,0,0,.3.728A1.1,1.1,0,0,0,228.076,16.852Zm6.309-3.213a6.455,6.455,0,0,1,1.084-3.955A3.568,3.568,0,0,1,238.5,8.238a3.035,3.035,0,0,1,2.383,1.113V4h3.3V19h-2.959l-.166-1.133a3.116,3.116,0,0,1-2.578,1.328,3.562,3.562,0,0,1-2.988-1.445A6.659,6.659,0,0,1,234.385,13.639Zm3.291.205q0,2.813,1.641,2.813a1.62,1.62,0,0,0,1.563-.918V11.715a1.576,1.576,0,0,0-1.543-.937q-1.523,0-1.65,2.461Z" transform="translate(794.034 2802.973)" fill="#12263f"/>
      <path id="Path_194792" data-name="Path 194792" d="M26.115,4.781h3.418v9.756a4.665,4.665,0,0,1-.63,2.422,4.3,4.3,0,0,1-1.758,1.65,5.372,5.372,0,0,1-2.515.586,5.179,5.179,0,0,1-3.613-1.172,4.259,4.259,0,0,1-1.289-3.32h3.438a2.348,2.348,0,0,0,.337,1.416,1.334,1.334,0,0,0,1.128.439,1.276,1.276,0,0,0,1.1-.532,2.5,2.5,0,0,0,.386-1.489ZM37.834,17.857A3.393,3.393,0,0,1,35.012,19.2a3.328,3.328,0,0,1-2.632-1.011,4.251,4.251,0,0,1-.894-2.905V8.434h3.291V15.3A1.183,1.183,0,0,0,36.1,16.656a1.72,1.72,0,0,0,1.611-.811V8.434h3.311V19H37.932Zm10.518-1.826a.76.76,0,0,0-.439-.674,6.685,6.685,0,0,0-1.67-.527,7.615,7.615,0,0,1-2.031-.718,3.4,3.4,0,0,1-1.221-1.079,2.577,2.577,0,0,1-.42-1.455,2.92,2.92,0,0,1,1.2-2.4,4.948,4.948,0,0,1,3.145-.942,5.482,5.482,0,0,1,3.359.947,2.962,2.962,0,0,1,1.27,2.49h-3.3q0-1.27-1.338-1.27a1.326,1.326,0,0,0-.869.288.892.892,0,0,0-.352.718.819.819,0,0,0,.43.713,4.06,4.06,0,0,0,1.372.449,11.857,11.857,0,0,1,1.655.42,3.007,3.007,0,0,1,2.383,2.939,2.767,2.767,0,0,1-1.284,2.354,5.632,5.632,0,0,1-3.325.908,5.747,5.747,0,0,1-2.422-.488,4.05,4.05,0,0,1-1.66-1.328,3.007,3.007,0,0,1-.6-1.768h3.076a1.272,1.272,0,0,0,.488,1.069,2.009,2.009,0,0,0,1.2.337,1.58,1.58,0,0,0,1.011-.273A.875.875,0,0,0,48.352,16.031ZM56.9,5.807V8.434h1.738v2.285H56.9v4.834a1.234,1.234,0,0,0,.215.83,1.152,1.152,0,0,0,.85.234,4.828,4.828,0,0,0,.82-.059v2.354a6.074,6.074,0,0,1-1.855.283,3.448,3.448,0,0,1-2.51-.8,3.282,3.282,0,0,1-.811-2.432V10.719H52.258V8.434h1.348V5.807ZM63.4,19H60.1V8.434h3.3ZM59.9,5.709a1.469,1.469,0,0,1,.508-1.152,2.159,2.159,0,0,1,2.637,0,1.469,1.469,0,0,1,.508,1.152,1.469,1.469,0,0,1-.508,1.152,2.159,2.159,0,0,1-2.637,0A1.469,1.469,0,0,1,59.9,5.709ZM66.193,19V10.719H64.66V8.434h1.533V8.082A4.034,4.034,0,0,1,67.58,4.85a5.541,5.541,0,0,1,3.6-1.055,12.787,12.787,0,0,1,3.438.566l-.449,2.6-.547-.146a8.7,8.7,0,0,0-2.246-.283q-1.885,0-1.885,1.719v.186h2.07v2.285h-2.07V19Zm9.941,0H72.824V8.434h3.311Zm6.475-2.344a1.464,1.464,0,0,0,1.074-.376,1.379,1.379,0,0,0,.371-1.05h3.086A3.653,3.653,0,0,1,85.9,18.082,4.631,4.631,0,0,1,82.688,19.2a4.689,4.689,0,0,1-3.633-1.445,5.7,5.7,0,0,1-1.328-4v-.137a6.436,6.436,0,0,1,.591-2.827,4.3,4.3,0,0,1,1.7-1.885,5.081,5.081,0,0,1,2.637-.659A4.573,4.573,0,0,1,85.93,9.381a4.053,4.053,0,0,1,1.211,3.1H84.055a1.806,1.806,0,0,0-.4-1.26,1.382,1.382,0,0,0-1.074-.439q-1.279,0-1.494,1.631a11.508,11.508,0,0,0-.068,1.426,4.52,4.52,0,0,0,.381,2.207A1.319,1.319,0,0,0,82.609,16.656ZM94.484,19a3.716,3.716,0,0,1-.312-.947A3.06,3.06,0,0,1,91.633,19.2a3.749,3.749,0,0,1-2.539-.9,2.875,2.875,0,0,1-1.045-2.271,2.955,2.955,0,0,1,1.27-2.6,6.468,6.468,0,0,1,3.691-.879h1.016v-.559q0-1.462-1.26-1.462a1.03,1.03,0,0,0-1.172,1.158H88.3a2.95,2.95,0,0,1,1.3-2.487,5.479,5.479,0,0,1,3.325-.956,4.8,4.8,0,0,1,3.193.986,3.429,3.429,0,0,1,1.2,2.705v4.678a4.79,4.79,0,0,0,.449,2.227V19Zm-2.061-2.148a1.836,1.836,0,0,0,1.021-.264,1.653,1.653,0,0,0,.581-.6V14.3h-.957q-1.719,0-1.719,1.543a.942.942,0,0,0,.3.728A1.1,1.1,0,0,0,92.424,16.852Zm11.191-.2a1.464,1.464,0,0,0,1.074-.376,1.379,1.379,0,0,0,.371-1.05h3.086a3.653,3.653,0,0,1-1.245,2.852,4.631,4.631,0,0,1-3.208,1.113,4.689,4.689,0,0,1-3.633-1.445,5.7,5.7,0,0,1-1.328-4v-.137a6.436,6.436,0,0,1,.591-2.827,4.3,4.3,0,0,1,1.7-1.885,5.081,5.081,0,0,1,2.637-.659,4.573,4.573,0,0,1,3.271,1.143,4.053,4.053,0,0,1,1.211,3.1h-3.086a1.806,1.806,0,0,0-.4-1.26,1.382,1.382,0,0,0-1.074-.439q-1.279,0-1.494,1.631a11.508,11.508,0,0,0-.068,1.426,4.52,4.52,0,0,0,.381,2.207A1.319,1.319,0,0,0,103.615,16.656ZM113.01,19h-3.3V8.434h3.3Zm-3.5-13.291a1.469,1.469,0,0,1,.508-1.152,2.159,2.159,0,0,1,2.637,0,1.469,1.469,0,0,1,.508,1.152,1.469,1.469,0,0,1-.508,1.152,2.159,2.159,0,0,1-2.637,0A1.469,1.469,0,0,1,109.514,5.709Zm5.107,7.91a6.236,6.236,0,0,1,.615-2.817A4.4,4.4,0,0,1,117,8.9a5.323,5.323,0,0,1,2.705-.664,4.858,4.858,0,0,1,3.74,1.47,5.64,5.64,0,0,1,1.367,4v.117a5.472,5.472,0,0,1-1.372,3.921,4.871,4.871,0,0,1-3.716,1.45,4.927,4.927,0,0,1-3.623-1.353,5.29,5.29,0,0,1-1.475-3.667Zm3.291.205a3.932,3.932,0,0,0,.459,2.148,1.529,1.529,0,0,0,1.357.684q1.758,0,1.8-2.705v-.332q0-2.842-1.816-2.842-1.65,0-1.787,2.451ZM120.158,4h3.477L120.92,7.066l-2.686,0Zm9.131,4.434.107,1.24a3.583,3.583,0,0,1,3.018-1.436,3.015,3.015,0,0,1,2.466.986,4.7,4.7,0,0,1,.845,2.969V19h-3.3V12.33a1.783,1.783,0,0,0-.322-1.177,1.491,1.491,0,0,0-1.172-.376,1.569,1.569,0,0,0-1.436.762V19H126.2V8.434Z" transform="translate(588.034 2802.973)" fill="#12263f"/>
      <path id="Path_194790" data-name="Path 194790" d="M59.308,16.344h-4.7L53.79,19H50.128L55.343,4.781h3.223L63.819,19H60.138ZM55.431,13.7h3.057L56.954,8.766ZM68.175,19h-3.3V4h3.3Zm6.494-2.344a1.464,1.464,0,0,0,1.074-.376,1.379,1.379,0,0,0,.371-1.05H79.2a3.653,3.653,0,0,1-1.245,2.852A4.631,4.631,0,0,1,74.747,19.2a4.689,4.689,0,0,1-3.633-1.445,5.7,5.7,0,0,1-1.328-4v-.137a6.436,6.436,0,0,1,.591-2.827,4.3,4.3,0,0,1,1.7-1.885,5.081,5.081,0,0,1,2.637-.659,4.573,4.573,0,0,1,3.271,1.143,4.053,4.053,0,0,1,1.211,3.1H76.114a1.806,1.806,0,0,0-.4-1.26,1.382,1.382,0,0,0-1.074-.439q-1.279,0-1.494,1.631a11.508,11.508,0,0,0-.068,1.426,4.52,4.52,0,0,0,.381,2.207A1.319,1.319,0,0,0,74.669,16.656ZM86.544,19a3.716,3.716,0,0,1-.312-.947A3.06,3.06,0,0,1,83.692,19.2a3.749,3.749,0,0,1-2.539-.9,2.875,2.875,0,0,1-1.045-2.271,2.955,2.955,0,0,1,1.27-2.6,6.468,6.468,0,0,1,3.691-.879h1.016v-.559q0-1.462-1.26-1.462a1.03,1.03,0,0,0-1.172,1.158H80.362a2.95,2.95,0,0,1,1.3-2.487,5.479,5.479,0,0,1,3.325-.956,4.8,4.8,0,0,1,3.193.986,3.429,3.429,0,0,1,1.2,2.705v4.678a4.79,4.79,0,0,0,.449,2.227V19Zm-2.061-2.148a1.836,1.836,0,0,0,1.021-.264,1.653,1.653,0,0,0,.581-.6V14.3h-.957q-1.719,0-1.719,1.543a.942.942,0,0,0,.3.728A1.1,1.1,0,0,0,84.483,16.852Zm9.746-8.418.107,1.24a3.583,3.583,0,0,1,3.018-1.436,3.015,3.015,0,0,1,2.466.986,4.7,4.7,0,0,1,.845,2.969V19h-3.3V12.33a1.783,1.783,0,0,0-.322-1.177,1.491,1.491,0,0,0-1.172-.376,1.569,1.569,0,0,0-1.436.762V19H91.144V8.434Zm12.725,8.223a1.464,1.464,0,0,0,1.074-.376,1.379,1.379,0,0,0,.371-1.05h3.086a3.653,3.653,0,0,1-1.245,2.852,4.631,4.631,0,0,1-3.208,1.113A4.689,4.689,0,0,1,103.4,17.75a5.7,5.7,0,0,1-1.328-4v-.137a6.436,6.436,0,0,1,.591-2.827,4.3,4.3,0,0,1,1.7-1.885A5.081,5.081,0,0,1,107,8.238a4.573,4.573,0,0,1,3.271,1.143,4.053,4.053,0,0,1,1.211,3.1H108.4a1.806,1.806,0,0,0-.4-1.26,1.382,1.382,0,0,0-1.074-.439q-1.279,0-1.494,1.631a11.508,11.508,0,0,0-.068,1.426,4.52,4.52,0,0,0,.381,2.207A1.319,1.319,0,0,0,106.954,16.656ZM117.989,19.2a5.432,5.432,0,0,1-3.936-1.45,5.008,5.008,0,0,1-1.5-3.774V13.7a6.489,6.489,0,0,1,.6-2.861A4.395,4.395,0,0,1,114.9,8.917a5.292,5.292,0,0,1,2.734-.679,4.574,4.574,0,0,1,3.516,1.382,5.43,5.43,0,0,1,1.289,3.853v1.279H115.9a2.372,2.372,0,0,0,.771,1.4,2.3,2.3,0,0,0,1.543.508,2.958,2.958,0,0,0,2.441-1.094l1.5,1.777a4.2,4.2,0,0,1-1.743,1.353A5.891,5.891,0,0,1,117.989,19.2Zm-.371-8.418q-1.445,0-1.719,1.914h3.32v-.254a1.63,1.63,0,0,0-.4-1.226A1.593,1.593,0,0,0,117.618,10.777Z" transform="translate(713.034 2223.973)" fill="#fff"/>
    </g>
  </g>
</svg>
