<svg xmlns="http://www.w3.org/2000/svg" width="84.966" height="76.711" viewBox="0 0 84.966 76.711">
  <g id="politica" transform="translate(0 0)">
    <path id="Trazado_194763" data-name="Trazado 194763" d="M397.43,16.014V28.193H412.7V16.014a7.622,7.622,0,0,0-7.61-7.635h-.038a7.623,7.623,0,0,0-7.623,7.611Zm0,0" transform="translate(-396.09 -6.938)" fill="#b9ddfc"/>
    <path id="Trazado_194764" data-name="Trazado 194764" d="M132.98,8.379h-54.9a7.622,7.622,0,0,1,7.609,7.635V71.958A10.262,10.262,0,0,0,95.949,82.208h.031c.237,0,.471-.009.705-.026a10.259,10.259,0,0,0,9.544-10.246V65.3h34.386v-.091l-.363-49.651a7.216,7.216,0,0,0-7.272-7.181ZM103.061,32.657V22.842l10.82-5.314,10.819,5.3v9.83a9.366,9.366,0,0,1-3.709,7.014l-7.11,4.849-7.11-4.849a9.37,9.37,0,0,1-3.71-7.014Zm0,0" transform="translate(-69.078 -6.938)" fill="#f6f6f6"/>
    <path id="Trazado_194765" data-name="Trazado 194765" d="M7.789,356.208v.026H53.547a10.262,10.262,0,0,0,10.261-10.249v-6.657H17.333v6.634a10.259,10.259,0,0,1-9.544,10.246Zm0,0" transform="translate(19.818 -280.965)" fill="#b9ddfc"/>
    <path id="Trazado_194766" data-name="Trazado 194766" d="M170.61,66.885V76.7a9.37,9.37,0,0,0,3.71,7.014l7.11,4.849,7.11-4.849a9.366,9.366,0,0,0,3.709-7.014v-9.83l-10.819-5.3Zm0,0" transform="translate(-136.627 -50.98)" fill="#ffb30b"/>
    <g id="Grupo_134719" data-name="Grupo 134719" transform="translate(0 0)">
      <path id="Trazado_194767" data-name="Trazado 194767" d="M8.974,0H63.9a8.614,8.614,0,0,1,8.648,8.551l.353,48.38H83.626a1.4,1.4,0,0,1,1.34,1.432v6.658a11.668,11.668,0,0,1-11.008,11.61v.079H27.691v-.089c-.344.015-.554.089-.789.089H26.87A11.642,11.642,0,0,1,15.307,65.02V22.7H1.339A1.409,1.409,0,0,1,0,21.255V9.05A9.035,9.035,0,0,1,8.974,0ZM73.364,73.959a8.919,8.919,0,0,0,8.849-8.939V59.683H38.526V65a11.911,11.911,0,0,1-4.139,8.963ZM18.059,9.076V65.019a8.889,8.889,0,0,0,8.822,8.941H26.9c.2,0,.4-.04.611-.055A8.933,8.933,0,0,0,35.774,65V58.364a1.426,1.426,0,0,1,1.376-1.432h33L69.8,8.561a5.861,5.861,0,0,0-5.9-5.809H15.461a9.233,9.233,0,0,1,2.6,6.324ZM2.751,19.952H15.307V9.074A6.366,6.366,0,0,0,9,2.752H8.962a6.278,6.278,0,0,0-6.211,6.3Zm0,0" transform="translate(0.001 0)"/>
      <path id="Trazado_194768" data-name="Trazado 194768" d="M182.973,78.226l-7.094,4.849a1.354,1.354,0,0,1-1.537,0l-7.073-4.849A10.687,10.687,0,0,1,163,70.075V60.261a1.344,1.344,0,0,1,.733-1.235l10.8-5.314a1.353,1.353,0,0,1,1.2,0l10.78,5.3a1.34,1.34,0,0,1,.733,1.235v9.83A10.691,10.691,0,0,1,182.973,78.226ZM184.5,61.1l-9.372-4.624-9.376,4.639v8.957a7.932,7.932,0,0,0,3.073,5.877l6.318,4.32,6.291-4.32a7.927,7.927,0,0,0,3.065-5.877Zm0,0" transform="translate(-130.317 -44.356)"/>
      <path id="Trazado_194769" data-name="Trazado 194769" d="M204.713,123.956a1.377,1.377,0,0,0,.974.413h0a1.38,1.38,0,0,0,.974-.407l5.474-5.475a1.377,1.377,0,1,0-1.946-1.948l-4.5,4.5-1.8-1.814a1.377,1.377,0,1,0-1.956,1.938Zm0,0" transform="translate(-162.242 -96.16)"/>
      <path id="Trazado_194770" data-name="Trazado 194770" d="M167.4,250.752H134.376a1.376,1.376,0,0,1,0-2.752H167.4a1.376,1.376,0,0,1,0,2.752Zm0,0" transform="translate(-106.685 -205.345)"/>
      <path id="Trazado_194771" data-name="Trazado 194771" d="M167.4,287.752H134.376a1.376,1.376,0,1,1,0-2.752H167.4a1.376,1.376,0,0,1,0,2.752Zm0,0" transform="translate(-106.685 -235.981)"/>
    </g>
  </g>
</svg>
