<svg xmlns="http://www.w3.org/2000/svg" xmlns:xlink="http://www.w3.org/1999/xlink" width="799.392" height="630.52" viewBox="0 0 799.392 630.52">
  <defs>
    <linearGradient id="linear-gradient" x1="9.562" y1="-0.734" x2="10.282" y2="-1.428" gradientUnits="objectBoundingBox">
      <stop offset="0" stop-color="#fff"/>
      <stop offset="0.225" stop-color="#f6f6f6"/>
      <stop offset="0.588" stop-color="#dedfe0"/>
      <stop offset="1" stop-color="#bcbec0"/>
    </linearGradient>
    <filter id="Elipse_12985" x="57.354" y="170.354" width="151.613" height="151.613" filterUnits="userSpaceOnUse">
      <feOffset dy="3" input="SourceAlpha"/>
      <feGaussianBlur stdDeviation="3" result="blur"/>
      <feFlood flood-opacity="0.502"/>
      <feComposite operator="in" in2="blur"/>
      <feComposite in="SourceGraphic"/>
    </filter>
    <filter id="Elipse_12988" x="190" y="304" width="151.613" height="151.613" filterUnits="userSpaceOnUse">
      <feOffset dy="3" input="SourceAlpha"/>
      <feGaussianBlur stdDeviation="3" result="blur-2"/>
      <feFlood flood-opacity="0.502"/>
      <feComposite operator="in" in2="blur-2"/>
      <feComposite in="SourceGraphic"/>
    </filter>
    <filter id="Elipse_12989" x="453.476" y="304" width="151.613" height="151.613" filterUnits="userSpaceOnUse">
      <feOffset dy="3" input="SourceAlpha"/>
      <feGaussianBlur stdDeviation="3" result="blur-3"/>
      <feFlood flood-opacity="0.502"/>
      <feComposite operator="in" in2="blur-3"/>
      <feComposite in="SourceGraphic"/>
    </filter>
    <filter id="Elipse_12986" x="324" y="170" width="151.613" height="151.613" filterUnits="userSpaceOnUse">
      <feOffset dy="3" input="SourceAlpha"/>
      <feGaussianBlur stdDeviation="3" result="blur-4"/>
      <feFlood flood-opacity="0.502"/>
      <feComposite operator="in" in2="blur-4"/>
      <feComposite in="SourceGraphic"/>
    </filter>
    <filter id="Elipse_12987" x="590" y="170" width="151.613" height="151.613" filterUnits="userSpaceOnUse">
      <feOffset dy="3" input="SourceAlpha"/>
      <feGaussianBlur stdDeviation="3" result="blur-5"/>
      <feFlood flood-opacity="0.502"/>
      <feComposite operator="in" in2="blur-5"/>
      <feComposite in="SourceGraphic"/>
    </filter>
  </defs>
  <g id="Grupo_134745" data-name="Grupo 134745" transform="translate(-400.034 -2212.973)">
    <rect id="Rectángulo_296809" data-name="Rectángulo 296809" width="124.798" height="6.308" transform="translate(535.747 2280.28) rotate(90)" fill="#00defc"/>
    <rect id="Rectángulo_296810" data-name="Rectángulo 296810" width="124.798" height="6.308" transform="translate(802.244 2280.28) rotate(90)" fill="#084a93"/>
    <rect id="Rectángulo_296813" data-name="Rectángulo 296813" width="124.798" height="6.308" transform="translate(1068.216 2280.28) rotate(90)" fill="#00defc"/>
    <rect id="Rectángulo_296811" data-name="Rectángulo 296811" width="156.066" height="6.308" transform="translate(669.127 2615.553) rotate(90)" fill="#ffb30b"/>
    <rect id="Rectángulo_296812" data-name="Rectángulo 296812" width="156.066" height="6.308" transform="translate(935.624 2615.553) rotate(90)" fill="#ffb30b"/>
    <g id="Grupo_134720" data-name="Grupo 134720" transform="translate(799.426 2456.973) rotate(90)">
      <g id="Grupo_133035" data-name="Grupo 133035" transform="translate(0)">
        <g id="Grupo_133034" data-name="Grupo 133034">
          <rect id="Rectángulo_294033" data-name="Rectángulo 294033" width="188.368" height="188.368" transform="translate(133.196 0) rotate(45)" fill="#ffb30b"/>
        </g>
      </g>
    </g>
    <g id="Grupo_134721" data-name="Grupo 134721" transform="translate(666.426 2322.973) rotate(90)">
      <g id="Grupo_133037" data-name="Grupo 133037">
        <rect id="Rectángulo_294034" data-name="Rectángulo 294034" width="188.368" height="188.368" transform="translate(133.196 0) rotate(45)" fill="#00defc"/>
      </g>
    </g>
    <path id="Trazado_194772" data-name="Trazado 194772" d="M120.1,0l-3.186,3.188,1.06,1.06,3.188-3.186Zm2.258,1.2L121.3,2.258l3.188,3.186,1.061-1.06ZM113.73,6.374l-3.186,3.188,1.061,1.061,3.186-3.188Zm15.005,1.2-1.061,1.06,3.188,3.188,1.06-1.061Zm-21.379,5.175-3.186,3.186,1.061,1.061,3.186-3.186Zm27.753,1.2-1.061,1.061,3.188,3.188,1.06-1.061Zm-34.127,5.177L97.8,22.309l1.061,1.06,3.186-3.186Zm40.5,1.2-1.061,1.061,3.188,3.186,1.06-1.06ZM94.609,25.495l-3.186,3.188,1.061,1.06,3.186-3.186Zm53.248,1.2L146.8,27.753l3.188,3.186,1.06-1.06Zm-59.62,5.177-3.188,3.186,1.061,1.061L89.3,32.93Zm65.994,1.2-1.061,1.061,3.188,3.186,1.06-1.061ZM81.863,38.242,78.676,41.43l1.061,1.06L82.923,39.3Zm78.741,1.2L159.543,40.5l3.186,3.186,1.061-1.06ZM75.49,44.616,72.3,47.8l1.061,1.061,3.186-3.186Zm91.488,1.2-1.061,1.061L169.1,50.06,170.164,49ZM69.116,50.99l-3.188,3.186,1.061,1.061,3.186-3.186Zm104.236,1.2-1.061,1.061,3.186,3.186,1.061-1.061ZM62.742,57.363l-3.188,3.186,1.061,1.061L63.8,58.423Zm116.983,1.2-1.061,1.06,3.186,3.188,1.061-1.061ZM56.369,63.737l-3.187,3.186,1.061,1.061L57.428,64.8Zm129.729,1.2-1.06,1.06,3.186,3.188,1.061-1.061Zm-136.1,5.177L46.807,73.3l1.061,1.061,3.188-3.188Zm142.476,1.2-1.06,1.061,3.186,3.186,1.061-1.061ZM43.621,76.484,40.434,79.67l1.061,1.061,3.188-3.188Zm155.224,1.2-1.06,1.06,3.186,3.188,1.061-1.061Zm-161.6,5.175L34.06,86.044l1.061,1.061,3.188-3.188Zm167.971,1.2-1.06,1.06,3.186,3.188,1.061-1.061ZM30.874,89.232l-3.186,3.186,1.06,1.061,3.188-3.188Zm180.718,1.2-1.06,1.061,3.186,3.188,1.061-1.061ZM24.5,95.605l-3.188,3.186,1.061,1.061,3.188-3.188Zm193.466,1.2-1.06,1.06,3.186,3.188,1.061-1.061ZM18.126,101.978l-3.186,3.188,1.06,1.06,3.188-3.186Zm206.213,1.2-1.061,1.06,3.187,3.188,1.061-1.061ZM11.753,108.351l-3.186,3.188,1.06,1.061,3.188-3.188Zm218.96,1.2-1.061,1.061,3.187,3.186,1.061-1.06ZM5.379,114.725l-3.186,3.188,1.06,1.061,3.188-3.187Zm231.708,1.2-1.061,1.061,3.188,3.188,1.061-1.061ZM1.061,121.1,0,122.16l3.188,3.186,1.06-1.06Zm237.95,1.2-3.188,3.188,1.061,1.061,3.186-3.188ZM7.435,127.472l-1.061,1.061,3.188,3.186,1.061-1.06Zm225.2,1.2-3.186,3.188,1.06,1.06,3.188-3.186ZM13.808,133.846l-1.061,1.061,3.188,3.186,1.06-1.061Zm212.455,1.2-3.188,3.188,1.061,1.061,3.188-3.188ZM20.182,140.22l-1.061,1.061,3.188,3.186,1.06-1.06Zm199.708,1.2L216.7,144.6l1.061,1.06,3.188-3.186ZM26.556,146.593l-1.061,1.06,3.188,3.188,1.06-1.061Zm186.96,1.2-3.186,3.188,1.06,1.06,3.188-3.186ZM32.93,152.967l-1.061,1.061,3.186,3.186,1.061-1.061Zm174.213,1.2-3.186,3.188,1.06,1.061,3.188-3.188ZM39.3,159.341l-1.061,1.06,3.188,3.188,1.06-1.061Zm161.466,1.2-3.186,3.186,1.061,1.061,3.186-3.186ZM45.677,165.714l-1.061,1.06,3.186,3.188,1.061-1.061Zm148.718,1.2-3.186,3.188,1.061,1.06,3.186-3.186ZM52.049,172.088l-1.06,1.061,3.186,3.186,1.061-1.061Zm135.972,1.2-3.186,3.186,1.06,1.061,3.188-3.186Zm-129.6,5.177-1.061,1.06,3.186,3.188,1.061-1.061Zm123.224,1.2-3.186,3.186,1.061,1.061,3.186-3.186ZM64.8,184.835l-1.061,1.06,3.186,3.188,1.061-1.061Zm110.478,1.2-3.187,3.186,1.061,1.061,3.186-3.188ZM71.17,191.208l-1.06,1.061,3.186,3.186,1.061-1.06Zm97.73,1.2-3.186,3.186,1.061,1.061,3.186-3.186Zm-91.357,5.177-1.06,1.06,3.186,3.188,1.061-1.061Zm84.983,1.2-3.186,3.186,1.061,1.061,3.186-3.188Zm-78.609,5.175-1.06,1.061,3.186,3.188,1.061-1.061Zm72.237,1.2-3.187,3.186,1.061,1.061,3.186-3.188Zm-65.863,5.175-1.06,1.061,3.186,3.186,1.061-1.06Zm59.49,1.2-3.188,3.186,1.061,1.061,3.186-3.186ZM96.665,216.7l-1.06,1.061,3.186,3.186,1.061-1.06Zm46.742,1.2-3.188,3.186,1.061,1.06,3.186-3.186Zm-40.369,5.175-1.06,1.061,3.186,3.186,1.061-1.061Zm33.995,1.2-3.188,3.186,1.061,1.061,3.188-3.188Zm-27.621,5.175-1.061,1.061,3.188,3.186,1.061-1.06Zm21.247,1.2-3.188,3.188,1.061,1.061,3.186-3.188Zm-14.874,5.177-1.061,1.061,3.188,3.188,1.061-1.061Zm8.5,1.2-3.187,3.188,1.061,1.06,3.188-3.186Z" transform="translate(654.169 2335.822) rotate(90)" fill="#084a93"/>
    <g id="Grupo_134722" data-name="Grupo 134722" transform="translate(1065.426 2456.973) rotate(90)">
      <g id="Grupo_133040" data-name="Grupo 133040" transform="translate(0)">
        <g id="Grupo_133039" data-name="Grupo 133039">
          <rect id="Rectángulo_294035" data-name="Rectángulo 294035" width="188.368" height="188.368" transform="translate(133.196 0) rotate(45)" fill="#ffb30b"/>
        </g>
      </g>
    </g>
    <g id="Grupo_134723" data-name="Grupo 134723" transform="translate(932.425 2323.313) rotate(90)">
      <g id="Grupo_133042" data-name="Grupo 133042" transform="translate(0)">
        <rect id="Rectángulo_294036" data-name="Rectángulo 294036" width="188.368" height="188.368" transform="translate(133.196 0) rotate(45)" fill="#084a93"/>
      </g>
    </g>
    <g id="Grupo_134724" data-name="Grupo 134724" transform="translate(1199.426 2323.313) rotate(90)">
      <rect id="Rectángulo_294037" data-name="Rectángulo 294037" width="188.368" height="188.368" transform="translate(133.196 0) rotate(45)" fill="#00defc"/>
    </g>
    <path id="Trazado_194777" data-name="Trazado 194777" d="M18.923,9.461a9.461,9.461,0,1,0-9.461,9.461A9.462,9.462,0,0,0,18.923,9.461Z" transform="translate(542.054 2273.973) rotate(90)" fill="#00defc"/>
    <path id="Trazado_194778" data-name="Trazado 194778" d="M18.923,9.463a9.461,9.461,0,1,0-9.461,9.461A9.462,9.462,0,0,0,18.923,9.463Z" transform="translate(809.078 2273.973) rotate(90)" fill="#084a93"/>
    <path id="Trazado_194780" data-name="Trazado 194780" d="M18.923,9.463a9.461,9.461,0,1,0-9.461,9.461A9.462,9.462,0,0,0,18.923,9.463Z" transform="translate(675.304 2762.945) rotate(90)" fill="#ffb30b"/>
    <path id="Trazado_194781" data-name="Trazado 194781" d="M18.923,9.463a9.461,9.461,0,1,0-9.461,9.461A9.462,9.462,0,0,0,18.923,9.463Z" transform="translate(941.625 2762.945) rotate(90)" fill="#ffb30b"/>
    <path id="Trazado_194779" data-name="Trazado 194779" d="M18.923,9.461a9.461,9.461,0,1,0-9.461,9.461A9.462,9.462,0,0,0,18.923,9.461Z" transform="translate(1073.735 2273.973) rotate(90)" fill="#00defc"/>
    <g transform="matrix(1, 0, 0, 1, 400.03, 2212.97)" filter="url(#Elipse_12985)">
      <ellipse id="Elipse_12985-2" data-name="Elipse 12985" cx="66.807" cy="66.807" rx="66.807" ry="66.807" transform="translate(66.35 176.35)" fill="url(#linear-gradient)"/>
    </g>
    <g transform="matrix(1, 0, 0, 1, 400.03, 2212.97)" filter="url(#Elipse_12988)">
      <ellipse id="Elipse_12988-2" data-name="Elipse 12988" cx="66.807" cy="66.807" rx="66.807" ry="66.807" transform="translate(199 310)" fill="url(#linear-gradient)"/>
    </g>
    <g transform="matrix(1, 0, 0, 1, 400.03, 2212.97)" filter="url(#Elipse_12989)">
      <ellipse id="Elipse_12989-2" data-name="Elipse 12989" cx="66.807" cy="66.807" rx="66.807" ry="66.807" transform="translate(462.48 310)" fill="url(#linear-gradient)"/>
    </g>
    <g id="Grupo_134725" data-name="Grupo 134725" transform="translate(485.972 2412.328)">
      <path id="Trazado_194313" data-name="Trazado 194313" d="M94.028,39.233a4.349,4.349,0,0,1-2.373,2.125c-.351.094-.289.432-.3.695a10.039,10.039,0,0,1-2.641,6.114,6.55,6.55,0,0,0-1.241,7.124A9.884,9.884,0,0,1,81.362,68.54a6.692,6.692,0,0,0-4.776,5.843,9.7,9.7,0,0,1-11.564,8.166A6.987,6.987,0,0,0,57.689,85.2a9.551,9.551,0,0,1-3.984,3,1.369,1.369,0,0,1-1.983-.69,1.352,1.352,0,0,1,.892-1.829,8.393,8.393,0,0,0,3.143-2.456,9.463,9.463,0,0,1,9.6-3.4,6.971,6.971,0,0,0,8.5-5.894A9.689,9.689,0,0,1,80.6,65.865a6.972,6.972,0,0,0,4.343-9.405,9.611,9.611,0,0,1,1.825-10.278,7.133,7.133,0,0,0,1.761-3.692c-1.879.683-3.663,1.341-5.454,1.977-.549.194-.374.643-.382,1a32.943,32.943,0,0,1-3.005,13.344C73.7,71.565,63.7,78.888,49.662,80.06c-11.747.981-21.6-3.329-29.533-12.051l-.346-.382a.814.814,0,0,0-.22,0c-1.834.67-3.666,1.344-5.584,2.048a5.534,5.534,0,0,0,3.211,1.606,10.3,10.3,0,0,1,6.287,3.092,10.609,10.609,0,0,1,2.207,3.772,6.889,6.889,0,0,0,9.292,4.346,9.633,9.633,0,0,1,10.342,1.824,9.436,9.436,0,0,0,1.659,1.139,1.381,1.381,0,0,1,.743,1.906,1.423,1.423,0,0,1-2.044.517,10.628,10.628,0,0,1-2.26-1.556,6.82,6.82,0,0,0-7.266-1.307c-5.708,2.126-11.04-.348-13.135-6.1a6.822,6.822,0,0,0-5.649-4.758,9.749,9.749,0,0,1-5.911-3.039.732.732,0,0,0-.873-.224c-2.082.574-3.465-.118-4.2-2.126Q3.308,60.372.269,51.967a3.08,3.08,0,0,1,1.856-4.256.793.793,0,0,0,.557-.814,9.756,9.756,0,0,1,2.57-6.044,6.84,6.84,0,0,0,1.294-7.29c-2.09-5.688.368-11.072,6.029-13.105a6.993,6.993,0,0,0,4.876-5.98A9.7,9.7,0,0,1,28.9,6.365a7.16,7.16,0,0,0,7.493-2.673A9.629,9.629,0,0,1,50.419,2.474a7.146,7.146,0,0,0,7.754,1.357A9.606,9.606,0,0,1,70.882,9.724a7.125,7.125,0,0,0,5.989,5.117A9.423,9.423,0,0,1,82.6,17.849a.733.733,0,0,0,.887.187,3.08,3.08,0,0,1,4.144,2.09q1.1,2.964,2.169,5.94c.36,1,.089,1.8-.679,2.088-.841.315-1.518-.1-1.916-1.185-.674-1.836-1.376-3.663-1.99-5.518-.272-.824-.633-.909-1.4-.626q-21.956,8.04-43.929,16.036-17.97,6.553-35.94,13.107c-1.471.537-1.334.342-.817,1.766,1.9,5.228,3.819,10.445,5.67,15.69.327.929.716.965,1.53.668q33.093-12.1,66.2-24.169c4.615-1.683,9.221-3.391,13.852-5.028.868-.307.982-.651.643-1.45-.524-1.236-.944-2.516-1.388-3.785a1.4,1.4,0,0,1,.75-1.969c.808-.276,1.471.089,1.836,1.045.614,1.611,1.213,3.229,1.818,4.843Zm-22.54-16.84c-.286-.318-.517-.6-.768-.853A31.6,31.6,0,0,0,64.6,16.583a32.657,32.657,0,0,0-24.9-4.289c-1.112.244-1.874-.1-2.057-.942-.191-.883.307-1.505,1.422-1.747A35.286,35.286,0,0,1,67.748,15.36a34.5,34.5,0,0,1,6.54,6.013l5.769-2.11a6.281,6.281,0,0,0-3.565-1.691,9.738,9.738,0,0,1-8.2-6.939A6.861,6.861,0,0,0,59.238,6.38,9.88,9.88,0,0,1,48.574,4.53a6.86,6.86,0,0,0-10.084.947A9.7,9.7,0,0,1,28.542,9.1a6.928,6.928,0,0,0-8.377,5.947,9.655,9.655,0,0,1-6.6,7.985c-4.254,1.539-6.014,5.3-4.429,9.557a9.983,9.983,0,0,1,.406,5.869,9.79,9.79,0,0,1-2.3,4.328,6.349,6.349,0,0,0-1.712,3.667l5.729-2.1c.1-1.322.122-2.583.287-3.825,1.743-13.114,8.572-22.588,20.379-28.475.979-.488,1.747-.287,2.133.486.4.805.05,1.522-.985,2.03C22.94,19.536,16.8,27.592,14.578,38.648a17.1,17.1,0,0,0-.42,4.653Zm-48.9,44.139a32.758,32.758,0,0,0,37.672,8.151A33.013,33.013,0,0,0,79.925,45.623Z" transform="translate(0 0)" fill="#040404"/>
      <path id="Trazado_194314" data-name="Trazado 194314" d="M5.126,8.857c.261.759.465,1.291.626,1.836a1.338,1.338,0,0,1-.806,1.716,1.271,1.271,0,0,1-1.735-.737Q1.6,7.388.089,3.071A1.266,1.266,0,0,1,.954,1.386C2.085.933,3.229.507,4.39.14A2.908,2.908,0,0,1,7.92,1.7c1.091,2.228.939,3.312-.755,5.061.792.4,1.566.794,2.338,1.19,1.045.536,1.383,1.229.993,2.021-.406.821-1.143.979-2.2.461C7.317,9.953,6.337,9.46,5.126,8.857Zm.268-6.084A9.438,9.438,0,0,0,3.2,3.558a5.017,5.017,0,0,0,.568,1.43l2.135-.8Z" transform="translate(37.12 40.099)" fill="#040404"/>
      <path id="Trazado_194315" data-name="Trazado 194315" d="M10.182,8.286a2.948,2.948,0,0,1-1.9,2.9c-1.075.429-2.164.821-3.258,1.194a1.341,1.341,0,0,1-1.9-.886Q1.59,7.387.117,3.251a1.365,1.365,0,0,1,.915-1.9C2.139.92,3.252.5,4.383.146A2.769,2.769,0,0,1,7.845,1.614c.838,2.026,1.531,4.112,2.273,6.178A1.757,1.757,0,0,1,10.182,8.286ZM3.145,3.515,5.291,9.4a18.743,18.743,0,0,0,2.167-.934c-.7-1.922-1.391-3.808-2.1-5.747Z" transform="translate(73.751 26.749)" fill="#040404"/>
      <path id="Trazado_194316" data-name="Trazado 194316" d="M3.146,3.935,3.677,5.4c.86-.3,1.7-.614,2.549-.9A1.381,1.381,0,1,1,7.2,7.075c-.816.331-1.65.615-2.564.953l.62,1.741c1.088-.4,2.131-.781,3.177-1.154,1.005-.358,1.782-.1,2.085.67.324.827-.087,1.539-1.154,1.94-1.4.524-2.8,1.038-4.2,1.534-1.1.388-1.709.087-2.124-1.04Q1.6,7.811.187,3.895C-.237,2.717.039,2.14,1.219,1.7Q3.313.909,5.418.147C6.408-.207,7.2.093,7.464.894c.275.827-.108,1.469-1.139,1.862S4.275,3.517,3.146,3.935Z" transform="translate(64.898 29.565)" fill="#040404"/>
      <path id="Trazado_194317" data-name="Trazado 194317" d="M4.594,0A3.11,3.11,0,0,1,7.5,1.961c.7,1.757,1.371,3.531,1.951,5.33a3.152,3.152,0,0,1-1.863,3.92,14.28,14.28,0,0,1-1.546.561A3.164,3.164,0,0,1,2.014,9.836Q1.053,7.361.2,4.844A3.165,3.165,0,0,1,2.186.7,7.511,7.511,0,0,1,4.594,0ZM4.5,2.781c-.392.142-.818.3-1.249.454a.556.556,0,0,0-.393.841C3.43,5.62,3.98,7.173,4.541,8.721a.544.544,0,0,0,.858.352,6.168,6.168,0,0,1,.862-.3c.525-.159.645-.485.461-.983Q5.9,5.556,5.09,3.317C4.992,3.046,4.872,2.81,4.5,2.781Z" transform="translate(47.251 36.652)" fill="#040404"/>
      <path id="Trazado_194318" data-name="Trazado 194318" d="M4.953,8.476c.272.772.533,1.455.752,2.152a1.37,1.37,0,1,1-2.6.843C2.24,9.154,1.4,6.829.558,4.505-.379,1.925-.335,1.834,2.254.9,2.971.638,3.679.352,4.407.131A2.851,2.851,0,0,1,7.866,1.647a16.415,16.415,0,0,1,.918,2.487A2.915,2.915,0,0,1,7.073,7.677C6.406,7.968,5.71,8.193,4.953,8.476ZM4,5.858l2.151-.788a11.406,11.406,0,0,0-.834-2.326,10.272,10.272,0,0,0-2.144.839Z" transform="translate(27.935 43.464)" fill="#040404"/>
      <path id="Trazado_194319" data-name="Trazado 194319" d="M4.94,8.475c.275.747.524,1.372.733,2.009a1.391,1.391,0,1,1-2.6.926Q1.582,7.367.134,3.311a1.393,1.393,0,0,1,.9-1.988C2.121.909,3.21.51,4.312.153a2.9,2.9,0,0,1,3.6,1.568,18.8,18.8,0,0,1,.88,2.409A2.945,2.945,0,0,1,7.058,7.678C6.392,7.969,5.7,8.192,4.94,8.475Zm.415-5.761a13.2,13.2,0,0,0-2.2.854L4,5.835a10.8,10.8,0,0,0,2.179-.863Z" transform="translate(18.861 46.781)" fill="#040404"/>
      <path id="Trazado_194320" data-name="Trazado 194320" d="M1.412,0A1.548,1.548,0,0,1,2.541.64c1.788,2.366,3.589,4.723,5.366,7.1a1.371,1.371,0,0,1-.1,1.976A1.266,1.266,0,0,1,5.92,9.624a.594.594,0,0,0-.793-.141,12,12,0,0,1-1.376.493.7.7,0,0,0-.566.69A1.3,1.3,0,0,1,1.751,11.91C1,11.9.51,11.324.46,10.42Q.22,6.063,0,1.706A1.458,1.458,0,0,1,1.412,0ZM3.05,7.2c.324-.024.569-.021.74-.3-.214-.286-.348-.651-.74-.847Z" transform="translate(12.18 50.498)" fill="#040404"/>
      <path id="Trazado_194321" data-name="Trazado 194321" d="M5.288,5.843c-.066-1.373-.149-2.745-.2-4.118C5.056.662,5.571.02,6.423,0,7.259-.02,7.8.614,7.846,1.674c.131,2.812.254,5.625.4,8.437.041.773-.1,1.43-.9,1.713s-1.321-.133-1.783-.751C3.888,8.821,2.179,6.588.487,4.342c-.666-.886-.644-1.635.036-2.179S2.01,1.8,2.7,2.7Q3.917,4.295,5.126,5.9Z" transform="translate(55.511 32.854)" fill="#040404"/>
      <path id="Trazado_194322" data-name="Trazado 194322" d="M2.193,0,2.7,1.418l-2.135.8A5.017,5.017,0,0,1,0,.784,9.437,9.437,0,0,1,2.193,0Z" transform="translate(40.322 42.873)" fill="#fdfdfd"/>
      <path id="Trazado_194323" data-name="Trazado 194323" d="M0,.8,2.215,0c.708,1.938,1.4,3.825,2.1,5.747a18.746,18.746,0,0,1-2.167.934Z" transform="translate(76.896 29.465)" fill="#fdfdfd"/>
      <path id="Trazado_194324" data-name="Trazado 194324" d="M1.712,0c.376.029.495.265.593.536q.81,2.238,1.631,4.472c.184.5.064.824-.461.983a6.168,6.168,0,0,0-.862.3.544.544,0,0,1-.858-.352C1.2,4.392.645,2.839.07,1.295A.556.556,0,0,1,.463.454C.894.3,1.32.142,1.712,0Z" transform="translate(50.036 39.433)" fill="#fdfdfd"/>
      <path id="Trazado_194325" data-name="Trazado 194325" d="M.827,3.114,0,.839A10.272,10.272,0,0,1,2.144,0a11.406,11.406,0,0,1,.834,2.326Z" transform="translate(31.104 46.208)" fill="#fdfdfd"/>
      <path id="Trazado_194326" data-name="Trazado 194326" d="M2.2,0l.821,2.259a10.8,10.8,0,0,1-2.179.863L0,.854A13.2,13.2,0,0,1,2.2,0Z" transform="translate(22.016 49.494)" fill="#fdfdfd"/>
      <path id="Trazado_194327" data-name="Trazado 194327" d="M0,1.144V0C.392.2.526.561.74.847.569,1.123.324,1.12,0,1.144Z" transform="translate(15.23 56.556)" fill="#fdfdfd"/>
      <path id="Trazado_194328" data-name="Trazado 194328" d="M48.771,6.924c0,.559-.558.916-1.269,1.173-3.612,1.309-7.217,2.635-10.827,3.951Q19.534,18.3,2.392,24.544c-.683.25-1.342.5-1.963-.089-.647-.617-.435-1.324-.19-2.043C4.46,10.074,12.977,2.637,25.783.438,33.687-.92,41.068.93,47.816,5.276A1.713,1.713,0,0,1,48.771,6.924ZM3.739,20.957c.319.176.569-.062.833-.158q12.472-4.531,24.94-9.075c4.867-1.774,9.73-3.559,14.669-5.366-.246-.148-.421-.266-.607-.362a26.83,26.83,0,0,0-10.309-3.02c-10.579-.813-19.207,2.973-25.8,11.307a20.98,20.98,0,0,0-3.706,6.69l-.112.095c.028.007.062.025.083.017C3.814,21.052,3.814,21,3.739,20.957Z" transform="translate(17.175 14.4)" fill="#040404"/>
      <path id="Trazado_194329" data-name="Trazado 194329" d="M18.432,24.779A32.059,32.059,0,0,1,.952,19.538C.38,19.165-.075,18.758.01,18s.628-1.049,1.265-1.281q17.66-6.428,35.315-12.87,4.9-1.786,9.791-3.583c.681-.251,1.349-.49,1.966.1s.446,1.257.21,1.956c-4.2,12.388-12.755,19.715-25.562,22.1a16.241,16.241,0,0,1-1.821.211C20.2,24.7,19.219,24.739,18.432,24.779ZM4.606,18.447C20.493,27.172,39.67,18.758,45,3.724Z" transform="translate(28.079 49.727)" fill="#040404"/>
      <path id="Trazado_194330" data-name="Trazado 194330" d="M.088,0C.163.047.163.095.083.128.062.137.028.118,0,.112L.112.017Z" transform="translate(20.826 35.356)" fill="#fdfdfd"/>
      <path id="Trazado_194331" data-name="Trazado 194331" d="M2.444,3.777c.357-.9.693-1.785,1.054-2.656C3.9.158,4.553-.194,5.345.1c.831.313,1.09,1.039.7,2.054C5.555,3.44,5.055,4.72,4.534,5.991c-.446,1.087-1.11,1.333-2.194.845q-.668-.3-1.321-.632C.105,5.743-.209,5.047.137,4.282a1.4,1.4,0,0,1,1.935-.636Z" transform="translate(36.042 19.777)" fill="#040404"/>
      <path id="Trazado_194332" data-name="Trazado 194332" d="M5.4,1.423a1.371,1.371,0,0,1-.841,1.188c-.933.367-1.867.741-2.824,1.031A1.244,1.244,0,0,1,.121,2.82,1.219,1.219,0,0,1,.758,1.127,22.076,22.076,0,0,1,3.66.056,1.36,1.36,0,0,1,5.4,1.423Z" transform="translate(27.799 26.129)" fill="#040404"/>
      <path id="Trazado_194333" data-name="Trazado 194333" d="M5.4,1.46a1.314,1.314,0,0,1-.818,1.151c-.932.366-1.862.75-2.82,1.038a1.282,1.282,0,0,1-1.644-.8A1.3,1.3,0,0,1,.826,1.1,25.72,25.72,0,0,1,3.644.058,1.379,1.379,0,0,1,5.4,1.46Z" transform="translate(46.376 19.342)" fill="#040404"/>
      <path id="Trazado_194334" data-name="Trazado 194334" d="M2.439,3.785c.373-.944.709-1.826,1.069-2.7A1.411,1.411,0,0,1,5.383.1,1.421,1.421,0,0,1,6.069,2.1c-.5,1.311-1.008,2.619-1.543,3.916A1.4,1.4,0,0,1,2.4,6.869c-.473-.211-.936-.445-1.4-.683-.877-.451-1.19-1.1-.892-1.835.32-.789,1.017-1.034,1.981-.7C2.174,3.682,2.255,3.715,2.439,3.785Z" transform="translate(51.239 61.605)" fill="#040404"/>
      <path id="Trazado_194335" data-name="Trazado 194335" d="M5.392,1.346a1.4,1.4,0,0,1-.916,1.313c-.85.327-1.7.659-2.566.941A1.35,1.35,0,0,1,.077,2.731,1.334,1.334,0,0,1,1,1C1.847.664,2.7.343,3.571.071A1.361,1.361,0,0,1,5.392,1.346Z" transform="translate(60.83 59.127)" fill="#040404"/>
      <path id="Trazado_194336" data-name="Trazado 194336" d="M5.381,1.128a1.459,1.459,0,0,1-.954,1.564c-.85.326-1.7.653-2.568.933A1.351,1.351,0,0,1,.087,2.778a1.31,1.31,0,0,1,.8-1.71,27.311,27.311,0,0,1,2.735-1A1.319,1.319,0,0,1,5.381,1.128Z" transform="translate(42.247 65.892)" fill="#040404"/>
    </g>
    <path id="Trazado_194782" data-name="Trazado 194782" d="M120.1,0l-3.186,3.188,1.06,1.06,3.188-3.186Zm2.258,1.2L121.3,2.258l3.188,3.186,1.061-1.06ZM113.73,6.374l-3.186,3.188,1.061,1.061,3.186-3.188Zm15.005,1.2-1.061,1.06,3.188,3.188,1.06-1.061Zm-21.379,5.175-3.186,3.186,1.061,1.061,3.186-3.186Zm27.753,1.2-1.061,1.061,3.188,3.188,1.06-1.061Zm-34.127,5.177L97.8,22.309l1.061,1.06,3.186-3.186Zm40.5,1.2-1.061,1.061,3.188,3.186,1.06-1.06ZM94.609,25.495l-3.186,3.188,1.061,1.06,3.186-3.186Zm53.248,1.2L146.8,27.753l3.188,3.186,1.06-1.06Zm-59.62,5.177-3.188,3.186,1.061,1.061L89.3,32.93Zm65.994,1.2-1.061,1.061,3.188,3.186,1.06-1.061ZM81.863,38.242,78.676,41.43l1.061,1.06L82.923,39.3Zm78.741,1.2L159.543,40.5l3.186,3.186,1.061-1.06ZM75.49,44.616,72.3,47.8l1.061,1.061,3.186-3.186Zm91.488,1.2-1.061,1.061L169.1,50.06,170.164,49ZM69.116,50.99l-3.188,3.186,1.061,1.061,3.186-3.186Zm104.236,1.2-1.061,1.061,3.186,3.186,1.061-1.061ZM62.742,57.363l-3.188,3.186,1.061,1.061L63.8,58.423Zm116.983,1.2-1.061,1.06,3.186,3.188,1.061-1.061ZM56.369,63.737l-3.187,3.186,1.061,1.061L57.428,64.8Zm129.729,1.2-1.06,1.06,3.186,3.188,1.061-1.061Zm-136.1,5.177L46.807,73.3l1.061,1.061,3.188-3.188Zm142.476,1.2-1.06,1.061,3.186,3.186,1.061-1.061ZM43.621,76.484,40.434,79.67l1.061,1.061,3.188-3.188Zm155.224,1.2-1.06,1.06,3.186,3.188,1.061-1.061Zm-161.6,5.175L34.06,86.044l1.061,1.061,3.188-3.188Zm167.971,1.2-1.06,1.06,3.186,3.188,1.061-1.061ZM30.874,89.232l-3.186,3.186,1.06,1.061,3.188-3.188Zm180.718,1.2-1.06,1.061,3.186,3.188,1.061-1.061ZM24.5,95.605l-3.188,3.186,1.061,1.061,3.188-3.188Zm193.466,1.2-1.06,1.06,3.186,3.188,1.061-1.061ZM18.126,101.978l-3.186,3.188,1.06,1.06,3.188-3.186Zm206.213,1.2-1.061,1.06,3.187,3.188,1.061-1.061ZM11.753,108.351l-3.186,3.188,1.06,1.061,3.188-3.188Zm218.96,1.2-1.061,1.061,3.187,3.186,1.061-1.06ZM5.379,114.725l-3.186,3.188,1.06,1.061,3.188-3.187Zm231.708,1.2-1.061,1.061,3.188,3.188,1.061-1.061ZM1.061,121.1,0,122.16l3.188,3.186,1.06-1.06Zm237.95,1.2-3.188,3.188,1.061,1.061,3.186-3.188ZM7.435,127.472l-1.061,1.061,3.188,3.186,1.061-1.06Zm225.2,1.2-3.186,3.188,1.06,1.06,3.188-3.186ZM13.808,133.846l-1.061,1.061,3.188,3.186,1.06-1.061Zm212.455,1.2-3.188,3.188,1.061,1.061,3.188-3.188ZM20.182,140.22l-1.061,1.061,3.188,3.186,1.06-1.06Zm199.708,1.2L216.7,144.6l1.061,1.06,3.188-3.186ZM26.556,146.593l-1.061,1.06,3.188,3.188,1.06-1.061Zm186.96,1.2-3.186,3.188,1.06,1.06,3.188-3.186ZM32.93,152.967l-1.061,1.061,3.186,3.186,1.061-1.061Zm174.213,1.2-3.186,3.188,1.06,1.061,3.188-3.188ZM39.3,159.341l-1.061,1.06,3.188,3.188,1.06-1.061Zm161.466,1.2-3.186,3.186,1.061,1.061,3.186-3.186ZM45.677,165.714l-1.061,1.06,3.186,3.188,1.061-1.061Zm148.718,1.2-3.186,3.188,1.061,1.06,3.186-3.186ZM52.049,172.088l-1.06,1.061,3.186,3.186,1.061-1.061Zm135.972,1.2-3.186,3.186,1.06,1.061,3.188-3.186Zm-129.6,5.177-1.061,1.06,3.186,3.188,1.061-1.061Zm123.224,1.2-3.186,3.186,1.061,1.061,3.186-3.186ZM64.8,184.835l-1.061,1.06,3.186,3.188,1.061-1.061Zm110.478,1.2-3.187,3.186,1.061,1.061,3.186-3.188ZM71.17,191.208l-1.06,1.061,3.186,3.186,1.061-1.06Zm97.73,1.2-3.186,3.186,1.061,1.061,3.186-3.186Zm-91.357,5.177-1.06,1.06,3.186,3.188,1.061-1.061Zm84.983,1.2-3.186,3.186,1.061,1.061,3.186-3.188Zm-78.609,5.175-1.06,1.061,3.186,3.188,1.061-1.061Zm72.237,1.2-3.187,3.186,1.061,1.061,3.186-3.188Zm-65.863,5.175-1.06,1.061,3.186,3.186,1.061-1.06Zm59.49,1.2-3.188,3.186,1.061,1.061,3.186-3.186ZM96.665,216.7l-1.06,1.061,3.186,3.186,1.061-1.06Zm46.742,1.2-3.188,3.186,1.061,1.06,3.186-3.186Zm-40.369,5.175-1.06,1.061,3.186,3.186,1.061-1.061Zm33.995,1.2-3.188,3.186,1.061,1.061,3.188-3.188Zm-27.621,5.175-1.061,1.061,3.188,3.186,1.061-1.06Zm21.247,1.2-3.188,3.188,1.061,1.061,3.186-3.188Zm-14.874,5.177-1.061,1.061,3.188,3.188,1.061-1.061Zm8.5,1.2-3.187,3.188,1.061,1.06,3.188-3.186Z" transform="translate(920.302 2335.822) rotate(90)" fill="#fff"/>
    <g transform="matrix(1, 0, 0, 1, 400.03, 2212.97)" filter="url(#Elipse_12986)">
      <ellipse id="Elipse_12986-2" data-name="Elipse 12986" cx="66.807" cy="66.807" rx="66.807" ry="66.807" transform="translate(333 176)" fill="url(#linear-gradient)"/>
    </g>
    <g transform="matrix(1, 0, 0, 1, 400.03, 2212.97)" filter="url(#Elipse_12987)">
      <circle id="Elipse_12987-2" data-name="Elipse 12987" cx="66.807" cy="66.807" r="66.807" transform="translate(599 176)" fill="url(#linear-gradient)"/>
    </g>
    <g id="Grupo_134729" data-name="Grupo 134729" transform="translate(758.068 2413.983)">
      <path id="Trazado_194367" data-name="Trazado 194367" d="M68.969,83.521a3.138,3.138,0,0,0-1.351-.4A12.588,12.588,0,0,1,58.342,72.4c-1.254,0-2.522,0-3.789,0a4.247,4.247,0,0,1-4.615-4.607q0-11.825,0-23.649v-.935h-4.06a1.782,1.782,0,0,0-.078.888c-.006,5.6,0,11.2-.008,16.8a5.628,5.628,0,0,1-3.91,5.664,5.456,5.456,0,0,1-7.162-5.221,2.526,2.526,0,0,0-1.979-2.794c-3.758-1.447-7.451-3.064-11.17-4.611-.242-.1-.489-.192-.8-.315,0,2.642.023,5.192-.007,7.742a5.551,5.551,0,1,1-11.1-.246c.015-2.473,0-4.947,0-7.421v-.864a12.248,12.248,0,0,1-4.479-1.65,11.122,11.122,0,0,1,5.694-20.535c2.522-.038,5.046-.013,7.57-.005a2.938,2.938,0,0,0,1.178-.236q7.182-3.009,14.379-5.985a.876.876,0,0,0,.655-1.019,7.942,7.942,0,0,1,.154-2.433,5.584,5.584,0,0,1,5.627-4.26,5.521,5.521,0,0,1,5.273,4.859,10.905,10.905,0,0,1,.075,1.3q.007,8.277.008,16.554a1.787,1.787,0,0,0,.085.905h3.968a1.546,1.546,0,0,0,.08-.868q.009-11.824,0-23.648c0-2.992,1.7-4.687,4.694-4.691,1.219,0,2.436,0,3.681,0,.16-.709.261-1.4.475-2.065A12.354,12.354,0,0,1,68.807.161c.125-.024.277.016.325-.161h3.256c.026.131.124.142.236.161,5.183.891,8.523,3.906,10.189,8.862a6.91,6.91,0,0,0,.486,1.742v3.589c-.294.226-.216.587-.292.881-1.265,4.962-4.334,8.231-9.293,9.434-4.9,1.188-9.1-.281-12.451-4.053a12.353,12.353,0,0,1-2.919-6.708H54.729c-1.6,0-2.011.417-2.012,2.037q0,11.778,0,23.555a1.392,1.392,0,0,0,.1.826h5.511c.066-.308.134-.594.189-.882a12.49,12.49,0,0,1,24.34-1,7.044,7.044,0,0,0,.441,1.682v3.589c-.306.181-.241.52-.3.785a12.49,12.49,0,0,1-24.127,1c-.236-.767-.385-1.559-.56-2.281h-5.6v.868q0,11.739,0,23.477a4.8,4.8,0,0,0,.03.813,1.254,1.254,0,0,0,1.166,1.178c1.477.058,2.957.018,4.421.018.069-.336.129-.6.179-.866a12.489,12.489,0,0,1,24.219-1.45c.214.681.378,1.377.566,2.066v3.589c-.307.15-.217.473-.275.709a12.418,12.418,0,0,1-9.048,9.486,6.23,6.23,0,0,0-1.588.408ZM34.613,56.343V27.287a.473.473,0,0,0-.408.058c-4.29,1.792-8.578,3.588-12.879,5.353a.8.8,0,0,0-.564.906q.021,8.151,0,16.3a.858.858,0,0,0,.631.947c2.456.995,4.9,2.024,7.342,3.042Zm2.822-14.576q0,9.414,0,18.826a6.768,6.768,0,0,0,.071,1.135,2.712,2.712,0,0,0,3.064,2.263C42.1,63.8,43,62.649,43,60.863q.006-19.112,0-38.223a5.383,5.383,0,0,0-.069-.891,2.7,2.7,0,0,0-2.214-2.2c-1.87-.315-3.278.986-3.281,3.066Q37.427,32.192,37.436,41.767ZM17.962,33.436c-2.492,0-4.929-.048-7.362.011a8.316,8.316,0,0,0-1.874,16.3c3.033.772,6.135.155,9.236.389Zm46.852,15.9a6.982,6.982,0,0,1,11.988.033A9.719,9.719,0,1,0,61.4,39.247C60.382,42.951,61.891,47.424,64.814,49.338Zm11.97-29.227A9.669,9.669,0,0,0,80.015,9.419a9.726,9.726,0,0,0-18.647.683c-.961,3.7.633,8.31,3.452,9.984A6.971,6.971,0,0,1,76.784,20.111ZM76.83,78.6A9.722,9.722,0,1,0,61.368,68.563c-.962,3.7.578,8.178,3.44,10A7,7,0,0,1,76.83,78.6ZM17.989,52.933h-5.54c0,2.818-.018,5.588.007,8.356a2.761,2.761,0,0,0,5.52.1C18.024,58.591,17.989,55.792,17.989,52.933ZM67.2,50.8a9.559,9.559,0,0,0,7.172,0,4.05,4.05,0,0,0-3.6-2.049A4.1,4.1,0,0,0,67.2,50.8Zm.024,29.24a9.451,9.451,0,0,0,7.154-.018,4.1,4.1,0,0,0-3.812-2.04A3.965,3.965,0,0,0,67.225,80.038Zm7.169-58.471a4.127,4.127,0,0,0-3.914-2.04,4.046,4.046,0,0,0-3.271,2.044A9.8,9.8,0,0,0,74.395,21.568Z" transform="translate(0 0)" fill="#040404"/>
      <path id="Trazado_194368" data-name="Trazado 194368" d="M0,4.187A4.171,4.171,0,0,1,4.173,0,4.223,4.223,0,0,1,8.33,4.225,4.2,4.2,0,0,1,4.177,8.364,4.161,4.161,0,0,1,0,4.187ZM4.169,5.559A1.389,1.389,0,0,0,5.544,4.152,1.414,1.414,0,0,0,4.1,2.8,1.361,1.361,0,0,0,2.788,4.179,1.339,1.339,0,0,0,4.169,5.559Z" transform="translate(66.641 34.789)" fill="#040404"/>
      <path id="Trazado_194369" data-name="Trazado 194369" d="M4.144,8.343A4.124,4.124,0,0,1,0,4.15,4.166,4.166,0,0,1,4.125,0,4.215,4.215,0,0,1,8.332,4.172,4.172,4.172,0,0,1,4.144,8.343Zm-.017-2.79A1.392,1.392,0,0,0,5.546,4.187a1.432,1.432,0,0,0-1.406-1.4A1.382,1.382,0,0,0,2.788,4.134,1.332,1.332,0,0,0,4.128,5.553Z" transform="translate(66.64 5.56)" fill="#040404"/>
      <path id="Trazado_194370" data-name="Trazado 194370" d="M0,4.188A4.136,4.136,0,0,1,4.155,0,4.179,4.179,0,0,1,8.33,4.107,4.23,4.23,0,0,1,4.195,8.355,4.176,4.176,0,0,1,0,4.188Zm5.544-.034A1.381,1.381,0,0,0,4.12,2.8,1.323,1.323,0,0,0,2.788,4.141,1.382,1.382,0,0,0,4.149,5.558,1.434,1.434,0,0,0,5.544,4.154Z" transform="translate(66.64 64.042)" fill="#040404"/>
    </g>
    <path id="Trazado_194783" data-name="Trazado 194783" d="M120.1,0l-3.186,3.188,1.06,1.06,3.188-3.186Zm2.258,1.2L121.3,2.258l3.188,3.186,1.061-1.06ZM113.73,6.374l-3.186,3.188,1.061,1.061,3.186-3.188Zm15.005,1.2-1.061,1.06,3.188,3.188,1.06-1.061Zm-21.379,5.175-3.186,3.186,1.061,1.061,3.186-3.186Zm27.753,1.2-1.061,1.061,3.188,3.188,1.06-1.061Zm-34.127,5.177L97.8,22.309l1.061,1.06,3.186-3.186Zm40.5,1.2-1.061,1.061,3.188,3.186,1.06-1.06ZM94.609,25.495l-3.186,3.188,1.061,1.06,3.186-3.186Zm53.248,1.2L146.8,27.753l3.188,3.186,1.06-1.06Zm-59.62,5.177-3.188,3.186,1.061,1.061L89.3,32.93Zm65.994,1.2-1.061,1.061,3.188,3.186,1.06-1.061ZM81.863,38.242,78.676,41.43l1.061,1.06L82.923,39.3Zm78.741,1.2L159.543,40.5l3.186,3.186,1.061-1.06ZM75.49,44.616,72.3,47.8l1.061,1.061,3.186-3.186Zm91.488,1.2-1.061,1.061L169.1,50.06,170.164,49ZM69.116,50.99l-3.188,3.186,1.061,1.061,3.186-3.186Zm104.236,1.2-1.061,1.061,3.186,3.186,1.061-1.061ZM62.742,57.363l-3.188,3.186,1.061,1.061L63.8,58.423Zm116.983,1.2-1.061,1.06,3.186,3.188,1.061-1.061ZM56.369,63.737l-3.187,3.186,1.061,1.061L57.428,64.8Zm129.729,1.2-1.06,1.06,3.186,3.188,1.061-1.061Zm-136.1,5.177L46.807,73.3l1.061,1.061,3.188-3.188Zm142.476,1.2-1.06,1.061,3.186,3.186,1.061-1.061ZM43.621,76.484,40.434,79.67l1.061,1.061,3.188-3.188Zm155.224,1.2-1.06,1.06,3.186,3.188,1.061-1.061Zm-161.6,5.175L34.06,86.044l1.061,1.061,3.188-3.188Zm167.971,1.2-1.06,1.06,3.186,3.188,1.061-1.061ZM30.874,89.232l-3.186,3.186,1.06,1.061,3.188-3.188Zm180.718,1.2-1.06,1.061,3.186,3.188,1.061-1.061ZM24.5,95.605l-3.188,3.186,1.061,1.061,3.188-3.188Zm193.466,1.2-1.06,1.06,3.186,3.188,1.061-1.061ZM18.126,101.978l-3.186,3.188,1.06,1.06,3.188-3.186Zm206.213,1.2-1.061,1.06,3.187,3.188,1.061-1.061ZM11.753,108.351l-3.186,3.188,1.06,1.061,3.188-3.188Zm218.96,1.2-1.061,1.061,3.187,3.186,1.061-1.06ZM5.379,114.725l-3.186,3.188,1.06,1.061,3.188-3.187Zm231.708,1.2-1.061,1.061,3.188,3.188,1.061-1.061ZM1.061,121.1,0,122.16l3.188,3.186,1.06-1.06Zm237.95,1.2-3.188,3.188,1.061,1.061,3.186-3.188ZM7.435,127.472l-1.061,1.061,3.188,3.186,1.061-1.06Zm225.2,1.2-3.186,3.188,1.06,1.06,3.188-3.186ZM13.808,133.846l-1.061,1.061,3.188,3.186,1.06-1.061Zm212.455,1.2-3.188,3.188,1.061,1.061,3.188-3.188ZM20.182,140.22l-1.061,1.061,3.188,3.186,1.06-1.06Zm199.708,1.2L216.7,144.6l1.061,1.06,3.188-3.186ZM26.556,146.593l-1.061,1.06,3.188,3.188,1.06-1.061Zm186.96,1.2-3.186,3.188,1.06,1.06,3.188-3.186ZM32.93,152.967l-1.061,1.061,3.186,3.186,1.061-1.061Zm174.213,1.2-3.186,3.188,1.06,1.061,3.188-3.188ZM39.3,159.341l-1.061,1.06,3.188,3.188,1.06-1.061Zm161.466,1.2-3.186,3.186,1.061,1.061,3.186-3.186ZM45.677,165.714l-1.061,1.06,3.186,3.188,1.061-1.061Zm148.718,1.2-3.186,3.188,1.061,1.06,3.186-3.186ZM52.049,172.088l-1.06,1.061,3.186,3.186,1.061-1.061Zm135.972,1.2-3.186,3.186,1.06,1.061,3.188-3.186Zm-129.6,5.177-1.061,1.06,3.186,3.188,1.061-1.061Zm123.224,1.2-3.186,3.186,1.061,1.061,3.186-3.186ZM64.8,184.835l-1.061,1.06,3.186,3.188,1.061-1.061Zm110.478,1.2-3.187,3.186,1.061,1.061,3.186-3.188ZM71.17,191.208l-1.06,1.061,3.186,3.186,1.061-1.06Zm97.73,1.2-3.186,3.186,1.061,1.061,3.186-3.186Zm-91.357,5.177-1.06,1.06,3.186,3.188,1.061-1.061Zm84.983,1.2-3.186,3.186,1.061,1.061,3.186-3.188Zm-78.609,5.175-1.06,1.061,3.186,3.188,1.061-1.061Zm72.237,1.2-3.187,3.186,1.061,1.061,3.186-3.188Zm-65.863,5.175-1.06,1.061,3.186,3.186,1.061-1.06Zm59.49,1.2-3.188,3.186,1.061,1.061,3.186-3.186ZM96.665,216.7l-1.06,1.061,3.186,3.186,1.061-1.06Zm46.742,1.2-3.188,3.186,1.061,1.06,3.186-3.186Zm-40.369,5.175-1.06,1.061,3.186,3.186,1.061-1.061Zm33.995,1.2-3.188,3.186,1.061,1.061,3.188-3.188Zm-27.621,5.175-1.061,1.061,3.188,3.186,1.061-1.06Zm21.247,1.2-3.188,3.188,1.061,1.061,3.186-3.188Zm-14.874,5.177-1.061,1.061,3.188,3.188,1.061-1.061Zm8.5,1.2-3.187,3.188,1.061,1.06,3.188-3.186Z" transform="translate(1187.301 2335.822) rotate(90)" fill="#084a93"/>
    <path id="Trazado_194784" data-name="Trazado 194784" d="M120.1,0l-3.186,3.188,1.06,1.06,3.188-3.186Zm2.258,1.2L121.3,2.258l3.188,3.186,1.061-1.06ZM113.73,6.374l-3.186,3.188,1.061,1.061,3.186-3.188Zm15.005,1.2-1.061,1.06,3.188,3.188,1.06-1.061Zm-21.379,5.175-3.186,3.186,1.061,1.061,3.186-3.186Zm27.753,1.2-1.061,1.061,3.188,3.188,1.06-1.061Zm-34.127,5.177L97.8,22.309l1.061,1.06,3.186-3.186Zm40.5,1.2-1.061,1.061,3.188,3.186,1.06-1.06ZM94.609,25.495l-3.186,3.188,1.061,1.06,3.186-3.186Zm53.248,1.2L146.8,27.753l3.188,3.186,1.06-1.06Zm-59.62,5.177-3.188,3.186,1.061,1.061L89.3,32.93Zm65.994,1.2-1.061,1.061,3.188,3.186,1.06-1.061ZM81.863,38.242,78.676,41.43l1.061,1.06L82.923,39.3Zm78.741,1.2L159.543,40.5l3.186,3.186,1.061-1.06ZM75.49,44.616,72.3,47.8l1.061,1.061,3.186-3.186Zm91.488,1.2-1.061,1.061L169.1,50.06,170.164,49ZM69.116,50.99l-3.188,3.186,1.061,1.061,3.186-3.186Zm104.236,1.2-1.061,1.061,3.186,3.186,1.061-1.061ZM62.742,57.363l-3.188,3.186,1.061,1.061L63.8,58.423Zm116.983,1.2-1.061,1.06,3.186,3.188,1.061-1.061ZM56.369,63.737l-3.187,3.186,1.061,1.061L57.428,64.8Zm129.729,1.2-1.06,1.06,3.186,3.188,1.061-1.061Zm-136.1,5.177L46.807,73.3l1.061,1.061,3.188-3.188Zm142.476,1.2-1.06,1.061,3.186,3.186,1.061-1.061ZM43.621,76.484,40.434,79.67l1.061,1.061,3.188-3.188Zm155.224,1.2-1.06,1.06,3.186,3.188,1.061-1.061Zm-161.6,5.175L34.06,86.044l1.061,1.061,3.188-3.188Zm167.971,1.2-1.06,1.06,3.186,3.188,1.061-1.061ZM30.874,89.232l-3.186,3.186,1.06,1.061,3.188-3.188Zm180.718,1.2-1.06,1.061,3.186,3.188,1.061-1.061ZM24.5,95.605l-3.188,3.186,1.061,1.061,3.188-3.188Zm193.466,1.2-1.06,1.06,3.186,3.188,1.061-1.061ZM18.126,101.978l-3.186,3.188,1.06,1.06,3.188-3.186Zm206.213,1.2-1.061,1.06,3.187,3.188,1.061-1.061ZM11.753,108.351l-3.186,3.188,1.06,1.061,3.188-3.188Zm218.96,1.2-1.061,1.061,3.187,3.186,1.061-1.06ZM5.379,114.725l-3.186,3.188,1.06,1.061,3.188-3.187Zm231.708,1.2-1.061,1.061,3.188,3.188,1.061-1.061ZM1.061,121.1,0,122.16l3.188,3.186,1.06-1.06Zm237.95,1.2-3.188,3.188,1.061,1.061,3.186-3.188ZM7.435,127.472l-1.061,1.061,3.188,3.186,1.061-1.06Zm225.2,1.2-3.186,3.188,1.06,1.06,3.188-3.186ZM13.808,133.846l-1.061,1.061,3.188,3.186,1.06-1.061Zm212.455,1.2-3.188,3.188,1.061,1.061,3.188-3.188ZM20.182,140.22l-1.061,1.061,3.188,3.186,1.06-1.06Zm199.708,1.2L216.7,144.6l1.061,1.06,3.188-3.186ZM26.556,146.593l-1.061,1.06,3.188,3.188,1.06-1.061Zm186.96,1.2-3.186,3.188,1.06,1.06,3.188-3.186ZM32.93,152.967l-1.061,1.061,3.186,3.186,1.061-1.061Zm174.213,1.2-3.186,3.188,1.06,1.061,3.188-3.188ZM39.3,159.341l-1.061,1.06,3.188,3.188,1.06-1.061Zm161.466,1.2-3.186,3.186,1.061,1.061,3.186-3.186ZM45.677,165.714l-1.061,1.06,3.186,3.188,1.061-1.061Zm148.718,1.2-3.186,3.188,1.061,1.06,3.186-3.186ZM52.049,172.088l-1.06,1.061,3.186,3.186,1.061-1.061Zm135.972,1.2-3.186,3.186,1.06,1.061,3.188-3.186Zm-129.6,5.177-1.061,1.06,3.186,3.188,1.061-1.061Zm123.224,1.2-3.186,3.186,1.061,1.061,3.186-3.186ZM64.8,184.835l-1.061,1.06,3.186,3.188,1.061-1.061Zm110.478,1.2-3.187,3.186,1.061,1.061,3.186-3.188ZM71.17,191.208l-1.06,1.061,3.186,3.186,1.061-1.06Zm97.73,1.2-3.186,3.186,1.061,1.061,3.186-3.186Zm-91.357,5.177-1.06,1.06,3.186,3.188,1.061-1.061Zm84.983,1.2-3.186,3.186,1.061,1.061,3.186-3.188Zm-78.609,5.175-1.06,1.061,3.186,3.188,1.061-1.061Zm72.237,1.2-3.187,3.186,1.061,1.061,3.186-3.188Zm-65.863,5.175-1.06,1.061,3.186,3.186,1.061-1.06Zm59.49,1.2-3.188,3.186,1.061,1.061,3.186-3.186ZM96.665,216.7l-1.06,1.061,3.186,3.186,1.061-1.06Zm46.742,1.2-3.188,3.186,1.061,1.06,3.186-3.186Zm-40.369,5.175-1.06,1.061,3.186,3.186,1.061-1.061Zm33.995,1.2-3.188,3.186,1.061,1.061,3.188-3.188Zm-27.621,5.175-1.061,1.061,3.188,3.186,1.061-1.06Zm21.247,1.2-3.188,3.188,1.061,1.061,3.186-3.188Zm-14.874,5.177-1.061,1.061,3.188,3.188,1.061-1.061Zm8.5,1.2-3.187,3.188,1.061,1.06,3.188-3.186Z" transform="translate(1053.302 2469.973) rotate(90)" fill="#084a93"/>
    <path id="Trazado_194785" data-name="Trazado 194785" d="M120.1,0l-3.186,3.188,1.06,1.06,3.188-3.186Zm2.258,1.2L121.3,2.258l3.188,3.186,1.061-1.06ZM113.73,6.374l-3.186,3.188,1.061,1.061,3.186-3.188Zm15.005,1.2-1.061,1.06,3.188,3.188,1.06-1.061Zm-21.379,5.175-3.186,3.186,1.061,1.061,3.186-3.186Zm27.753,1.2-1.061,1.061,3.188,3.188,1.06-1.061Zm-34.127,5.177L97.8,22.309l1.061,1.06,3.186-3.186Zm40.5,1.2-1.061,1.061,3.188,3.186,1.06-1.06ZM94.609,25.495l-3.186,3.188,1.061,1.06,3.186-3.186Zm53.248,1.2L146.8,27.753l3.188,3.186,1.06-1.06Zm-59.62,5.177-3.188,3.186,1.061,1.061L89.3,32.93Zm65.994,1.2-1.061,1.061,3.188,3.186,1.06-1.061ZM81.863,38.242,78.676,41.43l1.061,1.06L82.923,39.3Zm78.741,1.2L159.543,40.5l3.186,3.186,1.061-1.06ZM75.49,44.616,72.3,47.8l1.061,1.061,3.186-3.186Zm91.488,1.2-1.061,1.061L169.1,50.06,170.164,49ZM69.116,50.99l-3.188,3.186,1.061,1.061,3.186-3.186Zm104.236,1.2-1.061,1.061,3.186,3.186,1.061-1.061ZM62.742,57.363l-3.188,3.186,1.061,1.061L63.8,58.423Zm116.983,1.2-1.061,1.06,3.186,3.188,1.061-1.061ZM56.369,63.737l-3.187,3.186,1.061,1.061L57.428,64.8Zm129.729,1.2-1.06,1.06,3.186,3.188,1.061-1.061Zm-136.1,5.177L46.807,73.3l1.061,1.061,3.188-3.188Zm142.476,1.2-1.06,1.061,3.186,3.186,1.061-1.061ZM43.621,76.484,40.434,79.67l1.061,1.061,3.188-3.188Zm155.224,1.2-1.06,1.06,3.186,3.188,1.061-1.061Zm-161.6,5.175L34.06,86.044l1.061,1.061,3.188-3.188Zm167.971,1.2-1.06,1.06,3.186,3.188,1.061-1.061ZM30.874,89.232l-3.186,3.186,1.06,1.061,3.188-3.188Zm180.718,1.2-1.06,1.061,3.186,3.188,1.061-1.061ZM24.5,95.605l-3.188,3.186,1.061,1.061,3.188-3.188Zm193.466,1.2-1.06,1.06,3.186,3.188,1.061-1.061ZM18.126,101.978l-3.186,3.188,1.06,1.06,3.188-3.186Zm206.213,1.2-1.061,1.06,3.187,3.188,1.061-1.061ZM11.753,108.351l-3.186,3.188,1.06,1.061,3.188-3.188Zm218.96,1.2-1.061,1.061,3.187,3.186,1.061-1.06ZM5.379,114.725l-3.186,3.188,1.06,1.061,3.188-3.187Zm231.708,1.2-1.061,1.061,3.188,3.188,1.061-1.061ZM1.061,121.1,0,122.16l3.188,3.186,1.06-1.06Zm237.95,1.2-3.188,3.188,1.061,1.061,3.186-3.188ZM7.435,127.472l-1.061,1.061,3.188,3.186,1.061-1.06Zm225.2,1.2-3.186,3.188,1.06,1.06,3.188-3.186ZM13.808,133.846l-1.061,1.061,3.188,3.186,1.06-1.061Zm212.455,1.2-3.188,3.188,1.061,1.061,3.188-3.188ZM20.182,140.22l-1.061,1.061,3.188,3.186,1.06-1.06Zm199.708,1.2L216.7,144.6l1.061,1.06,3.188-3.186ZM26.556,146.593l-1.061,1.06,3.188,3.188,1.06-1.061Zm186.96,1.2-3.186,3.188,1.06,1.06,3.188-3.186ZM32.93,152.967l-1.061,1.061,3.186,3.186,1.061-1.061Zm174.213,1.2-3.186,3.188,1.06,1.061,3.188-3.188ZM39.3,159.341l-1.061,1.06,3.188,3.188,1.06-1.061Zm161.466,1.2-3.186,3.186,1.061,1.061,3.186-3.186ZM45.677,165.714l-1.061,1.06,3.186,3.188,1.061-1.061Zm148.718,1.2-3.186,3.188,1.061,1.06,3.186-3.186ZM52.049,172.088l-1.06,1.061,3.186,3.186,1.061-1.061Zm135.972,1.2-3.186,3.186,1.06,1.061,3.188-3.186Zm-129.6,5.177-1.061,1.06,3.186,3.188,1.061-1.061Zm123.224,1.2-3.186,3.186,1.061,1.061,3.186-3.186ZM64.8,184.835l-1.061,1.06,3.186,3.188,1.061-1.061Zm110.478,1.2-3.187,3.186,1.061,1.061,3.186-3.188ZM71.17,191.208l-1.06,1.061,3.186,3.186,1.061-1.06Zm97.73,1.2-3.186,3.186,1.061,1.061,3.186-3.186Zm-91.357,5.177-1.06,1.06,3.186,3.188,1.061-1.061Zm84.983,1.2-3.186,3.186,1.061,1.061,3.186-3.188Zm-78.609,5.175-1.06,1.061,3.186,3.188,1.061-1.061Zm72.237,1.2-3.187,3.186,1.061,1.061,3.186-3.188Zm-65.863,5.175-1.06,1.061,3.186,3.186,1.061-1.06Zm59.49,1.2-3.188,3.186,1.061,1.061,3.186-3.186ZM96.665,216.7l-1.06,1.061,3.186,3.186,1.061-1.06Zm46.742,1.2-3.188,3.186,1.061,1.06,3.186-3.186Zm-40.369,5.175-1.06,1.061,3.186,3.186,1.061-1.061Zm33.995,1.2-3.188,3.186,1.061,1.061,3.188-3.188Zm-27.621,5.175-1.061,1.061,3.188,3.186,1.061-1.06Zm21.247,1.2-3.188,3.188,1.061,1.061,3.186-3.188Zm-14.874,5.177-1.061,1.061,3.188,3.188,1.061-1.061Zm8.5,1.2-3.187,3.188,1.061,1.06,3.188-3.186Z" transform="translate(787.302 2469.973) rotate(90)" fill="#084a93"/>
    <g id="Grupo_134727" data-name="Grupo 134727" transform="translate(1024.034 2413.973)">
      <path id="Trazado_194352" data-name="Trazado 194352" d="M31.95,0h2.3c.027.043.051.119.083.125A7.191,7.191,0,0,1,40,4.367a.69.69,0,0,0,.771.414c1.891-.01,3.784,0,5.676,0,1.855,0,2.041.177,2.153,2.042,0,.042.064.082.12.149,4.009,0,8.039,0,12.069,0,3.533,0,5.559,2.033,5.559,5.569q0,14.506-.005,29.012a2.217,2.217,0,0,0,.366,1.3,18.133,18.133,0,0,1,2.229,15.964,19.355,19.355,0,0,1-1.667,3.7L70.571,66a.523.523,0,0,0,.624.215,3.007,3.007,0,0,1,3.2.927q4.1,4.05,8.267,8.033a6.394,6.394,0,0,1,1.635,2.175v1.484a21.213,21.213,0,0,1-3.05,3.478,5.654,5.654,0,0,1-3.04,2.13h-.659A12.657,12.657,0,0,1,75.8,83.3c-2.606-2.587-5.251-5.135-7.885-7.7-.5-.48-1-.954-1.573-1.506v2.77c0,.878.013,1.756-.005,2.634a5.047,5.047,0,0,1-3.389,4.687c-.236.08-.569-.075-.716.253H3.8c-.046-.059-.082-.151-.144-.172C1.015,83.347,0,81.427,0,78.693Q.043,45.605.017,12.519c0-3.531,2.025-5.549,5.57-5.551q5.635,0,11.268,0a1.6,1.6,0,0,0,.9-.1c.007-.1.019-.206.021-.311.033-1.429.389-1.779,1.821-1.78,1.974,0,3.948-.017,5.921.013a.855.855,0,0,0,.913-.582A7.4,7.4,0,0,1,30.828.364C31.2.232,31.624.268,31.95,0ZM58.592,14.772H48.614c-.1,1.971-.335,2.185-2.281,2.185H19.917c-1.811,0-2.061-.24-2.159-2.063,0-.045-.054-.088-.079-.127H7.787V76.66H58.557V70.085a2.956,2.956,0,0,0-.292.071,18.081,18.081,0,0,1-15.111-.764,2.361,2.361,0,0,0-1.1-.25c-2.605.007-5.211.014-7.817,0a1.316,1.316,0,0,1-1.442-1.262,1.369,1.369,0,0,1,1.441-1.366c.52-.022,1.042-.005,1.563-.005h3.233a15.558,15.558,0,0,1-2.84-3.457A1.917,1.917,0,0,0,34.11,61.8,1.224,1.224,0,0,1,32.8,60.587a1.291,1.291,0,0,1,1.057-1.375c.12-.033.277.025.356-.152a17.952,17.952,0,0,1-.968-6.628,2,2,0,0,0-.3-1.393.943.943,0,0,1,.117-1.29A3.341,3.341,0,0,0,34,47.811a24.6,24.6,0,0,1,1.34-3.335c-.513,0-.9.033-1.274-.007a1.343,1.343,0,0,1-1.27-1.363,1.3,1.3,0,0,1,1.366-1.249,19.082,19.082,0,0,1,2.056,0,1.536,1.536,0,0,0,1.389-.635,18.008,18.008,0,0,1,16.387-6.307,20.22,20.22,0,0,1,4.6,1.208Zm3.892,53.1c-1.1.343-1.293,1.138-1.259,2.214.079,2.471.026,4.946.024,7.419,0,1.419-.4,1.825-1.79,1.825H6.877c-1.355,0-1.763-.407-1.763-1.764q0-31.867,0-63.734c0-1.334.432-1.765,1.78-1.767,3.32,0,6.638,0,9.958-.005A1.721,1.721,0,0,0,17.716,12V9.611c-4.258,0-8.452-.027-12.646.015-1.572.016-2.418,1.038-2.418,2.711q0,33.351,0,66.7c0,1.873.9,2.764,2.774,2.766q27.772,0,55.545,0a2.417,2.417,0,0,0,2.741-2.719c.005-2.886-.047-5.774.025-8.658A2.458,2.458,0,0,0,62.484,67.876ZM45.9,14.279V7.416H39.787c-1.3,0-1.524-.163-1.945-1.406a4.911,4.911,0,0,0-9.335.028c-.395,1.192-.644,1.376-1.884,1.377-2.048,0-4.1,0-6.159,0v6.863ZM51.5,37.4A15.7,15.7,0,1,0,67.205,53.076,15.655,15.655,0,0,0,51.5,37.4ZM48.617,12.069h.914c3.345,0,6.69.005,10.034,0a1.461,1.461,0,0,1,1.619.976,3.01,3.01,0,0,1,.063.9q0,11.455.01,22.91c0,.278-.135.6.19.825.73.512,1.448,1.04,2.266,1.63v-.878q0-12.939,0-25.876c0-2.089-.853-2.94-2.95-2.942q-5.674,0-11.35,0c-.263,0-.548-.09-.795.1Zm29.211,69.5L81.76,78l-9.431-9.163L68.4,72.4C71.642,75.551,74.818,78.638,77.827,81.565ZM64.6,65.954l3.144,3.332a10.968,10.968,0,0,0,1.025-1.075l-3.158-3.367Z" transform="translate(0 0)" fill="#020202"/>
      <path id="Trazado_194353" data-name="Trazado 194353" d="M12.733,2.256c.612-.558,1.194-1.1,1.785-1.625.782-.7,1.533-.744,2.093-.141s.448,1.389-.3,2.079c-.948.873-1.895,1.748-2.869,2.592a1.366,1.366,0,0,0-.548,1.193c.044.986.026,1.976.009,2.965a3.39,3.39,0,0,1-3.612,3.6q-2.837.019-5.673,0A3.4,3.4,0,0,1,.01,9.306q-.021-2.842,0-5.684A3.359,3.359,0,0,1,3.6.017C5.41,0,7.22.054,9.027,0A3.568,3.568,0,0,1,12.733,2.256ZM10.151,8.189c-.191.164-.358.3-.519.449-1.062.955-1.547.939-2.57-.083-.795-.8-1.593-1.589-2.382-2.389-.723-.731-.8-1.506-.229-2.089s1.365-.524,2.08.213c.621.639,1.2,1.318,1.786,1.973l1.64-1.478c.55-.5.342-1.121.221-1.683-.111-.518-.619-.446-1.025-.448q-2.673,0-5.344,0c-1.014,0-1.164.16-1.166,1.217q0,2.6,0,5.189c0,1.008.2,1.216,1.187,1.219,1.535,0,3.069,0,4.6,0,1.85,0,1.935-.091,1.826-1.964C10.26,8.3,10.23,8.281,10.151,8.189Z" transform="translate(13.704 23.02)" fill="#020202"/>
      <path id="Trazado_194354" data-name="Trazado 194354" d="M12.742,2.249c.667-.6,1.286-1.181,1.926-1.734A1.3,1.3,0,0,1,16.633.5a1.34,1.34,0,0,1-.209,1.963c-1,.936-2.014,1.862-3.047,2.762a1.23,1.23,0,0,0-.469,1.062c.03,1.014.024,2.031.005,3.047a3.367,3.367,0,0,1-3.629,3.569c-1.918,0-3.836.008-5.755,0A3.355,3.355,0,0,1,.023,9.459q-.046-3.007,0-6.012A3.331,3.331,0,0,1,3.54.023C5.321.015,7.1.076,8.883.005A3.636,3.636,0,0,1,12.742,2.249ZM10.28,8.1c-.325.278-.494.415-.655.559-1.029.916-1.542.9-2.513-.065C6.3,7.777,5.477,6.965,4.668,6.144c-.708-.719-.775-1.525-.188-2.09s1.318-.5,2.022.2c.637.64,1.235,1.317,1.854,1.983.623-.563,1.135-1.02,1.639-1.483s.305-1.08.2-1.619c-.1-.523-.585-.479-1-.478-1.864,0-3.728.014-5.592-.006-.67-.006-.953.3-.953.94,0,1.9,0,3.792,0,5.686,0,.678.291,1,1,.993q2.837-.029,5.675,0c.664.005.959-.3.961-.939C10.281,8.986,10.28,8.638,10.28,8.1Z" transform="translate(13.694 40.364)" fill="#020202"/>
      <path id="Trazado_194355" data-name="Trazado 194355" d="M12.736,2.258c.663-.6,1.284-1.172,1.922-1.727A1.3,1.3,0,0,1,16.624.512a1.324,1.324,0,0,1-.2,1.961Q14.89,3.906,13.318,5.3a1.092,1.092,0,0,0-.414.92q.035,1.564,0,3.13a3.35,3.35,0,0,1-3.627,3.561c-1.918.006-3.836.012-5.753,0A3.346,3.346,0,0,1,.016,9.39q-.032-2.923,0-5.847A3.368,3.368,0,0,1,3.61.019C5.363.011,7.118.064,8.87,0A3.66,3.66,0,0,1,12.736,2.258ZM8.4,6.214c.582-.531,1.122-.988,1.621-1.487.479-.479.3-1.09.158-1.625-.127-.494-.618-.447-1.034-.446-1.809,0-3.618.021-5.428-.008-.784-.013-1.082.327-1.075,1.086.018,1.84.015,3.68,0,5.519-.005.728.305,1.036,1.044,1.025,1.837-.026,3.673-.032,5.509,0,.778.014,1.135-.295,1.079-1.064-.023-.316.1-.648-.11-.992-.183.149-.353.277-.512.417-1.083.949-1.564.937-2.573-.07-.816-.814-1.635-1.624-2.441-2.447a1.365,1.365,0,0,1-.19-2.03c.575-.591,1.314-.548,2.021.147C7.111,4.874,7.731,5.531,8.4,6.214Z" transform="translate(13.7 57.7)" fill="#020202"/>
      <path id="Trazado_194356" data-name="Trazado 194356" d="M9.935,2.642c-2.793,0-5.586.006-8.379,0C.617,2.635.023,2.17,0,1.415A1.221,1.221,0,0,1,.979.079,4.081,4.081,0,0,1,1.958,0Q9.885,0,17.812,0c.137,0,.273,0,.411,0,1.016.031,1.633.553,1.608,1.362-.024.786-.609,1.271-1.6,1.275C15.466,2.648,12.7,2.642,9.935,2.642Z" transform="translate(32.805 24.479)" fill="#020202"/>
      <path id="Trazado_194357" data-name="Trazado 194357" d="M6.8,2.641c-1.726,0-3.453,0-5.178,0C.612,2.636-.01,2.114,0,1.3S.619,0,1.656,0Q6.835,0,12.014,0c1.067,0,1.632.452,1.646,1.29.015.878-.56,1.345-1.677,1.348Q9.394,2.645,6.8,2.641Z" transform="translate(32.795 31.823)" fill="#020202"/>
      <path id="Trazado_194358" data-name="Trazado 194358" d="M3.26,1.666a1.635,1.635,0,0,1-1.6,1.627A1.646,1.646,0,0,1,1.613,0,1.633,1.633,0,0,1,3.26,1.666Z" transform="translate(31.545 4.785)" fill="#020202"/>
      <path id="Trazado_194359" data-name="Trazado 194359" d="M13.538,0A13.537,13.537,0,1,1,0,13.462,13.5,13.5,0,0,1,13.538,0Zm10.85,13.572a10.877,10.877,0,1,0-10.9,10.864A10.862,10.862,0,0,0,24.388,13.572Z" transform="translate(38.027 39.561)" fill="#020202"/>
    </g>
    <g id="Grupo_134728" data-name="Grupo 134728" transform="translate(627.363 2546.682)">
      <g id="Grupo_133048" data-name="Grupo 133048" transform="translate(16.869 36.792)">
        <path id="Trazado_194360" data-name="Trazado 194360" d="M4.415.017A5.368,5.368,0,0,1,8.854,1.749a1.116,1.116,0,0,1,.091,1.657,1.155,1.155,0,0,1-1.668-.059c-1.82-1.637-3.664-1.475-5.2.458A1.152,1.152,0,0,1,.45,4.151,1.15,1.15,0,0,1,.261,2.5,5.5,5.5,0,0,1,4.415.017Z" transform="translate(2.395 4.389)" fill="#040404"/>
        <path id="Trazado_194361" data-name="Trazado 194361" d="M0,1.381C-.012.544.435,0,1.121,0s1.118.551,1.14,1.466c.022.852-.4,1.384-1.1,1.4C.415,2.887.013,2.373,0,1.381Z" transform="translate(11.643 0.001)" fill="#040404"/>
        <path id="Trazado_194362" data-name="Trazado 194362" d="M2.258,1.48c.008.886-.379,1.376-1.094,1.386S.017,2.356,0,1.44C-.015.556.44-.014,1.151,0S2.249.542,2.258,1.48Z" transform="translate(0 0)" fill="#040404"/>
      </g>
      <path id="Trazado_194363" data-name="Trazado 194363" d="M1.842,79.329A2.323,2.323,0,0,1,1,77.433C.7,72.121.388,66.811.031,61.5A9.623,9.623,0,0,1,5.946,51.471c3.069-1.408,6.131-2.834,9.215-4.21A1.963,1.963,0,0,0,16.4,45.388a4.542,4.542,0,0,0-1.9-4.548A11.4,11.4,0,0,1,10.6,34.249c-.06-.243-.124-.484-.191-.751a3.514,3.514,0,0,1-3.681-2.624c-.518-1.862-.517-3.74,1.123-5.176.46-.4.226-.828.147-1.23A14.492,14.492,0,0,1,8.5,17.021a15.155,15.155,0,0,1,5.964-7.875,1.472,1.472,0,0,0,.722-1.19A8.657,8.657,0,0,1,26.735.544a8.39,8.39,0,0,1,5.721,7.4,1.424,1.424,0,0,0,.669,1.149,15.238,15.238,0,0,1,6.648,10.353,13.425,13.425,0,0,1-.147,5.254,1.02,1.02,0,0,0,.352,1.147,4.956,4.956,0,0,1-.056,6.69,2.363,2.363,0,0,1-1.527.809c-1.16-.051-1.25.692-1.5,1.52a13.164,13.164,0,0,1-4.963,7.078,1.309,1.309,0,0,0-.673,1.292,18.478,18.478,0,0,1,.01,2.183,1.76,1.76,0,0,0,1.185,1.82c3.08,1.384,6.146,2.8,9.216,4.21,4.267,1.96,6.251,5.391,5.936,10.088-.339,5.055-.61,10.117-.912,15.175-.019.336-.077.67-.069,1a1.682,1.682,0,0,1-.924,1.613h-.84a1.839,1.839,0,0,1-.78-1.644q.542-8.414,1.043-16.832a6.642,6.642,0,0,0-1.287-4.57c-1.006,1.208-1.919,2.377-2.908,3.477a8.622,8.622,0,0,0-2.23,6.132c.044,3.888,0,7.777.023,11.667a1.771,1.771,0,0,1-.919,1.769h-.841a2.17,2.17,0,0,1-.787-1.906q.031-5.879.005-11.759a10.777,10.777,0,0,1,2.644-7.316c1.074-1.253,2.115-2.535,3.251-3.9l-6.917-3.2c-2.187,5.016-5.947,7.833-11.333,7.831-5.412,0-9.168-2.866-11.333-7.831L5.588,54.448c1.158,1.39,2.212,2.659,3.272,3.924a10.2,10.2,0,0,1,2.585,6.655c.013,4.284,0,8.568.022,12.852a1.627,1.627,0,0,1-.885,1.451H9.74a2.139,2.139,0,0,1-.821-1.888c.025-3.946.013-7.893.01-11.84a8.623,8.623,0,0,0-.279-2.489c-.841-2.833-3.21-4.55-4.823-6.872a7.61,7.61,0,0,0-1.27,5.137c.348,5.389.652,10.782,1,16.17a1.666,1.666,0,0,1-.876,1.781ZM12.7,25.655a9.017,9.017,0,0,0,1.428-1.591,1.235,1.235,0,0,1,1.778-.279,1.263,1.263,0,0,1,.241,1.734,9.027,9.027,0,0,1-2.535,2.655,1.7,1.7,0,0,1-2.166-.147c-.49-.457-.971-.916-1.688-.6-.785.35-.756,1.095-.749,1.8,0,.14,0,.281.016.419a1.241,1.241,0,0,0,1.323,1.31,2.58,2.58,0,0,1,2.584,2.193A11.592,11.592,0,0,0,16.4,39.243a11.133,11.133,0,0,0,13.365,1.143,11.428,11.428,0,0,0,4.991-7.264,2.509,2.509,0,0,1,2.354-2.138c.634-.042,1.223-.134,1.41-.8a2.619,2.619,0,0,0-.19-2.409c-.523-.682-1.27-.461-1.935-.246a1.366,1.366,0,0,1-1.563-.2A3.762,3.762,0,0,0,31.3,26.128a5.216,5.216,0,0,1-.839-.02,25.31,25.31,0,0,1-12.616-3.493,15.048,15.048,0,0,1-3.6-3.126,1.194,1.194,0,0,1-.062-1.614,1.156,1.156,0,0,1,1.5-.357,2.659,2.659,0,0,1,.753.654,14,14,0,0,0,4.214,3.139,24.34,24.34,0,0,0,11.068,2.286c1.5-.008,2.866.035,4.022,1.186a.861.861,0,0,0,1.408-.58,11.487,11.487,0,0,0-.1-5.487A13.647,13.647,0,0,0,20.484,9.139c-6.817,1.707-11.13,7.935-10.075,14.536.108.674.212,1.263,1.084,1.382A4.26,4.26,0,0,1,12.7,25.655Zm6.23,18.174c-.037,1.44.12,2.841-.657,4.072-.787,1.247-2.175,1.655-3.375,2.277a9.428,9.428,0,0,0,17.906-.1c-3.249-.806-4.469-3.03-4-6.28C24.325,44.918,23.67,44.963,18.926,43.829ZM17.757,7.317a19.219,19.219,0,0,1,6-1.1A18.219,18.219,0,0,1,29.74,7.275,6.022,6.022,0,0,0,24.6,2.6,6.4,6.4,0,0,0,17.757,7.317Z" transform="translate(0 6.717)" fill="#040404"/>
      <path id="Trazado_194364" data-name="Trazado 194364" d="M43.137,22.795A22.857,22.857,0,0,1,24.93,45.148a22.332,22.332,0,0,1-16.391-2.8c-.85-.507-1.1-1.193-.7-1.872s1.1-.814,1.972-.3a19.969,19.969,0,0,0,11.707,2.862,19.505,19.505,0,0,0,14.746-7.752,19.7,19.7,0,0,0,1.015-23.494C32.855,5.065,26.392,1.954,18.345,2.675,11.334,3.3,6.115,6.92,2.576,12.985c-.239.41-.464.844-.98.971a1.19,1.19,0,0,1-1.291-.378,1.281,1.281,0,0,1-.082-1.557A22.061,22.061,0,0,1,2.851,8.138,22.822,22.822,0,0,1,43.137,22.795Z" transform="translate(34.5 0)" fill="#040404"/>
      <path id="Trazado_194365" data-name="Trazado 194365" d="M9.376,0a9.426,9.426,0,0,1,8.751,6.182,9.473,9.473,0,0,1-2.962,10.446,8.763,8.763,0,0,1-2.929,1.591,2.068,2.068,0,0,0-1.67,1.941,1.186,1.186,0,0,1-1.429,1.176c-.692-.09-1.065-.609-1.052-1.46a4.176,4.176,0,0,1,2.933-3.891,7.644,7.644,0,0,0,3.989-2.891A6.8,6.8,0,1,0,3.63,5.646a6.706,6.706,0,0,0-1.1,3.382,2.466,2.466,0,0,1-.032.333c-.148.853-.672,1.3-1.419,1.21C.384,10.49,0,9.971,0,9.127A9.343,9.343,0,0,1,9.376,0Z" transform="translate(45.501 10.773)" fill="#040404"/>
      <path id="Trazado_194366" data-name="Trazado 194366" d="M2.5,1.264A1.25,1.25,0,0,1,1.179,2.473,1.216,1.216,0,0,1,0,1.226,1.229,1.229,0,0,1,1.3,0,1.3,1.3,0,0,1,2.5,1.264Z" transform="translate(53.592 35.038)" fill="#040404"/>
    </g>
    <g id="Grupo_134726" data-name="Grupo 134726" transform="translate(979.034 2631.277) rotate(180)">
      <path id="Trazado_194337" data-name="Trazado 194337" d="M92.918,5.807c-.03,0-.077,0-.087-.015a1.377,1.377,0,0,0-1.753-.7c-.788.286-.892.955-.89,1.7q.02,6.927.006,13.854a6.572,6.572,0,0,1-6.872,6.995c-1.36.022-2.721,0-4.159,0a4.462,4.462,0,0,0-1.752-3.685,4.05,4.05,0,0,0-2.733-.759c-2.11.155-3.472,1.721-3.786,4.444H67.659a13.594,13.594,0,0,0,1.913-4.485,40.828,40.828,0,0,0,.245-7.583,1.285,1.285,0,0,0-1.394-1.257,1.309,1.309,0,0,0-1.289,1.354c-.027,1.69.015,3.381-.019,5.071a9.071,9.071,0,0,1-7.244,8.874,3.406,3.406,0,0,1-1.45,0c.84-.715,1.659-1.456,2.524-2.138a2.167,2.167,0,0,0,.911-1.947c-.047-.934-.011-1.872-.011-2.807,0-2.187-.091-2.3-2.263-2.606.294-1.038.547-2.079.888-3.089a1.9,1.9,0,0,0-.359-1.927c-1.305-1.7-2.561-3.436-3.858-5.141a1.887,1.887,0,0,1-.412-1.239c.021-2.264.009-4.528.009-6.792A2.694,2.694,0,0,0,55.73.86,1.268,1.268,0,0,0,54.292.017a1.221,1.221,0,0,0-1.133,1.111,7.185,7.185,0,0,0-.03.994q0,13.311,0,26.622v1a3.9,3.9,0,0,1-1.506.035,5.245,5.245,0,0,0-1.853-4.756,4.8,4.8,0,0,0-3.195-1.077c-2.809.076-4.207,1.746-4.9,5.847-.1.011-.219.032-.335.034-.3.005-.6,0-.882,0-.267-.325-.148-.67-.149-.985q-.011-13.131-.005-26.26c0-.241,0-.483,0-.724C40.294.612,39.863.012,38.961,0c-.93-.012-1.385.614-1.386,1.914,0,1.841-.079,3.687.025,5.522a4.73,4.73,0,0,1-1.167,3.535c-1.125,1.339-2.1,2.8-3.172,4.182a1.884,1.884,0,0,0-.32,1.86c.322,1.022.595,2.059.906,3.154-.408.028-.7.036-1,.07a1.271,1.271,0,0,0-1.251,1.3c-.042,1.508-.016,3.018-.014,4.527a1.579,1.579,0,0,0,.682,1.219c.919.775,1.829,1.559,2.867,2.444a6.812,6.812,0,0,1-2.9-.324A9.058,9.058,0,0,1,25.8,20.536C25.78,14.378,25.8,8.221,25.8,2.063,25.8.619,25.415.024,24.481,0c-.971-.023-1.41.623-1.41,2.078,0,5.886.029,11.772-.012,17.658A12.975,12.975,0,0,0,25.074,27.3a1.183,1.183,0,0,1,.078.293H22.435a4.181,4.181,0,0,0-4.276-4.394c-2.231.023-3.577,1.488-4.069,4.443a44.053,44.053,0,0,1-6.028-.131A6.477,6.477,0,0,1,2.731,21.1c-.026-4.769-.013-9.538,0-14.307,0-.744-.1-1.415-.888-1.7a1.375,1.375,0,0,0-1.754.7C.078,5.808.03,5.8,0,5.807V22.651c.362.366.31.879.458,1.319a9.372,9.372,0,0,0,9.234,6.39c1.449.017,2.9,0,4.392,0,.129.4.225.7-.264.975-3.985,2.258-5.062,3.547-6.5,7.713a6.479,6.479,0,0,0-2.742.08,4.962,4.962,0,0,0-2.8,7.379,1.776,1.776,0,0,1,.252,1.5A16.742,16.742,0,0,0,25.073,67.349c.194-.08.382-.177.575-.263.021-.009.051,0,.147.015a22.445,22.445,0,0,0,2.171,5.194c.323.544.665,1.078,1.025,1.6.656.949,1.394,1.185,2.114.7s.779-1.288.139-2.212a18.764,18.764,0,0,1-3.2-7.975,19.321,19.321,0,0,1,.467-7.787,7.71,7.71,0,0,0,2.548.323.673.673,0,0,1-.443.971,2.4,2.4,0,0,0-1.569,2.409c-.01.966-.018,1.931,0,2.9a1.362,1.362,0,1,0,2.715-.015c.018-.9,0-1.795,0-2.758,4.965.171,9.606,1.108,13.724,3.894,1.237.836,1.438.838,2.653.011,4.116-2.8,8.768-3.717,13.743-3.917,0,.954-.012,1.85,0,2.746a1.343,1.343,0,0,0,1.324,1.509c.845.017,1.376-.554,1.393-1.536q.023-1.4,0-2.807a2.4,2.4,0,0,0-1.8-2.514c-.54-.17-.549-.448-.492-.87.43-.022.854-.022,1.272-.071s.83-.149,1.323-.24a17.428,17.428,0,0,1,.524,7.214A18.644,18.644,0,0,1,49.874,80.144a18.215,18.215,0,0,1-13.953-3.093c-.174-.118-.337-.255-.513-.37a1.364,1.364,0,1,0-1.591,2.2,20.337,20.337,0,0,0,6.064,3.17,21.584,21.584,0,0,0,27.54-14.371c.053-.171.109-.342.184-.576a21.269,21.269,0,0,0,4.56,1.427,16.634,16.634,0,0,0,11.573-2.2c.885-.53,1.157-1.319.721-2.025s-1.231-.817-2.144-.289a13.966,13.966,0,0,1-13.276.707,1.124,1.124,0,0,1-.829-1.333,21.953,21.953,0,0,0-.584-7.272,1.816,1.816,0,0,1,.363-1.979,1.481,1.481,0,0,0,.4-.7c.176-.742.671-.919,1.343-.847.511,1.75,1.014,1.97,2.72,1.2A16.068,16.068,0,0,1,77.9,52.6c.919,1.421,1.039,1.441,2.682.87a20.715,20.715,0,0,1,5.8-.892c.67-.034,1.293-.12,1.591-.8a1.319,1.319,0,0,0-.453-1.688c-.369-.292-.187-.72-.273-1.131l1.379-.211a13.854,13.854,0,0,1-1.7,10.711c-.126.206-.268.4-.392.608a1.348,1.348,0,0,0,.306,1.982,1.331,1.331,0,0,0,1.948-.485,16.2,16.2,0,0,0,2.943-10.23,13.9,13.9,0,0,0-.246-2.064,4.712,4.712,0,0,1,.351-3.489,4.331,4.331,0,0,0-.621-4.92,4.932,4.932,0,0,0-5.163-1.8c-.283-.137-.226-.421-.292-.635a11.182,11.182,0,0,0-6.02-6.983c-.611-.3-.611-.3-.563-1.111,1.584,0,3.181.078,4.769-.015a9.117,9.117,0,0,0,8.815-7.658c.016-.07.1-.125.157-.186ZM46.823,61.947a23.864,23.864,0,0,0-6.271-2.892,40.148,40.148,0,0,0-6.762-1.273c.536-4.126.983-8.17,1.6-12.187a11.52,11.52,0,0,1,22.67.122c.415,2.771.732,5.557,1.085,8.337.158,1.244.294,2.49.445,3.78A27.66,27.66,0,0,0,46.823,61.947Zm-21.94-8.726a3,3,0,0,0,.4.7,2.493,2.493,0,0,1,.438,2.659,19.218,19.218,0,0,0-.511,6.821,1.027,1.027,0,0,1-.721,1.222c-5,2.256-9.859,2.01-14.333-1.183C5.649,60.225,3.818,55.687,4.4,50.2A3.11,3.11,0,0,1,4.75,48.74l1.329.231c-.226,1.07-.017,2.163-.805,3.09a1.244,1.244,0,0,0,.56,1.83,1.7,1.7,0,0,0,1.481-.1,16.4,16.4,0,0,1,5.692-1.2c.322,1.638,1.017,1.966,2.512,1.277A15.714,15.714,0,0,1,21.238,52.6C22.064,54.994,23.62,53.188,24.883,53.221Zm-16.2-2.79c.017-.285.017-.492.043-.7.41-3.2.767-6.4,1.248-9.588a8.407,8.407,0,0,1,16.536-.25c.316,1.685.458,3.4.711,5.1a1,1,0,0,1-.473,1.051A5.96,5.96,0,0,0,24.5,49.935c-.1.662-.593.89-1.117.473a2.864,2.864,0,0,0-2.123-.563,21.825,21.825,0,0,0-5.683,1.065,2.533,2.533,0,0,0-2.544-1.068A40.8,40.8,0,0,0,8.685,50.431ZM68.953,49.9a6.184,6.184,0,0,0-2.406-3.949,1.009,1.009,0,0,1-.452-1.131c.191-1.372.358-2.748.525-4.123a8.494,8.494,0,0,1,7.674-7.545,8.391,8.391,0,0,1,8.914,6.369,34.9,34.9,0,0,1,.549,3.751c.285,2.2.551,4.411.827,6.633-1.1.174-2.143.3-3.168.517a1.6,1.6,0,0,1-1.65-.249,1.915,1.915,0,0,0-1.463-.338,21.613,21.613,0,0,0-5.971,1.079C71.521,49.606,70.234,49.806,68.953,49.9Zm-9.891-9.343a14.7,14.7,0,0,0-6.235-5.73c-1.394-.687-1.4-.682-1.065-2.274,1.915,0,3.846,0,5.774,0a12.223,12.223,0,0,0,7.03-2,1.177,1.177,0,0,1,.561-.253c1.926-.019,3.851-.011,5.764-.011.056.845.057.847-.553,1.139a11.192,11.192,0,0,0-5.861,6.458c-.141.385-.247.783-.376,1.192A5.19,5.19,0,0,0,59.061,40.559ZM22.43,30.3c1.759,0,3.479,0,5.2-.006a.956.956,0,0,1,.593.162,13.059,13.059,0,0,0,8.169,2.1c1.771-.044,3.544-.008,5.306-.008.182,1.66.179,1.652-1.137,2.3-.459.224-.9.481-1.342.746a14.732,14.732,0,0,0-4.918,5.03,5.218,5.218,0,0,0-5.124-1.559,11.193,11.193,0,0,0-6.4-7.708C22.291,31.143,22.259,30.859,22.43,30.3Zm22.113,3.28c-.019-.233-.042-.378-.042-.523,0-1.412-.04-2.827.019-4.237a2.187,2.187,0,0,1,2.039-2.15,2.109,2.109,0,0,1,2.25,1.681,45.135,45.135,0,0,1,.085,5.234A22.635,22.635,0,0,0,44.542,33.584ZM31.52,54.061a2.446,2.446,0,0,1-1.212.148,3.4,3.4,0,0,1-2.219-5.718,3.34,3.34,0,0,1,3.562-.906c.466.129.69.313.6.88C31.975,50.307,31.765,52.162,31.52,54.061ZM61.9,54.1c-.21-1.694-.4-3.364-.627-5.029-.183-1.349.011-1.6,1.412-1.642a3.353,3.353,0,0,1,1.245.157,3.431,3.431,0,0,1,2.253,4.018C65.73,53.455,64.1,54.439,61.9,54.1ZM34.307,22.937c.363,0,.633,0,.9,0,1.574-.02,2.079-.681,1.653-2.173-.346-1.214-.708-2.424-1.052-3.639-.08-.28-.2-.559.028-.854.541-.7,1.058-1.411,1.681-2.247V28.168c-1.052-.884-2.009-1.7-2.977-2.5a.721.721,0,0,1-.24-.638C34.313,24.369,34.307,23.709,34.307,22.937Zm21.6,5.226V14.048c.531.7.935,1.291,1.393,1.833a1.265,1.265,0,0,1,.268,1.389c-.412,1.191-.736,2.412-1.073,3.628-.352,1.273.187,1.985,1.5,2.042a2.126,2.126,0,0,1,1.125.133c0,.478.018.987-.006,1.494-.018.372.137.776-.242,1.09C57.907,26.456,56.957,27.275,55.91,28.163Zm-38.99,2.25c0-1.123-.04-2.173.012-3.219a1.33,1.33,0,0,1,2.66.057c.03,1.045.007,2.09.007,3.162Zm56.776,0c0-1.1-.044-2.182.015-3.254a1.324,1.324,0,0,1,2.638-.048c.078,1.1.02,2.2.02,3.3ZM86.869,46.128c-.16-1.227-.285-2.426-.482-3.612-.113-.685.2-.844.784-.863a2.257,2.257,0,1,1-.3,4.474Zm-80.432,0a2.193,2.193,0,0,1-2.315-1,2.123,2.123,0,0,1-.033-2.392,2.159,2.159,0,0,1,2.147-1.074c.361.029.752.041.679.6C6.746,43.547,6.6,44.829,6.438,46.132Zm57.3-4.259-.376,2.835a8.159,8.159,0,0,0-2.567.285,2.257,2.257,0,0,1,2.943-3.12ZM29.935,44.7c-.111-.8-.2-1.577-.334-2.346-.085-.492.145-.646.577-.687a2.216,2.216,0,0,1,2.145.894,2.1,2.1,0,0,1,.17,2.4A8.618,8.618,0,0,0,29.935,44.7Z" transform="translate(0 0.001)" fill="#040404"/>
      <path id="Trazado_194338" data-name="Trazado 194338" d="M0,7.518q0,3.029,0,6.057a1.317,1.317,0,0,0,.925,1.394,1.287,1.287,0,0,0,1.407-.348,1.539,1.539,0,0,0,.39-1.167c0-3.948.009-7.9,0-11.844C2.72.612,2.194.02,1.386,0,.541-.019.014.586.007,1.642-.006,3.6,0,5.559,0,7.518Z" transform="translate(6.461 4.991)" fill="#040404"/>
      <path id="Trazado_194339" data-name="Trazado 194339" d="M2.731,7.488c0-1.959.009-3.918,0-5.876C2.72.6,2.22.018,1.407,0,.563-.017.013.594.01,1.639q-.019,5.877,0,11.754c0,1.236.831,1.924,1.821,1.568a1.393,1.393,0,0,0,.9-1.507C2.727,11.466,2.731,9.477,2.731,7.488Z" transform="translate(83.725 4.991)" fill="#040404"/>
      <path id="Trazado_194340" data-name="Trazado 194340" d="M2.728,6.717c0-1.717.008-3.433,0-5.149C2.717.588,2.194,0,1.369,0S.01.591.008,1.567q-.016,5.149,0,10.3c0,.977.536,1.564,1.363,1.564s1.349-.58,1.355-1.563C2.736,10.149,2.728,8.433,2.728,6.717Z" transform="translate(31.579 0)" fill="#040404"/>
      <path id="Trazado_194341" data-name="Trazado 194341" d="M0,6.805c0,1.686-.007,3.373,0,5.058.006.981.526,1.565,1.354,1.565s1.36-.582,1.364-1.562q.016-5.149,0-10.3C2.72.592,2.184,0,1.362,0S.012.588.006,1.566C0,3.312,0,5.059,0,6.805Z" transform="translate(58.609 0)" fill="#040404"/>
      <path id="Trazado_194342" data-name="Trazado 194342" d="M0,5.625c0,1.355-.009,2.71,0,4.064A1.381,1.381,0,0,0,1.3,11.228,1.385,1.385,0,0,0,2.721,9.7q.028-4.064,0-8.129C2.717.587,2.184,0,1.36,0S.016.573.006,1.561C-.006,2.915,0,4.271,0,5.625Z" transform="translate(67.12 0.001)" fill="#040404"/>
      <path id="Trazado_194343" data-name="Trazado 194343" d="M5.567,0A6.483,6.483,0,0,0,.411,2.555a1.348,1.348,0,0,0,.064,2,1.4,1.4,0,0,0,2-.248c2.016-2.163,4.253-2.162,6.3,0a1.391,1.391,0,0,0,2,.242,1.387,1.387,0,0,0,.052-2.012A6.638,6.638,0,0,0,5.567,0Z" transform="translate(41.085 43.027)" fill="#040404"/>
      <path id="Trazado_194344" data-name="Trazado 194344" d="M0,1.8C-.013,2.807.525,3.47,1.355,3.466S2.7,2.8,2.732,1.695C2.758.666,2.254.022,1.406,0,.5-.021.016.6,0,1.8Z" transform="translate(52.373 49.754)" fill="#040404"/>
      <path id="Trazado_194345" data-name="Trazado 194345" d="M2.727,1.676C2.736.6,2.27.013,1.406,0S.019.616,0,1.723C-.018,2.792.532,3.48,1.389,3.463S2.716,2.807,2.727,1.676Z" transform="translate(38.311 49.757)" fill="#040404"/>
      <path id="Trazado_194346" data-name="Trazado 194346" d="M4.6,0A5.3,5.3,0,0,0,.445,2a1.335,1.335,0,0,0,.02,2.012,1.353,1.353,0,0,0,2-.2C3.915,2.327,5.312,2.323,6.745,3.8A1.363,1.363,0,1,0,8.8,2.019,5.324,5.324,0,0,0,4.6,0Z" transform="translate(13.653 37.665)" fill="#040404"/>
      <path id="Trazado_194347" data-name="Trazado 194347" d="M0,1.672c-.016.979.476,1.576,1.315,1.6.892.024,1.419-.608,1.419-1.7A1.4,1.4,0,0,0,1.365,0C.525,0,.016.627,0,1.672Z" transform="translate(22.236 42.763)" fill="#040404"/>
      <path id="Trazado_194348" data-name="Trazado 194348" d="M0,1.677c-.006.995.472,1.575,1.312,1.593.891.02,1.426-.625,1.417-1.708A1.408,1.408,0,0,0,1.346,0C.515.005.006.638,0,1.677Z" transform="translate(11.584 42.763)" fill="#040404"/>
      <path id="Trazado_194349" data-name="Trazado 194349" d="M4.568,0A5.318,5.318,0,0,0,.418,2.028,1.339,1.339,0,0,0,.483,4.035a1.36,1.36,0,0,0,1.994-.243c1.428-1.468,2.828-1.459,4.284.027A1.362,1.362,0,1,0,8.772,2,5.327,5.327,0,0,0,4.568,0Z" transform="translate(70.426 37.664)" fill="#040404"/>
      <path id="Trazado_194350" data-name="Trazado 194350" d="M0,1.7c-.006.98.491,1.565,1.337,1.574.864.009,1.371-.585,1.395-1.634C2.754.646,2.189-.018,1.337,0,.507.018.007.652,0,1.7Z" transform="translate(68.341 42.763)" fill="#040404"/>
      <path id="Trazado_194351" data-name="Trazado 194351" d="M2.729,1.573C2.728.617,2.2,0,1.381,0,.546,0,.014.646,0,1.67c-.014,1,.546,1.628,1.419,1.6C2.274,3.245,2.732,2.653,2.729,1.573Z" transform="translate(78.985 42.763)" fill="#040404"/>
    </g>
    <rect id="Rectángulo_296814" data-name="Rectángulo 296814" width="213" height="51" rx="6" transform="translate(426.034 2212.973)" fill="#00defc"/>
    <rect id="Rectángulo_296816" data-name="Rectángulo 296816" width="213" height="51" rx="6" transform="translate(960.034 2212.973)" fill="#00defc"/>
    <rect id="Rectángulo_296817" data-name="Rectángulo 296817" width="301" height="51" rx="6" transform="translate(782.034 2791.973)" fill="#ffb30b"/>
    <rect id="Rectángulo_296818" data-name="Rectángulo 296818" width="189" height="51" rx="6" transform="translate(572.034 2791.973)" fill="#ffb30b"/>
    <rect id="Rectángulo_296815" data-name="Rectángulo 296815" width="229" height="51" rx="6" transform="translate(685.034 2212.973)" fill="#084a93"/>
    <g id="Grupo_134744" data-name="Grupo 134744">
      <path id="Trazado_194796" data-name="Trazado 194796" d="M21.451,26l-.738-3.094H15.7L14.9,26H9.428L15.217,9.2H21.5L26.947,26ZM18.264,12.852h-.117a8.163,8.163,0,0,1-.164.926q-.141.645-1.418,5.531h3.211L18.6,14.738A14.453,14.453,0,0,1,18.264,12.852Zm23.73,6.785a8.538,8.538,0,0,1-.668,3.48,5.4,5.4,0,0,1-1.887,2.344,4.752,4.752,0,0,1-2.742.832,3.674,3.674,0,0,1-3.2-1.535h-.047V31.52H28.459V14h4.992v1.629H33.5a4.228,4.228,0,0,1,1.547-1.412,4.485,4.485,0,0,1,2.156-.51,4.286,4.286,0,0,1,3.557,1.547A6.863,6.863,0,0,1,41.994,19.637Zm-5.062.152a3.128,3.128,0,0,0-.439-1.781,1.649,1.649,0,0,0-2.643.035,3.122,3.122,0,0,0-.492,1.863v.234a3.416,3.416,0,0,0,.422,1.816,1.392,1.392,0,0,0,1.266.68,1.577,1.577,0,0,0,1.395-.744A3.8,3.8,0,0,0,36.932,19.789Zm15.961-1.512a4.8,4.8,0,0,0-1.559-.34q-2.473,0-2.473,2.859V26H43.869V14h4.992v2.109h.047a3.747,3.747,0,0,1,1.3-1.729,3.342,3.342,0,0,1,1.969-.592,1.691,1.691,0,0,1,.715.141Zm14.789,1.512a6.249,6.249,0,0,1-1.834,4.77,7.167,7.167,0,0,1-5.127,1.734A7.2,7.2,0,0,1,55.629,24.6a6.061,6.061,0,0,1-1.822-4.67,6.256,6.256,0,0,1,.855-3.316A5.563,5.563,0,0,1,57.1,14.457a8.415,8.415,0,0,1,3.645-.75,8.151,8.151,0,0,1,3.7.785,5.715,5.715,0,0,1,2.4,2.18A5.935,5.935,0,0,1,67.682,19.789Zm-5.062.023q0-2.449-1.875-2.449T58.869,19.93q0,2.707,1.9,2.707Q62.619,22.637,62.619,19.813Zm20.461-.176a8.781,8.781,0,0,1-.65,3.486,5.3,5.3,0,0,1-1.846,2.344,4.648,4.648,0,0,1-2.707.826,4.273,4.273,0,0,1-1.986-.428,3.577,3.577,0,0,1-1.307-1.107h-.047V26H69.545V8.234h4.992v7.395h.047a4.111,4.111,0,0,1,1.588-1.406,4.756,4.756,0,0,1,2.209-.516,4.209,4.209,0,0,1,3.486,1.512A6.932,6.932,0,0,1,83.08,19.637Zm-5.062.152a2.978,2.978,0,0,0-.463-1.816,1.667,1.667,0,0,0-2.6.029,2.577,2.577,0,0,0-.51,1.658v.727a2.672,2.672,0,0,0,.457,1.641,1.459,1.459,0,0,0,1.23.609,1.577,1.577,0,0,0,1.395-.744A3.8,3.8,0,0,0,78.018,19.789ZM91.611,26V24.172h-.047a3.926,3.926,0,0,1-3.656,2.121,3.5,3.5,0,0,1-2.66-1.008,3.744,3.744,0,0,1-.961-2.7q0-3.539,4.348-4.1l2.977-.387a1.135,1.135,0,0,0-.527-.961,2.4,2.4,0,0,0-1.418-.375,9.34,9.34,0,0,0-4.254,1.148V14.668a11.38,11.38,0,0,1,2.438-.691,14.186,14.186,0,0,1,2.508-.27,6.3,6.3,0,0,1,4.436,1.307q1.377,1.307,1.377,4.365V26Zm-2.953-4.078a1.106,1.106,0,0,0,.311.809,1.184,1.184,0,0,0,.885.316,1.573,1.573,0,0,0,1.271-.586,2.27,2.27,0,0,0,.486-1.5V20.5l-1.687.234Q88.658,20.949,88.658,21.922Zm19.652,3.738a4.706,4.706,0,0,1-1.512.457,14.292,14.292,0,0,1-2.379.176,7.317,7.317,0,0,1-3.393-.768,5.6,5.6,0,0,1-2.314-2.15,5.971,5.971,0,0,1-.82-3.105,6.8,6.8,0,0,1,.873-3.533,5.691,5.691,0,0,1,2.49-2.25,8.543,8.543,0,0,1,3.75-.779,13.119,13.119,0,0,1,2.1.152,3.214,3.214,0,0,1,1.2.352V18.1a3.467,3.467,0,0,0-1.078-.516,4.331,4.331,0,0,0-1.3-.223,3.167,3.167,0,0,0-2.221.7,2.537,2.537,0,0,0-.756,1.963,2.49,2.49,0,0,0,.744,1.928,2.9,2.9,0,0,0,2.045.686,5.093,5.093,0,0,0,2.566-.668Zm7.277-14.895a2.144,2.144,0,0,1-.768,1.711,3,3,0,0,1-2.021.656,2.929,2.929,0,0,1-2-.68,2.15,2.15,0,0,1-.779-1.687,2.081,2.081,0,0,1,.756-1.67,3.518,3.518,0,0,1,4.043,0A2.068,2.068,0,0,1,115.588,10.766ZM110.3,26V14h4.992V26Zm20.742-6.211a6.249,6.249,0,0,1-1.834,4.77,8.473,8.473,0,0,1-10.219.041,6.061,6.061,0,0,1-1.822-4.67,6.256,6.256,0,0,1,.855-3.316,5.563,5.563,0,0,1,2.438-2.156,8.415,8.415,0,0,1,3.645-.75,8.151,8.151,0,0,1,3.7.785,5.715,5.715,0,0,1,2.4,2.18A5.935,5.935,0,0,1,131.045,19.789Zm-5.062.023q0-2.449-1.875-2.449t-1.875,2.566q0,2.707,1.9,2.707Q125.982,22.637,125.982,19.813ZM124.729,12.1H121.2l3.5-3.762h4.2ZM140.689,26V19.449a2.912,2.912,0,0,0-.334-1.6,1.22,1.22,0,0,0-1.084-.486,1.173,1.173,0,0,0-1.008.5,2.15,2.15,0,0,0-.363,1.289V26h-4.992V14H137.9v1.875h.047a4.237,4.237,0,0,1,1.605-1.6,4.386,4.386,0,0,1,2.191-.568q3.938,0,3.938,4.969V26Z" transform="translate(454.034 2223.973)" fill="#12263f"/>
      <path id="Trazado_194798" data-name="Trazado 194798" d="M38.1,26,36.85,22.379a4.5,4.5,0,0,0-.943-1.676,1.722,1.722,0,0,0-1.26-.609h-.2V26H29.385V9.2h6.727A9.327,9.327,0,0,1,41.32,10.35,3.921,3.921,0,0,1,43,13.813a4.381,4.381,0,0,1-.979,2.906,5.577,5.577,0,0,1-2.912,1.7v.047a4.069,4.069,0,0,1,1.775,1.066,6.6,6.6,0,0,1,1.271,2.191L43.811,26Zm-.48-11.473a1.76,1.76,0,0,0-.516-1.336A2.276,2.276,0,0,0,35.49,12.7H34.447v3.844h.914A2.321,2.321,0,0,0,37,15.969,1.88,1.88,0,0,0,37.623,14.527ZM49.6,21.418a1.686,1.686,0,0,0,.891,1.213,4.016,4.016,0,0,0,2.016.439,8.3,8.3,0,0,0,3.3-.668v3.164a11.877,11.877,0,0,1-4.406.727,6.952,6.952,0,0,1-4.887-1.605,5.7,5.7,0,0,1-1.746-4.418,7.289,7.289,0,0,1,.768-3.41,5.523,5.523,0,0,1,2.273-2.314,6.717,6.717,0,0,1,3.322-.838,6.537,6.537,0,0,1,3.188.727,4.84,4.84,0,0,1,2.01,2.039,6.542,6.542,0,0,1,.686,3.07v1.875Zm3-2.613q0-2.074-1.488-2.074a1.259,1.259,0,0,0-1.043.568,2.836,2.836,0,0,0-.492,1.506ZM67.482,26h-5.93L57.545,14h5.2l1.465,6.551A15.155,15.155,0,0,1,64.6,22.93h.07q.023-.234.064-.48T66.475,14h5.18ZM78.135,10.766a2.144,2.144,0,0,1-.768,1.711,3,3,0,0,1-2.021.656,2.929,2.929,0,0,1-2-.68,2.15,2.15,0,0,1-.779-1.687,2.081,2.081,0,0,1,.756-1.67,3.518,3.518,0,0,1,4.043,0A2.068,2.068,0,0,1,78.135,10.766ZM72.85,26V14h4.992V26Zm17.145-3.984a3.665,3.665,0,0,1-1.553,3.158,7.3,7.3,0,0,1-4.33,1.119,15.055,15.055,0,0,1-2-.164,12.343,12.343,0,0,1-1.939-.4v-3.5a9.55,9.55,0,0,0,3.7.984q1.465,0,1.465-.762a.6.6,0,0,0-.34-.521,12.012,12.012,0,0,0-1.781-.686,5.03,5.03,0,0,1-2.32-1.336,3.177,3.177,0,0,1-.727-2.168,3.459,3.459,0,0,1,1.482-2.947,6.955,6.955,0,0,1,4.166-1.084,13.242,13.242,0,0,1,3.328.457v3.363A10.065,10.065,0,0,0,87.533,17a6.532,6.532,0,0,0-1.477-.211,1.607,1.607,0,0,0-.785.164.5.5,0,0,0-.293.457.637.637,0,0,0,.316.551,5.6,5.6,0,0,0,1.266.5A5.873,5.873,0,0,1,89.2,19.848,3.03,3.03,0,0,1,89.994,22.016Zm7.125-11.25a2.144,2.144,0,0,1-.768,1.711,3,3,0,0,1-2.021.656,2.929,2.929,0,0,1-2-.68,2.15,2.15,0,0,1-.779-1.687,2.081,2.081,0,0,1,.756-1.67,3.518,3.518,0,0,1,4.043,0A2.068,2.068,0,0,1,97.119,10.766ZM91.834,26V14h4.992V26Zm20.742-6.211a6.249,6.249,0,0,1-1.834,4.77,8.473,8.473,0,0,1-10.219.041A6.061,6.061,0,0,1,98.7,19.93a6.256,6.256,0,0,1,.855-3.316,5.563,5.563,0,0,1,2.438-2.156,8.415,8.415,0,0,1,3.645-.75,8.151,8.151,0,0,1,3.7.785,5.715,5.715,0,0,1,2.4,2.18A5.935,5.935,0,0,1,112.576,19.789Zm-5.062.023q0-2.449-1.875-2.449t-1.875,2.566q0,2.707,1.9,2.707Q107.514,22.637,107.514,19.813ZM106.26,12.1h-3.527l3.5-3.762h4.2ZM122.221,26V19.449a2.912,2.912,0,0,0-.334-1.6,1.22,1.22,0,0,0-1.084-.486,1.173,1.173,0,0,0-1.008.5,2.15,2.15,0,0,0-.363,1.289V26h-4.992V14h4.992v1.875h.047a4.237,4.237,0,0,1,1.605-1.6,4.386,4.386,0,0,1,2.191-.568q3.938,0,3.938,4.969V26Z" transform="translate(988.034 2223.973)" fill="#12263f"/>
      <path id="Trazado_194799" data-name="Trazado 194799" d="M105.643,26l-1.254-3.621a4.5,4.5,0,0,0-.943-1.676,1.722,1.722,0,0,0-1.26-.609h-.2V26H96.924V9.2h6.727a9.327,9.327,0,0,1,5.209,1.154,3.921,3.921,0,0,1,1.682,3.463,4.381,4.381,0,0,1-.979,2.906,5.577,5.577,0,0,1-2.912,1.7v.047a4.069,4.069,0,0,1,1.775,1.066,6.6,6.6,0,0,1,1.271,2.191L111.35,26Zm-.48-11.473a1.76,1.76,0,0,0-.516-1.336,2.276,2.276,0,0,0-1.617-.492h-1.043v3.844h.914a2.321,2.321,0,0,0,1.641-.574A1.88,1.88,0,0,0,105.162,14.527Zm21.023,5.262a6.249,6.249,0,0,1-1.834,4.77,8.473,8.473,0,0,1-10.219.041,6.061,6.061,0,0,1-1.822-4.67,6.256,6.256,0,0,1,.855-3.316,5.563,5.563,0,0,1,2.438-2.156,8.415,8.415,0,0,1,3.645-.75,8.151,8.151,0,0,1,3.7.785,5.715,5.715,0,0,1,2.4,2.18A5.935,5.935,0,0,1,126.186,19.789Zm-5.062.023q0-2.449-1.875-2.449t-1.875,2.566q0,2.707,1.9,2.707Q121.123,22.637,121.123,19.813ZM128.049,26V8.234h4.992V26Zm11.7-4.582a1.686,1.686,0,0,0,.891,1.213,4.016,4.016,0,0,0,2.016.439,8.3,8.3,0,0,0,3.3-.668v3.164a11.877,11.877,0,0,1-4.406.727,6.952,6.952,0,0,1-4.887-1.605,5.7,5.7,0,0,1-1.746-4.418,7.289,7.289,0,0,1,.768-3.41,5.523,5.523,0,0,1,2.273-2.314,6.717,6.717,0,0,1,3.322-.838,6.537,6.537,0,0,1,3.188.727,4.84,4.84,0,0,1,2.01,2.039,6.542,6.542,0,0,1,.686,3.07v1.875Zm3-2.613q0-2.074-1.488-2.074a1.259,1.259,0,0,0-1.043.568,2.836,2.836,0,0,0-.492,1.506Zm15.891,3.211a3.665,3.665,0,0,1-1.553,3.158,7.3,7.3,0,0,1-4.33,1.119,15.055,15.055,0,0,1-2-.164,12.343,12.343,0,0,1-1.939-.4v-3.5a9.55,9.55,0,0,0,3.7.984q1.465,0,1.465-.762a.6.6,0,0,0-.34-.521,12.012,12.012,0,0,0-1.781-.686,5.03,5.03,0,0,1-2.32-1.336,3.177,3.177,0,0,1-.727-2.168,3.459,3.459,0,0,1,1.482-2.947,6.955,6.955,0,0,1,4.166-1.084,13.242,13.242,0,0,1,3.328.457v3.363A10.065,10.065,0,0,0,156.174,17a6.532,6.532,0,0,0-1.477-.211,1.607,1.607,0,0,0-.785.164.5.5,0,0,0-.293.457.637.637,0,0,0,.316.551,5.6,5.6,0,0,0,1.266.5,5.873,5.873,0,0,1,2.637,1.383A3.03,3.03,0,0,1,158.635,22.016Zm10.84,9.621a10.082,10.082,0,0,1-1.512-.123,7.335,7.335,0,0,1-1.441-.357V27.395a2.994,2.994,0,0,0,.873.41,3.567,3.567,0,0,0,1.1.188,1.8,1.8,0,0,0,1.852-1.1l.387-.937L165.713,14h5.52l1.453,5.789a14.373,14.373,0,0,1,.457,2.18h.047q.035-.258.1-.574T175.111,14h4.852l-4.418,12.34a9.164,9.164,0,0,1-2.467,4.066A5.427,5.427,0,0,1,169.475,31.637ZM53.682,48.277a4.8,4.8,0,0,0-1.559-.34q-2.473,0-2.473,2.859V56H44.658V44H49.65v2.109H49.7A3.747,3.747,0,0,1,51,44.381a3.342,3.342,0,0,1,1.969-.592,1.691,1.691,0,0,1,.715.141Zm5.742,3.141a1.686,1.686,0,0,0,.891,1.213,4.016,4.016,0,0,0,2.016.439,8.3,8.3,0,0,0,3.3-.668v3.164a11.877,11.877,0,0,1-4.406.727,6.952,6.952,0,0,1-4.887-1.605A5.7,5.7,0,0,1,54.6,50.27a7.289,7.289,0,0,1,.768-3.41,5.523,5.523,0,0,1,2.273-2.314,6.717,6.717,0,0,1,3.322-.838,6.537,6.537,0,0,1,3.188.727,4.84,4.84,0,0,1,2.01,2.039,6.542,6.542,0,0,1,.686,3.07v1.875Zm3-2.613q0-2.074-1.488-2.074a1.259,1.259,0,0,0-1.043.568A2.836,2.836,0,0,0,59.4,48.8Zm15.891,3.211a3.665,3.665,0,0,1-1.553,3.158,7.3,7.3,0,0,1-4.33,1.119,15.055,15.055,0,0,1-2-.164,12.343,12.343,0,0,1-1.939-.4v-3.5a9.55,9.55,0,0,0,3.7.984q1.465,0,1.465-.762a.6.6,0,0,0-.34-.521,12.012,12.012,0,0,0-1.781-.686,5.03,5.03,0,0,1-2.32-1.336,3.177,3.177,0,0,1-.727-2.168,3.459,3.459,0,0,1,1.482-2.947,6.955,6.955,0,0,1,4.166-1.084,13.242,13.242,0,0,1,3.328.457v3.363A10.065,10.065,0,0,0,75.854,47a6.532,6.532,0,0,0-1.477-.211,1.607,1.607,0,0,0-.785.164.5.5,0,0,0-.293.457.637.637,0,0,0,.316.551,5.6,5.6,0,0,0,1.266.5,5.873,5.873,0,0,1,2.637,1.383A3.03,3.03,0,0,1,78.314,52.016Zm15.375-2.379a8.538,8.538,0,0,1-.668,3.48,5.4,5.4,0,0,1-1.887,2.344,4.752,4.752,0,0,1-2.742.832,3.674,3.674,0,0,1-3.2-1.535h-.047V61.52H80.154V44h4.992v1.629h.047a4.228,4.228,0,0,1,1.547-1.412,4.485,4.485,0,0,1,2.156-.51,4.286,4.286,0,0,1,3.557,1.547A6.863,6.863,0,0,1,93.689,49.637Zm-5.062.152a3.128,3.128,0,0,0-.439-1.781,1.649,1.649,0,0,0-2.643.035,3.122,3.122,0,0,0-.492,1.863v.234a3.416,3.416,0,0,0,.422,1.816,1.392,1.392,0,0,0,1.266.68,1.577,1.577,0,0,0,1.395-.744A3.8,3.8,0,0,0,88.627,49.789Zm20.285,0a6.249,6.249,0,0,1-1.834,4.77,8.473,8.473,0,0,1-10.219.041,6.061,6.061,0,0,1-1.822-4.67,6.256,6.256,0,0,1,.855-3.316,5.563,5.563,0,0,1,2.438-2.156,8.415,8.415,0,0,1,3.645-.75,8.151,8.151,0,0,1,3.7.785,5.715,5.715,0,0,1,2.4,2.18A5.935,5.935,0,0,1,108.912,49.789Zm-5.062.023q0-2.449-1.875-2.449T100.1,49.93q0,2.707,1.9,2.707Q103.85,52.637,103.85,49.813ZM118.557,56V49.449a2.912,2.912,0,0,0-.334-1.6,1.22,1.22,0,0,0-1.084-.486,1.173,1.173,0,0,0-1.008.5,2.15,2.15,0,0,0-.363,1.289V56h-4.992V44h4.992v1.875h.047a4.236,4.236,0,0,1,1.605-1.6,4.386,4.386,0,0,1,2.191-.568q3.938,0,3.938,4.969V56Zm16.992-3.984A3.665,3.665,0,0,1,134,55.174a7.3,7.3,0,0,1-4.33,1.119,15.055,15.055,0,0,1-2-.164,12.343,12.343,0,0,1-1.939-.4v-3.5a9.55,9.55,0,0,0,3.7.984q1.465,0,1.465-.762a.6.6,0,0,0-.34-.521,12.012,12.012,0,0,0-1.781-.686,5.03,5.03,0,0,1-2.32-1.336,3.177,3.177,0,0,1-.727-2.168,3.459,3.459,0,0,1,1.482-2.947,6.955,6.955,0,0,1,4.166-1.084,13.242,13.242,0,0,1,3.328.457v3.363A10.065,10.065,0,0,0,133.088,47a6.532,6.532,0,0,0-1.477-.211,1.607,1.607,0,0,0-.785.164.5.5,0,0,0-.293.457.637.637,0,0,0,.316.551,5.6,5.6,0,0,0,1.266.5,5.873,5.873,0,0,1,2.637,1.383A3.03,3.03,0,0,1,135.549,52.016Zm8.5,3.984V54.172H144a3.926,3.926,0,0,1-3.656,2.121,3.5,3.5,0,0,1-2.66-1.008,3.744,3.744,0,0,1-.961-2.7q0-3.539,4.348-4.1l2.977-.387a1.135,1.135,0,0,0-.527-.961,2.4,2.4,0,0,0-1.418-.375,9.34,9.34,0,0,0-4.254,1.148V44.668a11.38,11.38,0,0,1,2.438-.691,14.186,14.186,0,0,1,2.508-.27,6.3,6.3,0,0,1,4.436,1.307q1.377,1.307,1.377,4.365V56Zm-2.953-4.078a1.106,1.106,0,0,0,.311.809,1.184,1.184,0,0,0,.885.316,1.573,1.573,0,0,0,1.271-.586,2.27,2.27,0,0,0,.486-1.5V50.5l-1.687.234Q141.092,50.949,141.092,51.922Zm23.3-2.285a8.781,8.781,0,0,1-.65,3.486,5.3,5.3,0,0,1-1.846,2.344,4.648,4.648,0,0,1-2.707.826,4.273,4.273,0,0,1-1.986-.428,3.577,3.577,0,0,1-1.307-1.107h-.047V56h-4.992V38.234h4.992v7.395h.047a4.111,4.111,0,0,1,1.588-1.406,4.756,4.756,0,0,1,2.209-.516,4.209,4.209,0,0,1,3.486,1.512A6.932,6.932,0,0,1,164.389,49.637Zm-5.062.152a2.978,2.978,0,0,0-.463-1.816,1.667,1.667,0,0,0-2.6.029,2.577,2.577,0,0,0-.51,1.658v.727a2.672,2.672,0,0,0,.457,1.641,1.459,1.459,0,0,0,1.23.609,1.577,1.577,0,0,0,1.395-.744A3.8,3.8,0,0,0,159.326,49.789Zm12.223-9.023a2.144,2.144,0,0,1-.768,1.711,3,3,0,0,1-2.021.656,2.929,2.929,0,0,1-2-.68,2.15,2.15,0,0,1-.779-1.687,2.081,2.081,0,0,1,.756-1.67,3.518,3.518,0,0,1,4.043,0A2.068,2.068,0,0,1,171.549,40.766ZM166.264,56V44h4.992V56Zm7.395,0V38.234h4.992V56Zm12.68-15.234a2.144,2.144,0,0,1-.768,1.711,3,3,0,0,1-2.021.656,2.929,2.929,0,0,1-2-.68,2.15,2.15,0,0,1-.779-1.687,2.081,2.081,0,0,1,.756-1.67,3.518,3.518,0,0,1,4.043,0A2.068,2.068,0,0,1,186.338,40.766ZM181.053,56V44h4.992V56Zm15.41,0V54.605h-.047a4.119,4.119,0,0,1-1.559,1.236,4.441,4.441,0,0,1-1.9.451,4.883,4.883,0,0,1-2.707-.756,4.59,4.59,0,0,1-1.752-2.115,8.141,8.141,0,0,1-.58-3.211,7.9,7.9,0,0,1,.691-3.387,5.412,5.412,0,0,1,1.945-2.3,5.025,5.025,0,0,1,2.813-.82,4.257,4.257,0,0,1,1.365.211,3.694,3.694,0,0,1,1.09.568,1.7,1.7,0,0,1,.592.709h.047V38.234h4.992V56Zm.105-6.363a2.633,2.633,0,0,0-.475-1.676,1.6,1.6,0,0,0-2.6.146,3.457,3.457,0,0,0-.51,1.986q0,2.543,1.758,2.543a1.564,1.564,0,0,0,1.33-.686,3.374,3.374,0,0,0,.5-2ZM210.514,56V54.172h-.047a3.926,3.926,0,0,1-3.656,2.121,3.5,3.5,0,0,1-2.66-1.008,3.744,3.744,0,0,1-.961-2.7q0-3.539,4.348-4.1l2.977-.387a1.135,1.135,0,0,0-.527-.961,2.4,2.4,0,0,0-1.418-.375,9.34,9.34,0,0,0-4.254,1.148V44.668a11.38,11.38,0,0,1,2.438-.691,14.186,14.186,0,0,1,2.508-.27,6.3,6.3,0,0,1,4.436,1.307q1.377,1.307,1.377,4.365V56Zm-2.953-4.078a1.106,1.106,0,0,0,.311.809,1.184,1.184,0,0,0,.885.316,1.573,1.573,0,0,0,1.271-.586,2.27,2.27,0,0,0,.486-1.5V50.5l-1.687.234Q207.561,50.949,207.561,51.922ZM225.338,56V54.605h-.047a4.119,4.119,0,0,1-1.559,1.236,4.441,4.441,0,0,1-1.9.451,4.883,4.883,0,0,1-2.707-.756,4.59,4.59,0,0,1-1.752-2.115,8.141,8.141,0,0,1-.58-3.211,7.9,7.9,0,0,1,.691-3.387,5.412,5.412,0,0,1,1.945-2.3,5.025,5.025,0,0,1,2.813-.82,4.257,4.257,0,0,1,1.365.211,3.694,3.694,0,0,1,1.09.568,1.7,1.7,0,0,1,.592.709h.047V38.234h4.992V56Zm.105-6.363a2.633,2.633,0,0,0-.475-1.676,1.6,1.6,0,0,0-2.6.146,3.457,3.457,0,0,0-.51,1.986q0,2.543,1.758,2.543a1.564,1.564,0,0,0,1.33-.686,3.374,3.374,0,0,0,.5-2Z" transform="translate(790.034 2781.973)" fill="#12263f"/>
      <path id="Trazado_194800" data-name="Trazado 194800" d="M14.361,18.828q0,7.465-7.254,7.465A8.514,8.514,0,0,1,5.7,26.152a11.3,11.3,0,0,1-1.664-.422V21.055a5.5,5.5,0,0,0,1.33.662,3.894,3.894,0,0,0,1.213.252,2.453,2.453,0,0,0,2.033-.838,4.111,4.111,0,0,0,.674-2.6V9.2h5.074ZM24.662,26V24.148h-.047A6.568,6.568,0,0,1,23.5,25.4a4.306,4.306,0,0,1-1.125.645,3.978,3.978,0,0,1-1.459.246,3.63,3.63,0,0,1-3-1.277,5.9,5.9,0,0,1-1.031-3.773V14h4.992v6.867q0,1.77,1.324,1.77a1.3,1.3,0,0,0,1.1-.48,2.19,2.19,0,0,0,.369-1.359V14h4.992V26Zm17.133-3.984a3.665,3.665,0,0,1-1.553,3.158,7.3,7.3,0,0,1-4.33,1.119,15.055,15.055,0,0,1-2-.164,12.343,12.343,0,0,1-1.939-.4v-3.5a9.55,9.55,0,0,0,3.7.984q1.465,0,1.465-.762a.6.6,0,0,0-.34-.521,12.012,12.012,0,0,0-1.781-.686,5.03,5.03,0,0,1-2.32-1.336,3.177,3.177,0,0,1-.727-2.168,3.459,3.459,0,0,1,1.482-2.947,6.955,6.955,0,0,1,4.166-1.084,13.242,13.242,0,0,1,3.328.457v3.363A10.065,10.065,0,0,0,39.334,17a6.532,6.532,0,0,0-1.477-.211,1.607,1.607,0,0,0-.785.164.5.5,0,0,0-.293.457.637.637,0,0,0,.316.551,5.6,5.6,0,0,0,1.266.5A5.873,5.873,0,0,1,41,19.848,3.03,3.03,0,0,1,41.795,22.016Zm10.289,3.82a4.864,4.864,0,0,1-1.113.311,10.178,10.178,0,0,1-1.863.146,4.476,4.476,0,0,1-3.264-1.148,4.359,4.359,0,0,1-1.178-3.27V17.457H42.779V14h1.887V11.645l4.922-1.359V14h2.5v3.457h-2.5v3.6q0,1.582,1.254,1.582a3.4,3.4,0,0,0,1.242-.258Zm6.844-15.07a2.144,2.144,0,0,1-.768,1.711,3,3,0,0,1-2.021.656,2.929,2.929,0,0,1-2-.68,2.15,2.15,0,0,1-.779-1.687,2.081,2.081,0,0,1,.756-1.67,3.518,3.518,0,0,1,4.043,0A2.068,2.068,0,0,1,58.928,10.766ZM53.643,26V14h4.992V26ZM70.283,11.867a4.4,4.4,0,0,0-1.441-.27,1.606,1.606,0,0,0-1.23.428,1.626,1.626,0,0,0-.4,1.154V14H69.99v3.457H67.213V26H62.221V17.457H60.205V14h2.016V12.9a4.878,4.878,0,0,1,.68-2.584,4.533,4.533,0,0,1,1.975-1.74,7.231,7.231,0,0,1,3.146-.621,8.541,8.541,0,0,1,2.262.258Zm6.387-1.1a2.144,2.144,0,0,1-.768,1.711,3,3,0,0,1-2.021.656,2.929,2.929,0,0,1-2-.68,2.15,2.15,0,0,1-.779-1.687,2.081,2.081,0,0,1,.756-1.67,3.518,3.518,0,0,1,4.043,0A2.068,2.068,0,0,1,76.67,10.766ZM71.385,26V14h4.992V26Zm17.285-.34a4.706,4.706,0,0,1-1.512.457,14.292,14.292,0,0,1-2.379.176,7.317,7.317,0,0,1-3.393-.768,5.6,5.6,0,0,1-2.314-2.15,5.971,5.971,0,0,1-.82-3.105,6.8,6.8,0,0,1,.873-3.533,5.691,5.691,0,0,1,2.49-2.25,8.543,8.543,0,0,1,3.75-.779,13.119,13.119,0,0,1,2.1.152,3.214,3.214,0,0,1,1.2.352V18.1a3.467,3.467,0,0,0-1.078-.516,4.331,4.331,0,0,0-1.3-.223,3.167,3.167,0,0,0-2.221.7,2.537,2.537,0,0,0-.756,1.963,2.49,2.49,0,0,0,.744,1.928,2.9,2.9,0,0,0,2.045.686,5.093,5.093,0,0,0,2.566-.668Zm8.648.34V24.172h-.047a3.926,3.926,0,0,1-3.656,2.121,3.5,3.5,0,0,1-2.66-1.008,3.744,3.744,0,0,1-.961-2.7q0-3.539,4.348-4.1l2.977-.387a1.135,1.135,0,0,0-.527-.961,2.4,2.4,0,0,0-1.418-.375,9.34,9.34,0,0,0-4.254,1.148V14.668a11.38,11.38,0,0,1,2.438-.691,14.186,14.186,0,0,1,2.508-.27,6.3,6.3,0,0,1,4.436,1.307q1.377,1.307,1.377,4.365V26Zm-2.953-4.078a1.106,1.106,0,0,0,.311.809,1.184,1.184,0,0,0,.885.316,1.573,1.573,0,0,0,1.271-.586,2.27,2.27,0,0,0,.486-1.5V20.5l-1.687.234Q94.365,20.949,94.365,21.922Zm19.652,3.738a4.706,4.706,0,0,1-1.512.457,14.292,14.292,0,0,1-2.379.176,7.317,7.317,0,0,1-3.393-.768,5.6,5.6,0,0,1-2.314-2.15,5.971,5.971,0,0,1-.82-3.105,6.8,6.8,0,0,1,.873-3.533,5.691,5.691,0,0,1,2.49-2.25,8.543,8.543,0,0,1,3.75-.779,13.119,13.119,0,0,1,2.1.152,3.214,3.214,0,0,1,1.2.352V18.1a3.467,3.467,0,0,0-1.078-.516,4.331,4.331,0,0,0-1.3-.223,3.167,3.167,0,0,0-2.221.7,2.537,2.537,0,0,0-.756,1.963,2.49,2.49,0,0,0,.744,1.928,2.9,2.9,0,0,0,2.045.686,5.093,5.093,0,0,0,2.566-.668Zm7.277-14.895a2.144,2.144,0,0,1-.768,1.711,3,3,0,0,1-2.021.656,2.929,2.929,0,0,1-2-.68,2.15,2.15,0,0,1-.779-1.687,2.081,2.081,0,0,1,.756-1.67,3.518,3.518,0,0,1,4.043,0A2.068,2.068,0,0,1,121.295,10.766ZM116.01,26V14H121V26Zm20.742-6.211a6.249,6.249,0,0,1-1.834,4.77A8.473,8.473,0,0,1,124.7,24.6a6.061,6.061,0,0,1-1.822-4.67,6.256,6.256,0,0,1,.855-3.316,5.563,5.563,0,0,1,2.438-2.156,8.415,8.415,0,0,1,3.645-.75,8.151,8.151,0,0,1,3.7.785,5.715,5.715,0,0,1,2.4,2.18A5.935,5.935,0,0,1,136.752,19.789Zm-5.062.023q0-2.449-1.875-2.449t-1.875,2.566q0,2.707,1.9,2.707Q131.689,22.637,131.689,19.813ZM130.436,12.1h-3.527l3.5-3.762h4.2ZM146.4,26V19.449a2.912,2.912,0,0,0-.334-1.6,1.22,1.22,0,0,0-1.084-.486,1.173,1.173,0,0,0-1.008.5,2.15,2.15,0,0,0-.363,1.289V26h-4.992V14h4.992v1.875h.047a4.237,4.237,0,0,1,1.605-1.6,4.386,4.386,0,0,1,2.191-.568q3.938,0,3.938,4.969V26Z" transform="translate(588.034 2802.973)" fill="#12263f"/>
      <path id="Trazado_194797" data-name="Trazado 194797" d="M53.143,26,52.4,22.906H47.389L46.592,26H41.119L46.908,9.2h6.281L58.639,26ZM49.955,12.852h-.117a8.163,8.163,0,0,1-.164.926q-.141.645-1.418,5.531h3.211l-1.172-4.57A14.453,14.453,0,0,1,49.955,12.852ZM60.15,26V8.234h4.992V26Zm17.285-.34a4.706,4.706,0,0,1-1.512.457,14.292,14.292,0,0,1-2.379.176,7.317,7.317,0,0,1-3.393-.768,5.6,5.6,0,0,1-2.314-2.15,5.971,5.971,0,0,1-.82-3.105,6.8,6.8,0,0,1,.873-3.533,5.691,5.691,0,0,1,2.49-2.25,8.543,8.543,0,0,1,3.75-.779,13.119,13.119,0,0,1,2.1.152,3.214,3.214,0,0,1,1.2.352V18.1a3.467,3.467,0,0,0-1.078-.516,4.331,4.331,0,0,0-1.3-.223,3.167,3.167,0,0,0-2.221.7,2.537,2.537,0,0,0-.756,1.963,2.49,2.49,0,0,0,.744,1.928,2.9,2.9,0,0,0,2.045.686,5.093,5.093,0,0,0,2.566-.668Zm8.648.34V24.172h-.047a3.926,3.926,0,0,1-3.656,2.121,3.5,3.5,0,0,1-2.66-1.008,3.744,3.744,0,0,1-.961-2.7q0-3.539,4.348-4.1l2.977-.387a1.135,1.135,0,0,0-.527-.961,2.4,2.4,0,0,0-1.418-.375,9.34,9.34,0,0,0-4.254,1.148V14.668a11.38,11.38,0,0,1,2.438-.691,14.186,14.186,0,0,1,2.508-.27,6.3,6.3,0,0,1,4.436,1.307q1.377,1.307,1.377,4.365V26Zm-2.953-4.078a1.106,1.106,0,0,0,.311.809,1.184,1.184,0,0,0,.885.316,1.573,1.573,0,0,0,1.271-.586,2.27,2.27,0,0,0,.486-1.5V20.5l-1.687.234Q83.131,20.949,83.131,21.922ZM100.674,26V19.449a2.912,2.912,0,0,0-.334-1.6,1.22,1.22,0,0,0-1.084-.486,1.173,1.173,0,0,0-1.008.5,2.15,2.15,0,0,0-.363,1.289V26H92.893V14h4.992v1.875h.047a4.237,4.237,0,0,1,1.605-1.6,4.386,4.386,0,0,1,2.191-.568q3.938,0,3.938,4.969V26Zm17.133-.34a4.706,4.706,0,0,1-1.512.457,14.292,14.292,0,0,1-2.379.176,7.317,7.317,0,0,1-3.393-.768,5.6,5.6,0,0,1-2.314-2.15,5.971,5.971,0,0,1-.82-3.105,6.8,6.8,0,0,1,.873-3.533,5.691,5.691,0,0,1,2.49-2.25,8.543,8.543,0,0,1,3.75-.779,13.119,13.119,0,0,1,2.1.152,3.214,3.214,0,0,1,1.2.352V18.1a3.467,3.467,0,0,0-1.078-.516,4.331,4.331,0,0,0-1.3-.223,3.167,3.167,0,0,0-2.221.7,2.537,2.537,0,0,0-.756,1.963,2.49,2.49,0,0,0,.744,1.928,2.9,2.9,0,0,0,2.045.686,5.093,5.093,0,0,0,2.566-.668Zm6.293-4.242a1.686,1.686,0,0,0,.891,1.213,4.016,4.016,0,0,0,2.016.439,8.3,8.3,0,0,0,3.3-.668v3.164a11.877,11.877,0,0,1-4.406.727,6.952,6.952,0,0,1-4.887-1.605,5.7,5.7,0,0,1-1.746-4.418,7.289,7.289,0,0,1,.768-3.41,5.523,5.523,0,0,1,2.273-2.314,6.717,6.717,0,0,1,3.322-.838,6.537,6.537,0,0,1,3.188.727,4.84,4.84,0,0,1,2.01,2.039,6.542,6.542,0,0,1,.686,3.07v1.875Zm3-2.613q0-2.074-1.488-2.074a1.259,1.259,0,0,0-1.043.568,2.836,2.836,0,0,0-.492,1.506Z" transform="translate(713.034 2223.973)" fill="#fff"/>
    </g>
  </g>
</svg>
