<svg xmlns="http://www.w3.org/2000/svg" width="84.324" height="84.289" viewBox="0 0 84.324 84.289">
  <g id="Grupo_133111" data-name="Grupo 133111" transform="translate(-3253.998 10118.145)">
    <path id="Trazado_194458" data-name="Trazado 194458" d="M387.19,122.859V59.478a6.851,6.851,0,0,1,1.212-2.155,8.6,8.6,0,0,1,2.08-1.3h77.539c2.756.961,3.493,2.747,3.486,5.375q-.077,30.033.006,60.066a4.683,4.683,0,0,1-4.871,4.861c-7.6-.067-15.195-.022-22.792-.021-.283,0-.567.024-.937.04.866,1.73,1.7,3.349,2.483,4.993a.861.861,0,0,0,.942.548c1.4-.024,2.8-.041,4.2.006a4.21,4.21,0,0,1-.164,8.419q-21.023.006-42.047,0a4.209,4.209,0,0,1-.977-.083,4.281,4.281,0,0,1-3.331-4.389,4.226,4.226,0,0,1,4.171-3.95c1.425-.04,2.852-.007,4.279-.014.23,0,.483.084.635-.223.866-1.749,1.745-3.491,2.676-5.347h-1.008q-11.479,0-22.957,0a4.719,4.719,0,0,1-3.236-1.177A6.093,6.093,0,0,1,387.19,122.859Zm68.817-7.911c0-2.272.07-4.517-.023-6.755a3.563,3.563,0,0,1,2.073-3.654c1.46-.773,2.842-1.693,4.3-2.577-.93-1.236-1.807-2.389-2.669-3.554a2.539,2.539,0,0,1-.6-2.448c.858-2.3,1.768-4.573,2.685-6.846a1.282,1.282,0,0,1,1.257-.78,1.348,1.348,0,0,1,1.255.789,1.668,1.668,0,0,1-.039,1.424c-.708,1.742-1.377,3.5-2.107,5.234a1.186,1.186,0,0,0,.166,1.4c.735.884,1.4,1.826,2.09,2.746,1.365,1.822,1.041,3.507-.9,4.682-1.38.834-2.767,1.657-4.144,2.495-.241.147-.527.238-.524.645.019,2.38.009,4.761.009,7.169h9.826v-.461q0-26.832,0-53.664c0-1.391-.6-1.963-2.022-1.963q-30.166,0-60.332,0a1.459,1.459,0,0,0-.848.1c0,2.336-.045,4.691.017,7.044a3.277,3.277,0,0,1-1.839,3.206c-1.517.856-2.993,1.785-4.523,2.7.9,1.2,1.737,2.349,2.608,3.473a3,3,0,0,1,.461,3.223c-.8,1.94-1.556,3.9-2.341,5.849a1.487,1.487,0,0,1-2.007,1.019c-.766-.328-1.013-1.125-.628-2.1.691-1.749,1.371-3.5,2.1-5.235a1.244,1.244,0,0,0-.173-1.475c-.769-.926-1.466-1.913-2.186-2.879a2.816,2.816,0,0,1,.847-4.407c1.425-.867,2.847-1.739,4.291-2.574a.96.96,0,0,0,.559-.967c-.027-2.14-.01-4.28-.014-6.42,0-.183.066-.389-.155-.562H392.069c-1.527,0-2.067.543-2.068,2.083q0,26.668,0,53.335c0,.235-.093.495.1.7Zm12.657,2.987H390c0,1.1,0,2.134,0,3.173,0,1.906.4,2.3,2.312,2.3h74.05c.219,0,.439.007.658,0a1.517,1.517,0,0,0,1.631-1.573C468.694,120.553,468.664,119.267,468.664,117.935Zm-52.446,13.887h26.233c-.9-1.808-1.756-3.536-2.611-5.265-.138-.279-.38-.257-.63-.257q-9.873,0-19.745,0c-.247,0-.5-.029-.634.251C417.975,128.281,417.117,130.011,416.218,131.822Zm13.1,2.887H413.859c-1.837,0-3.674-.011-5.511.005a1.318,1.318,0,0,0-1.431,1.266,1.36,1.36,0,0,0,1.289,1.5,3.608,3.608,0,0,0,.493.015h41.292a2.384,2.384,0,0,0,.809-.1,1.378,1.378,0,0,0-.257-2.678,4.285,4.285,0,0,0-.739-.011Z" transform="translate(2866.808 -10174.166)" fill="#0b0a0c"/>
    <path id="Trazado_194459" data-name="Trazado 194459" d="M390.483,56.021a8.6,8.6,0,0,0-2.08,1.3,6.851,6.851,0,0,0-1.212,2.155V56.021Z" transform="translate(2866.808 -10174.166)" fill="#fefefe"/>
    <path id="Trazado_194460" data-name="Trazado 194460" d="M495.167,172.376a37.006,37.006,0,0,1-.186,4.445,7.031,7.031,0,0,1-13.849-.523,43.446,43.446,0,0,1-.1-4.519c-.022-1.093,0-2.187,0-3.323a18.633,18.633,0,0,0-4.114-.012,27.466,27.466,0,0,0-12.294,3.622,15.467,15.467,0,0,0-3.419,2.674,1.442,1.442,0,1,1-2.086-1.946,21.319,21.319,0,0,1,8.468-5.312,35.762,35.762,0,0,1,14.863-1.894,30.9,30.9,0,0,1,12.777,3.464,19.067,19.067,0,0,1,5.091,3.834,1.405,1.405,0,0,1,.257,1.736,1.362,1.362,0,0,1-1.528.7,1.705,1.705,0,0,1-.946-.612A13.068,13.068,0,0,0,495.167,172.376Zm-11.238-3.8c0,2.361-.02,4.631.006,6.9a4.161,4.161,0,0,0,8.272.5,44.733,44.733,0,0,0,.095-4.843.4.4,0,0,0-.282-.436,14.31,14.31,0,0,0-2.486-.872c0,1.278,0,2.509,0,3.74,0,1.143-.538,1.786-1.462,1.774-.9-.012-1.4-.608-1.407-1.744-.014-1.315-.019-2.631,0-3.946.008-.462-.1-.7-.615-.748C485.377,168.845,484.707,168.7,483.929,168.576Z" transform="translate(2816.475 -10251.342)" fill="#0b0a0c"/>
    <path id="Trazado_194461" data-name="Trazado 194461" d="M470.929,118.779c1.036,1.02,2.038,1.995,3.025,2.985.78.783.836,1.6.183,2.229a1.429,1.429,0,0,1-2.171-.188c-.994-.981-1.967-1.984-3.013-3.043-1.015,1.025-1.985,2.015-2.966,2.993-.806.8-1.572.888-2.23.265-.673-.637-.6-1.46.227-2.288.968-.968,1.951-1.921,2.985-2.938-1.077-1.072-2.113-2.08-3.122-3.114a1.43,1.43,0,1,1,2.03-2c1.019,1,2.015,2.016,3.1,3.1,1.03-1.046,2.042-2.078,3.06-3.105a1.429,1.429,0,1,1,2.026,2C473.047,116.717,472,117.721,470.929,118.779Z" transform="translate(2813.145 -10214.443)" fill="#0b0a0c"/>
    <path id="Trazado_194462" data-name="Trazado 194462" d="M566.189,118.774c1.049,1.032,2.032,1.986,3,2.956.773.777.845,1.612.222,2.236-.645.646-1.432.579-2.226-.21-.972-.966-1.933-1.942-2.967-2.982-1.033,1.036-2.043,2.061-3.067,3.072a1.42,1.42,0,0,1-1.62.47,1.39,1.39,0,0,1-.479-2.39c1.028-1.062,2.1-2.083,3.184-3.156-1.041-1.028-2.042-2-3.028-2.993-.781-.785-.838-1.59-.183-2.225a1.431,1.431,0,0,1,2.17.187c.992.983,1.961,1.989,2.992,3.038,1.029-1.031,2-2.017,2.989-2.993.79-.782,1.586-.854,2.228-.218s.562,1.46-.208,2.236C568.229,116.773,567.247,117.729,566.189,118.774Z" transform="translate(2745.981 -10214.435)" fill="#0b0a0c"/>
  </g>
</svg>
